<?xml version="1.0" encoding="utf-8" standalone="no"?>
<!DOCTYPE svg PUBLIC "-//W3C//DTD SVG 1.1//EN"
  "http://www.w3.org/Graphics/SVG/1.1/DTD/svg11.dtd">
<svg xmlns:xlink="http://www.w3.org/1999/xlink" width="1080pt" height="720pt" viewBox="0 0 1080 720" xmlns="http://www.w3.org/2000/svg" version="1.1">
 <metadata>
  <rdf:RDF xmlns:dc="http://purl.org/dc/elements/1.1/" xmlns:cc="http://creativecommons.org/ns#" xmlns:rdf="http://www.w3.org/1999/02/22-rdf-syntax-ns#">
   <cc:Work>
    <dc:type rdf:resource="http://purl.org/dc/dcmitype/StillImage"/>
    <dc:date>2023-11-16T18:11:13.452011</dc:date>
    <dc:format>image/svg+xml</dc:format>
    <dc:creator>
     <cc:Agent>
      <dc:title>Matplotlib v3.7.2, https://matplotlib.org/</dc:title>
     </cc:Agent>
    </dc:creator>
   </cc:Work>
  </rdf:RDF>
 </metadata>
 <defs>
  <style type="text/css">*{stroke-linejoin: round; stroke-linecap: butt}</style>
 </defs>
 <g id="figure_1">
  <g id="patch_1">
   <path d="M 0 720 
L 1080 720 
L 1080 0 
L 0 0 
z
" style="fill: #ffffff"/>
  </g>
  <g id="axes_1">
   <g id="patch_2">
    <path d="M 135 640.8 
L 972 640.8 
L 972 86.4 
L 135 86.4 
z
" style="fill: #ffffff"/>
   </g>
   <g id="matplotlib.axis_1">
    <g id="xtick_1">
     <g id="line2d_1">
      <defs>
       <path id="m0ca3aba1d2" d="M 0 0 
L 0 3.5 
" style="stroke: #000000; stroke-width: 0.8"/>
      </defs>
      <g>
       <use xlink:href="#m0ca3aba1d2" x="173.045455" y="640.8" style="stroke: #000000; stroke-width: 0.8"/>
      </g>
     </g>
     <g id="text_1">
      <!-- 0 -->
      <g transform="translate(169.864205 655.398438) scale(0.1 -0.1)">
       <defs>
        <path id="DejaVuSans-30" d="M 2034 4250 
Q 1547 4250 1301 3770 
Q 1056 3291 1056 2328 
Q 1056 1369 1301 889 
Q 1547 409 2034 409 
Q 2525 409 2770 889 
Q 3016 1369 3016 2328 
Q 3016 3291 2770 3770 
Q 2525 4250 2034 4250 
z
M 2034 4750 
Q 2819 4750 3233 4129 
Q 3647 3509 3647 2328 
Q 3647 1150 3233 529 
Q 2819 -91 2034 -91 
Q 1250 -91 836 529 
Q 422 1150 422 2328 
Q 422 3509 836 4129 
Q 1250 4750 2034 4750 
z
" transform="scale(0.015625)"/>
       </defs>
       <use xlink:href="#DejaVuSans-30"/>
      </g>
     </g>
    </g>
    <g id="xtick_2">
     <g id="line2d_2">
      <g>
       <use xlink:href="#m0ca3aba1d2" x="268.637049" y="640.8" style="stroke: #000000; stroke-width: 0.8"/>
      </g>
     </g>
     <g id="text_2">
      <!-- 25 -->
      <g transform="translate(262.274549 655.398438) scale(0.1 -0.1)">
       <defs>
        <path id="DejaVuSans-32" d="M 1228 531 
L 3431 531 
L 3431 0 
L 469 0 
L 469 531 
Q 828 903 1448 1529 
Q 2069 2156 2228 2338 
Q 2531 2678 2651 2914 
Q 2772 3150 2772 3378 
Q 2772 3750 2511 3984 
Q 2250 4219 1831 4219 
Q 1534 4219 1204 4116 
Q 875 4013 500 3803 
L 500 4441 
Q 881 4594 1212 4672 
Q 1544 4750 1819 4750 
Q 2544 4750 2975 4387 
Q 3406 4025 3406 3419 
Q 3406 3131 3298 2873 
Q 3191 2616 2906 2266 
Q 2828 2175 2409 1742 
Q 1991 1309 1228 531 
z
" transform="scale(0.015625)"/>
        <path id="DejaVuSans-35" d="M 691 4666 
L 3169 4666 
L 3169 4134 
L 1269 4134 
L 1269 2991 
Q 1406 3038 1543 3061 
Q 1681 3084 1819 3084 
Q 2600 3084 3056 2656 
Q 3513 2228 3513 1497 
Q 3513 744 3044 326 
Q 2575 -91 1722 -91 
Q 1428 -91 1123 -41 
Q 819 9 494 109 
L 494 744 
Q 775 591 1075 516 
Q 1375 441 1709 441 
Q 2250 441 2565 725 
Q 2881 1009 2881 1497 
Q 2881 1984 2565 2268 
Q 2250 2553 1709 2553 
Q 1456 2553 1204 2497 
Q 953 2441 691 2322 
L 691 4666 
z
" transform="scale(0.015625)"/>
       </defs>
       <use xlink:href="#DejaVuSans-32"/>
       <use xlink:href="#DejaVuSans-35" x="63.623047"/>
      </g>
     </g>
    </g>
    <g id="xtick_3">
     <g id="line2d_3">
      <g>
       <use xlink:href="#m0ca3aba1d2" x="364.228643" y="640.8" style="stroke: #000000; stroke-width: 0.8"/>
      </g>
     </g>
     <g id="text_3">
      <!-- 50 -->
      <g transform="translate(357.866143 655.398438) scale(0.1 -0.1)">
       <use xlink:href="#DejaVuSans-35"/>
       <use xlink:href="#DejaVuSans-30" x="63.623047"/>
      </g>
     </g>
    </g>
    <g id="xtick_4">
     <g id="line2d_4">
      <g>
       <use xlink:href="#m0ca3aba1d2" x="459.820238" y="640.8" style="stroke: #000000; stroke-width: 0.8"/>
      </g>
     </g>
     <g id="text_4">
      <!-- 75 -->
      <g transform="translate(453.457738 655.398438) scale(0.1 -0.1)">
       <defs>
        <path id="DejaVuSans-37" d="M 525 4666 
L 3525 4666 
L 3525 4397 
L 1831 0 
L 1172 0 
L 2766 4134 
L 525 4134 
L 525 4666 
z
" transform="scale(0.015625)"/>
       </defs>
       <use xlink:href="#DejaVuSans-37"/>
       <use xlink:href="#DejaVuSans-35" x="63.623047"/>
      </g>
     </g>
    </g>
    <g id="xtick_5">
     <g id="line2d_5">
      <g>
       <use xlink:href="#m0ca3aba1d2" x="555.411832" y="640.8" style="stroke: #000000; stroke-width: 0.8"/>
      </g>
     </g>
     <g id="text_5">
      <!-- 100 -->
      <g transform="translate(545.868082 655.398438) scale(0.1 -0.1)">
       <defs>
        <path id="DejaVuSans-31" d="M 794 531 
L 1825 531 
L 1825 4091 
L 703 3866 
L 703 4441 
L 1819 4666 
L 2450 4666 
L 2450 531 
L 3481 531 
L 3481 0 
L 794 0 
L 794 531 
z
" transform="scale(0.015625)"/>
       </defs>
       <use xlink:href="#DejaVuSans-31"/>
       <use xlink:href="#DejaVuSans-30" x="63.623047"/>
       <use xlink:href="#DejaVuSans-30" x="127.246094"/>
      </g>
     </g>
    </g>
    <g id="xtick_6">
     <g id="line2d_6">
      <g>
       <use xlink:href="#m0ca3aba1d2" x="651.003426" y="640.8" style="stroke: #000000; stroke-width: 0.8"/>
      </g>
     </g>
     <g id="text_6">
      <!-- 125 -->
      <g transform="translate(641.459676 655.398438) scale(0.1 -0.1)">
       <use xlink:href="#DejaVuSans-31"/>
       <use xlink:href="#DejaVuSans-32" x="63.623047"/>
       <use xlink:href="#DejaVuSans-35" x="127.246094"/>
      </g>
     </g>
    </g>
    <g id="xtick_7">
     <g id="line2d_7">
      <g>
       <use xlink:href="#m0ca3aba1d2" x="746.595021" y="640.8" style="stroke: #000000; stroke-width: 0.8"/>
      </g>
     </g>
     <g id="text_7">
      <!-- 150 -->
      <g transform="translate(737.051271 655.398438) scale(0.1 -0.1)">
       <use xlink:href="#DejaVuSans-31"/>
       <use xlink:href="#DejaVuSans-35" x="63.623047"/>
       <use xlink:href="#DejaVuSans-30" x="127.246094"/>
      </g>
     </g>
    </g>
    <g id="xtick_8">
     <g id="line2d_8">
      <g>
       <use xlink:href="#m0ca3aba1d2" x="842.186615" y="640.8" style="stroke: #000000; stroke-width: 0.8"/>
      </g>
     </g>
     <g id="text_8">
      <!-- 175 -->
      <g transform="translate(832.642865 655.398438) scale(0.1 -0.1)">
       <use xlink:href="#DejaVuSans-31"/>
       <use xlink:href="#DejaVuSans-37" x="63.623047"/>
       <use xlink:href="#DejaVuSans-35" x="127.246094"/>
      </g>
     </g>
    </g>
    <g id="xtick_9">
     <g id="line2d_9">
      <g>
       <use xlink:href="#m0ca3aba1d2" x="937.778209" y="640.8" style="stroke: #000000; stroke-width: 0.8"/>
      </g>
     </g>
     <g id="text_9">
      <!-- 200 -->
      <g transform="translate(928.234459 655.398438) scale(0.1 -0.1)">
       <use xlink:href="#DejaVuSans-32"/>
       <use xlink:href="#DejaVuSans-30" x="63.623047"/>
       <use xlink:href="#DejaVuSans-30" x="127.246094"/>
      </g>
     </g>
    </g>
    <g id="text_10">
     <!-- epoch -->
     <g transform="translate(538.271875 669.076563) scale(0.1 -0.1)">
      <defs>
       <path id="DejaVuSans-65" d="M 3597 1894 
L 3597 1613 
L 953 1613 
Q 991 1019 1311 708 
Q 1631 397 2203 397 
Q 2534 397 2845 478 
Q 3156 559 3463 722 
L 3463 178 
Q 3153 47 2828 -22 
Q 2503 -91 2169 -91 
Q 1331 -91 842 396 
Q 353 884 353 1716 
Q 353 2575 817 3079 
Q 1281 3584 2069 3584 
Q 2775 3584 3186 3129 
Q 3597 2675 3597 1894 
z
M 3022 2063 
Q 3016 2534 2758 2815 
Q 2500 3097 2075 3097 
Q 1594 3097 1305 2825 
Q 1016 2553 972 2059 
L 3022 2063 
z
" transform="scale(0.015625)"/>
       <path id="DejaVuSans-70" d="M 1159 525 
L 1159 -1331 
L 581 -1331 
L 581 3500 
L 1159 3500 
L 1159 2969 
Q 1341 3281 1617 3432 
Q 1894 3584 2278 3584 
Q 2916 3584 3314 3078 
Q 3713 2572 3713 1747 
Q 3713 922 3314 415 
Q 2916 -91 2278 -91 
Q 1894 -91 1617 61 
Q 1341 213 1159 525 
z
M 3116 1747 
Q 3116 2381 2855 2742 
Q 2594 3103 2138 3103 
Q 1681 3103 1420 2742 
Q 1159 2381 1159 1747 
Q 1159 1113 1420 752 
Q 1681 391 2138 391 
Q 2594 391 2855 752 
Q 3116 1113 3116 1747 
z
" transform="scale(0.015625)"/>
       <path id="DejaVuSans-6f" d="M 1959 3097 
Q 1497 3097 1228 2736 
Q 959 2375 959 1747 
Q 959 1119 1226 758 
Q 1494 397 1959 397 
Q 2419 397 2687 759 
Q 2956 1122 2956 1747 
Q 2956 2369 2687 2733 
Q 2419 3097 1959 3097 
z
M 1959 3584 
Q 2709 3584 3137 3096 
Q 3566 2609 3566 1747 
Q 3566 888 3137 398 
Q 2709 -91 1959 -91 
Q 1206 -91 779 398 
Q 353 888 353 1747 
Q 353 2609 779 3096 
Q 1206 3584 1959 3584 
z
" transform="scale(0.015625)"/>
       <path id="DejaVuSans-63" d="M 3122 3366 
L 3122 2828 
Q 2878 2963 2633 3030 
Q 2388 3097 2138 3097 
Q 1578 3097 1268 2742 
Q 959 2388 959 1747 
Q 959 1106 1268 751 
Q 1578 397 2138 397 
Q 2388 397 2633 464 
Q 2878 531 3122 666 
L 3122 134 
Q 2881 22 2623 -34 
Q 2366 -91 2075 -91 
Q 1284 -91 818 406 
Q 353 903 353 1747 
Q 353 2603 823 3093 
Q 1294 3584 2113 3584 
Q 2378 3584 2631 3529 
Q 2884 3475 3122 3366 
z
" transform="scale(0.015625)"/>
       <path id="DejaVuSans-68" d="M 3513 2113 
L 3513 0 
L 2938 0 
L 2938 2094 
Q 2938 2591 2744 2837 
Q 2550 3084 2163 3084 
Q 1697 3084 1428 2787 
Q 1159 2491 1159 1978 
L 1159 0 
L 581 0 
L 581 4863 
L 1159 4863 
L 1159 2956 
Q 1366 3272 1645 3428 
Q 1925 3584 2291 3584 
Q 2894 3584 3203 3211 
Q 3513 2838 3513 2113 
z
" transform="scale(0.015625)"/>
      </defs>
      <use xlink:href="#DejaVuSans-65"/>
      <use xlink:href="#DejaVuSans-70" x="61.523438"/>
      <use xlink:href="#DejaVuSans-6f" x="125"/>
      <use xlink:href="#DejaVuSans-63" x="186.181641"/>
      <use xlink:href="#DejaVuSans-68" x="241.162109"/>
     </g>
    </g>
   </g>
   <g id="matplotlib.axis_2">
    <g id="ytick_1">
     <g id="line2d_10">
      <defs>
       <path id="mc10bd53edc" d="M 0 0 
L -3.5 0 
" style="stroke: #000000; stroke-width: 0.8"/>
      </defs>
      <g>
       <use xlink:href="#mc10bd53edc" x="135" y="629.21397" style="stroke: #000000; stroke-width: 0.8"/>
      </g>
     </g>
     <g id="text_11">
      <!-- 0.1 -->
      <g transform="translate(112.096875 633.013189) scale(0.1 -0.1)">
       <defs>
        <path id="DejaVuSans-2e" d="M 684 794 
L 1344 794 
L 1344 0 
L 684 0 
L 684 794 
z
" transform="scale(0.015625)"/>
       </defs>
       <use xlink:href="#DejaVuSans-30"/>
       <use xlink:href="#DejaVuSans-2e" x="63.623047"/>
       <use xlink:href="#DejaVuSans-31" x="95.410156"/>
      </g>
     </g>
    </g>
    <g id="ytick_2">
     <g id="line2d_11">
      <g>
       <use xlink:href="#mc10bd53edc" x="135" y="529.69282" style="stroke: #000000; stroke-width: 0.8"/>
      </g>
     </g>
     <g id="text_12">
      <!-- 0.2 -->
      <g transform="translate(112.096875 533.492039) scale(0.1 -0.1)">
       <use xlink:href="#DejaVuSans-30"/>
       <use xlink:href="#DejaVuSans-2e" x="63.623047"/>
       <use xlink:href="#DejaVuSans-32" x="95.410156"/>
      </g>
     </g>
    </g>
    <g id="ytick_3">
     <g id="line2d_12">
      <g>
       <use xlink:href="#mc10bd53edc" x="135" y="430.17167" style="stroke: #000000; stroke-width: 0.8"/>
      </g>
     </g>
     <g id="text_13">
      <!-- 0.3 -->
      <g transform="translate(112.096875 433.970889) scale(0.1 -0.1)">
       <defs>
        <path id="DejaVuSans-33" d="M 2597 2516 
Q 3050 2419 3304 2112 
Q 3559 1806 3559 1356 
Q 3559 666 3084 287 
Q 2609 -91 1734 -91 
Q 1441 -91 1130 -33 
Q 819 25 488 141 
L 488 750 
Q 750 597 1062 519 
Q 1375 441 1716 441 
Q 2309 441 2620 675 
Q 2931 909 2931 1356 
Q 2931 1769 2642 2001 
Q 2353 2234 1838 2234 
L 1294 2234 
L 1294 2753 
L 1863 2753 
Q 2328 2753 2575 2939 
Q 2822 3125 2822 3475 
Q 2822 3834 2567 4026 
Q 2313 4219 1838 4219 
Q 1578 4219 1281 4162 
Q 984 4106 628 3988 
L 628 4550 
Q 988 4650 1302 4700 
Q 1616 4750 1894 4750 
Q 2613 4750 3031 4423 
Q 3450 4097 3450 3541 
Q 3450 3153 3228 2886 
Q 3006 2619 2597 2516 
z
" transform="scale(0.015625)"/>
       </defs>
       <use xlink:href="#DejaVuSans-30"/>
       <use xlink:href="#DejaVuSans-2e" x="63.623047"/>
       <use xlink:href="#DejaVuSans-33" x="95.410156"/>
      </g>
     </g>
    </g>
    <g id="ytick_4">
     <g id="line2d_13">
      <g>
       <use xlink:href="#mc10bd53edc" x="135" y="330.65052" style="stroke: #000000; stroke-width: 0.8"/>
      </g>
     </g>
     <g id="text_14">
      <!-- 0.4 -->
      <g transform="translate(112.096875 334.449739) scale(0.1 -0.1)">
       <defs>
        <path id="DejaVuSans-34" d="M 2419 4116 
L 825 1625 
L 2419 1625 
L 2419 4116 
z
M 2253 4666 
L 3047 4666 
L 3047 1625 
L 3713 1625 
L 3713 1100 
L 3047 1100 
L 3047 0 
L 2419 0 
L 2419 1100 
L 313 1100 
L 313 1709 
L 2253 4666 
z
" transform="scale(0.015625)"/>
       </defs>
       <use xlink:href="#DejaVuSans-30"/>
       <use xlink:href="#DejaVuSans-2e" x="63.623047"/>
       <use xlink:href="#DejaVuSans-34" x="95.410156"/>
      </g>
     </g>
    </g>
    <g id="ytick_5">
     <g id="line2d_14">
      <g>
       <use xlink:href="#mc10bd53edc" x="135" y="231.12937" style="stroke: #000000; stroke-width: 0.8"/>
      </g>
     </g>
     <g id="text_15">
      <!-- 0.5 -->
      <g transform="translate(112.096875 234.928589) scale(0.1 -0.1)">
       <use xlink:href="#DejaVuSans-30"/>
       <use xlink:href="#DejaVuSans-2e" x="63.623047"/>
       <use xlink:href="#DejaVuSans-35" x="95.410156"/>
      </g>
     </g>
    </g>
    <g id="ytick_6">
     <g id="line2d_15">
      <g>
       <use xlink:href="#mc10bd53edc" x="135" y="131.60822" style="stroke: #000000; stroke-width: 0.8"/>
      </g>
     </g>
     <g id="text_16">
      <!-- 0.6 -->
      <g transform="translate(112.096875 135.407439) scale(0.1 -0.1)">
       <defs>
        <path id="DejaVuSans-36" d="M 2113 2584 
Q 1688 2584 1439 2293 
Q 1191 2003 1191 1497 
Q 1191 994 1439 701 
Q 1688 409 2113 409 
Q 2538 409 2786 701 
Q 3034 994 3034 1497 
Q 3034 2003 2786 2293 
Q 2538 2584 2113 2584 
z
M 3366 4563 
L 3366 3988 
Q 3128 4100 2886 4159 
Q 2644 4219 2406 4219 
Q 1781 4219 1451 3797 
Q 1122 3375 1075 2522 
Q 1259 2794 1537 2939 
Q 1816 3084 2150 3084 
Q 2853 3084 3261 2657 
Q 3669 2231 3669 1497 
Q 3669 778 3244 343 
Q 2819 -91 2113 -91 
Q 1303 -91 875 529 
Q 447 1150 447 2328 
Q 447 3434 972 4092 
Q 1497 4750 2381 4750 
Q 2619 4750 2861 4703 
Q 3103 4656 3366 4563 
z
" transform="scale(0.015625)"/>
       </defs>
       <use xlink:href="#DejaVuSans-30"/>
       <use xlink:href="#DejaVuSans-2e" x="63.623047"/>
       <use xlink:href="#DejaVuSans-36" x="95.410156"/>
      </g>
     </g>
    </g>
    <g id="text_17">
     <!-- score -->
     <g transform="translate(106.017187 377.032812) rotate(-90) scale(0.1 -0.1)">
      <defs>
       <path id="DejaVuSans-73" d="M 2834 3397 
L 2834 2853 
Q 2591 2978 2328 3040 
Q 2066 3103 1784 3103 
Q 1356 3103 1142 2972 
Q 928 2841 928 2578 
Q 928 2378 1081 2264 
Q 1234 2150 1697 2047 
L 1894 2003 
Q 2506 1872 2764 1633 
Q 3022 1394 3022 966 
Q 3022 478 2636 193 
Q 2250 -91 1575 -91 
Q 1294 -91 989 -36 
Q 684 19 347 128 
L 347 722 
Q 666 556 975 473 
Q 1284 391 1588 391 
Q 1994 391 2212 530 
Q 2431 669 2431 922 
Q 2431 1156 2273 1281 
Q 2116 1406 1581 1522 
L 1381 1569 
Q 847 1681 609 1914 
Q 372 2147 372 2553 
Q 372 3047 722 3315 
Q 1072 3584 1716 3584 
Q 2034 3584 2315 3537 
Q 2597 3491 2834 3397 
z
" transform="scale(0.015625)"/>
       <path id="DejaVuSans-72" d="M 2631 2963 
Q 2534 3019 2420 3045 
Q 2306 3072 2169 3072 
Q 1681 3072 1420 2755 
Q 1159 2438 1159 1844 
L 1159 0 
L 581 0 
L 581 3500 
L 1159 3500 
L 1159 2956 
Q 1341 3275 1631 3429 
Q 1922 3584 2338 3584 
Q 2397 3584 2469 3576 
Q 2541 3569 2628 3553 
L 2631 2963 
z
" transform="scale(0.015625)"/>
      </defs>
      <use xlink:href="#DejaVuSans-73"/>
      <use xlink:href="#DejaVuSans-63" x="52.099609"/>
      <use xlink:href="#DejaVuSans-6f" x="107.080078"/>
      <use xlink:href="#DejaVuSans-72" x="168.261719"/>
      <use xlink:href="#DejaVuSans-65" x="207.125"/>
     </g>
    </g>
   </g>
   <g id="line2d_16">
    <path d="M 173.045455 441.130179 
L 176.869118 382.535704 
L 180.692782 308.733503 
L 184.516446 307.391644 
L 188.34011 302.024212 
L 192.163773 291.736632 
L 195.987437 287.263771 
L 199.811101 254.164602 
L 203.634765 320.36294 
L 207.458429 268.925043 
L 211.282092 210.777854 
L 215.105756 206.752279 
L 218.92942 195.122841 
L 222.753084 232.694871 
L 226.576747 221.960005 
L 230.400411 218.381717 
L 234.224075 177.231399 
L 238.047739 198.253844 
L 241.871402 195.570127 
L 245.695066 232.247585 
L 249.51873 163.812817 
L 253.342394 254.611888 
L 257.166058 256.401033 
L 260.989721 195.570127 
L 264.813385 177.231399 
L 268.637049 192.439125 
L 272.460713 162.918245 
L 276.284376 178.573257 
L 280.10804 171.863966 
L 283.931704 157.998098 
L 287.755368 200.490274 
L 291.579032 184.835262 
L 295.402695 151.288807 
L 299.226359 183.493404 
L 303.050023 158.89267 
L 306.873687 181.256973 
L 310.69735 155.314381 
L 314.521014 194.228269 
L 318.344678 164.707389 
L 322.168342 158.445384 
L 325.992005 157.998098 
L 329.815669 168.732963 
L 333.639333 143.237658 
L 337.462997 185.282548 
L 341.286661 182.598831 
L 345.110324 140.553941 
L 348.933988 132.502792 
L 356.581316 172.758538 
L 360.404979 141.895799 
L 364.228643 136.08108 
L 368.052307 165.601961 
L 371.875971 197.359272 
L 375.699635 245.666167 
L 379.523298 143.237658 
L 383.346962 150.841521 
L 387.170626 127.582645 
L 390.99429 146.36866 
L 394.817953 136.528367 
L 398.641617 131.160934 
L 402.465281 157.550812 
L 406.288945 153.525237 
L 410.112608 149.052376 
L 413.936272 152.630665 
L 417.759936 151.288807 
L 421.5836 191.991839 
L 425.407264 154.419809 
L 429.230927 145.474088 
L 433.054591 156.65624 
L 436.878255 153.077951 
L 440.701919 169.627536 
L 444.525582 163.365531 
L 448.349246 133.397364 
L 452.17291 133.397364 
L 455.996574 151.736093 
L 459.820238 174.547682 
L 463.643901 133.84465 
L 467.467565 132.055506 
L 471.291229 128.477217 
L 475.114893 136.975653 
L 478.938556 141.001227 
L 482.76222 142.343085 
L 486.585884 145.921374 
L 490.409548 136.528367 
L 494.233212 141.001227 
L 498.056875 165.154675 
L 501.880539 136.975653 
L 505.704203 172.758538 
L 509.527867 150.394235 
L 513.35153 140.553941 
L 517.175194 135.186508 
L 520.998858 144.13223 
L 524.822522 170.969394 
L 528.646185 154.419809 
L 532.469849 141.001227 
L 536.293513 161.1291 
L 540.117177 143.237658 
L 543.940841 142.343085 
L 547.764504 150.394235 
L 551.588168 136.528367 
L 555.411832 135.186508 
L 559.235496 153.525237 
L 563.059159 131.60822 
L 566.882823 133.397364 
L 570.706487 148.157804 
L 574.530151 132.502792 
L 578.353815 138.764797 
L 582.177478 132.502792 
L 586.001142 145.921374 
L 589.824806 138.764797 
L 593.64847 141.001227 
L 597.472133 141.001227 
L 601.295797 139.659369 
L 605.119461 141.001227 
L 608.943125 140.106655 
L 612.766788 127.135359 
L 616.590452 141.448513 
L 620.414116 150.394235 
L 624.23778 132.950078 
L 628.061444 137.870225 
L 631.885107 148.60509 
L 635.708771 131.60822 
L 639.532435 139.212083 
L 643.356099 149.946949 
L 647.179762 136.975653 
L 651.003426 137.870225 
L 654.82709 141.895799 
L 658.650754 137.870225 
L 662.474418 142.790371 
L 666.298081 139.212083 
L 670.121745 128.029931 
L 673.945409 137.422939 
L 677.769073 141.001227 
L 681.592736 137.422939 
L 685.4164 135.186508 
L 689.240064 141.895799 
L 693.063728 153.525237 
L 696.887392 136.975653 
L 700.711055 142.343085 
L 704.534719 138.764797 
L 708.358383 134.739222 
L 712.182047 142.343085 
L 716.00571 139.212083 
L 719.829374 165.601961 
L 723.653038 137.422939 
L 727.476702 143.237658 
L 731.300365 144.13223 
L 735.124029 143.237658 
L 738.947693 165.601961 
L 742.771357 149.052376 
L 746.595021 141.895799 
L 750.418684 144.13223 
L 754.242348 135.633794 
L 758.066012 163.365531 
L 761.889676 149.052376 
L 765.713339 217.934431 
L 769.537003 142.790371 
L 773.360667 146.815946 
L 777.184331 142.343085 
L 781.007995 132.502792 
L 784.831658 160.234528 
L 788.655322 151.736093 
L 792.478986 150.841521 
L 796.30265 130.713648 
L 800.126313 146.36866 
L 803.949977 144.579516 
L 807.773641 179.467829 
L 811.597305 142.343085 
L 815.420968 143.237658 
L 819.244632 135.186508 
L 823.068296 131.60822 
L 826.89196 157.998098 
L 830.715624 135.186508 
L 834.539287 141.001227 
L 838.362951 149.946949 
L 842.186615 147.263232 
L 846.010279 141.895799 
L 849.833942 143.684944 
L 853.657606 133.397364 
L 857.48127 144.579516 
L 861.304934 141.001227 
L 865.128598 138.764797 
L 868.952261 130.713648 
L 872.775925 144.13223 
L 876.599589 138.764797 
L 880.423253 144.579516 
L 884.246916 143.237658 
L 888.07058 176.336827 
L 891.894244 139.212083 
L 895.717908 165.601961 
L 899.541571 154.419809 
L 903.365235 145.921374 
L 907.188899 150.841521 
L 911.012563 131.160934 
L 914.836227 146.36866 
L 918.65989 140.106655 
L 922.483554 138.317511 
L 926.307218 152.630665 
L 930.130882 147.710518 
L 933.954545 141.001227 
L 933.954545 141.001227 
" clip-path="url(#pb75ba1f656)" style="fill: none; stroke: #1f77b4; stroke-width: 1.5; stroke-linecap: square"/>
   </g>
   <g id="line2d_17">
    <path d="M 173.045455 408.190165 
L 176.869118 457.447351 
L 180.692782 320.200309 
L 184.516446 314.6166 
L 188.34011 318.966767 
L 192.163773 337.037605 
L 195.987437 254.161161 
L 199.811101 337.408696 
L 203.634765 232.083231 
L 207.458429 340.098399 
L 211.282092 239.192239 
L 215.105756 229.536711 
L 218.92942 212.397054 
L 222.753084 203.465013 
L 226.576747 227.266115 
L 230.400411 174.230476 
L 234.224075 209.830155 
L 238.047739 170.109496 
L 241.871402 226.129299 
L 245.695066 226.776786 
L 249.51873 185.043674 
L 253.342394 205.602189 
L 257.166058 223.686642 
L 260.989721 235.085209 
L 264.813385 217.015502 
L 268.637049 176.928933 
L 272.460713 198.820876 
L 276.284376 206.661505 
L 280.10804 197.86172 
L 283.931704 176.795397 
L 287.755368 159.164647 
L 291.579032 225.990541 
L 295.402695 160.077849 
L 299.226359 203.649714 
L 303.050023 168.081124 
L 306.873687 171.189274 
L 310.69735 170.070361 
L 314.521014 156.108041 
L 318.344678 157.377515 
L 322.168342 184.459772 
L 325.992005 141.401468 
L 329.815669 165.091436 
L 333.639333 162.37088 
L 337.462997 145.523386 
L 341.286661 201.39818 
L 345.110324 139.224371 
L 348.933988 146.190192 
L 352.757652 141.102826 
L 356.581316 126.528854 
L 360.404979 137.850789 
L 364.228643 129.597407 
L 371.875971 160.538047 
L 375.699635 188.709663 
L 379.523298 153.647063 
L 383.346962 176.814765 
L 387.170626 141.678038 
L 390.99429 149.770271 
L 394.817953 147.093691 
L 398.641617 151.316647 
L 402.465281 132.65217 
L 406.288945 112.434571 
L 410.112608 158.967815 
L 413.936272 131.594108 
L 417.759936 127.134033 
L 421.5836 159.548301 
L 425.407264 134.00994 
L 429.230927 153.139495 
L 433.054591 142.292148 
L 436.878255 155.211282 
L 440.701919 157.92808 
L 444.525582 135.714816 
L 448.349246 149.763567 
L 452.17291 150.045923 
L 455.996574 146.982704 
L 459.820238 138.818762 
L 463.643901 159.145859 
L 467.467565 132.000711 
L 471.291229 141.121554 
L 475.114893 146.419286 
L 478.938556 135.766846 
L 482.76222 172.659037 
L 486.585884 163.718529 
L 490.409548 149.354636 
L 494.233212 142.071909 
L 498.056875 146.566876 
L 501.880539 150.089702 
L 505.704203 121.45616 
L 509.527867 150.745132 
L 513.35153 153.30566 
L 517.175194 138.180776 
L 520.998858 136.425515 
L 524.822522 141.802919 
L 528.646185 139.052593 
L 532.469849 132.653269 
L 536.293513 149.776417 
L 540.117177 142.586325 
L 543.940841 148.649571 
L 547.764504 137.291174 
L 551.588168 144.593815 
L 555.411832 144.677714 
L 559.235496 147.286274 
L 563.059159 147.239101 
L 566.882823 133.297862 
L 570.706487 159.417191 
L 574.530151 140.901369 
L 578.353815 145.644919 
L 582.177478 149.623259 
L 586.001142 141.582586 
L 589.824806 139.822181 
L 593.64847 152.969241 
L 597.472133 131.318504 
L 601.295797 139.641296 
L 605.119461 153.874005 
L 608.943125 136.801322 
L 612.766788 124.81597 
L 616.590452 131.832728 
L 620.414116 148.942373 
L 624.23778 138.110525 
L 628.061444 119.602048 
L 631.885107 125.22446 
L 635.708771 128.822406 
L 639.532435 147.605922 
L 643.356099 158.542814 
L 647.179762 143.243971 
L 651.003426 149.266023 
L 654.82709 154.206089 
L 658.650754 149.412789 
L 662.474418 136.632405 
L 666.298081 113.757347 
L 670.121745 140.602353 
L 673.945409 146.185876 
L 677.769073 149.108037 
L 681.592736 151.117523 
L 685.4164 138.05625 
L 689.240064 155.949631 
L 693.063728 150.106052 
L 696.887392 131.191986 
L 700.711055 145.29855 
L 704.534719 128.746291 
L 708.358383 135.514137 
L 712.182047 153.144103 
L 716.00571 145.995816 
L 719.829374 111.6 
L 723.653038 142.997438 
L 727.476702 137.890038 
L 731.300365 145.42574 
L 735.124029 149.434904 
L 738.947693 132.395426 
L 742.771357 145.410935 
L 746.595021 146.140214 
L 750.418684 155.837163 
L 754.242348 136.269696 
L 758.066012 172.469487 
L 761.889676 152.717931 
L 765.713339 184.854594 
L 769.537003 151.777918 
L 773.360667 141.27303 
L 777.184331 138.986784 
L 781.007995 130.603475 
L 784.831658 159.468013 
L 788.655322 146.118758 
L 792.478986 139.841869 
L 796.30265 145.183979 
L 800.126313 132.760516 
L 803.949977 153.942331 
L 807.773641 141.795939 
L 811.597305 135.226459 
L 815.420968 151.801881 
L 819.244632 153.636544 
L 823.068296 139.990902 
L 826.89196 117.968528 
L 830.715624 138.168679 
L 834.539287 139.030778 
L 838.362951 153.678857 
L 842.186615 164.619268 
L 846.010279 136.755753 
L 849.833942 146.839921 
L 853.657606 124.445432 
L 861.304934 152.516611 
L 865.128598 140.803015 
L 868.952261 125.387457 
L 872.775925 149.234325 
L 876.599589 131.564895 
L 880.423253 145.712046 
L 884.246916 143.479569 
L 888.07058 137.203032 
L 891.894244 126.235773 
L 895.717908 132.611897 
L 899.541571 136.994992 
L 903.365235 130.316662 
L 907.188899 155.918767 
L 911.012563 135.295705 
L 914.836227 144.617557 
L 918.65989 138.155297 
L 922.483554 150.103333 
L 926.307218 156.640037 
L 930.130882 152.63973 
L 933.954545 143.970228 
L 933.954545 143.970228 
" clip-path="url(#pb75ba1f656)" style="fill: none; stroke: #ff7f0e; stroke-width: 1.5; stroke-linecap: square"/>
   </g>
   <g id="line2d_18">
    <path d="M 173.045455 479.046826 
L 176.869118 390.979256 
L 180.692782 323.15627 
L 184.516446 332.811259 
L 188.34011 319.677295 
L 192.163773 315.995236 
L 195.987437 319.33956 
L 199.811101 279.367871 
L 203.634765 348.998275 
L 207.458429 279.105682 
L 211.282092 227.630787 
L 215.105756 222.213334 
L 218.92942 206.980791 
L 222.753084 262.319931 
L 226.576747 220.270902 
L 230.400411 242.729189 
L 234.224075 184.481839 
L 238.047739 215.613924 
L 241.871402 197.202578 
L 245.695066 260.181094 
L 249.51873 175.645752 
L 253.342394 288.582156 
L 257.166058 271.540081 
L 260.989721 198.67619 
L 264.813385 181.086314 
L 268.637049 207.933568 
L 272.460713 181.662053 
L 276.284376 178.568543 
L 280.10804 188.259788 
L 283.931704 176.024421 
L 287.755368 229.057449 
L 291.579032 186.688823 
L 295.402695 160.196789 
L 299.226359 203.290385 
L 303.050023 170.087564 
L 306.873687 169.424735 
L 310.69735 171.620868 
L 314.521014 220.882055 
L 318.344678 182.042833 
L 322.168342 168.18304 
L 325.992005 165.922406 
L 329.815669 160.049848 
L 333.639333 147.401242 
L 337.462997 170.525199 
L 341.286661 177.698807 
L 345.110324 148.44768 
L 348.933988 136.663947 
L 352.757652 158.812117 
L 356.581316 163.420727 
L 360.404979 144.691657 
L 364.228643 143.81296 
L 368.052307 164.338758 
L 371.875971 219.584552 
L 375.699635 228.648998 
L 379.523298 155.249511 
L 383.346962 155.103044 
L 387.170626 135.913174 
L 390.99429 157.361048 
L 394.817953 139.456015 
L 398.641617 142.961399 
L 402.465281 145.497194 
L 406.288945 159.663411 
L 410.112608 157.050076 
L 413.936272 149.720799 
L 417.759936 160.704713 
L 421.5836 184.222005 
L 425.407264 159.848672 
L 429.230927 142.459313 
L 433.054591 152.188168 
L 436.878255 164.184958 
L 440.701919 161.510078 
L 444.525582 178.926322 
L 448.349246 141.442477 
L 452.17291 148.962476 
L 455.996574 164.148066 
L 459.820238 198.427422 
L 463.643901 139.255439 
L 467.467565 135.199012 
L 471.291229 133.785243 
L 475.114893 140.07671 
L 478.938556 145.418637 
L 482.76222 146.332762 
L 486.585884 153.968964 
L 490.409548 139.180446 
L 494.233212 138.587217 
L 498.056875 183.526078 
L 501.880539 135.193237 
L 505.704203 166.641665 
L 509.527867 149.520544 
L 513.35153 149.286518 
L 517.175194 132.856716 
L 520.998858 147.121929 
L 524.822522 158.963259 
L 528.646185 166.157316 
L 532.469849 156.491447 
L 536.293513 150.931513 
L 540.117177 146.278994 
L 543.940841 137.956525 
L 547.764504 165.773338 
L 551.588168 137.499965 
L 555.411832 134.759978 
L 559.235496 143.987207 
L 563.059159 137.853192 
L 566.882823 144.719102 
L 570.706487 153.667379 
L 574.530151 133.840834 
L 578.353815 145.59192 
L 582.177478 133.060422 
L 586.001142 151.22302 
L 589.824806 138.906523 
L 593.64847 151.852018 
L 597.472133 136.025605 
L 601.295797 148.666302 
L 605.119461 140.748439 
L 608.943125 151.983683 
L 612.766788 139.228354 
L 616.590452 145.860592 
L 620.414116 149.612354 
L 624.23778 132.808344 
L 628.061444 146.617655 
L 631.885107 166.311773 
L 635.708771 133.88302 
L 639.532435 145.471279 
L 643.356099 156.177469 
L 647.179762 143.558089 
L 651.003426 141.152397 
L 654.82709 148.966282 
L 658.650754 147.965932 
L 662.474418 153.381852 
L 666.298081 147.210478 
L 670.121745 131.193445 
L 673.945409 143.797782 
L 677.769073 140.486822 
L 681.592736 145.816821 
L 685.4164 143.217032 
L 689.240064 144.49882 
L 693.063728 151.707151 
L 696.887392 143.173826 
L 700.711055 152.576292 
L 704.534719 141.627807 
L 708.358383 136.094065 
L 712.182047 138.338794 
L 716.00571 148.22336 
L 719.829374 160.98851 
L 723.653038 141.659344 
L 727.476702 151.374928 
L 731.300365 145.741692 
L 735.124029 145.926887 
L 738.947693 155.522606 
L 742.771357 161.121549 
L 746.595021 152.850241 
L 750.418684 146.271714 
L 754.242348 137.800888 
L 758.066012 168.63651 
L 761.889676 154.807389 
L 765.713339 210.814233 
L 769.537003 144.52263 
L 773.360667 148.461328 
L 777.184331 141.84962 
L 781.007995 136.860594 
L 784.831658 154.915066 
L 788.655322 162.530347 
L 792.478986 142.316948 
L 796.30265 140.322322 
L 800.126313 144.782766 
L 803.949977 145.085031 
L 807.773641 191.625745 
L 811.597305 142.386391 
L 815.420968 136.866049 
L 819.244632 138.072368 
L 823.068296 132.430843 
L 826.89196 149.264153 
L 830.715624 137.184692 
L 834.539287 149.455746 
L 838.362951 150.641122 
L 842.186615 147.359279 
L 846.010279 136.982228 
L 849.833942 149.354456 
L 853.657606 141.147975 
L 857.48127 147.053844 
L 861.304934 138.264225 
L 865.128598 145.512057 
L 868.952261 137.645457 
L 872.775925 144.159438 
L 876.599589 139.362781 
L 880.423253 144.346564 
L 884.246916 145.464905 
L 888.07058 181.014697 
L 891.894244 146.492252 
L 895.717908 166.672005 
L 899.541571 151.504298 
L 903.365235 142.411474 
L 907.188899 151.623412 
L 911.012563 138.281314 
L 914.836227 145.800238 
L 918.65989 143.089715 
L 922.483554 137.264262 
L 926.307218 154.81524 
L 930.130882 146.854484 
L 933.954545 147.001316 
L 933.954545 147.001316 
" clip-path="url(#pb75ba1f656)" style="fill: none; stroke: #2ca02c; stroke-width: 1.5; stroke-linecap: square"/>
   </g>
   <g id="line2d_19">
    <path d="M 173.045455 615.6 
L 176.869118 436.280188 
L 180.692782 355.837284 
L 184.516446 379.023083 
L 188.34011 361.21046 
L 192.163773 363.710648 
L 195.987437 384.834017 
L 199.811101 336.804454 
L 203.634765 369.699965 
L 207.458429 342.589751 
L 211.282092 263.669325 
L 215.105756 265.077173 
L 218.92942 220.786875 
L 222.753084 306.062802 
L 226.576747 242.068978 
L 230.400411 259.593152 
L 234.224075 220.882726 
L 238.047739 221.558541 
L 241.871402 227.58956 
L 245.695066 331.286146 
L 249.51873 210.059744 
L 253.342394 375.111492 
L 257.166058 331.681584 
L 260.989721 237.451572 
L 264.813385 216.638713 
L 268.637049 228.887759 
L 272.460713 229.528843 
L 276.284376 220.740981 
L 280.10804 226.991941 
L 283.931704 204.632663 
L 287.755368 260.707142 
L 291.579032 229.512898 
L 295.402695 163.265951 
L 299.226359 243.988789 
L 303.050023 174.421957 
L 306.873687 193.861145 
L 310.69735 194.821676 
L 314.521014 251.362828 
L 318.344678 193.596914 
L 322.168342 182.935023 
L 325.992005 159.691661 
L 329.815669 176.681011 
L 333.639333 160.368722 
L 337.462997 195.126922 
L 341.286661 206.685266 
L 345.110324 150.590995 
L 348.933988 142.662118 
L 352.757652 155.028558 
L 356.581316 173.366925 
L 360.404979 141.69407 
L 364.228643 142.388496 
L 368.052307 179.979096 
L 371.875971 233.270348 
L 375.699635 280.665323 
L 379.523298 163.564421 
L 383.346962 170.583702 
L 387.170626 149.690779 
L 390.99429 161.553712 
L 394.817953 144.936613 
L 398.641617 168.591525 
L 402.465281 164.098286 
L 406.288945 145.758789 
L 410.112608 161.316255 
L 413.936272 148.952747 
L 417.759936 155.199101 
L 421.5836 189.633647 
L 425.407264 150.841752 
L 429.230927 153.17543 
L 436.878255 166.521004 
L 440.701919 175.539467 
L 444.525582 189.583224 
L 448.349246 152.524233 
L 452.17291 171.672534 
L 455.996574 166.07042 
L 459.820238 217.311618 
L 463.643901 160.298563 
L 467.467565 135.93212 
L 471.291229 146.383662 
L 475.114893 143.695744 
L 478.938556 142.609224 
L 482.76222 176.004087 
L 486.585884 166.965977 
L 490.409548 145.463594 
L 494.233212 143.932299 
L 498.056875 191.195448 
L 501.880539 156.510099 
L 505.704203 165.767777 
L 509.527867 152.348858 
L 513.35153 159.279209 
L 517.175194 142.370908 
L 520.998858 147.230527 
L 524.822522 172.900567 
L 528.646185 185.169949 
L 532.469849 162.021083 
L 536.293513 165.305116 
L 540.117177 144.670394 
L 543.940841 148.10069 
L 547.764504 169.549394 
L 551.588168 141.589216 
L 555.411832 142.514748 
L 559.235496 163.108315 
L 563.059159 146.665441 
L 566.882823 149.398427 
L 570.706487 161.458006 
L 574.530151 138.047148 
L 578.353815 153.040539 
L 582.177478 147.760781 
L 586.001142 147.938776 
L 589.824806 145.483973 
L 593.64847 163.699789 
L 597.472133 140.323606 
L 601.295797 156.79008 
L 605.119461 149.69592 
L 608.943125 172.746525 
L 612.766788 142.728013 
L 616.590452 141.130372 
L 620.414116 163.561742 
L 624.23778 136.229074 
L 628.061444 139.602287 
L 631.885107 169.338186 
L 635.708771 137.807725 
L 639.532435 149.119645 
L 643.356099 159.85218 
L 647.179762 144.733588 
L 651.003426 155.809536 
L 654.82709 155.428065 
L 658.650754 156.940154 
L 662.474418 152.479438 
L 666.298081 141.640827 
L 670.121745 139.163814 
L 673.945409 147.607606 
L 677.769073 151.17741 
L 681.592736 157.331532 
L 685.4164 145.718562 
L 689.240064 151.962931 
L 693.063728 152.119282 
L 696.887392 141.399436 
L 700.711055 156.331616 
L 704.534719 137.417149 
L 708.358383 136.084449 
L 712.182047 151.326254 
L 716.00571 152.077834 
L 719.829374 150.209773 
L 723.653038 144.687077 
L 727.476702 148.501404 
L 731.300365 156.385353 
L 735.124029 151.357679 
L 738.947693 160.938287 
L 742.771357 163.563977 
L 746.595021 179.0801 
L 750.418684 152.17707 
L 754.242348 141.502698 
L 758.066012 174.603492 
L 761.889676 156.426268 
L 765.713339 247.611288 
L 769.537003 148.711574 
L 773.360667 145.984963 
L 777.184331 142.58187 
L 781.007995 134.56824 
L 784.831658 163.934586 
L 788.655322 162.169937 
L 792.478986 152.644514 
L 796.30265 148.717659 
L 800.126313 141.439474 
L 803.949977 151.845027 
L 807.773641 181.423376 
L 811.597305 139.786944 
L 815.420968 158.475955 
L 819.244632 148.287491 
L 823.068296 136.998332 
L 826.89196 154.303994 
L 830.715624 147.539483 
L 834.539287 150.106472 
L 838.362951 156.743517 
L 842.186615 161.723263 
L 846.010279 141.218723 
L 849.833942 150.204642 
L 853.657606 137.783817 
L 857.48127 143.414304 
L 861.304934 150.605753 
L 865.128598 145.959831 
L 868.952261 134.235327 
L 872.775925 148.093306 
L 876.599589 136.066682 
L 880.423253 148.765549 
L 884.246916 144.766987 
L 888.07058 167.773457 
L 891.894244 142.034577 
L 895.717908 155.696434 
L 899.541571 148.861783 
L 903.365235 149.675904 
L 907.188899 154.431253 
L 911.012563 139.13695 
L 914.836227 146.343011 
L 918.65989 141.191444 
L 922.483554 147.868245 
L 926.307218 156.164753 
L 930.130882 156.036205 
L 933.954545 147.01579 
L 933.954545 147.01579 
" clip-path="url(#pb75ba1f656)" style="fill: none; stroke: #d62728; stroke-width: 1.5; stroke-linecap: square"/>
   </g>
   <g id="patch_3">
    <path d="M 135 640.8 
L 135 86.4 
" style="fill: none; stroke: #000000; stroke-width: 0.8; stroke-linejoin: miter; stroke-linecap: square"/>
   </g>
   <g id="patch_4">
    <path d="M 972 640.8 
L 972 86.4 
" style="fill: none; stroke: #000000; stroke-width: 0.8; stroke-linejoin: miter; stroke-linecap: square"/>
   </g>
   <g id="patch_5">
    <path d="M 135 640.8 
L 972 640.8 
" style="fill: none; stroke: #000000; stroke-width: 0.8; stroke-linejoin: miter; stroke-linecap: square"/>
   </g>
   <g id="patch_6">
    <path d="M 135 86.4 
L 972 86.4 
" style="fill: none; stroke: #000000; stroke-width: 0.8; stroke-linejoin: miter; stroke-linecap: square"/>
   </g>
   <g id="legend_1">
    <g id="patch_7">
     <path d="M 142 153.1125 
L 254.8 153.1125 
Q 256.8 153.1125 256.8 151.1125 
L 256.8 93.4 
Q 256.8 91.4 254.8 91.4 
L 142 91.4 
Q 140 91.4 140 93.4 
L 140 151.1125 
Q 140 153.1125 142 153.1125 
z
" style="fill: #ffffff; opacity: 0.8; stroke: #cccccc; stroke-linejoin: miter"/>
    </g>
    <g id="line2d_20">
     <path d="M 144 99.498437 
L 154 99.498437 
L 164 99.498437 
" style="fill: none; stroke: #1f77b4; stroke-width: 1.5; stroke-linecap: square"/>
    </g>
    <g id="text_18">
     <!-- Accuracy -->
     <g transform="translate(172 102.998437) scale(0.1 -0.1)">
      <defs>
       <path id="DejaVuSans-41" d="M 2188 4044 
L 1331 1722 
L 3047 1722 
L 2188 4044 
z
M 1831 4666 
L 2547 4666 
L 4325 0 
L 3669 0 
L 3244 1197 
L 1141 1197 
L 716 0 
L 50 0 
L 1831 4666 
z
" transform="scale(0.015625)"/>
       <path id="DejaVuSans-75" d="M 544 1381 
L 544 3500 
L 1119 3500 
L 1119 1403 
Q 1119 906 1312 657 
Q 1506 409 1894 409 
Q 2359 409 2629 706 
Q 2900 1003 2900 1516 
L 2900 3500 
L 3475 3500 
L 3475 0 
L 2900 0 
L 2900 538 
Q 2691 219 2414 64 
Q 2138 -91 1772 -91 
Q 1169 -91 856 284 
Q 544 659 544 1381 
z
M 1991 3584 
L 1991 3584 
z
" transform="scale(0.015625)"/>
       <path id="DejaVuSans-61" d="M 2194 1759 
Q 1497 1759 1228 1600 
Q 959 1441 959 1056 
Q 959 750 1161 570 
Q 1363 391 1709 391 
Q 2188 391 2477 730 
Q 2766 1069 2766 1631 
L 2766 1759 
L 2194 1759 
z
M 3341 1997 
L 3341 0 
L 2766 0 
L 2766 531 
Q 2569 213 2275 61 
Q 1981 -91 1556 -91 
Q 1019 -91 701 211 
Q 384 513 384 1019 
Q 384 1609 779 1909 
Q 1175 2209 1959 2209 
L 2766 2209 
L 2766 2266 
Q 2766 2663 2505 2880 
Q 2244 3097 1772 3097 
Q 1472 3097 1187 3025 
Q 903 2953 641 2809 
L 641 3341 
Q 956 3463 1253 3523 
Q 1550 3584 1831 3584 
Q 2591 3584 2966 3190 
Q 3341 2797 3341 1997 
z
" transform="scale(0.015625)"/>
       <path id="DejaVuSans-79" d="M 2059 -325 
Q 1816 -950 1584 -1140 
Q 1353 -1331 966 -1331 
L 506 -1331 
L 506 -850 
L 844 -850 
Q 1081 -850 1212 -737 
Q 1344 -625 1503 -206 
L 1606 56 
L 191 3500 
L 800 3500 
L 1894 763 
L 2988 3500 
L 3597 3500 
L 2059 -325 
z
" transform="scale(0.015625)"/>
      </defs>
      <use xlink:href="#DejaVuSans-41"/>
      <use xlink:href="#DejaVuSans-63" x="66.658203"/>
      <use xlink:href="#DejaVuSans-63" x="121.638672"/>
      <use xlink:href="#DejaVuSans-75" x="176.619141"/>
      <use xlink:href="#DejaVuSans-72" x="239.998047"/>
      <use xlink:href="#DejaVuSans-61" x="281.111328"/>
      <use xlink:href="#DejaVuSans-63" x="342.390625"/>
      <use xlink:href="#DejaVuSans-79" x="397.371094"/>
     </g>
    </g>
    <g id="line2d_21">
     <path d="M 144 114.176562 
L 154 114.176562 
L 164 114.176562 
" style="fill: none; stroke: #ff7f0e; stroke-width: 1.5; stroke-linecap: square"/>
    </g>
    <g id="text_19">
     <!-- Precision Macro' -->
     <g transform="translate(172 117.676562) scale(0.1 -0.1)">
      <defs>
       <path id="DejaVuSans-50" d="M 1259 4147 
L 1259 2394 
L 2053 2394 
Q 2494 2394 2734 2622 
Q 2975 2850 2975 3272 
Q 2975 3691 2734 3919 
Q 2494 4147 2053 4147 
L 1259 4147 
z
M 628 4666 
L 2053 4666 
Q 2838 4666 3239 4311 
Q 3641 3956 3641 3272 
Q 3641 2581 3239 2228 
Q 2838 1875 2053 1875 
L 1259 1875 
L 1259 0 
L 628 0 
L 628 4666 
z
" transform="scale(0.015625)"/>
       <path id="DejaVuSans-69" d="M 603 3500 
L 1178 3500 
L 1178 0 
L 603 0 
L 603 3500 
z
M 603 4863 
L 1178 4863 
L 1178 4134 
L 603 4134 
L 603 4863 
z
" transform="scale(0.015625)"/>
       <path id="DejaVuSans-6e" d="M 3513 2113 
L 3513 0 
L 2938 0 
L 2938 2094 
Q 2938 2591 2744 2837 
Q 2550 3084 2163 3084 
Q 1697 3084 1428 2787 
Q 1159 2491 1159 1978 
L 1159 0 
L 581 0 
L 581 3500 
L 1159 3500 
L 1159 2956 
Q 1366 3272 1645 3428 
Q 1925 3584 2291 3584 
Q 2894 3584 3203 3211 
Q 3513 2838 3513 2113 
z
" transform="scale(0.015625)"/>
       <path id="DejaVuSans-20" transform="scale(0.015625)"/>
       <path id="DejaVuSans-4d" d="M 628 4666 
L 1569 4666 
L 2759 1491 
L 3956 4666 
L 4897 4666 
L 4897 0 
L 4281 0 
L 4281 4097 
L 3078 897 
L 2444 897 
L 1241 4097 
L 1241 0 
L 628 0 
L 628 4666 
z
" transform="scale(0.015625)"/>
       <path id="DejaVuSans-27" d="M 1147 4666 
L 1147 2931 
L 616 2931 
L 616 4666 
L 1147 4666 
z
" transform="scale(0.015625)"/>
      </defs>
      <use xlink:href="#DejaVuSans-50"/>
      <use xlink:href="#DejaVuSans-72" x="58.552734"/>
      <use xlink:href="#DejaVuSans-65" x="97.416016"/>
      <use xlink:href="#DejaVuSans-63" x="158.939453"/>
      <use xlink:href="#DejaVuSans-69" x="213.919922"/>
      <use xlink:href="#DejaVuSans-73" x="241.703125"/>
      <use xlink:href="#DejaVuSans-69" x="293.802734"/>
      <use xlink:href="#DejaVuSans-6f" x="321.585938"/>
      <use xlink:href="#DejaVuSans-6e" x="382.767578"/>
      <use xlink:href="#DejaVuSans-20" x="446.146484"/>
      <use xlink:href="#DejaVuSans-4d" x="477.933594"/>
      <use xlink:href="#DejaVuSans-61" x="564.212891"/>
      <use xlink:href="#DejaVuSans-63" x="625.492188"/>
      <use xlink:href="#DejaVuSans-72" x="680.472656"/>
      <use xlink:href="#DejaVuSans-6f" x="719.335938"/>
      <use xlink:href="#DejaVuSans-27" x="780.517578"/>
     </g>
    </g>
    <g id="line2d_22">
     <path d="M 144 128.854687 
L 154 128.854687 
L 164 128.854687 
" style="fill: none; stroke: #2ca02c; stroke-width: 1.5; stroke-linecap: square"/>
    </g>
    <g id="text_20">
     <!-- Recall Macro -->
     <g transform="translate(172 132.354687) scale(0.1 -0.1)">
      <defs>
       <path id="DejaVuSans-52" d="M 2841 2188 
Q 3044 2119 3236 1894 
Q 3428 1669 3622 1275 
L 4263 0 
L 3584 0 
L 2988 1197 
Q 2756 1666 2539 1819 
Q 2322 1972 1947 1972 
L 1259 1972 
L 1259 0 
L 628 0 
L 628 4666 
L 2053 4666 
Q 2853 4666 3247 4331 
Q 3641 3997 3641 3322 
Q 3641 2881 3436 2590 
Q 3231 2300 2841 2188 
z
M 1259 4147 
L 1259 2491 
L 2053 2491 
Q 2509 2491 2742 2702 
Q 2975 2913 2975 3322 
Q 2975 3731 2742 3939 
Q 2509 4147 2053 4147 
L 1259 4147 
z
" transform="scale(0.015625)"/>
       <path id="DejaVuSans-6c" d="M 603 4863 
L 1178 4863 
L 1178 0 
L 603 0 
L 603 4863 
z
" transform="scale(0.015625)"/>
      </defs>
      <use xlink:href="#DejaVuSans-52"/>
      <use xlink:href="#DejaVuSans-65" x="64.982422"/>
      <use xlink:href="#DejaVuSans-63" x="126.505859"/>
      <use xlink:href="#DejaVuSans-61" x="181.486328"/>
      <use xlink:href="#DejaVuSans-6c" x="242.765625"/>
      <use xlink:href="#DejaVuSans-6c" x="270.548828"/>
      <use xlink:href="#DejaVuSans-20" x="298.332031"/>
      <use xlink:href="#DejaVuSans-4d" x="330.119141"/>
      <use xlink:href="#DejaVuSans-61" x="416.398438"/>
      <use xlink:href="#DejaVuSans-63" x="477.677734"/>
      <use xlink:href="#DejaVuSans-72" x="532.658203"/>
      <use xlink:href="#DejaVuSans-6f" x="571.521484"/>
     </g>
    </g>
    <g id="line2d_23">
     <path d="M 144 143.532812 
L 154 143.532812 
L 164 143.532812 
" style="fill: none; stroke: #d62728; stroke-width: 1.5; stroke-linecap: square"/>
    </g>
    <g id="text_21">
     <!-- F1 Score Macro -->
     <g transform="translate(172 147.032812) scale(0.1 -0.1)">
      <defs>
       <path id="DejaVuSans-46" d="M 628 4666 
L 3309 4666 
L 3309 4134 
L 1259 4134 
L 1259 2759 
L 3109 2759 
L 3109 2228 
L 1259 2228 
L 1259 0 
L 628 0 
L 628 4666 
z
" transform="scale(0.015625)"/>
       <path id="DejaVuSans-53" d="M 3425 4513 
L 3425 3897 
Q 3066 4069 2747 4153 
Q 2428 4238 2131 4238 
Q 1616 4238 1336 4038 
Q 1056 3838 1056 3469 
Q 1056 3159 1242 3001 
Q 1428 2844 1947 2747 
L 2328 2669 
Q 3034 2534 3370 2195 
Q 3706 1856 3706 1288 
Q 3706 609 3251 259 
Q 2797 -91 1919 -91 
Q 1588 -91 1214 -16 
Q 841 59 441 206 
L 441 856 
Q 825 641 1194 531 
Q 1563 422 1919 422 
Q 2459 422 2753 634 
Q 3047 847 3047 1241 
Q 3047 1584 2836 1778 
Q 2625 1972 2144 2069 
L 1759 2144 
Q 1053 2284 737 2584 
Q 422 2884 422 3419 
Q 422 4038 858 4394 
Q 1294 4750 2059 4750 
Q 2388 4750 2728 4690 
Q 3069 4631 3425 4513 
z
" transform="scale(0.015625)"/>
      </defs>
      <use xlink:href="#DejaVuSans-46"/>
      <use xlink:href="#DejaVuSans-31" x="57.519531"/>
      <use xlink:href="#DejaVuSans-20" x="121.142578"/>
      <use xlink:href="#DejaVuSans-53" x="152.929688"/>
      <use xlink:href="#DejaVuSans-63" x="216.40625"/>
      <use xlink:href="#DejaVuSans-6f" x="271.386719"/>
      <use xlink:href="#DejaVuSans-72" x="332.568359"/>
      <use xlink:href="#DejaVuSans-65" x="371.431641"/>
      <use xlink:href="#DejaVuSans-20" x="432.955078"/>
      <use xlink:href="#DejaVuSans-4d" x="464.742188"/>
      <use xlink:href="#DejaVuSans-61" x="551.021484"/>
      <use xlink:href="#DejaVuSans-63" x="612.300781"/>
      <use xlink:href="#DejaVuSans-72" x="667.28125"/>
      <use xlink:href="#DejaVuSans-6f" x="706.144531"/>
     </g>
    </g>
   </g>
  </g>
 </g>
 <defs>
  <clipPath id="pb75ba1f656">
   <rect x="135" y="86.4" width="837" height="554.4"/>
  </clipPath>
 </defs>
</svg>
