<?xml version="1.0" encoding="utf-8" standalone="no"?>
<!DOCTYPE svg PUBLIC "-//W3C//DTD SVG 1.1//EN"
  "http://www.w3.org/Graphics/SVG/1.1/DTD/svg11.dtd">
<svg xmlns:xlink="http://www.w3.org/1999/xlink" width="1080pt" height="720pt" viewBox="0 0 1080 720" xmlns="http://www.w3.org/2000/svg" version="1.1">
 <metadata>
  <rdf:RDF xmlns:dc="http://purl.org/dc/elements/1.1/" xmlns:cc="http://creativecommons.org/ns#" xmlns:rdf="http://www.w3.org/1999/02/22-rdf-syntax-ns#">
   <cc:Work>
    <dc:type rdf:resource="http://purl.org/dc/dcmitype/StillImage"/>
    <dc:date>2023-11-16T23:34:08.471262</dc:date>
    <dc:format>image/svg+xml</dc:format>
    <dc:creator>
     <cc:Agent>
      <dc:title>Matplotlib v3.7.2, https://matplotlib.org/</dc:title>
     </cc:Agent>
    </dc:creator>
   </cc:Work>
  </rdf:RDF>
 </metadata>
 <defs>
  <style type="text/css">*{stroke-linejoin: round; stroke-linecap: butt}</style>
 </defs>
 <g id="figure_1">
  <g id="patch_1">
   <path d="M 0 720 
L 1080 720 
L 1080 0 
L 0 0 
z
" style="fill: #ffffff"/>
  </g>
  <g id="axes_1">
   <g id="patch_2">
    <path d="M 135 640.8 
L 972 640.8 
L 972 86.4 
L 135 86.4 
z
" style="fill: #ffffff"/>
   </g>
   <g id="matplotlib.axis_1">
    <g id="xtick_1">
     <g id="line2d_1">
      <defs>
       <path id="ma351bd4b97" d="M 0 0 
L 0 3.5 
" style="stroke: #000000; stroke-width: 0.8"/>
      </defs>
      <g>
       <use xlink:href="#ma351bd4b97" x="173.045455" y="640.8" style="stroke: #000000; stroke-width: 0.8"/>
      </g>
     </g>
     <g id="text_1">
      <!-- 0 -->
      <g transform="translate(169.864205 655.398438) scale(0.1 -0.1)">
       <defs>
        <path id="DejaVuSans-30" d="M 2034 4250 
Q 1547 4250 1301 3770 
Q 1056 3291 1056 2328 
Q 1056 1369 1301 889 
Q 1547 409 2034 409 
Q 2525 409 2770 889 
Q 3016 1369 3016 2328 
Q 3016 3291 2770 3770 
Q 2525 4250 2034 4250 
z
M 2034 4750 
Q 2819 4750 3233 4129 
Q 3647 3509 3647 2328 
Q 3647 1150 3233 529 
Q 2819 -91 2034 -91 
Q 1250 -91 836 529 
Q 422 1150 422 2328 
Q 422 3509 836 4129 
Q 1250 4750 2034 4750 
z
" transform="scale(0.015625)"/>
       </defs>
       <use xlink:href="#DejaVuSans-30"/>
      </g>
     </g>
    </g>
    <g id="xtick_2">
     <g id="line2d_2">
      <g>
       <use xlink:href="#ma351bd4b97" x="326.764463" y="640.8" style="stroke: #000000; stroke-width: 0.8"/>
      </g>
     </g>
     <g id="text_2">
      <!-- 20 -->
      <g transform="translate(320.401963 655.398438) scale(0.1 -0.1)">
       <defs>
        <path id="DejaVuSans-32" d="M 1228 531 
L 3431 531 
L 3431 0 
L 469 0 
L 469 531 
Q 828 903 1448 1529 
Q 2069 2156 2228 2338 
Q 2531 2678 2651 2914 
Q 2772 3150 2772 3378 
Q 2772 3750 2511 3984 
Q 2250 4219 1831 4219 
Q 1534 4219 1204 4116 
Q 875 4013 500 3803 
L 500 4441 
Q 881 4594 1212 4672 
Q 1544 4750 1819 4750 
Q 2544 4750 2975 4387 
Q 3406 4025 3406 3419 
Q 3406 3131 3298 2873 
Q 3191 2616 2906 2266 
Q 2828 2175 2409 1742 
Q 1991 1309 1228 531 
z
" transform="scale(0.015625)"/>
       </defs>
       <use xlink:href="#DejaVuSans-32"/>
       <use xlink:href="#DejaVuSans-30" x="63.623047"/>
      </g>
     </g>
    </g>
    <g id="xtick_3">
     <g id="line2d_3">
      <g>
       <use xlink:href="#ma351bd4b97" x="480.483471" y="640.8" style="stroke: #000000; stroke-width: 0.8"/>
      </g>
     </g>
     <g id="text_3">
      <!-- 40 -->
      <g transform="translate(474.120971 655.398438) scale(0.1 -0.1)">
       <defs>
        <path id="DejaVuSans-34" d="M 2419 4116 
L 825 1625 
L 2419 1625 
L 2419 4116 
z
M 2253 4666 
L 3047 4666 
L 3047 1625 
L 3713 1625 
L 3713 1100 
L 3047 1100 
L 3047 0 
L 2419 0 
L 2419 1100 
L 313 1100 
L 313 1709 
L 2253 4666 
z
" transform="scale(0.015625)"/>
       </defs>
       <use xlink:href="#DejaVuSans-34"/>
       <use xlink:href="#DejaVuSans-30" x="63.623047"/>
      </g>
     </g>
    </g>
    <g id="xtick_4">
     <g id="line2d_4">
      <g>
       <use xlink:href="#ma351bd4b97" x="634.202479" y="640.8" style="stroke: #000000; stroke-width: 0.8"/>
      </g>
     </g>
     <g id="text_4">
      <!-- 60 -->
      <g transform="translate(627.839979 655.398438) scale(0.1 -0.1)">
       <defs>
        <path id="DejaVuSans-36" d="M 2113 2584 
Q 1688 2584 1439 2293 
Q 1191 2003 1191 1497 
Q 1191 994 1439 701 
Q 1688 409 2113 409 
Q 2538 409 2786 701 
Q 3034 994 3034 1497 
Q 3034 2003 2786 2293 
Q 2538 2584 2113 2584 
z
M 3366 4563 
L 3366 3988 
Q 3128 4100 2886 4159 
Q 2644 4219 2406 4219 
Q 1781 4219 1451 3797 
Q 1122 3375 1075 2522 
Q 1259 2794 1537 2939 
Q 1816 3084 2150 3084 
Q 2853 3084 3261 2657 
Q 3669 2231 3669 1497 
Q 3669 778 3244 343 
Q 2819 -91 2113 -91 
Q 1303 -91 875 529 
Q 447 1150 447 2328 
Q 447 3434 972 4092 
Q 1497 4750 2381 4750 
Q 2619 4750 2861 4703 
Q 3103 4656 3366 4563 
z
" transform="scale(0.015625)"/>
       </defs>
       <use xlink:href="#DejaVuSans-36"/>
       <use xlink:href="#DejaVuSans-30" x="63.623047"/>
      </g>
     </g>
    </g>
    <g id="xtick_5">
     <g id="line2d_5">
      <g>
       <use xlink:href="#ma351bd4b97" x="787.921488" y="640.8" style="stroke: #000000; stroke-width: 0.8"/>
      </g>
     </g>
     <g id="text_5">
      <!-- 80 -->
      <g transform="translate(781.558988 655.398438) scale(0.1 -0.1)">
       <defs>
        <path id="DejaVuSans-38" d="M 2034 2216 
Q 1584 2216 1326 1975 
Q 1069 1734 1069 1313 
Q 1069 891 1326 650 
Q 1584 409 2034 409 
Q 2484 409 2743 651 
Q 3003 894 3003 1313 
Q 3003 1734 2745 1975 
Q 2488 2216 2034 2216 
z
M 1403 2484 
Q 997 2584 770 2862 
Q 544 3141 544 3541 
Q 544 4100 942 4425 
Q 1341 4750 2034 4750 
Q 2731 4750 3128 4425 
Q 3525 4100 3525 3541 
Q 3525 3141 3298 2862 
Q 3072 2584 2669 2484 
Q 3125 2378 3379 2068 
Q 3634 1759 3634 1313 
Q 3634 634 3220 271 
Q 2806 -91 2034 -91 
Q 1263 -91 848 271 
Q 434 634 434 1313 
Q 434 1759 690 2068 
Q 947 2378 1403 2484 
z
M 1172 3481 
Q 1172 3119 1398 2916 
Q 1625 2713 2034 2713 
Q 2441 2713 2670 2916 
Q 2900 3119 2900 3481 
Q 2900 3844 2670 4047 
Q 2441 4250 2034 4250 
Q 1625 4250 1398 4047 
Q 1172 3844 1172 3481 
z
" transform="scale(0.015625)"/>
       </defs>
       <use xlink:href="#DejaVuSans-38"/>
       <use xlink:href="#DejaVuSans-30" x="63.623047"/>
      </g>
     </g>
    </g>
    <g id="xtick_6">
     <g id="line2d_6">
      <g>
       <use xlink:href="#ma351bd4b97" x="941.640496" y="640.8" style="stroke: #000000; stroke-width: 0.8"/>
      </g>
     </g>
     <g id="text_6">
      <!-- 100 -->
      <g transform="translate(932.096746 655.398438) scale(0.1 -0.1)">
       <defs>
        <path id="DejaVuSans-31" d="M 794 531 
L 1825 531 
L 1825 4091 
L 703 3866 
L 703 4441 
L 1819 4666 
L 2450 4666 
L 2450 531 
L 3481 531 
L 3481 0 
L 794 0 
L 794 531 
z
" transform="scale(0.015625)"/>
       </defs>
       <use xlink:href="#DejaVuSans-31"/>
       <use xlink:href="#DejaVuSans-30" x="63.623047"/>
       <use xlink:href="#DejaVuSans-30" x="127.246094"/>
      </g>
     </g>
    </g>
    <g id="text_7">
     <!-- epoch -->
     <g transform="translate(538.271875 669.076563) scale(0.1 -0.1)">
      <defs>
       <path id="DejaVuSans-65" d="M 3597 1894 
L 3597 1613 
L 953 1613 
Q 991 1019 1311 708 
Q 1631 397 2203 397 
Q 2534 397 2845 478 
Q 3156 559 3463 722 
L 3463 178 
Q 3153 47 2828 -22 
Q 2503 -91 2169 -91 
Q 1331 -91 842 396 
Q 353 884 353 1716 
Q 353 2575 817 3079 
Q 1281 3584 2069 3584 
Q 2775 3584 3186 3129 
Q 3597 2675 3597 1894 
z
M 3022 2063 
Q 3016 2534 2758 2815 
Q 2500 3097 2075 3097 
Q 1594 3097 1305 2825 
Q 1016 2553 972 2059 
L 3022 2063 
z
" transform="scale(0.015625)"/>
       <path id="DejaVuSans-70" d="M 1159 525 
L 1159 -1331 
L 581 -1331 
L 581 3500 
L 1159 3500 
L 1159 2969 
Q 1341 3281 1617 3432 
Q 1894 3584 2278 3584 
Q 2916 3584 3314 3078 
Q 3713 2572 3713 1747 
Q 3713 922 3314 415 
Q 2916 -91 2278 -91 
Q 1894 -91 1617 61 
Q 1341 213 1159 525 
z
M 3116 1747 
Q 3116 2381 2855 2742 
Q 2594 3103 2138 3103 
Q 1681 3103 1420 2742 
Q 1159 2381 1159 1747 
Q 1159 1113 1420 752 
Q 1681 391 2138 391 
Q 2594 391 2855 752 
Q 3116 1113 3116 1747 
z
" transform="scale(0.015625)"/>
       <path id="DejaVuSans-6f" d="M 1959 3097 
Q 1497 3097 1228 2736 
Q 959 2375 959 1747 
Q 959 1119 1226 758 
Q 1494 397 1959 397 
Q 2419 397 2687 759 
Q 2956 1122 2956 1747 
Q 2956 2369 2687 2733 
Q 2419 3097 1959 3097 
z
M 1959 3584 
Q 2709 3584 3137 3096 
Q 3566 2609 3566 1747 
Q 3566 888 3137 398 
Q 2709 -91 1959 -91 
Q 1206 -91 779 398 
Q 353 888 353 1747 
Q 353 2609 779 3096 
Q 1206 3584 1959 3584 
z
" transform="scale(0.015625)"/>
       <path id="DejaVuSans-63" d="M 3122 3366 
L 3122 2828 
Q 2878 2963 2633 3030 
Q 2388 3097 2138 3097 
Q 1578 3097 1268 2742 
Q 959 2388 959 1747 
Q 959 1106 1268 751 
Q 1578 397 2138 397 
Q 2388 397 2633 464 
Q 2878 531 3122 666 
L 3122 134 
Q 2881 22 2623 -34 
Q 2366 -91 2075 -91 
Q 1284 -91 818 406 
Q 353 903 353 1747 
Q 353 2603 823 3093 
Q 1294 3584 2113 3584 
Q 2378 3584 2631 3529 
Q 2884 3475 3122 3366 
z
" transform="scale(0.015625)"/>
       <path id="DejaVuSans-68" d="M 3513 2113 
L 3513 0 
L 2938 0 
L 2938 2094 
Q 2938 2591 2744 2837 
Q 2550 3084 2163 3084 
Q 1697 3084 1428 2787 
Q 1159 2491 1159 1978 
L 1159 0 
L 581 0 
L 581 4863 
L 1159 4863 
L 1159 2956 
Q 1366 3272 1645 3428 
Q 1925 3584 2291 3584 
Q 2894 3584 3203 3211 
Q 3513 2838 3513 2113 
z
" transform="scale(0.015625)"/>
      </defs>
      <use xlink:href="#DejaVuSans-65"/>
      <use xlink:href="#DejaVuSans-70" x="61.523438"/>
      <use xlink:href="#DejaVuSans-6f" x="125"/>
      <use xlink:href="#DejaVuSans-63" x="186.181641"/>
      <use xlink:href="#DejaVuSans-68" x="241.162109"/>
     </g>
    </g>
   </g>
   <g id="matplotlib.axis_2">
    <g id="ytick_1">
     <g id="line2d_7">
      <defs>
       <path id="m0d15d51b4c" d="M 0 0 
L -3.5 0 
" style="stroke: #000000; stroke-width: 0.8"/>
      </defs>
      <g>
       <use xlink:href="#m0d15d51b4c" x="135" y="591.683" style="stroke: #000000; stroke-width: 0.8"/>
      </g>
     </g>
     <g id="text_8">
      <!-- 0.1 -->
      <g transform="translate(112.096875 595.482219) scale(0.1 -0.1)">
       <defs>
        <path id="DejaVuSans-2e" d="M 684 794 
L 1344 794 
L 1344 0 
L 684 0 
L 684 794 
z
" transform="scale(0.015625)"/>
       </defs>
       <use xlink:href="#DejaVuSans-30"/>
       <use xlink:href="#DejaVuSans-2e" x="63.623047"/>
       <use xlink:href="#DejaVuSans-31" x="95.410156"/>
      </g>
     </g>
    </g>
    <g id="ytick_2">
     <g id="line2d_8">
      <g>
       <use xlink:href="#m0d15d51b4c" x="135" y="504.444763" style="stroke: #000000; stroke-width: 0.8"/>
      </g>
     </g>
     <g id="text_9">
      <!-- 0.2 -->
      <g transform="translate(112.096875 508.243982) scale(0.1 -0.1)">
       <use xlink:href="#DejaVuSans-30"/>
       <use xlink:href="#DejaVuSans-2e" x="63.623047"/>
       <use xlink:href="#DejaVuSans-32" x="95.410156"/>
      </g>
     </g>
    </g>
    <g id="ytick_3">
     <g id="line2d_9">
      <g>
       <use xlink:href="#m0d15d51b4c" x="135" y="417.206526" style="stroke: #000000; stroke-width: 0.8"/>
      </g>
     </g>
     <g id="text_10">
      <!-- 0.3 -->
      <g transform="translate(112.096875 421.005745) scale(0.1 -0.1)">
       <defs>
        <path id="DejaVuSans-33" d="M 2597 2516 
Q 3050 2419 3304 2112 
Q 3559 1806 3559 1356 
Q 3559 666 3084 287 
Q 2609 -91 1734 -91 
Q 1441 -91 1130 -33 
Q 819 25 488 141 
L 488 750 
Q 750 597 1062 519 
Q 1375 441 1716 441 
Q 2309 441 2620 675 
Q 2931 909 2931 1356 
Q 2931 1769 2642 2001 
Q 2353 2234 1838 2234 
L 1294 2234 
L 1294 2753 
L 1863 2753 
Q 2328 2753 2575 2939 
Q 2822 3125 2822 3475 
Q 2822 3834 2567 4026 
Q 2313 4219 1838 4219 
Q 1578 4219 1281 4162 
Q 984 4106 628 3988 
L 628 4550 
Q 988 4650 1302 4700 
Q 1616 4750 1894 4750 
Q 2613 4750 3031 4423 
Q 3450 4097 3450 3541 
Q 3450 3153 3228 2886 
Q 3006 2619 2597 2516 
z
" transform="scale(0.015625)"/>
       </defs>
       <use xlink:href="#DejaVuSans-30"/>
       <use xlink:href="#DejaVuSans-2e" x="63.623047"/>
       <use xlink:href="#DejaVuSans-33" x="95.410156"/>
      </g>
     </g>
    </g>
    <g id="ytick_4">
     <g id="line2d_10">
      <g>
       <use xlink:href="#m0d15d51b4c" x="135" y="329.968289" style="stroke: #000000; stroke-width: 0.8"/>
      </g>
     </g>
     <g id="text_11">
      <!-- 0.4 -->
      <g transform="translate(112.096875 333.767508) scale(0.1 -0.1)">
       <use xlink:href="#DejaVuSans-30"/>
       <use xlink:href="#DejaVuSans-2e" x="63.623047"/>
       <use xlink:href="#DejaVuSans-34" x="95.410156"/>
      </g>
     </g>
    </g>
    <g id="ytick_5">
     <g id="line2d_11">
      <g>
       <use xlink:href="#m0d15d51b4c" x="135" y="242.730052" style="stroke: #000000; stroke-width: 0.8"/>
      </g>
     </g>
     <g id="text_12">
      <!-- 0.5 -->
      <g transform="translate(112.096875 246.529271) scale(0.1 -0.1)">
       <defs>
        <path id="DejaVuSans-35" d="M 691 4666 
L 3169 4666 
L 3169 4134 
L 1269 4134 
L 1269 2991 
Q 1406 3038 1543 3061 
Q 1681 3084 1819 3084 
Q 2600 3084 3056 2656 
Q 3513 2228 3513 1497 
Q 3513 744 3044 326 
Q 2575 -91 1722 -91 
Q 1428 -91 1123 -41 
Q 819 9 494 109 
L 494 744 
Q 775 591 1075 516 
Q 1375 441 1709 441 
Q 2250 441 2565 725 
Q 2881 1009 2881 1497 
Q 2881 1984 2565 2268 
Q 2250 2553 1709 2553 
Q 1456 2553 1204 2497 
Q 953 2441 691 2322 
L 691 4666 
z
" transform="scale(0.015625)"/>
       </defs>
       <use xlink:href="#DejaVuSans-30"/>
       <use xlink:href="#DejaVuSans-2e" x="63.623047"/>
       <use xlink:href="#DejaVuSans-35" x="95.410156"/>
      </g>
     </g>
    </g>
    <g id="ytick_6">
     <g id="line2d_12">
      <g>
       <use xlink:href="#m0d15d51b4c" x="135" y="155.491815" style="stroke: #000000; stroke-width: 0.8"/>
      </g>
     </g>
     <g id="text_13">
      <!-- 0.6 -->
      <g transform="translate(112.096875 159.291034) scale(0.1 -0.1)">
       <use xlink:href="#DejaVuSans-30"/>
       <use xlink:href="#DejaVuSans-2e" x="63.623047"/>
       <use xlink:href="#DejaVuSans-36" x="95.410156"/>
      </g>
     </g>
    </g>
    <g id="text_14">
     <!-- score -->
     <g transform="translate(106.017187 377.032812) rotate(-90) scale(0.1 -0.1)">
      <defs>
       <path id="DejaVuSans-73" d="M 2834 3397 
L 2834 2853 
Q 2591 2978 2328 3040 
Q 2066 3103 1784 3103 
Q 1356 3103 1142 2972 
Q 928 2841 928 2578 
Q 928 2378 1081 2264 
Q 1234 2150 1697 2047 
L 1894 2003 
Q 2506 1872 2764 1633 
Q 3022 1394 3022 966 
Q 3022 478 2636 193 
Q 2250 -91 1575 -91 
Q 1294 -91 989 -36 
Q 684 19 347 128 
L 347 722 
Q 666 556 975 473 
Q 1284 391 1588 391 
Q 1994 391 2212 530 
Q 2431 669 2431 922 
Q 2431 1156 2273 1281 
Q 2116 1406 1581 1522 
L 1381 1569 
Q 847 1681 609 1914 
Q 372 2147 372 2553 
Q 372 3047 722 3315 
Q 1072 3584 1716 3584 
Q 2034 3584 2315 3537 
Q 2597 3491 2834 3397 
z
" transform="scale(0.015625)"/>
       <path id="DejaVuSans-72" d="M 2631 2963 
Q 2534 3019 2420 3045 
Q 2306 3072 2169 3072 
Q 1681 3072 1420 2755 
Q 1159 2438 1159 1844 
L 1159 0 
L 581 0 
L 581 3500 
L 1159 3500 
L 1159 2956 
Q 1341 3275 1631 3429 
Q 1922 3584 2338 3584 
Q 2397 3584 2469 3576 
Q 2541 3569 2628 3553 
L 2631 2963 
z
" transform="scale(0.015625)"/>
      </defs>
      <use xlink:href="#DejaVuSans-73"/>
      <use xlink:href="#DejaVuSans-63" x="52.099609"/>
      <use xlink:href="#DejaVuSans-6f" x="107.080078"/>
      <use xlink:href="#DejaVuSans-72" x="168.261719"/>
      <use xlink:href="#DejaVuSans-65" x="207.125"/>
     </g>
    </g>
   </g>
   <g id="line2d_13">
    <path d="M 173.045455 438.967075 
L 180.731405 425.636288 
L 188.417355 384.859764 
L 196.103306 337.809928 
L 203.789256 309.187945 
L 211.475207 331.928699 
L 219.161157 288.015519 
L 226.847107 288.407601 
L 234.533058 288.799683 
L 242.219008 271.548076 
L 249.904959 261.746027 
L 257.590909 308.011699 
L 265.27686 240.965683 
L 272.96281 281.350126 
L 280.64876 257.825208 
L 288.334711 317.029584 
L 296.020661 223.321995 
L 303.706612 219.793257 
L 311.392562 264.098519 
L 319.078512 217.832847 
L 326.764463 230.771552 
L 334.450413 206.854552 
L 342.136364 218.224929 
L 349.822314 278.21347 
L 357.508264 224.498241 
L 365.194215 239.005273 
L 372.880165 190.779192 
L 380.566116 219.009093 
L 388.252066 195.484175 
L 395.938017 196.660421 
L 403.623967 190.779192 
L 411.309917 199.012913 
L 418.995868 219.009093 
L 426.681818 188.034618 
L 434.367769 182.937553 
L 442.053719 196.268339 
L 449.739669 168.038438 
L 457.42562 197.052503 
L 465.11157 223.714077 
L 472.797521 168.038438 
L 480.483471 167.254274 
L 488.169421 180.977143 
L 495.855372 173.135503 
L 503.541322 168.822602 
L 511.227273 184.113798 
L 518.913223 180.977143 
L 526.599174 169.606766 
L 534.285124 183.721716 
L 541.971074 172.743421 
L 549.657025 213.912028 
L 557.342975 172.351339 
L 565.028926 162.54929 
L 572.714876 179.800897 
L 580.400826 169.214684 
L 588.086777 179.016733 
L 595.772727 224.890323 
L 603.458678 196.268339 
L 611.144628 154.707651 
L 618.830579 172.743421 
L 626.516529 166.078028 
L 634.202479 164.117618 
L 641.88843 160.588881 
L 649.57438 163.333454 
L 657.260331 160.588881 
L 664.946281 168.038438 
L 672.632231 164.117618 
L 680.318182 148.43434 
L 688.004132 175.880077 
L 695.690083 171.567176 
L 703.376033 157.060143 
L 711.061983 159.804717 
L 718.747934 158.628471 
L 726.433884 180.192979 
L 734.119835 213.519946 
L 741.805785 150.002668 
L 749.491736 156.275979 
L 757.177686 184.897962 
L 764.863636 152.747241 
L 772.549587 136.279799 
L 780.235537 166.078028 
L 787.921488 138.240209 
L 795.607438 166.47011 
L 803.293388 151.178913 
L 810.979339 166.862192 
L 818.665289 150.394749 
L 826.35124 156.275979 
L 834.03719 157.452225 
L 841.72314 157.452225 
L 849.409091 149.218504 
L 857.095041 160.588881 
L 864.780992 161.765126 
L 872.466942 169.214684 
L 880.152893 172.743421 
L 887.838843 151.178913 
L 895.524793 165.293864 
L 903.210744 162.941372 
L 910.896694 164.901782 
L 918.582645 169.214684 
L 926.268595 148.042258 
L 933.954545 153.923487 
" clip-path="url(#p6d389e0213)" style="fill: none; stroke: #1f77b4; stroke-width: 1.5; stroke-linecap: square"/>
   </g>
   <g id="line2d_14">
    <path d="M 173.045455 557.495844 
L 180.731405 615.6 
L 188.417355 531.443157 
L 196.103306 439.348657 
L 203.789256 384.029189 
L 211.475207 468.167995 
L 219.161157 303.215467 
L 226.847107 320.278577 
L 234.533058 262.946902 
L 242.219008 280.139702 
L 249.904959 320.729035 
L 257.590909 250.179471 
L 265.27686 251.164173 
L 272.96281 232.838476 
L 280.64876 253.787861 
L 288.334711 266.278494 
L 296.020661 243.450788 
L 303.706612 230.368109 
L 311.392562 220.988404 
L 319.078512 250.430379 
L 326.764463 233.088137 
L 334.450413 227.565531 
L 342.136364 202.887766 
L 349.822314 221.093554 
L 357.508264 186.985057 
L 365.194215 240.781224 
L 372.880165 201.842503 
L 380.566116 206.477007 
L 388.252066 214.665522 
L 395.938017 209.152028 
L 403.623967 194.50209 
L 411.309917 196.702005 
L 418.995868 211.996328 
L 426.681818 195.363804 
L 434.367769 191.576308 
L 442.053719 179.14937 
L 449.739669 163.182224 
L 457.42562 206.77926 
L 465.11157 204.21827 
L 472.797521 176.902694 
L 480.483471 159.601357 
L 488.169421 146.720527 
L 495.855372 145.522437 
L 503.541322 171.564449 
L 511.227273 199.763448 
L 518.913223 161.236826 
L 526.599174 176.32916 
L 534.285124 187.543667 
L 541.971074 187.400296 
L 549.657025 111.6 
L 557.342975 159.765055 
L 565.028926 168.49627 
L 572.714876 155.785645 
L 580.400826 136.655164 
L 588.086777 147.740472 
L 595.772727 151.732844 
L 603.458678 158.581804 
L 611.144628 151.927523 
L 618.830579 175.693552 
L 626.516529 173.250026 
L 634.202479 152.095858 
L 641.88843 154.546037 
L 649.57438 162.879005 
L 657.260331 153.804858 
L 664.946281 150.698412 
L 672.632231 164.661865 
L 680.318182 150.465982 
L 688.004132 150.399469 
L 695.690083 152.620746 
L 703.376033 144.099343 
L 711.061983 149.636598 
L 718.747934 161.430626 
L 726.433884 150.822011 
L 734.119835 158.529288 
L 741.805785 161.120748 
L 749.491736 166.946335 
L 757.177686 154.873017 
L 764.863636 144.994512 
L 772.549587 127.820334 
L 780.235537 163.67345 
L 787.921488 137.2575 
L 795.607438 135.294488 
L 803.293388 148.588955 
L 810.979339 152.990681 
L 818.665289 147.628265 
L 826.35124 157.550499 
L 834.03719 178.696668 
L 841.72314 160.980692 
L 849.409091 157.248405 
L 857.095041 153.167359 
L 864.780992 154.841932 
L 872.466942 131.808263 
L 880.152893 125.628687 
L 887.838843 149.317079 
L 895.524793 158.842259 
L 903.210744 161.08504 
L 910.896694 121.238912 
L 918.582645 155.534042 
L 926.268595 144.563998 
L 933.954545 142.015216 
" clip-path="url(#p6d389e0213)" style="fill: none; stroke: #ff7f0e; stroke-width: 1.5; stroke-linecap: square"/>
   </g>
   <g id="line2d_15">
    <path d="M 173.045455 455.365499 
L 180.731405 460.825645 
L 188.417355 409.714804 
L 196.103306 360.269655 
L 203.789256 328.215256 
L 211.475207 353.028657 
L 219.161157 301.887291 
L 226.847107 304.527268 
L 234.533058 312.109346 
L 242.219008 281.763832 
L 249.904959 273.258168 
L 257.590909 293.325109 
L 265.27686 239.272271 
L 272.96281 303.976266 
L 280.64876 245.934565 
L 288.334711 295.923043 
L 296.020661 218.51772 
L 303.706612 230.615946 
L 311.392562 289.59214 
L 319.078512 228.688894 
L 326.764463 248.199374 
L 334.450413 203.08689 
L 342.136364 231.242558 
L 349.822314 259.858031 
L 357.508264 212.902837 
L 365.194215 258.422176 
L 372.880165 193.838925 
L 380.566116 203.883204 
L 388.252066 197.76954 
L 395.938017 190.909489 
L 403.623967 188.076659 
L 411.309917 197.624823 
L 418.995868 230.494332 
L 426.681818 184.818084 
L 434.367769 187.512427 
L 442.053719 206.893287 
L 449.739669 165.795684 
L 457.42562 206.607339 
L 465.11157 234.370544 
L 472.797521 168.052943 
L 480.483471 166.583266 
L 488.169421 183.738729 
L 495.855372 164.806756 
L 503.541322 169.780485 
L 511.227273 194.751604 
L 518.913223 179.737104 
L 526.599174 177.874325 
L 534.285124 194.409739 
L 541.971074 168.491734 
L 549.657025 222.274147 
L 557.342975 178.963976 
L 565.028926 161.078581 
L 572.714876 193.407849 
L 580.400826 159.075757 
L 588.086777 171.76967 
L 595.772727 205.271558 
L 603.458678 211.131077 
L 611.144628 148.80738 
L 618.830579 163.444347 
L 626.516529 163.015285 
L 634.202479 159.125724 
L 641.88843 151.150699 
L 649.57438 158.811606 
L 657.260331 155.608845 
L 664.946281 177.725719 
L 672.632231 168.191823 
L 680.318182 149.657443 
L 688.004132 182.189193 
L 695.690083 180.332452 
L 703.376033 155.57021 
L 711.061983 161.729076 
L 718.747934 159.826704 
L 726.433884 170.694458 
L 734.119835 209.797943 
L 741.805785 153.500425 
L 749.491736 160.643336 
L 757.177686 199.368252 
L 764.863636 151.140295 
L 772.549587 139.411666 
L 780.235537 163.333817 
L 787.921488 141.977897 
L 795.607438 174.813151 
L 803.293388 145.032452 
L 810.979339 168.617686 
L 818.665289 149.038677 
L 826.35124 150.302397 
L 834.03719 153.41548 
L 841.72314 148.808826 
L 849.409091 149.224511 
L 857.095041 150.915261 
L 864.780992 152.551569 
L 872.466942 160.000774 
L 880.152893 170.7067 
L 887.838843 143.300625 
L 895.524793 169.406104 
L 903.210744 163.913601 
L 910.896694 160.039984 
L 918.582645 157.702627 
L 926.268595 146.099148 
L 933.954545 148.503057 
" clip-path="url(#p6d389e0213)" style="fill: none; stroke: #2ca02c; stroke-width: 1.5; stroke-linecap: square"/>
   </g>
   <g id="line2d_16">
    <path d="M 173.045455 522.776752 
L 180.731405 580.774422 
L 188.417355 490.637289 
L 196.103306 441.558367 
L 203.789256 377.041184 
L 211.475207 452.050928 
L 219.161157 337.282803 
L 226.847107 338.597762 
L 234.533058 336.941096 
L 242.219008 318.062532 
L 249.904959 319.710485 
L 257.590909 302.486971 
L 265.27686 251.363804 
L 272.96281 335.54914 
L 280.64876 278.625916 
L 288.334711 328.003842 
L 296.020661 249.162107 
L 303.706612 249.756922 
L 311.392562 345.817216 
L 319.078512 269.6703 
L 326.764463 287.216191 
L 334.450413 230.442632 
L 342.136364 237.200998 
L 349.822314 297.744189 
L 357.508264 221.91441 
L 365.194215 299.234824 
L 372.880165 204.906836 
L 380.566116 227.494491 
L 388.252066 218.004999 
L 395.938017 206.97807 
L 403.623967 191.788696 
L 411.309917 254.264588 
L 418.995868 241.697405 
L 426.681818 210.030719 
L 434.367769 206.542023 
L 442.053719 205.536609 
L 449.739669 167.043627 
L 457.42562 232.577554 
L 465.11157 250.16459 
L 472.797521 176.155086 
L 480.483471 165.988401 
L 488.169421 176.377402 
L 495.855372 170.785512 
L 503.541322 177.437018 
L 511.227273 223.666576 
L 518.913223 172.890961 
L 526.599174 189.021654 
L 534.285124 210.014547 
L 541.971074 188.934213 
L 549.657025 205.970438 
L 557.342975 176.922845 
L 565.028926 165.367695 
L 572.714876 205.931861 
L 580.400826 164.377961 
L 588.086777 169.917003 
L 595.772727 226.897721 
L 603.458678 213.671577 
L 611.144628 154.523686 
L 618.830579 176.517545 
L 626.516529 170.261814 
L 634.202479 158.013057 
L 641.88843 159.622236 
L 649.57438 161.490253 
L 657.260331 155.578459 
L 664.946281 181.818847 
L 672.632231 170.833436 
L 680.318182 152.915399 
L 688.004132 176.659292 
L 695.690083 180.240653 
L 703.376033 155.116717 
L 711.061983 159.842707 
L 718.747934 171.603957 
L 726.433884 177.27433 
L 734.119835 221.882647 
L 741.805785 165.194271 
L 749.491736 172.923543 
L 757.177686 203.192201 
L 764.863636 151.535017 
L 772.549587 135.706756 
L 780.235537 166.086929 
L 787.921488 144.549885 
L 795.607438 166.03376 
L 803.293388 149.208425 
L 810.979339 162.950933 
L 818.665289 151.312132 
L 826.35124 155.549025 
L 834.03719 180.684784 
L 841.72314 169.036603 
L 849.409091 177.913318 
L 857.095041 159.490663 
L 864.780992 160.002344 
L 872.466942 156.640872 
L 880.152893 167.10376 
L 887.838843 150.955443 
L 895.524793 166.768638 
L 903.210744 170.983016 
L 910.896694 150.033995 
L 918.582645 166.990674 
L 926.268595 147.110857 
L 933.954545 152.825991 
" clip-path="url(#p6d389e0213)" style="fill: none; stroke: #d62728; stroke-width: 1.5; stroke-linecap: square"/>
   </g>
   <g id="patch_3">
    <path d="M 135 640.8 
L 135 86.4 
" style="fill: none; stroke: #000000; stroke-width: 0.8; stroke-linejoin: miter; stroke-linecap: square"/>
   </g>
   <g id="patch_4">
    <path d="M 972 640.8 
L 972 86.4 
" style="fill: none; stroke: #000000; stroke-width: 0.8; stroke-linejoin: miter; stroke-linecap: square"/>
   </g>
   <g id="patch_5">
    <path d="M 135 640.8 
L 972 640.8 
" style="fill: none; stroke: #000000; stroke-width: 0.8; stroke-linejoin: miter; stroke-linecap: square"/>
   </g>
   <g id="patch_6">
    <path d="M 135 86.4 
L 972 86.4 
" style="fill: none; stroke: #000000; stroke-width: 0.8; stroke-linejoin: miter; stroke-linecap: square"/>
   </g>
   <g id="legend_1">
    <g id="patch_7">
     <path d="M 142 153.1125 
L 254.8 153.1125 
Q 256.8 153.1125 256.8 151.1125 
L 256.8 93.4 
Q 256.8 91.4 254.8 91.4 
L 142 91.4 
Q 140 91.4 140 93.4 
L 140 151.1125 
Q 140 153.1125 142 153.1125 
z
" style="fill: #ffffff; opacity: 0.8; stroke: #cccccc; stroke-linejoin: miter"/>
    </g>
    <g id="line2d_17">
     <path d="M 144 99.498437 
L 154 99.498437 
L 164 99.498437 
" style="fill: none; stroke: #1f77b4; stroke-width: 1.5; stroke-linecap: square"/>
    </g>
    <g id="text_15">
     <!-- Accuracy -->
     <g transform="translate(172 102.998437) scale(0.1 -0.1)">
      <defs>
       <path id="DejaVuSans-41" d="M 2188 4044 
L 1331 1722 
L 3047 1722 
L 2188 4044 
z
M 1831 4666 
L 2547 4666 
L 4325 0 
L 3669 0 
L 3244 1197 
L 1141 1197 
L 716 0 
L 50 0 
L 1831 4666 
z
" transform="scale(0.015625)"/>
       <path id="DejaVuSans-75" d="M 544 1381 
L 544 3500 
L 1119 3500 
L 1119 1403 
Q 1119 906 1312 657 
Q 1506 409 1894 409 
Q 2359 409 2629 706 
Q 2900 1003 2900 1516 
L 2900 3500 
L 3475 3500 
L 3475 0 
L 2900 0 
L 2900 538 
Q 2691 219 2414 64 
Q 2138 -91 1772 -91 
Q 1169 -91 856 284 
Q 544 659 544 1381 
z
M 1991 3584 
L 1991 3584 
z
" transform="scale(0.015625)"/>
       <path id="DejaVuSans-61" d="M 2194 1759 
Q 1497 1759 1228 1600 
Q 959 1441 959 1056 
Q 959 750 1161 570 
Q 1363 391 1709 391 
Q 2188 391 2477 730 
Q 2766 1069 2766 1631 
L 2766 1759 
L 2194 1759 
z
M 3341 1997 
L 3341 0 
L 2766 0 
L 2766 531 
Q 2569 213 2275 61 
Q 1981 -91 1556 -91 
Q 1019 -91 701 211 
Q 384 513 384 1019 
Q 384 1609 779 1909 
Q 1175 2209 1959 2209 
L 2766 2209 
L 2766 2266 
Q 2766 2663 2505 2880 
Q 2244 3097 1772 3097 
Q 1472 3097 1187 3025 
Q 903 2953 641 2809 
L 641 3341 
Q 956 3463 1253 3523 
Q 1550 3584 1831 3584 
Q 2591 3584 2966 3190 
Q 3341 2797 3341 1997 
z
" transform="scale(0.015625)"/>
       <path id="DejaVuSans-79" d="M 2059 -325 
Q 1816 -950 1584 -1140 
Q 1353 -1331 966 -1331 
L 506 -1331 
L 506 -850 
L 844 -850 
Q 1081 -850 1212 -737 
Q 1344 -625 1503 -206 
L 1606 56 
L 191 3500 
L 800 3500 
L 1894 763 
L 2988 3500 
L 3597 3500 
L 2059 -325 
z
" transform="scale(0.015625)"/>
      </defs>
      <use xlink:href="#DejaVuSans-41"/>
      <use xlink:href="#DejaVuSans-63" x="66.658203"/>
      <use xlink:href="#DejaVuSans-63" x="121.638672"/>
      <use xlink:href="#DejaVuSans-75" x="176.619141"/>
      <use xlink:href="#DejaVuSans-72" x="239.998047"/>
      <use xlink:href="#DejaVuSans-61" x="281.111328"/>
      <use xlink:href="#DejaVuSans-63" x="342.390625"/>
      <use xlink:href="#DejaVuSans-79" x="397.371094"/>
     </g>
    </g>
    <g id="line2d_18">
     <path d="M 144 114.176562 
L 154 114.176562 
L 164 114.176562 
" style="fill: none; stroke: #ff7f0e; stroke-width: 1.5; stroke-linecap: square"/>
    </g>
    <g id="text_16">
     <!-- Precision Macro' -->
     <g transform="translate(172 117.676562) scale(0.1 -0.1)">
      <defs>
       <path id="DejaVuSans-50" d="M 1259 4147 
L 1259 2394 
L 2053 2394 
Q 2494 2394 2734 2622 
Q 2975 2850 2975 3272 
Q 2975 3691 2734 3919 
Q 2494 4147 2053 4147 
L 1259 4147 
z
M 628 4666 
L 2053 4666 
Q 2838 4666 3239 4311 
Q 3641 3956 3641 3272 
Q 3641 2581 3239 2228 
Q 2838 1875 2053 1875 
L 1259 1875 
L 1259 0 
L 628 0 
L 628 4666 
z
" transform="scale(0.015625)"/>
       <path id="DejaVuSans-69" d="M 603 3500 
L 1178 3500 
L 1178 0 
L 603 0 
L 603 3500 
z
M 603 4863 
L 1178 4863 
L 1178 4134 
L 603 4134 
L 603 4863 
z
" transform="scale(0.015625)"/>
       <path id="DejaVuSans-6e" d="M 3513 2113 
L 3513 0 
L 2938 0 
L 2938 2094 
Q 2938 2591 2744 2837 
Q 2550 3084 2163 3084 
Q 1697 3084 1428 2787 
Q 1159 2491 1159 1978 
L 1159 0 
L 581 0 
L 581 3500 
L 1159 3500 
L 1159 2956 
Q 1366 3272 1645 3428 
Q 1925 3584 2291 3584 
Q 2894 3584 3203 3211 
Q 3513 2838 3513 2113 
z
" transform="scale(0.015625)"/>
       <path id="DejaVuSans-20" transform="scale(0.015625)"/>
       <path id="DejaVuSans-4d" d="M 628 4666 
L 1569 4666 
L 2759 1491 
L 3956 4666 
L 4897 4666 
L 4897 0 
L 4281 0 
L 4281 4097 
L 3078 897 
L 2444 897 
L 1241 4097 
L 1241 0 
L 628 0 
L 628 4666 
z
" transform="scale(0.015625)"/>
       <path id="DejaVuSans-27" d="M 1147 4666 
L 1147 2931 
L 616 2931 
L 616 4666 
L 1147 4666 
z
" transform="scale(0.015625)"/>
      </defs>
      <use xlink:href="#DejaVuSans-50"/>
      <use xlink:href="#DejaVuSans-72" x="58.552734"/>
      <use xlink:href="#DejaVuSans-65" x="97.416016"/>
      <use xlink:href="#DejaVuSans-63" x="158.939453"/>
      <use xlink:href="#DejaVuSans-69" x="213.919922"/>
      <use xlink:href="#DejaVuSans-73" x="241.703125"/>
      <use xlink:href="#DejaVuSans-69" x="293.802734"/>
      <use xlink:href="#DejaVuSans-6f" x="321.585938"/>
      <use xlink:href="#DejaVuSans-6e" x="382.767578"/>
      <use xlink:href="#DejaVuSans-20" x="446.146484"/>
      <use xlink:href="#DejaVuSans-4d" x="477.933594"/>
      <use xlink:href="#DejaVuSans-61" x="564.212891"/>
      <use xlink:href="#DejaVuSans-63" x="625.492188"/>
      <use xlink:href="#DejaVuSans-72" x="680.472656"/>
      <use xlink:href="#DejaVuSans-6f" x="719.335938"/>
      <use xlink:href="#DejaVuSans-27" x="780.517578"/>
     </g>
    </g>
    <g id="line2d_19">
     <path d="M 144 128.854687 
L 154 128.854687 
L 164 128.854687 
" style="fill: none; stroke: #2ca02c; stroke-width: 1.5; stroke-linecap: square"/>
    </g>
    <g id="text_17">
     <!-- Recall Macro -->
     <g transform="translate(172 132.354687) scale(0.1 -0.1)">
      <defs>
       <path id="DejaVuSans-52" d="M 2841 2188 
Q 3044 2119 3236 1894 
Q 3428 1669 3622 1275 
L 4263 0 
L 3584 0 
L 2988 1197 
Q 2756 1666 2539 1819 
Q 2322 1972 1947 1972 
L 1259 1972 
L 1259 0 
L 628 0 
L 628 4666 
L 2053 4666 
Q 2853 4666 3247 4331 
Q 3641 3997 3641 3322 
Q 3641 2881 3436 2590 
Q 3231 2300 2841 2188 
z
M 1259 4147 
L 1259 2491 
L 2053 2491 
Q 2509 2491 2742 2702 
Q 2975 2913 2975 3322 
Q 2975 3731 2742 3939 
Q 2509 4147 2053 4147 
L 1259 4147 
z
" transform="scale(0.015625)"/>
       <path id="DejaVuSans-6c" d="M 603 4863 
L 1178 4863 
L 1178 0 
L 603 0 
L 603 4863 
z
" transform="scale(0.015625)"/>
      </defs>
      <use xlink:href="#DejaVuSans-52"/>
      <use xlink:href="#DejaVuSans-65" x="64.982422"/>
      <use xlink:href="#DejaVuSans-63" x="126.505859"/>
      <use xlink:href="#DejaVuSans-61" x="181.486328"/>
      <use xlink:href="#DejaVuSans-6c" x="242.765625"/>
      <use xlink:href="#DejaVuSans-6c" x="270.548828"/>
      <use xlink:href="#DejaVuSans-20" x="298.332031"/>
      <use xlink:href="#DejaVuSans-4d" x="330.119141"/>
      <use xlink:href="#DejaVuSans-61" x="416.398438"/>
      <use xlink:href="#DejaVuSans-63" x="477.677734"/>
      <use xlink:href="#DejaVuSans-72" x="532.658203"/>
      <use xlink:href="#DejaVuSans-6f" x="571.521484"/>
     </g>
    </g>
    <g id="line2d_20">
     <path d="M 144 143.532812 
L 154 143.532812 
L 164 143.532812 
" style="fill: none; stroke: #d62728; stroke-width: 1.5; stroke-linecap: square"/>
    </g>
    <g id="text_18">
     <!-- F1 Score Macro -->
     <g transform="translate(172 147.032812) scale(0.1 -0.1)">
      <defs>
       <path id="DejaVuSans-46" d="M 628 4666 
L 3309 4666 
L 3309 4134 
L 1259 4134 
L 1259 2759 
L 3109 2759 
L 3109 2228 
L 1259 2228 
L 1259 0 
L 628 0 
L 628 4666 
z
" transform="scale(0.015625)"/>
       <path id="DejaVuSans-53" d="M 3425 4513 
L 3425 3897 
Q 3066 4069 2747 4153 
Q 2428 4238 2131 4238 
Q 1616 4238 1336 4038 
Q 1056 3838 1056 3469 
Q 1056 3159 1242 3001 
Q 1428 2844 1947 2747 
L 2328 2669 
Q 3034 2534 3370 2195 
Q 3706 1856 3706 1288 
Q 3706 609 3251 259 
Q 2797 -91 1919 -91 
Q 1588 -91 1214 -16 
Q 841 59 441 206 
L 441 856 
Q 825 641 1194 531 
Q 1563 422 1919 422 
Q 2459 422 2753 634 
Q 3047 847 3047 1241 
Q 3047 1584 2836 1778 
Q 2625 1972 2144 2069 
L 1759 2144 
Q 1053 2284 737 2584 
Q 422 2884 422 3419 
Q 422 4038 858 4394 
Q 1294 4750 2059 4750 
Q 2388 4750 2728 4690 
Q 3069 4631 3425 4513 
z
" transform="scale(0.015625)"/>
      </defs>
      <use xlink:href="#DejaVuSans-46"/>
      <use xlink:href="#DejaVuSans-31" x="57.519531"/>
      <use xlink:href="#DejaVuSans-20" x="121.142578"/>
      <use xlink:href="#DejaVuSans-53" x="152.929688"/>
      <use xlink:href="#DejaVuSans-63" x="216.40625"/>
      <use xlink:href="#DejaVuSans-6f" x="271.386719"/>
      <use xlink:href="#DejaVuSans-72" x="332.568359"/>
      <use xlink:href="#DejaVuSans-65" x="371.431641"/>
      <use xlink:href="#DejaVuSans-20" x="432.955078"/>
      <use xlink:href="#DejaVuSans-4d" x="464.742188"/>
      <use xlink:href="#DejaVuSans-61" x="551.021484"/>
      <use xlink:href="#DejaVuSans-63" x="612.300781"/>
      <use xlink:href="#DejaVuSans-72" x="667.28125"/>
      <use xlink:href="#DejaVuSans-6f" x="706.144531"/>
     </g>
    </g>
   </g>
  </g>
 </g>
 <defs>
  <clipPath id="p6d389e0213">
   <rect x="135" y="86.4" width="837" height="554.4"/>
  </clipPath>
 </defs>
</svg>
