<?xml version="1.0" encoding="utf-8" standalone="no"?>
<!DOCTYPE svg PUBLIC "-//W3C//DTD SVG 1.1//EN"
  "http://www.w3.org/Graphics/SVG/1.1/DTD/svg11.dtd">
<svg xmlns:xlink="http://www.w3.org/1999/xlink" width="1080pt" height="720pt" viewBox="0 0 1080 720" xmlns="http://www.w3.org/2000/svg" version="1.1">
 <metadata>
  <rdf:RDF xmlns:dc="http://purl.org/dc/elements/1.1/" xmlns:cc="http://creativecommons.org/ns#" xmlns:rdf="http://www.w3.org/1999/02/22-rdf-syntax-ns#">
   <cc:Work>
    <dc:type rdf:resource="http://purl.org/dc/dcmitype/StillImage"/>
    <dc:date>2023-11-16T18:20:30.251861</dc:date>
    <dc:format>image/svg+xml</dc:format>
    <dc:creator>
     <cc:Agent>
      <dc:title>Matplotlib v3.7.2, https://matplotlib.org/</dc:title>
     </cc:Agent>
    </dc:creator>
   </cc:Work>
  </rdf:RDF>
 </metadata>
 <defs>
  <style type="text/css">*{stroke-linejoin: round; stroke-linecap: butt}</style>
 </defs>
 <g id="figure_1">
  <g id="patch_1">
   <path d="M 0 720 
L 1080 720 
L 1080 0 
L 0 0 
z
" style="fill: #ffffff"/>
  </g>
  <g id="axes_1">
   <g id="patch_2">
    <path d="M 135 640.8 
L 972 640.8 
L 972 86.4 
L 135 86.4 
z
" style="fill: #ffffff"/>
   </g>
   <g id="matplotlib.axis_1">
    <g id="xtick_1">
     <g id="line2d_1">
      <defs>
       <path id="m7ca0f9bcb0" d="M 0 0 
L 0 3.5 
" style="stroke: #000000; stroke-width: 0.8"/>
      </defs>
      <g>
       <use xlink:href="#m7ca0f9bcb0" x="173.045455" y="640.8" style="stroke: #000000; stroke-width: 0.8"/>
      </g>
     </g>
     <g id="text_1">
      <!-- 0 -->
      <g transform="translate(169.864205 655.398438) scale(0.1 -0.1)">
       <defs>
        <path id="DejaVuSans-30" d="M 2034 4250 
Q 1547 4250 1301 3770 
Q 1056 3291 1056 2328 
Q 1056 1369 1301 889 
Q 1547 409 2034 409 
Q 2525 409 2770 889 
Q 3016 1369 3016 2328 
Q 3016 3291 2770 3770 
Q 2525 4250 2034 4250 
z
M 2034 4750 
Q 2819 4750 3233 4129 
Q 3647 3509 3647 2328 
Q 3647 1150 3233 529 
Q 2819 -91 2034 -91 
Q 1250 -91 836 529 
Q 422 1150 422 2328 
Q 422 3509 836 4129 
Q 1250 4750 2034 4750 
z
" transform="scale(0.015625)"/>
       </defs>
       <use xlink:href="#DejaVuSans-30"/>
      </g>
     </g>
    </g>
    <g id="xtick_2">
     <g id="line2d_2">
      <g>
       <use xlink:href="#m7ca0f9bcb0" x="268.637049" y="640.8" style="stroke: #000000; stroke-width: 0.8"/>
      </g>
     </g>
     <g id="text_2">
      <!-- 25 -->
      <g transform="translate(262.274549 655.398438) scale(0.1 -0.1)">
       <defs>
        <path id="DejaVuSans-32" d="M 1228 531 
L 3431 531 
L 3431 0 
L 469 0 
L 469 531 
Q 828 903 1448 1529 
Q 2069 2156 2228 2338 
Q 2531 2678 2651 2914 
Q 2772 3150 2772 3378 
Q 2772 3750 2511 3984 
Q 2250 4219 1831 4219 
Q 1534 4219 1204 4116 
Q 875 4013 500 3803 
L 500 4441 
Q 881 4594 1212 4672 
Q 1544 4750 1819 4750 
Q 2544 4750 2975 4387 
Q 3406 4025 3406 3419 
Q 3406 3131 3298 2873 
Q 3191 2616 2906 2266 
Q 2828 2175 2409 1742 
Q 1991 1309 1228 531 
z
" transform="scale(0.015625)"/>
        <path id="DejaVuSans-35" d="M 691 4666 
L 3169 4666 
L 3169 4134 
L 1269 4134 
L 1269 2991 
Q 1406 3038 1543 3061 
Q 1681 3084 1819 3084 
Q 2600 3084 3056 2656 
Q 3513 2228 3513 1497 
Q 3513 744 3044 326 
Q 2575 -91 1722 -91 
Q 1428 -91 1123 -41 
Q 819 9 494 109 
L 494 744 
Q 775 591 1075 516 
Q 1375 441 1709 441 
Q 2250 441 2565 725 
Q 2881 1009 2881 1497 
Q 2881 1984 2565 2268 
Q 2250 2553 1709 2553 
Q 1456 2553 1204 2497 
Q 953 2441 691 2322 
L 691 4666 
z
" transform="scale(0.015625)"/>
       </defs>
       <use xlink:href="#DejaVuSans-32"/>
       <use xlink:href="#DejaVuSans-35" x="63.623047"/>
      </g>
     </g>
    </g>
    <g id="xtick_3">
     <g id="line2d_3">
      <g>
       <use xlink:href="#m7ca0f9bcb0" x="364.228643" y="640.8" style="stroke: #000000; stroke-width: 0.8"/>
      </g>
     </g>
     <g id="text_3">
      <!-- 50 -->
      <g transform="translate(357.866143 655.398438) scale(0.1 -0.1)">
       <use xlink:href="#DejaVuSans-35"/>
       <use xlink:href="#DejaVuSans-30" x="63.623047"/>
      </g>
     </g>
    </g>
    <g id="xtick_4">
     <g id="line2d_4">
      <g>
       <use xlink:href="#m7ca0f9bcb0" x="459.820238" y="640.8" style="stroke: #000000; stroke-width: 0.8"/>
      </g>
     </g>
     <g id="text_4">
      <!-- 75 -->
      <g transform="translate(453.457738 655.398438) scale(0.1 -0.1)">
       <defs>
        <path id="DejaVuSans-37" d="M 525 4666 
L 3525 4666 
L 3525 4397 
L 1831 0 
L 1172 0 
L 2766 4134 
L 525 4134 
L 525 4666 
z
" transform="scale(0.015625)"/>
       </defs>
       <use xlink:href="#DejaVuSans-37"/>
       <use xlink:href="#DejaVuSans-35" x="63.623047"/>
      </g>
     </g>
    </g>
    <g id="xtick_5">
     <g id="line2d_5">
      <g>
       <use xlink:href="#m7ca0f9bcb0" x="555.411832" y="640.8" style="stroke: #000000; stroke-width: 0.8"/>
      </g>
     </g>
     <g id="text_5">
      <!-- 100 -->
      <g transform="translate(545.868082 655.398438) scale(0.1 -0.1)">
       <defs>
        <path id="DejaVuSans-31" d="M 794 531 
L 1825 531 
L 1825 4091 
L 703 3866 
L 703 4441 
L 1819 4666 
L 2450 4666 
L 2450 531 
L 3481 531 
L 3481 0 
L 794 0 
L 794 531 
z
" transform="scale(0.015625)"/>
       </defs>
       <use xlink:href="#DejaVuSans-31"/>
       <use xlink:href="#DejaVuSans-30" x="63.623047"/>
       <use xlink:href="#DejaVuSans-30" x="127.246094"/>
      </g>
     </g>
    </g>
    <g id="xtick_6">
     <g id="line2d_6">
      <g>
       <use xlink:href="#m7ca0f9bcb0" x="651.003426" y="640.8" style="stroke: #000000; stroke-width: 0.8"/>
      </g>
     </g>
     <g id="text_6">
      <!-- 125 -->
      <g transform="translate(641.459676 655.398438) scale(0.1 -0.1)">
       <use xlink:href="#DejaVuSans-31"/>
       <use xlink:href="#DejaVuSans-32" x="63.623047"/>
       <use xlink:href="#DejaVuSans-35" x="127.246094"/>
      </g>
     </g>
    </g>
    <g id="xtick_7">
     <g id="line2d_7">
      <g>
       <use xlink:href="#m7ca0f9bcb0" x="746.595021" y="640.8" style="stroke: #000000; stroke-width: 0.8"/>
      </g>
     </g>
     <g id="text_7">
      <!-- 150 -->
      <g transform="translate(737.051271 655.398438) scale(0.1 -0.1)">
       <use xlink:href="#DejaVuSans-31"/>
       <use xlink:href="#DejaVuSans-35" x="63.623047"/>
       <use xlink:href="#DejaVuSans-30" x="127.246094"/>
      </g>
     </g>
    </g>
    <g id="xtick_8">
     <g id="line2d_8">
      <g>
       <use xlink:href="#m7ca0f9bcb0" x="842.186615" y="640.8" style="stroke: #000000; stroke-width: 0.8"/>
      </g>
     </g>
     <g id="text_8">
      <!-- 175 -->
      <g transform="translate(832.642865 655.398438) scale(0.1 -0.1)">
       <use xlink:href="#DejaVuSans-31"/>
       <use xlink:href="#DejaVuSans-37" x="63.623047"/>
       <use xlink:href="#DejaVuSans-35" x="127.246094"/>
      </g>
     </g>
    </g>
    <g id="xtick_9">
     <g id="line2d_9">
      <g>
       <use xlink:href="#m7ca0f9bcb0" x="937.778209" y="640.8" style="stroke: #000000; stroke-width: 0.8"/>
      </g>
     </g>
     <g id="text_9">
      <!-- 200 -->
      <g transform="translate(928.234459 655.398438) scale(0.1 -0.1)">
       <use xlink:href="#DejaVuSans-32"/>
       <use xlink:href="#DejaVuSans-30" x="63.623047"/>
       <use xlink:href="#DejaVuSans-30" x="127.246094"/>
      </g>
     </g>
    </g>
    <g id="text_10">
     <!-- epoch -->
     <g transform="translate(538.271875 669.076563) scale(0.1 -0.1)">
      <defs>
       <path id="DejaVuSans-65" d="M 3597 1894 
L 3597 1613 
L 953 1613 
Q 991 1019 1311 708 
Q 1631 397 2203 397 
Q 2534 397 2845 478 
Q 3156 559 3463 722 
L 3463 178 
Q 3153 47 2828 -22 
Q 2503 -91 2169 -91 
Q 1331 -91 842 396 
Q 353 884 353 1716 
Q 353 2575 817 3079 
Q 1281 3584 2069 3584 
Q 2775 3584 3186 3129 
Q 3597 2675 3597 1894 
z
M 3022 2063 
Q 3016 2534 2758 2815 
Q 2500 3097 2075 3097 
Q 1594 3097 1305 2825 
Q 1016 2553 972 2059 
L 3022 2063 
z
" transform="scale(0.015625)"/>
       <path id="DejaVuSans-70" d="M 1159 525 
L 1159 -1331 
L 581 -1331 
L 581 3500 
L 1159 3500 
L 1159 2969 
Q 1341 3281 1617 3432 
Q 1894 3584 2278 3584 
Q 2916 3584 3314 3078 
Q 3713 2572 3713 1747 
Q 3713 922 3314 415 
Q 2916 -91 2278 -91 
Q 1894 -91 1617 61 
Q 1341 213 1159 525 
z
M 3116 1747 
Q 3116 2381 2855 2742 
Q 2594 3103 2138 3103 
Q 1681 3103 1420 2742 
Q 1159 2381 1159 1747 
Q 1159 1113 1420 752 
Q 1681 391 2138 391 
Q 2594 391 2855 752 
Q 3116 1113 3116 1747 
z
" transform="scale(0.015625)"/>
       <path id="DejaVuSans-6f" d="M 1959 3097 
Q 1497 3097 1228 2736 
Q 959 2375 959 1747 
Q 959 1119 1226 758 
Q 1494 397 1959 397 
Q 2419 397 2687 759 
Q 2956 1122 2956 1747 
Q 2956 2369 2687 2733 
Q 2419 3097 1959 3097 
z
M 1959 3584 
Q 2709 3584 3137 3096 
Q 3566 2609 3566 1747 
Q 3566 888 3137 398 
Q 2709 -91 1959 -91 
Q 1206 -91 779 398 
Q 353 888 353 1747 
Q 353 2609 779 3096 
Q 1206 3584 1959 3584 
z
" transform="scale(0.015625)"/>
       <path id="DejaVuSans-63" d="M 3122 3366 
L 3122 2828 
Q 2878 2963 2633 3030 
Q 2388 3097 2138 3097 
Q 1578 3097 1268 2742 
Q 959 2388 959 1747 
Q 959 1106 1268 751 
Q 1578 397 2138 397 
Q 2388 397 2633 464 
Q 2878 531 3122 666 
L 3122 134 
Q 2881 22 2623 -34 
Q 2366 -91 2075 -91 
Q 1284 -91 818 406 
Q 353 903 353 1747 
Q 353 2603 823 3093 
Q 1294 3584 2113 3584 
Q 2378 3584 2631 3529 
Q 2884 3475 3122 3366 
z
" transform="scale(0.015625)"/>
       <path id="DejaVuSans-68" d="M 3513 2113 
L 3513 0 
L 2938 0 
L 2938 2094 
Q 2938 2591 2744 2837 
Q 2550 3084 2163 3084 
Q 1697 3084 1428 2787 
Q 1159 2491 1159 1978 
L 1159 0 
L 581 0 
L 581 4863 
L 1159 4863 
L 1159 2956 
Q 1366 3272 1645 3428 
Q 1925 3584 2291 3584 
Q 2894 3584 3203 3211 
Q 3513 2838 3513 2113 
z
" transform="scale(0.015625)"/>
      </defs>
      <use xlink:href="#DejaVuSans-65"/>
      <use xlink:href="#DejaVuSans-70" x="61.523438"/>
      <use xlink:href="#DejaVuSans-6f" x="125"/>
      <use xlink:href="#DejaVuSans-63" x="186.181641"/>
      <use xlink:href="#DejaVuSans-68" x="241.162109"/>
     </g>
    </g>
   </g>
   <g id="matplotlib.axis_2">
    <g id="ytick_1">
     <g id="line2d_10">
      <defs>
       <path id="m850ed451bc" d="M 0 0 
L -3.5 0 
" style="stroke: #000000; stroke-width: 0.8"/>
      </defs>
      <g>
       <use xlink:href="#m850ed451bc" x="135" y="606.229438" style="stroke: #000000; stroke-width: 0.8"/>
      </g>
     </g>
     <g id="text_11">
      <!-- 0.5 -->
      <g transform="translate(112.096875 610.028656) scale(0.1 -0.1)">
       <defs>
        <path id="DejaVuSans-2e" d="M 684 794 
L 1344 794 
L 1344 0 
L 684 0 
L 684 794 
z
" transform="scale(0.015625)"/>
       </defs>
       <use xlink:href="#DejaVuSans-30"/>
       <use xlink:href="#DejaVuSans-2e" x="63.623047"/>
       <use xlink:href="#DejaVuSans-35" x="95.410156"/>
      </g>
     </g>
    </g>
    <g id="ytick_2">
     <g id="line2d_11">
      <g>
       <use xlink:href="#m850ed451bc" x="135" y="517.939066" style="stroke: #000000; stroke-width: 0.8"/>
      </g>
     </g>
     <g id="text_12">
      <!-- 1.0 -->
      <g transform="translate(112.096875 521.738285) scale(0.1 -0.1)">
       <use xlink:href="#DejaVuSans-31"/>
       <use xlink:href="#DejaVuSans-2e" x="63.623047"/>
       <use xlink:href="#DejaVuSans-30" x="95.410156"/>
      </g>
     </g>
    </g>
    <g id="ytick_3">
     <g id="line2d_12">
      <g>
       <use xlink:href="#m850ed451bc" x="135" y="429.648695" style="stroke: #000000; stroke-width: 0.8"/>
      </g>
     </g>
     <g id="text_13">
      <!-- 1.5 -->
      <g transform="translate(112.096875 433.447914) scale(0.1 -0.1)">
       <use xlink:href="#DejaVuSans-31"/>
       <use xlink:href="#DejaVuSans-2e" x="63.623047"/>
       <use xlink:href="#DejaVuSans-35" x="95.410156"/>
      </g>
     </g>
    </g>
    <g id="ytick_4">
     <g id="line2d_13">
      <g>
       <use xlink:href="#m850ed451bc" x="135" y="341.358323" style="stroke: #000000; stroke-width: 0.8"/>
      </g>
     </g>
     <g id="text_14">
      <!-- 2.0 -->
      <g transform="translate(112.096875 345.157542) scale(0.1 -0.1)">
       <use xlink:href="#DejaVuSans-32"/>
       <use xlink:href="#DejaVuSans-2e" x="63.623047"/>
       <use xlink:href="#DejaVuSans-30" x="95.410156"/>
      </g>
     </g>
    </g>
    <g id="ytick_5">
     <g id="line2d_14">
      <g>
       <use xlink:href="#m850ed451bc" x="135" y="253.067952" style="stroke: #000000; stroke-width: 0.8"/>
      </g>
     </g>
     <g id="text_15">
      <!-- 2.5 -->
      <g transform="translate(112.096875 256.867171) scale(0.1 -0.1)">
       <use xlink:href="#DejaVuSans-32"/>
       <use xlink:href="#DejaVuSans-2e" x="63.623047"/>
       <use xlink:href="#DejaVuSans-35" x="95.410156"/>
      </g>
     </g>
    </g>
    <g id="ytick_6">
     <g id="line2d_15">
      <g>
       <use xlink:href="#m850ed451bc" x="135" y="164.777581" style="stroke: #000000; stroke-width: 0.8"/>
      </g>
     </g>
     <g id="text_16">
      <!-- 3.0 -->
      <g transform="translate(112.096875 168.576799) scale(0.1 -0.1)">
       <defs>
        <path id="DejaVuSans-33" d="M 2597 2516 
Q 3050 2419 3304 2112 
Q 3559 1806 3559 1356 
Q 3559 666 3084 287 
Q 2609 -91 1734 -91 
Q 1441 -91 1130 -33 
Q 819 25 488 141 
L 488 750 
Q 750 597 1062 519 
Q 1375 441 1716 441 
Q 2309 441 2620 675 
Q 2931 909 2931 1356 
Q 2931 1769 2642 2001 
Q 2353 2234 1838 2234 
L 1294 2234 
L 1294 2753 
L 1863 2753 
Q 2328 2753 2575 2939 
Q 2822 3125 2822 3475 
Q 2822 3834 2567 4026 
Q 2313 4219 1838 4219 
Q 1578 4219 1281 4162 
Q 984 4106 628 3988 
L 628 4550 
Q 988 4650 1302 4700 
Q 1616 4750 1894 4750 
Q 2613 4750 3031 4423 
Q 3450 4097 3450 3541 
Q 3450 3153 3228 2886 
Q 3006 2619 2597 2516 
z
" transform="scale(0.015625)"/>
       </defs>
       <use xlink:href="#DejaVuSans-33"/>
       <use xlink:href="#DejaVuSans-2e" x="63.623047"/>
       <use xlink:href="#DejaVuSans-30" x="95.410156"/>
      </g>
     </g>
    </g>
    <g id="text_17">
     <!-- Loss -->
     <g transform="translate(106.017187 374.567187) rotate(-90) scale(0.1 -0.1)">
      <defs>
       <path id="DejaVuSans-4c" d="M 628 4666 
L 1259 4666 
L 1259 531 
L 3531 531 
L 3531 0 
L 628 0 
L 628 4666 
z
" transform="scale(0.015625)"/>
       <path id="DejaVuSans-73" d="M 2834 3397 
L 2834 2853 
Q 2591 2978 2328 3040 
Q 2066 3103 1784 3103 
Q 1356 3103 1142 2972 
Q 928 2841 928 2578 
Q 928 2378 1081 2264 
Q 1234 2150 1697 2047 
L 1894 2003 
Q 2506 1872 2764 1633 
Q 3022 1394 3022 966 
Q 3022 478 2636 193 
Q 2250 -91 1575 -91 
Q 1294 -91 989 -36 
Q 684 19 347 128 
L 347 722 
Q 666 556 975 473 
Q 1284 391 1588 391 
Q 1994 391 2212 530 
Q 2431 669 2431 922 
Q 2431 1156 2273 1281 
Q 2116 1406 1581 1522 
L 1381 1569 
Q 847 1681 609 1914 
Q 372 2147 372 2553 
Q 372 3047 722 3315 
Q 1072 3584 1716 3584 
Q 2034 3584 2315 3537 
Q 2597 3491 2834 3397 
z
" transform="scale(0.015625)"/>
      </defs>
      <use xlink:href="#DejaVuSans-4c"/>
      <use xlink:href="#DejaVuSans-6f" x="53.962891"/>
      <use xlink:href="#DejaVuSans-73" x="115.144531"/>
      <use xlink:href="#DejaVuSans-73" x="167.244141"/>
     </g>
    </g>
   </g>
   <g id="line2d_16">
    <path d="M 173.045455 111.6 
L 176.869118 452.566301 
L 180.692782 458.925662 
L 184.516446 467.054926 
L 188.34011 478.095046 
L 192.163773 484.05493 
L 195.987437 487.156718 
L 199.811101 491.080897 
L 203.634765 494.312616 
L 207.458429 496.252833 
L 211.282092 500.75363 
L 215.105756 505.501514 
L 218.92942 509.954441 
L 222.753084 512.551718 
L 226.576747 513.364182 
L 230.400411 516.369487 
L 234.224075 517.087042 
L 238.047739 520.617728 
L 241.871402 522.929795 
L 245.695066 524.23463 
L 249.51873 525.665653 
L 253.342394 525.900886 
L 257.166058 527.26556 
L 260.989721 529.821871 
L 264.813385 529.342589 
L 268.637049 530.953363 
L 272.460713 534.014942 
L 276.284376 533.315908 
L 280.10804 535.440928 
L 283.931704 535.36435 
L 287.755368 537.344076 
L 291.579032 537.30312 
L 295.402695 540.710281 
L 299.226359 540.034227 
L 303.050023 541.557459 
L 306.873687 541.647829 
L 310.69735 544.111935 
L 314.521014 543.746972 
L 318.344678 544.993987 
L 322.168342 545.885343 
L 329.815669 546.943698 
L 333.639333 548.111038 
L 337.462997 549.107849 
L 341.286661 549.4029 
L 348.933988 552.07091 
L 352.757652 551.586241 
L 356.581316 552.422498 
L 360.404979 553.638121 
L 364.228643 554.440501 
L 368.052307 555.015571 
L 371.875971 553.627694 
L 375.699635 554.765523 
L 379.523298 557.397912 
L 383.346962 556.657279 
L 387.170626 558.328777 
L 390.99429 559.104612 
L 394.817953 558.654862 
L 398.641617 561.225066 
L 402.465281 560.659105 
L 406.288945 560.761639 
L 410.112608 561.674775 
L 413.936272 562.353458 
L 417.759936 562.422845 
L 421.5836 562.846379 
L 425.407264 564.701849 
L 429.230927 565.222331 
L 433.054591 565.039097 
L 436.878255 564.729932 
L 440.701919 565.72634 
L 444.525582 566.161982 
L 448.349246 565.339935 
L 452.17291 566.265574 
L 455.996574 570.403408 
L 459.820238 568.894124 
L 463.643901 568.202916 
L 467.467565 567.658909 
L 471.291229 569.726389 
L 475.114893 570.52788 
L 478.938556 570.927105 
L 486.585884 570.610836 
L 490.409548 572.456907 
L 494.233212 571.977573 
L 498.056875 572.770993 
L 501.880539 575.0276 
L 505.704203 574.323698 
L 509.527867 575.803299 
L 513.35153 574.053091 
L 517.175194 575.797791 
L 520.998858 575.335525 
L 524.822522 576.474239 
L 528.646185 575.018192 
L 532.469849 576.915609 
L 536.293513 577.534354 
L 540.117177 579.037353 
L 543.940841 578.099445 
L 547.764504 579.545638 
L 551.588168 579.564974 
L 555.411832 580.203515 
L 559.235496 580.106263 
L 563.059159 581.041614 
L 566.882823 582.882974 
L 570.706487 581.917809 
L 574.530151 581.221165 
L 578.353815 582.368589 
L 586.001142 584.315076 
L 589.824806 584.969688 
L 593.64847 582.432436 
L 597.472133 585.293915 
L 601.295797 584.004616 
L 605.119461 585.428498 
L 608.943125 586.097225 
L 612.766788 583.326525 
L 616.590452 587.435069 
L 620.414116 587.697493 
L 624.23778 587.246603 
L 628.061444 589.300955 
L 631.885107 589.284759 
L 635.708771 589.964827 
L 639.532435 587.039348 
L 643.356099 591.267549 
L 647.179762 590.418225 
L 651.003426 590.786686 
L 654.82709 592.45877 
L 658.650754 590.24922 
L 662.474418 591.344268 
L 666.298081 591.898403 
L 670.121745 591.282889 
L 673.945409 590.513951 
L 677.769073 592.599889 
L 681.592736 591.645902 
L 685.4164 594.170821 
L 689.240064 593.199712 
L 693.063728 593.026248 
L 696.887392 594.13643 
L 700.711055 594.589499 
L 708.358383 596.95669 
L 712.182047 594.912317 
L 716.00571 593.565902 
L 719.829374 596.633643 
L 723.653038 595.962145 
L 727.476702 596.84135 
L 735.124029 597.168838 
L 738.947693 597.396621 
L 742.771357 598.609091 
L 746.595021 598.23744 
L 750.418684 598.843869 
L 754.242348 599.988496 
L 758.066012 600.471353 
L 765.713339 602.355657 
L 769.537003 602.111747 
L 773.360667 603.397137 
L 777.184331 602.293834 
L 781.007995 602.17819 
L 784.831658 602.617076 
L 792.478986 602.926327 
L 796.30265 604.463959 
L 800.126313 604.875768 
L 803.949977 602.733796 
L 807.773641 604.479806 
L 811.597305 604.987361 
L 815.420968 605.73365 
L 819.244632 605.423999 
L 823.068296 607.328399 
L 826.89196 607.014967 
L 830.715624 605.486487 
L 834.539287 608.55851 
L 838.362951 608.420515 
L 842.186615 608.067359 
L 846.010279 607.03072 
L 849.833942 607.94018 
L 853.657606 610.464288 
L 857.48127 610.315077 
L 861.304934 608.106349 
L 865.128598 611.134867 
L 868.952261 611.143142 
L 876.599589 611.914462 
L 880.423253 610.319635 
L 884.246916 612.960309 
L 888.07058 611.104239 
L 891.894244 612.242212 
L 895.717908 612.437106 
L 903.365235 613.456682 
L 907.188899 610.405934 
L 911.012563 615.6 
L 914.836227 613.057312 
L 918.65989 614.56778 
L 922.483554 614.781687 
L 926.307218 614.601043 
L 930.130882 613.702254 
L 933.954545 614.414147 
L 933.954545 614.414147 
" clip-path="url(#peb0ad8087f)" style="fill: none; stroke: #1f77b4; stroke-width: 1.5; stroke-linecap: square"/>
   </g>
   <g id="line2d_17">
    <path d="M 173.045455 450.980816 
L 176.869118 455.202833 
L 180.692782 456.299591 
L 184.516446 475.74832 
L 188.34011 475.364151 
L 192.163773 484.428894 
L 195.987437 488.248618 
L 199.811101 483.251374 
L 203.634765 492.349884 
L 207.458429 485.865967 
L 211.282092 492.419551 
L 215.105756 493.289604 
L 218.92942 506.064055 
L 222.753084 481.822204 
L 226.576747 492.295027 
L 230.400411 504.066675 
L 234.224075 512.778863 
L 238.047739 490.464221 
L 241.871402 505.608546 
L 245.695066 510.629528 
L 249.51873 512.577921 
L 253.342394 504.880236 
L 257.166058 523.598723 
L 260.989721 518.119579 
L 264.813385 508.637613 
L 268.637049 513.053784 
L 272.460713 510.162734 
L 276.284376 515.885166 
L 280.10804 512.803055 
L 283.931704 517.708025 
L 287.755368 523.800428 
L 291.579032 526.538534 
L 295.402695 487.561933 
L 299.226359 516.362708 
L 303.050023 483.99049 
L 306.873687 519.082428 
L 310.69735 521.150491 
L 314.521014 521.503132 
L 318.344678 524.160947 
L 322.168342 477.807572 
L 325.992005 525.756633 
L 329.815669 527.155986 
L 333.639333 525.937782 
L 337.462997 510.238371 
L 341.286661 525.595772 
L 345.110324 511.162152 
L 348.933988 526.200633 
L 352.757652 518.726379 
L 356.581316 523.465561 
L 360.404979 520.357495 
L 364.228643 528.027344 
L 368.052307 521.523213 
L 371.875971 513.779385 
L 375.699635 522.902226 
L 379.523298 523.445897 
L 383.346962 524.454704 
L 387.170626 518.836602 
L 390.99429 521.374685 
L 394.817953 512.429798 
L 398.641617 530.819848 
L 402.465281 523.853014 
L 406.288945 525.770423 
L 410.112608 521.425336 
L 413.936272 523.456568 
L 417.759936 528.651955 
L 421.5836 513.140638 
L 425.407264 513.841469 
L 429.230927 509.020928 
L 433.054591 510.429984 
L 436.878255 527.766994 
L 440.701919 518.55798 
L 444.525582 522.47524 
L 448.349246 515.931229 
L 452.17291 515.13409 
L 455.996574 514.616431 
L 459.820238 504.103939 
L 463.643901 487.765565 
L 467.467565 523.014298 
L 471.291229 524.833683 
L 475.114893 516.641149 
L 478.938556 514.108896 
L 482.76222 486.598419 
L 486.585884 509.630387 
L 490.409548 518.114807 
L 494.233212 522.926184 
L 498.056875 513.865087 
L 501.880539 488.511478 
L 505.704203 516.908105 
L 509.527867 517.808719 
L 513.35153 517.686268 
L 517.175194 519.193194 
L 520.998858 520.240048 
L 524.822522 516.943982 
L 528.646185 512.273135 
L 532.469849 517.721019 
L 536.293513 489.567595 
L 540.117177 523.629216 
L 543.940841 509.1852 
L 547.764504 515.454949 
L 551.588168 506.352537 
L 555.411832 519.839035 
L 559.235496 511.427602 
L 563.059159 517.553525 
L 566.882823 503.324983 
L 570.706487 509.73143 
L 574.530151 516.853367 
L 578.353815 507.755159 
L 582.177478 502.896932 
L 586.001142 499.570409 
L 589.824806 519.009803 
L 593.64847 490.788089 
L 597.472133 509.621327 
L 601.295797 508.555334 
L 605.119461 499.169009 
L 608.943125 500.264799 
L 612.766788 503.017269 
L 616.590452 516.976787 
L 620.414116 502.3075 
L 624.23778 508.247919 
L 628.061444 504.486402 
L 631.885107 502.822241 
L 635.708771 489.74469 
L 639.532435 498.806836 
L 643.356099 501.014063 
L 647.179762 512.749019 
L 651.003426 507.03197 
L 654.82709 511.030917 
L 658.650754 515.758584 
L 662.474418 504.989042 
L 666.298081 505.410934 
L 670.121745 501.1204 
L 673.945409 515.918769 
L 677.769073 505.743284 
L 681.592736 511.608837 
L 685.4164 499.815049 
L 689.240064 502.066349 
L 693.063728 496.761232 
L 696.887392 470.629669 
L 700.711055 510.949417 
L 704.534719 496.919737 
L 708.358383 459.273443 
L 712.182047 486.586852 
L 716.00571 507.844946 
L 719.829374 493.557722 
L 723.653038 501.908786 
L 727.476702 499.651176 
L 731.300365 508.662068 
L 735.124029 502.446202 
L 738.947693 501.454286 
L 742.771357 507.967461 
L 746.595021 499.140392 
L 750.418684 482.988812 
L 754.242348 498.233527 
L 758.066012 494.110586 
L 761.889676 493.607306 
L 765.713339 480.415306 
L 769.537003 486.971025 
L 773.360667 483.223963 
L 777.184331 450.660289 
L 781.007995 485.356779 
L 784.831658 499.398706 
L 788.655322 494.028126 
L 792.478986 497.29279 
L 796.30265 477.227383 
L 800.126313 492.197271 
L 803.949977 494.759824 
L 807.773641 481.009037 
L 811.597305 502.655553 
L 815.420968 500.244976 
L 819.244632 484.320528 
L 823.068296 494.299773 
L 826.89196 480.93575 
L 830.715624 491.039522 
L 834.539287 491.657473 
L 838.362951 481.589568 
L 842.186615 477.883172 
L 846.010279 491.06149 
L 849.833942 497.96835 
L 853.657606 492.744001 
L 857.48127 492.780429 
L 861.304934 482.824179 
L 865.128598 483.565122 
L 868.952261 488.86178 
L 872.775925 474.20768 
L 876.599589 472.668936 
L 880.423253 481.212783 
L 884.246916 478.515367 
L 888.07058 479.402546 
L 891.894244 488.373601 
L 895.717908 474.699458 
L 899.541571 456.763883 
L 903.365235 461.197808 
L 907.188899 475.498066 
L 911.012563 468.484266 
L 914.836227 475.718529 
L 918.65989 468.219806 
L 922.483554 474.291441 
L 926.307218 481.091145 
L 930.130882 459.860213 
L 933.954545 478.802757 
L 933.954545 478.802757 
" clip-path="url(#peb0ad8087f)" style="fill: none; stroke: #ff7f0e; stroke-width: 1.5; stroke-linecap: square"/>
   </g>
   <g id="patch_3">
    <path d="M 135 640.8 
L 135 86.4 
" style="fill: none; stroke: #000000; stroke-width: 0.8; stroke-linejoin: miter; stroke-linecap: square"/>
   </g>
   <g id="patch_4">
    <path d="M 972 640.8 
L 972 86.4 
" style="fill: none; stroke: #000000; stroke-width: 0.8; stroke-linejoin: miter; stroke-linecap: square"/>
   </g>
   <g id="patch_5">
    <path d="M 135 640.8 
L 972 640.8 
" style="fill: none; stroke: #000000; stroke-width: 0.8; stroke-linejoin: miter; stroke-linecap: square"/>
   </g>
   <g id="patch_6">
    <path d="M 135 86.4 
L 972 86.4 
" style="fill: none; stroke: #000000; stroke-width: 0.8; stroke-linejoin: miter; stroke-linecap: square"/>
   </g>
   <g id="legend_1">
    <g id="patch_7">
     <path d="M 858.50625 123.75625 
L 965 123.75625 
Q 967 123.75625 967 121.75625 
L 967 93.4 
Q 967 91.4 965 91.4 
L 858.50625 91.4 
Q 856.50625 91.4 856.50625 93.4 
L 856.50625 121.75625 
Q 856.50625 123.75625 858.50625 123.75625 
z
" style="fill: #ffffff; opacity: 0.8; stroke: #cccccc; stroke-linejoin: miter"/>
    </g>
    <g id="line2d_18">
     <path d="M 860.50625 99.498437 
L 870.50625 99.498437 
L 880.50625 99.498437 
" style="fill: none; stroke: #1f77b4; stroke-width: 1.5; stroke-linecap: square"/>
    </g>
    <g id="text_18">
     <!-- Train Loss -->
     <g transform="translate(888.50625 102.998437) scale(0.1 -0.1)">
      <defs>
       <path id="DejaVuSans-54" d="M -19 4666 
L 3928 4666 
L 3928 4134 
L 2272 4134 
L 2272 0 
L 1638 0 
L 1638 4134 
L -19 4134 
L -19 4666 
z
" transform="scale(0.015625)"/>
       <path id="DejaVuSans-72" d="M 2631 2963 
Q 2534 3019 2420 3045 
Q 2306 3072 2169 3072 
Q 1681 3072 1420 2755 
Q 1159 2438 1159 1844 
L 1159 0 
L 581 0 
L 581 3500 
L 1159 3500 
L 1159 2956 
Q 1341 3275 1631 3429 
Q 1922 3584 2338 3584 
Q 2397 3584 2469 3576 
Q 2541 3569 2628 3553 
L 2631 2963 
z
" transform="scale(0.015625)"/>
       <path id="DejaVuSans-61" d="M 2194 1759 
Q 1497 1759 1228 1600 
Q 959 1441 959 1056 
Q 959 750 1161 570 
Q 1363 391 1709 391 
Q 2188 391 2477 730 
Q 2766 1069 2766 1631 
L 2766 1759 
L 2194 1759 
z
M 3341 1997 
L 3341 0 
L 2766 0 
L 2766 531 
Q 2569 213 2275 61 
Q 1981 -91 1556 -91 
Q 1019 -91 701 211 
Q 384 513 384 1019 
Q 384 1609 779 1909 
Q 1175 2209 1959 2209 
L 2766 2209 
L 2766 2266 
Q 2766 2663 2505 2880 
Q 2244 3097 1772 3097 
Q 1472 3097 1187 3025 
Q 903 2953 641 2809 
L 641 3341 
Q 956 3463 1253 3523 
Q 1550 3584 1831 3584 
Q 2591 3584 2966 3190 
Q 3341 2797 3341 1997 
z
" transform="scale(0.015625)"/>
       <path id="DejaVuSans-69" d="M 603 3500 
L 1178 3500 
L 1178 0 
L 603 0 
L 603 3500 
z
M 603 4863 
L 1178 4863 
L 1178 4134 
L 603 4134 
L 603 4863 
z
" transform="scale(0.015625)"/>
       <path id="DejaVuSans-6e" d="M 3513 2113 
L 3513 0 
L 2938 0 
L 2938 2094 
Q 2938 2591 2744 2837 
Q 2550 3084 2163 3084 
Q 1697 3084 1428 2787 
Q 1159 2491 1159 1978 
L 1159 0 
L 581 0 
L 581 3500 
L 1159 3500 
L 1159 2956 
Q 1366 3272 1645 3428 
Q 1925 3584 2291 3584 
Q 2894 3584 3203 3211 
Q 3513 2838 3513 2113 
z
" transform="scale(0.015625)"/>
       <path id="DejaVuSans-20" transform="scale(0.015625)"/>
      </defs>
      <use xlink:href="#DejaVuSans-54"/>
      <use xlink:href="#DejaVuSans-72" x="46.333984"/>
      <use xlink:href="#DejaVuSans-61" x="87.447266"/>
      <use xlink:href="#DejaVuSans-69" x="148.726562"/>
      <use xlink:href="#DejaVuSans-6e" x="176.509766"/>
      <use xlink:href="#DejaVuSans-20" x="239.888672"/>
      <use xlink:href="#DejaVuSans-4c" x="271.675781"/>
      <use xlink:href="#DejaVuSans-6f" x="325.638672"/>
      <use xlink:href="#DejaVuSans-73" x="386.820312"/>
      <use xlink:href="#DejaVuSans-73" x="438.919922"/>
     </g>
    </g>
    <g id="line2d_19">
     <path d="M 860.50625 114.176562 
L 870.50625 114.176562 
L 880.50625 114.176562 
" style="fill: none; stroke: #ff7f0e; stroke-width: 1.5; stroke-linecap: square"/>
    </g>
    <g id="text_19">
     <!-- Validation Loss -->
     <g transform="translate(888.50625 117.676562) scale(0.1 -0.1)">
      <defs>
       <path id="DejaVuSans-56" d="M 1831 0 
L 50 4666 
L 709 4666 
L 2188 738 
L 3669 4666 
L 4325 4666 
L 2547 0 
L 1831 0 
z
" transform="scale(0.015625)"/>
       <path id="DejaVuSans-6c" d="M 603 4863 
L 1178 4863 
L 1178 0 
L 603 0 
L 603 4863 
z
" transform="scale(0.015625)"/>
       <path id="DejaVuSans-64" d="M 2906 2969 
L 2906 4863 
L 3481 4863 
L 3481 0 
L 2906 0 
L 2906 525 
Q 2725 213 2448 61 
Q 2172 -91 1784 -91 
Q 1150 -91 751 415 
Q 353 922 353 1747 
Q 353 2572 751 3078 
Q 1150 3584 1784 3584 
Q 2172 3584 2448 3432 
Q 2725 3281 2906 2969 
z
M 947 1747 
Q 947 1113 1208 752 
Q 1469 391 1925 391 
Q 2381 391 2643 752 
Q 2906 1113 2906 1747 
Q 2906 2381 2643 2742 
Q 2381 3103 1925 3103 
Q 1469 3103 1208 2742 
Q 947 2381 947 1747 
z
" transform="scale(0.015625)"/>
       <path id="DejaVuSans-74" d="M 1172 4494 
L 1172 3500 
L 2356 3500 
L 2356 3053 
L 1172 3053 
L 1172 1153 
Q 1172 725 1289 603 
Q 1406 481 1766 481 
L 2356 481 
L 2356 0 
L 1766 0 
Q 1100 0 847 248 
Q 594 497 594 1153 
L 594 3053 
L 172 3053 
L 172 3500 
L 594 3500 
L 594 4494 
L 1172 4494 
z
" transform="scale(0.015625)"/>
      </defs>
      <use xlink:href="#DejaVuSans-56"/>
      <use xlink:href="#DejaVuSans-61" x="60.658203"/>
      <use xlink:href="#DejaVuSans-6c" x="121.9375"/>
      <use xlink:href="#DejaVuSans-69" x="149.720703"/>
      <use xlink:href="#DejaVuSans-64" x="177.503906"/>
      <use xlink:href="#DejaVuSans-61" x="240.980469"/>
      <use xlink:href="#DejaVuSans-74" x="302.259766"/>
      <use xlink:href="#DejaVuSans-69" x="341.46875"/>
      <use xlink:href="#DejaVuSans-6f" x="369.251953"/>
      <use xlink:href="#DejaVuSans-6e" x="430.433594"/>
      <use xlink:href="#DejaVuSans-20" x="493.8125"/>
      <use xlink:href="#DejaVuSans-4c" x="525.599609"/>
      <use xlink:href="#DejaVuSans-6f" x="579.5625"/>
      <use xlink:href="#DejaVuSans-73" x="640.744141"/>
      <use xlink:href="#DejaVuSans-73" x="692.84375"/>
     </g>
    </g>
   </g>
  </g>
 </g>
 <defs>
  <clipPath id="peb0ad8087f">
   <rect x="135" y="86.4" width="837" height="554.4"/>
  </clipPath>
 </defs>
</svg>
