<?xml version="1.0" encoding="utf-8" standalone="no"?>
<!DOCTYPE svg PUBLIC "-//W3C//DTD SVG 1.1//EN"
  "http://www.w3.org/Graphics/SVG/1.1/DTD/svg11.dtd">
<svg xmlns:xlink="http://www.w3.org/1999/xlink" width="1080pt" height="720pt" viewBox="0 0 1080 720" xmlns="http://www.w3.org/2000/svg" version="1.1">
 <metadata>
  <rdf:RDF xmlns:dc="http://purl.org/dc/elements/1.1/" xmlns:cc="http://creativecommons.org/ns#" xmlns:rdf="http://www.w3.org/1999/02/22-rdf-syntax-ns#">
   <cc:Work>
    <dc:type rdf:resource="http://purl.org/dc/dcmitype/StillImage"/>
    <dc:date>2023-11-16T16:06:50.766713</dc:date>
    <dc:format>image/svg+xml</dc:format>
    <dc:creator>
     <cc:Agent>
      <dc:title>Matplotlib v3.7.2, https://matplotlib.org/</dc:title>
     </cc:Agent>
    </dc:creator>
   </cc:Work>
  </rdf:RDF>
 </metadata>
 <defs>
  <style type="text/css">*{stroke-linejoin: round; stroke-linecap: butt}</style>
 </defs>
 <g id="figure_1">
  <g id="patch_1">
   <path d="M 0 720 
L 1080 720 
L 1080 0 
L 0 0 
z
" style="fill: #ffffff"/>
  </g>
  <g id="axes_1">
   <g id="patch_2">
    <path d="M 135 640.8 
L 972 640.8 
L 972 86.4 
L 135 86.4 
z
" style="fill: #ffffff"/>
   </g>
   <g id="matplotlib.axis_1">
    <g id="xtick_1">
     <g id="line2d_1">
      <defs>
       <path id="mbdf744f483" d="M 0 0 
L 0 3.5 
" style="stroke: #000000; stroke-width: 0.8"/>
      </defs>
      <g>
       <use xlink:href="#mbdf744f483" x="173.045455" y="640.8" style="stroke: #000000; stroke-width: 0.8"/>
      </g>
     </g>
     <g id="text_1">
      <!-- 0 -->
      <g transform="translate(169.864205 655.398438) scale(0.1 -0.1)">
       <defs>
        <path id="DejaVuSans-30" d="M 2034 4250 
Q 1547 4250 1301 3770 
Q 1056 3291 1056 2328 
Q 1056 1369 1301 889 
Q 1547 409 2034 409 
Q 2525 409 2770 889 
Q 3016 1369 3016 2328 
Q 3016 3291 2770 3770 
Q 2525 4250 2034 4250 
z
M 2034 4750 
Q 2819 4750 3233 4129 
Q 3647 3509 3647 2328 
Q 3647 1150 3233 529 
Q 2819 -91 2034 -91 
Q 1250 -91 836 529 
Q 422 1150 422 2328 
Q 422 3509 836 4129 
Q 1250 4750 2034 4750 
z
" transform="scale(0.015625)"/>
       </defs>
       <use xlink:href="#DejaVuSans-30"/>
      </g>
     </g>
    </g>
    <g id="xtick_2">
     <g id="line2d_2">
      <g>
       <use xlink:href="#mbdf744f483" x="268.637049" y="640.8" style="stroke: #000000; stroke-width: 0.8"/>
      </g>
     </g>
     <g id="text_2">
      <!-- 25 -->
      <g transform="translate(262.274549 655.398438) scale(0.1 -0.1)">
       <defs>
        <path id="DejaVuSans-32" d="M 1228 531 
L 3431 531 
L 3431 0 
L 469 0 
L 469 531 
Q 828 903 1448 1529 
Q 2069 2156 2228 2338 
Q 2531 2678 2651 2914 
Q 2772 3150 2772 3378 
Q 2772 3750 2511 3984 
Q 2250 4219 1831 4219 
Q 1534 4219 1204 4116 
Q 875 4013 500 3803 
L 500 4441 
Q 881 4594 1212 4672 
Q 1544 4750 1819 4750 
Q 2544 4750 2975 4387 
Q 3406 4025 3406 3419 
Q 3406 3131 3298 2873 
Q 3191 2616 2906 2266 
Q 2828 2175 2409 1742 
Q 1991 1309 1228 531 
z
" transform="scale(0.015625)"/>
        <path id="DejaVuSans-35" d="M 691 4666 
L 3169 4666 
L 3169 4134 
L 1269 4134 
L 1269 2991 
Q 1406 3038 1543 3061 
Q 1681 3084 1819 3084 
Q 2600 3084 3056 2656 
Q 3513 2228 3513 1497 
Q 3513 744 3044 326 
Q 2575 -91 1722 -91 
Q 1428 -91 1123 -41 
Q 819 9 494 109 
L 494 744 
Q 775 591 1075 516 
Q 1375 441 1709 441 
Q 2250 441 2565 725 
Q 2881 1009 2881 1497 
Q 2881 1984 2565 2268 
Q 2250 2553 1709 2553 
Q 1456 2553 1204 2497 
Q 953 2441 691 2322 
L 691 4666 
z
" transform="scale(0.015625)"/>
       </defs>
       <use xlink:href="#DejaVuSans-32"/>
       <use xlink:href="#DejaVuSans-35" x="63.623047"/>
      </g>
     </g>
    </g>
    <g id="xtick_3">
     <g id="line2d_3">
      <g>
       <use xlink:href="#mbdf744f483" x="364.228643" y="640.8" style="stroke: #000000; stroke-width: 0.8"/>
      </g>
     </g>
     <g id="text_3">
      <!-- 50 -->
      <g transform="translate(357.866143 655.398438) scale(0.1 -0.1)">
       <use xlink:href="#DejaVuSans-35"/>
       <use xlink:href="#DejaVuSans-30" x="63.623047"/>
      </g>
     </g>
    </g>
    <g id="xtick_4">
     <g id="line2d_4">
      <g>
       <use xlink:href="#mbdf744f483" x="459.820238" y="640.8" style="stroke: #000000; stroke-width: 0.8"/>
      </g>
     </g>
     <g id="text_4">
      <!-- 75 -->
      <g transform="translate(453.457738 655.398438) scale(0.1 -0.1)">
       <defs>
        <path id="DejaVuSans-37" d="M 525 4666 
L 3525 4666 
L 3525 4397 
L 1831 0 
L 1172 0 
L 2766 4134 
L 525 4134 
L 525 4666 
z
" transform="scale(0.015625)"/>
       </defs>
       <use xlink:href="#DejaVuSans-37"/>
       <use xlink:href="#DejaVuSans-35" x="63.623047"/>
      </g>
     </g>
    </g>
    <g id="xtick_5">
     <g id="line2d_5">
      <g>
       <use xlink:href="#mbdf744f483" x="555.411832" y="640.8" style="stroke: #000000; stroke-width: 0.8"/>
      </g>
     </g>
     <g id="text_5">
      <!-- 100 -->
      <g transform="translate(545.868082 655.398438) scale(0.1 -0.1)">
       <defs>
        <path id="DejaVuSans-31" d="M 794 531 
L 1825 531 
L 1825 4091 
L 703 3866 
L 703 4441 
L 1819 4666 
L 2450 4666 
L 2450 531 
L 3481 531 
L 3481 0 
L 794 0 
L 794 531 
z
" transform="scale(0.015625)"/>
       </defs>
       <use xlink:href="#DejaVuSans-31"/>
       <use xlink:href="#DejaVuSans-30" x="63.623047"/>
       <use xlink:href="#DejaVuSans-30" x="127.246094"/>
      </g>
     </g>
    </g>
    <g id="xtick_6">
     <g id="line2d_6">
      <g>
       <use xlink:href="#mbdf744f483" x="651.003426" y="640.8" style="stroke: #000000; stroke-width: 0.8"/>
      </g>
     </g>
     <g id="text_6">
      <!-- 125 -->
      <g transform="translate(641.459676 655.398438) scale(0.1 -0.1)">
       <use xlink:href="#DejaVuSans-31"/>
       <use xlink:href="#DejaVuSans-32" x="63.623047"/>
       <use xlink:href="#DejaVuSans-35" x="127.246094"/>
      </g>
     </g>
    </g>
    <g id="xtick_7">
     <g id="line2d_7">
      <g>
       <use xlink:href="#mbdf744f483" x="746.595021" y="640.8" style="stroke: #000000; stroke-width: 0.8"/>
      </g>
     </g>
     <g id="text_7">
      <!-- 150 -->
      <g transform="translate(737.051271 655.398438) scale(0.1 -0.1)">
       <use xlink:href="#DejaVuSans-31"/>
       <use xlink:href="#DejaVuSans-35" x="63.623047"/>
       <use xlink:href="#DejaVuSans-30" x="127.246094"/>
      </g>
     </g>
    </g>
    <g id="xtick_8">
     <g id="line2d_8">
      <g>
       <use xlink:href="#mbdf744f483" x="842.186615" y="640.8" style="stroke: #000000; stroke-width: 0.8"/>
      </g>
     </g>
     <g id="text_8">
      <!-- 175 -->
      <g transform="translate(832.642865 655.398438) scale(0.1 -0.1)">
       <use xlink:href="#DejaVuSans-31"/>
       <use xlink:href="#DejaVuSans-37" x="63.623047"/>
       <use xlink:href="#DejaVuSans-35" x="127.246094"/>
      </g>
     </g>
    </g>
    <g id="xtick_9">
     <g id="line2d_9">
      <g>
       <use xlink:href="#mbdf744f483" x="937.778209" y="640.8" style="stroke: #000000; stroke-width: 0.8"/>
      </g>
     </g>
     <g id="text_9">
      <!-- 200 -->
      <g transform="translate(928.234459 655.398438) scale(0.1 -0.1)">
       <use xlink:href="#DejaVuSans-32"/>
       <use xlink:href="#DejaVuSans-30" x="63.623047"/>
       <use xlink:href="#DejaVuSans-30" x="127.246094"/>
      </g>
     </g>
    </g>
    <g id="text_10">
     <!-- epoch -->
     <g transform="translate(538.271875 669.076563) scale(0.1 -0.1)">
      <defs>
       <path id="DejaVuSans-65" d="M 3597 1894 
L 3597 1613 
L 953 1613 
Q 991 1019 1311 708 
Q 1631 397 2203 397 
Q 2534 397 2845 478 
Q 3156 559 3463 722 
L 3463 178 
Q 3153 47 2828 -22 
Q 2503 -91 2169 -91 
Q 1331 -91 842 396 
Q 353 884 353 1716 
Q 353 2575 817 3079 
Q 1281 3584 2069 3584 
Q 2775 3584 3186 3129 
Q 3597 2675 3597 1894 
z
M 3022 2063 
Q 3016 2534 2758 2815 
Q 2500 3097 2075 3097 
Q 1594 3097 1305 2825 
Q 1016 2553 972 2059 
L 3022 2063 
z
" transform="scale(0.015625)"/>
       <path id="DejaVuSans-70" d="M 1159 525 
L 1159 -1331 
L 581 -1331 
L 581 3500 
L 1159 3500 
L 1159 2969 
Q 1341 3281 1617 3432 
Q 1894 3584 2278 3584 
Q 2916 3584 3314 3078 
Q 3713 2572 3713 1747 
Q 3713 922 3314 415 
Q 2916 -91 2278 -91 
Q 1894 -91 1617 61 
Q 1341 213 1159 525 
z
M 3116 1747 
Q 3116 2381 2855 2742 
Q 2594 3103 2138 3103 
Q 1681 3103 1420 2742 
Q 1159 2381 1159 1747 
Q 1159 1113 1420 752 
Q 1681 391 2138 391 
Q 2594 391 2855 752 
Q 3116 1113 3116 1747 
z
" transform="scale(0.015625)"/>
       <path id="DejaVuSans-6f" d="M 1959 3097 
Q 1497 3097 1228 2736 
Q 959 2375 959 1747 
Q 959 1119 1226 758 
Q 1494 397 1959 397 
Q 2419 397 2687 759 
Q 2956 1122 2956 1747 
Q 2956 2369 2687 2733 
Q 2419 3097 1959 3097 
z
M 1959 3584 
Q 2709 3584 3137 3096 
Q 3566 2609 3566 1747 
Q 3566 888 3137 398 
Q 2709 -91 1959 -91 
Q 1206 -91 779 398 
Q 353 888 353 1747 
Q 353 2609 779 3096 
Q 1206 3584 1959 3584 
z
" transform="scale(0.015625)"/>
       <path id="DejaVuSans-63" d="M 3122 3366 
L 3122 2828 
Q 2878 2963 2633 3030 
Q 2388 3097 2138 3097 
Q 1578 3097 1268 2742 
Q 959 2388 959 1747 
Q 959 1106 1268 751 
Q 1578 397 2138 397 
Q 2388 397 2633 464 
Q 2878 531 3122 666 
L 3122 134 
Q 2881 22 2623 -34 
Q 2366 -91 2075 -91 
Q 1284 -91 818 406 
Q 353 903 353 1747 
Q 353 2603 823 3093 
Q 1294 3584 2113 3584 
Q 2378 3584 2631 3529 
Q 2884 3475 3122 3366 
z
" transform="scale(0.015625)"/>
       <path id="DejaVuSans-68" d="M 3513 2113 
L 3513 0 
L 2938 0 
L 2938 2094 
Q 2938 2591 2744 2837 
Q 2550 3084 2163 3084 
Q 1697 3084 1428 2787 
Q 1159 2491 1159 1978 
L 1159 0 
L 581 0 
L 581 4863 
L 1159 4863 
L 1159 2956 
Q 1366 3272 1645 3428 
Q 1925 3584 2291 3584 
Q 2894 3584 3203 3211 
Q 3513 2838 3513 2113 
z
" transform="scale(0.015625)"/>
      </defs>
      <use xlink:href="#DejaVuSans-65"/>
      <use xlink:href="#DejaVuSans-70" x="61.523438"/>
      <use xlink:href="#DejaVuSans-6f" x="125"/>
      <use xlink:href="#DejaVuSans-63" x="186.181641"/>
      <use xlink:href="#DejaVuSans-68" x="241.162109"/>
     </g>
    </g>
   </g>
   <g id="matplotlib.axis_2">
    <g id="ytick_1">
     <g id="line2d_10">
      <defs>
       <path id="m5597cb2b0b" d="M 0 0 
L -3.5 0 
" style="stroke: #000000; stroke-width: 0.8"/>
      </defs>
      <g>
       <use xlink:href="#m5597cb2b0b" x="135" y="571.181204" style="stroke: #000000; stroke-width: 0.8"/>
      </g>
     </g>
     <g id="text_11">
      <!-- 0.30 -->
      <g transform="translate(105.734375 574.980422) scale(0.1 -0.1)">
       <defs>
        <path id="DejaVuSans-2e" d="M 684 794 
L 1344 794 
L 1344 0 
L 684 0 
L 684 794 
z
" transform="scale(0.015625)"/>
        <path id="DejaVuSans-33" d="M 2597 2516 
Q 3050 2419 3304 2112 
Q 3559 1806 3559 1356 
Q 3559 666 3084 287 
Q 2609 -91 1734 -91 
Q 1441 -91 1130 -33 
Q 819 25 488 141 
L 488 750 
Q 750 597 1062 519 
Q 1375 441 1716 441 
Q 2309 441 2620 675 
Q 2931 909 2931 1356 
Q 2931 1769 2642 2001 
Q 2353 2234 1838 2234 
L 1294 2234 
L 1294 2753 
L 1863 2753 
Q 2328 2753 2575 2939 
Q 2822 3125 2822 3475 
Q 2822 3834 2567 4026 
Q 2313 4219 1838 4219 
Q 1578 4219 1281 4162 
Q 984 4106 628 3988 
L 628 4550 
Q 988 4650 1302 4700 
Q 1616 4750 1894 4750 
Q 2613 4750 3031 4423 
Q 3450 4097 3450 3541 
Q 3450 3153 3228 2886 
Q 3006 2619 2597 2516 
z
" transform="scale(0.015625)"/>
       </defs>
       <use xlink:href="#DejaVuSans-30"/>
       <use xlink:href="#DejaVuSans-2e" x="63.623047"/>
       <use xlink:href="#DejaVuSans-33" x="95.410156"/>
       <use xlink:href="#DejaVuSans-30" x="159.033203"/>
      </g>
     </g>
    </g>
    <g id="ytick_2">
     <g id="line2d_11">
      <g>
       <use xlink:href="#m5597cb2b0b" x="135" y="494.36461" style="stroke: #000000; stroke-width: 0.8"/>
      </g>
     </g>
     <g id="text_12">
      <!-- 0.35 -->
      <g transform="translate(105.734375 498.163829) scale(0.1 -0.1)">
       <use xlink:href="#DejaVuSans-30"/>
       <use xlink:href="#DejaVuSans-2e" x="63.623047"/>
       <use xlink:href="#DejaVuSans-33" x="95.410156"/>
       <use xlink:href="#DejaVuSans-35" x="159.033203"/>
      </g>
     </g>
    </g>
    <g id="ytick_3">
     <g id="line2d_12">
      <g>
       <use xlink:href="#m5597cb2b0b" x="135" y="417.548017" style="stroke: #000000; stroke-width: 0.8"/>
      </g>
     </g>
     <g id="text_13">
      <!-- 0.40 -->
      <g transform="translate(105.734375 421.347236) scale(0.1 -0.1)">
       <defs>
        <path id="DejaVuSans-34" d="M 2419 4116 
L 825 1625 
L 2419 1625 
L 2419 4116 
z
M 2253 4666 
L 3047 4666 
L 3047 1625 
L 3713 1625 
L 3713 1100 
L 3047 1100 
L 3047 0 
L 2419 0 
L 2419 1100 
L 313 1100 
L 313 1709 
L 2253 4666 
z
" transform="scale(0.015625)"/>
       </defs>
       <use xlink:href="#DejaVuSans-30"/>
       <use xlink:href="#DejaVuSans-2e" x="63.623047"/>
       <use xlink:href="#DejaVuSans-34" x="95.410156"/>
       <use xlink:href="#DejaVuSans-30" x="159.033203"/>
      </g>
     </g>
    </g>
    <g id="ytick_4">
     <g id="line2d_13">
      <g>
       <use xlink:href="#m5597cb2b0b" x="135" y="340.731424" style="stroke: #000000; stroke-width: 0.8"/>
      </g>
     </g>
     <g id="text_14">
      <!-- 0.45 -->
      <g transform="translate(105.734375 344.530643) scale(0.1 -0.1)">
       <use xlink:href="#DejaVuSans-30"/>
       <use xlink:href="#DejaVuSans-2e" x="63.623047"/>
       <use xlink:href="#DejaVuSans-34" x="95.410156"/>
       <use xlink:href="#DejaVuSans-35" x="159.033203"/>
      </g>
     </g>
    </g>
    <g id="ytick_5">
     <g id="line2d_14">
      <g>
       <use xlink:href="#m5597cb2b0b" x="135" y="263.914831" style="stroke: #000000; stroke-width: 0.8"/>
      </g>
     </g>
     <g id="text_15">
      <!-- 0.50 -->
      <g transform="translate(105.734375 267.71405) scale(0.1 -0.1)">
       <use xlink:href="#DejaVuSans-30"/>
       <use xlink:href="#DejaVuSans-2e" x="63.623047"/>
       <use xlink:href="#DejaVuSans-35" x="95.410156"/>
       <use xlink:href="#DejaVuSans-30" x="159.033203"/>
      </g>
     </g>
    </g>
    <g id="ytick_6">
     <g id="line2d_15">
      <g>
       <use xlink:href="#m5597cb2b0b" x="135" y="187.098238" style="stroke: #000000; stroke-width: 0.8"/>
      </g>
     </g>
     <g id="text_16">
      <!-- 0.55 -->
      <g transform="translate(105.734375 190.897456) scale(0.1 -0.1)">
       <use xlink:href="#DejaVuSans-30"/>
       <use xlink:href="#DejaVuSans-2e" x="63.623047"/>
       <use xlink:href="#DejaVuSans-35" x="95.410156"/>
       <use xlink:href="#DejaVuSans-35" x="159.033203"/>
      </g>
     </g>
    </g>
    <g id="ytick_7">
     <g id="line2d_16">
      <g>
       <use xlink:href="#m5597cb2b0b" x="135" y="110.281644" style="stroke: #000000; stroke-width: 0.8"/>
      </g>
     </g>
     <g id="text_17">
      <!-- 0.60 -->
      <g transform="translate(105.734375 114.080863) scale(0.1 -0.1)">
       <defs>
        <path id="DejaVuSans-36" d="M 2113 2584 
Q 1688 2584 1439 2293 
Q 1191 2003 1191 1497 
Q 1191 994 1439 701 
Q 1688 409 2113 409 
Q 2538 409 2786 701 
Q 3034 994 3034 1497 
Q 3034 2003 2786 2293 
Q 2538 2584 2113 2584 
z
M 3366 4563 
L 3366 3988 
Q 3128 4100 2886 4159 
Q 2644 4219 2406 4219 
Q 1781 4219 1451 3797 
Q 1122 3375 1075 2522 
Q 1259 2794 1537 2939 
Q 1816 3084 2150 3084 
Q 2853 3084 3261 2657 
Q 3669 2231 3669 1497 
Q 3669 778 3244 343 
Q 2819 -91 2113 -91 
Q 1303 -91 875 529 
Q 447 1150 447 2328 
Q 447 3434 972 4092 
Q 1497 4750 2381 4750 
Q 2619 4750 2861 4703 
Q 3103 4656 3366 4563 
z
" transform="scale(0.015625)"/>
       </defs>
       <use xlink:href="#DejaVuSans-30"/>
       <use xlink:href="#DejaVuSans-2e" x="63.623047"/>
       <use xlink:href="#DejaVuSans-36" x="95.410156"/>
       <use xlink:href="#DejaVuSans-30" x="159.033203"/>
      </g>
     </g>
    </g>
    <g id="text_18">
     <!-- score -->
     <g transform="translate(99.654687 377.032812) rotate(-90) scale(0.1 -0.1)">
      <defs>
       <path id="DejaVuSans-73" d="M 2834 3397 
L 2834 2853 
Q 2591 2978 2328 3040 
Q 2066 3103 1784 3103 
Q 1356 3103 1142 2972 
Q 928 2841 928 2578 
Q 928 2378 1081 2264 
Q 1234 2150 1697 2047 
L 1894 2003 
Q 2506 1872 2764 1633 
Q 3022 1394 3022 966 
Q 3022 478 2636 193 
Q 2250 -91 1575 -91 
Q 1294 -91 989 -36 
Q 684 19 347 128 
L 347 722 
Q 666 556 975 473 
Q 1284 391 1588 391 
Q 1994 391 2212 530 
Q 2431 669 2431 922 
Q 2431 1156 2273 1281 
Q 2116 1406 1581 1522 
L 1381 1569 
Q 847 1681 609 1914 
Q 372 2147 372 2553 
Q 372 3047 722 3315 
Q 1072 3584 1716 3584 
Q 2034 3584 2315 3537 
Q 2597 3491 2834 3397 
z
" transform="scale(0.015625)"/>
       <path id="DejaVuSans-72" d="M 2631 2963 
Q 2534 3019 2420 3045 
Q 2306 3072 2169 3072 
Q 1681 3072 1420 2755 
Q 1159 2438 1159 1844 
L 1159 0 
L 581 0 
L 581 3500 
L 1159 3500 
L 1159 2956 
Q 1341 3275 1631 3429 
Q 1922 3584 2338 3584 
Q 2397 3584 2469 3576 
Q 2541 3569 2628 3553 
L 2631 2963 
z
" transform="scale(0.015625)"/>
      </defs>
      <use xlink:href="#DejaVuSans-73"/>
      <use xlink:href="#DejaVuSans-63" x="52.099609"/>
      <use xlink:href="#DejaVuSans-6f" x="107.080078"/>
      <use xlink:href="#DejaVuSans-72" x="168.261719"/>
      <use xlink:href="#DejaVuSans-65" x="207.125"/>
     </g>
    </g>
   </g>
   <g id="line2d_17">
    <path d="M 173.045455 412.714614 
L 176.869118 425.143366 
L 180.692782 355.404256 
L 184.516446 321.570431 
L 188.34011 502.477824 
L 192.163773 315.356055 
L 195.987437 245.616946 
L 199.811101 316.046541 
L 203.634765 290.498551 
L 207.458429 245.616946 
L 211.282092 241.474028 
L 215.105756 242.164515 
L 218.92942 211.092634 
L 222.753084 218.687983 
L 226.576747 261.498129 
L 230.400411 211.092634 
L 234.224075 258.045698 
L 238.047739 215.926038 
L 241.871402 248.378891 
L 245.695066 195.211451 
L 249.51873 220.759441 
L 253.342394 202.806799 
L 257.166058 242.164515 
L 260.989721 222.8309 
L 264.813385 288.427092 
L 268.637049 204.187772 
L 272.460713 283.593688 
L 276.284376 162.758598 
L 280.10804 175.877836 
L 283.931704 189.687561 
L 287.755368 195.901937 
L 291.579032 238.021597 
L 295.402695 184.163671 
L 299.226359 168.972974 
L 303.050023 188.997075 
L 306.873687 199.354368 
L 310.69735 195.211451 
L 314.521014 200.735341 
L 318.344678 211.092634 
L 322.168342 218.687983 
L 325.992005 195.211451 
L 329.815669 184.854157 
L 333.639333 193.830478 
L 337.462997 202.116313 
L 341.286661 200.044854 
L 345.110324 196.592423 
L 348.933988 170.353947 
L 352.757652 231.807221 
L 356.581316 229.735762 
L 360.404979 201.425827 
L 364.228643 157.234708 
L 368.052307 201.425827 
L 371.875971 186.23513 
L 375.699635 211.092634 
L 379.523298 192.449506 
L 383.346962 182.092212 
L 387.170626 200.044854 
L 390.99429 188.306589 
L 394.817953 170.353947 
L 398.641617 168.972974 
L 402.465281 188.997075 
L 406.288945 178.639781 
L 410.112608 193.139992 
L 413.936272 171.044433 
L 417.759936 206.949717 
L 421.5836 173.806378 
L 425.407264 176.568323 
L 429.230927 168.972974 
L 433.054591 164.13957 
L 436.878255 191.068533 
L 440.701919 184.163671 
L 444.525582 165.520543 
L 448.349246 182.092212 
L 452.17291 191.75902 
L 455.996574 172.425405 
L 459.820238 160.687139 
L 463.643901 185.544644 
L 467.467565 178.639781 
L 471.291229 190.378047 
L 475.114893 168.972974 
L 478.938556 176.568323 
L 482.76222 175.877836 
L 486.585884 167.592002 
L 490.409548 180.71124 
L 494.233212 159.996653 
L 498.056875 168.972974 
L 501.880539 156.544222 
L 505.704203 174.496864 
L 509.527867 173.115891 
L 513.35153 167.592002 
L 517.175194 173.115891 
L 520.998858 155.853736 
L 524.822522 173.806378 
L 528.646185 176.568323 
L 532.469849 161.377626 
L 536.293513 169.66346 
L 540.117177 164.830057 
L 543.940841 150.329846 
L 547.764504 171.734919 
L 551.588168 178.639781 
L 555.411832 168.972974 
L 559.235496 148.258387 
L 563.059159 155.163249 
L 566.882823 150.329846 
L 570.706487 171.044433 
L 574.530151 143.424984 
L 578.353815 180.020754 
L 582.177478 174.496864 
L 586.001142 156.544222 
L 589.824806 182.092212 
L 593.64847 186.23513 
L 597.472133 178.639781 
L 601.295797 149.63936 
L 605.119461 164.830057 
L 608.943125 177.949295 
L 612.766788 152.401305 
L 616.590452 178.639781 
L 620.414116 179.330268 
L 624.23778 165.520543 
L 628.061444 162.068112 
L 631.885107 171.734919 
L 635.708771 173.806378 
L 639.532435 179.330268 
L 643.356099 171.734919 
L 647.179762 146.877415 
L 651.003426 159.306167 
L 654.82709 177.258809 
L 658.650754 174.496864 
L 662.474418 176.568323 
L 666.298081 153.091791 
L 670.121745 159.306167 
L 673.945409 158.615681 
L 677.769073 177.949295 
L 681.592736 182.092212 
L 685.4164 169.66346 
L 689.240064 137.210607 
L 693.063728 171.734919 
L 696.887392 154.472763 
L 700.711055 166.901515 
L 704.534719 168.972974 
L 708.358383 162.758598 
L 712.182047 201.425827 
L 716.00571 171.734919 
L 719.829374 161.377626 
L 723.653038 176.568323 
L 727.476702 150.329846 
L 731.300365 168.972974 
L 735.124029 154.472763 
L 738.947693 141.353525 
L 742.771357 169.66346 
L 746.595021 167.592002 
L 750.418684 148.258387 
L 754.242348 167.592002 
L 758.066012 162.068112 
L 761.889676 162.068112 
L 765.713339 157.925194 
L 769.537003 155.163249 
L 773.360667 209.711662 
L 777.184331 180.020754 
L 781.007995 177.258809 
L 784.831658 166.211029 
L 788.655322 159.306167 
L 792.478986 184.163671 
L 796.30265 161.377626 
L 800.126313 137.901094 
L 803.949977 173.115891 
L 807.773641 165.520543 
L 811.597305 170.353947 
L 815.420968 153.782277 
L 819.244632 156.544222 
L 823.068296 151.020332 
L 826.89196 162.758598 
L 830.715624 157.925194 
L 834.539287 160.687139 
L 838.362951 195.211451 
L 842.186615 182.782699 
L 846.010279 157.925194 
L 849.833942 157.925194 
L 853.657606 152.401305 
L 857.48127 171.734919 
L 861.304934 164.13957 
L 865.128598 171.734919 
L 868.952261 157.234708 
L 872.775925 160.687139 
L 876.599589 144.11547 
L 880.423253 162.068112 
L 884.246916 179.330268 
L 888.07058 177.949295 
L 891.894244 168.972974 
L 895.717908 151.710818 
L 899.541571 153.091791 
L 903.365235 176.568323 
L 907.188899 193.139992 
L 911.012563 157.234708 
L 914.836227 151.020332 
L 918.65989 158.615681 
L 922.483554 148.258387 
L 926.307218 148.948873 
L 930.130882 168.972974 
L 933.954545 166.211029 
L 933.954545 166.211029 
" clip-path="url(#pac84d21589)" style="fill: none; stroke: #1f77b4; stroke-width: 1.5; stroke-linecap: square"/>
   </g>
   <g id="line2d_18">
    <path d="M 173.045455 405.576747 
L 176.869118 408.027864 
L 180.692782 375.282301 
L 184.516446 325.463348 
L 188.34011 366.771331 
L 192.163773 283.539935 
L 195.987437 246.392075 
L 199.811101 306.248737 
L 203.634765 286.394004 
L 207.458429 225.182047 
L 211.282092 263.782409 
L 215.105756 235.664966 
L 218.92942 175.950277 
L 222.753084 238.609637 
L 226.576747 218.341658 
L 230.400411 249.654478 
L 234.224075 239.360432 
L 238.047739 236.802654 
L 241.871402 207.496262 
L 245.695066 202.835348 
L 249.51873 182.400443 
L 253.342394 205.362194 
L 257.166058 202.238195 
L 260.989721 192.471675 
L 264.813385 111.6 
L 268.637049 205.573084 
L 272.460713 189.181391 
L 276.284376 154.236899 
L 280.10804 222.099214 
L 283.931704 226.590662 
L 287.755368 225.224977 
L 291.579032 234.027606 
L 295.402695 140.509645 
L 299.226359 128.46649 
L 303.050023 191.377302 
L 306.873687 176.498914 
L 310.69735 221.980057 
L 314.521014 213.581297 
L 318.344678 213.596741 
L 322.168342 202.869044 
L 325.992005 182.59903 
L 329.815669 161.574483 
L 333.639333 173.518901 
L 337.462997 243.214583 
L 341.286661 201.718619 
L 345.110324 168.227713 
L 348.933988 153.307475 
L 352.757652 144.935223 
L 356.581316 183.658491 
L 360.404979 195.144594 
L 364.228643 170.577424 
L 368.052307 175.864012 
L 371.875971 187.879816 
L 375.699635 174.337003 
L 379.523298 180.507011 
L 383.346962 171.383038 
L 387.170626 190.061281 
L 390.99429 168.717915 
L 394.817953 161.589089 
L 398.641617 179.075103 
L 402.465281 185.88196 
L 406.288945 176.802509 
L 410.112608 198.970854 
L 413.936272 162.035382 
L 417.759936 166.972118 
L 421.5836 150.414776 
L 425.407264 189.066168 
L 429.230927 182.133946 
L 433.054591 156.118785 
L 436.878255 158.296709 
L 440.701919 178.887986 
L 444.525582 173.879832 
L 448.349246 201.261702 
L 452.17291 155.913676 
L 455.996574 163.642039 
L 459.820238 175.245402 
L 463.643901 185.243539 
L 467.467565 149.136113 
L 471.291229 196.016409 
L 475.114893 145.035991 
L 478.938556 157.525051 
L 482.76222 150.670451 
L 486.585884 141.589698 
L 490.409548 183.508825 
L 494.233212 177.239282 
L 498.056875 180.320868 
L 501.880539 151.292746 
L 505.704203 163.923734 
L 513.35153 161.959236 
L 517.175194 160.523489 
L 520.998858 143.893204 
L 524.822522 177.898285 
L 528.646185 154.889873 
L 532.469849 169.196092 
L 536.293513 168.360522 
L 540.117177 143.756729 
L 543.940841 152.794139 
L 547.764504 171.029027 
L 551.588168 174.224588 
L 555.411832 159.796035 
L 559.235496 154.084062 
L 563.059159 151.990443 
L 566.882823 151.571963 
L 570.706487 139.889875 
L 574.530151 145.128269 
L 578.353815 144.55264 
L 582.177478 163.521585 
L 586.001142 135.307718 
L 589.824806 161.629507 
L 593.64847 191.495376 
L 597.472133 156.692839 
L 601.295797 148.044178 
L 605.119461 160.526123 
L 608.943125 194.677769 
L 612.766788 158.503007 
L 616.590452 174.936004 
L 620.414116 140.277003 
L 624.23778 146.550109 
L 628.061444 169.564918 
L 631.885107 177.869652 
L 635.708771 164.020575 
L 639.532435 182.316226 
L 643.356099 171.951815 
L 647.179762 167.982844 
L 651.003426 156.171164 
L 654.82709 184.351001 
L 658.650754 161.042825 
L 662.474418 177.823397 
L 666.298081 153.57856 
L 670.121745 163.234253 
L 673.945409 180.470731 
L 677.769073 175.254456 
L 681.592736 152.63385 
L 685.4164 167.739862 
L 689.240064 121.600369 
L 693.063728 170.257328 
L 696.887392 167.768537 
L 700.711055 174.573925 
L 704.534719 158.083583 
L 708.358383 158.452946 
L 712.182047 188.938069 
L 716.00571 168.26998 
L 719.829374 165.506812 
L 723.653038 194.228982 
L 727.476702 147.520653 
L 731.300365 171.426429 
L 735.124029 167.419172 
L 738.947693 153.851292 
L 742.771357 181.08763 
L 746.595021 164.792974 
L 750.418684 150.047473 
L 754.242348 171.37305 
L 758.066012 165.180444 
L 761.889676 163.507044 
L 765.713339 155.625898 
L 769.537003 163.106444 
L 773.360667 188.221481 
L 777.184331 175.679794 
L 781.007995 167.176086 
L 784.831658 154.952494 
L 788.655322 163.022374 
L 792.478986 190.618346 
L 796.30265 162.143803 
L 800.126313 140.774605 
L 803.949977 128.314711 
L 807.773641 165.091927 
L 811.597305 177.53415 
L 815.420968 175.858824 
L 819.244632 156.317476 
L 823.068296 148.989576 
L 826.89196 140.080239 
L 830.715624 172.771948 
L 834.539287 176.329312 
L 838.362951 175.95031 
L 842.186615 196.099983 
L 846.010279 143.823511 
L 849.833942 153.811497 
L 853.657606 139.583759 
L 857.48127 168.152617 
L 861.304934 187.890521 
L 865.128598 183.582003 
L 868.952261 151.947089 
L 872.775925 168.102678 
L 876.599589 158.071324 
L 880.423253 141.856443 
L 888.07058 173.647093 
L 891.894244 162.188704 
L 895.717908 154.560818 
L 899.541571 165.072637 
L 903.365235 180.073717 
L 907.188899 167.616236 
L 911.012563 140.113704 
L 914.836227 155.211945 
L 918.65989 160.066274 
L 922.483554 148.617538 
L 926.307218 163.290729 
L 930.130882 175.304244 
L 933.954545 170.711831 
L 933.954545 170.711831 
" clip-path="url(#pac84d21589)" style="fill: none; stroke: #ff7f0e; stroke-width: 1.5; stroke-linecap: square"/>
   </g>
   <g id="line2d_19">
    <path d="M 173.045455 410.512556 
L 176.869118 406.847177 
L 180.692782 360.441462 
L 184.516446 323.516841 
L 188.34011 508.375394 
L 192.163773 315.275511 
L 195.987437 254.612454 
L 199.811101 306.394944 
L 203.634765 314.016053 
L 207.458429 256.764554 
L 211.282092 236.995418 
L 215.105756 239.505005 
L 218.92942 209.859692 
L 222.753084 233.015389 
L 226.576747 243.305847 
L 230.400411 214.685295 
L 234.224075 247.065358 
L 238.047739 213.223241 
L 241.871402 230.64351 
L 245.695066 216.304022 
L 249.51873 246.70214 
L 253.342394 220.150723 
L 257.166058 225.050239 
L 260.989721 254.550559 
L 264.813385 255.839761 
L 268.637049 203.217484 
L 272.460713 281.795976 
L 276.284376 166.258174 
L 280.10804 191.880318 
L 283.931704 191.766022 
L 287.755368 194.97005 
L 291.579032 226.542758 
L 295.402695 177.008462 
L 299.226359 154.728437 
L 303.050023 188.663524 
L 306.873687 204.939643 
L 310.69735 191.072777 
L 318.344678 227.879422 
L 322.168342 215.975546 
L 325.992005 190.151979 
L 329.815669 194.35993 
L 333.639333 181.1376 
L 337.462997 208.707894 
L 341.286661 193.714605 
L 345.110324 190.721791 
L 348.933988 180.623825 
L 352.757652 214.384931 
L 356.581316 213.226549 
L 360.404979 186.800015 
L 364.228643 173.767543 
L 368.052307 201.970633 
L 371.875971 186.57885 
L 375.699635 206.941471 
L 379.523298 197.965989 
L 383.346962 194.783432 
L 387.170626 192.202711 
L 390.99429 185.298164 
L 394.817953 164.499049 
L 398.641617 181.557402 
L 402.465281 185.440798 
L 406.288945 178.619673 
L 410.112608 197.543758 
L 413.936272 184.053334 
L 417.759936 200.884106 
L 421.5836 172.334599 
L 425.407264 179.530638 
L 429.230927 182.382016 
L 433.054591 166.611014 
L 436.878255 182.910909 
L 444.525582 179.963341 
L 448.349246 187.560637 
L 452.17291 184.138661 
L 455.996574 167.818469 
L 459.820238 165.218401 
L 463.643901 192.517214 
L 467.467565 172.868622 
L 471.291229 193.225137 
L 475.114893 167.858584 
L 478.938556 174.181024 
L 482.76222 174.548333 
L 486.585884 163.632742 
L 490.409548 181.318369 
L 494.233212 162.992823 
L 498.056875 172.668015 
L 501.880539 163.090788 
L 505.704203 180.623259 
L 509.527867 181.360478 
L 513.35153 179.237042 
L 517.175194 172.755148 
L 520.998858 161.732646 
L 524.822522 168.230638 
L 528.646185 179.972648 
L 532.469849 167.395043 
L 536.293513 168.02903 
L 540.117177 165.624212 
L 543.940841 164.905926 
L 547.764504 177.960209 
L 551.588168 169.688905 
L 555.411832 167.214254 
L 559.235496 151.485058 
L 563.059159 163.617125 
L 566.882823 146.745114 
L 570.706487 166.087442 
L 574.530151 143.183016 
L 578.353815 181.317744 
L 582.177478 172.186672 
L 586.001142 157.79083 
L 589.824806 188.105622 
L 593.64847 201.972221 
L 597.472133 184.130407 
L 601.295797 157.64692 
L 605.119461 164.517002 
L 608.943125 172.402053 
L 612.766788 163.532472 
L 616.590452 191.878844 
L 620.414116 176.483482 
L 624.23778 166.931053 
L 628.061444 166.69138 
L 631.885107 171.95092 
L 635.708771 182.029766 
L 639.532435 185.392869 
L 643.356099 173.988759 
L 647.179762 152.327272 
L 651.003426 164.046558 
L 654.82709 184.579692 
L 658.650754 175.699169 
L 662.474418 181.354538 
L 666.298081 151.330179 
L 670.121745 160.130837 
L 673.945409 165.292447 
L 677.769073 169.959663 
L 681.592736 182.008425 
L 685.4164 173.476948 
L 689.240064 139.44927 
L 693.063728 174.543808 
L 696.887392 159.423873 
L 700.711055 165.336771 
L 704.534719 168.12873 
L 708.358383 162.995266 
L 712.182047 193.479547 
L 716.00571 173.633594 
L 719.829374 163.510359 
L 723.653038 177.72657 
L 727.476702 151.377103 
L 731.300365 160.9024 
L 735.124029 157.012058 
L 738.947693 145.443461 
L 742.771357 173.181089 
L 746.595021 175.121563 
L 750.418684 155.879996 
L 754.242348 173.900109 
L 758.066012 163.240599 
L 761.889676 155.621833 
L 765.713339 157.527904 
L 769.537003 153.742592 
L 773.360667 205.419388 
L 777.184331 178.488515 
L 781.007995 176.798512 
L 784.831658 164.094724 
L 788.655322 159.143442 
L 792.478986 182.642843 
L 796.30265 162.353445 
L 800.126313 147.466578 
L 803.949977 167.071255 
L 807.773641 166.048404 
L 811.597305 173.270587 
L 815.420968 157.172603 
L 819.244632 165.419475 
L 823.068296 157.954158 
L 826.89196 169.554633 
L 830.715624 164.348567 
L 834.539287 169.946718 
L 838.362951 197.94995 
L 842.186615 183.727639 
L 846.010279 157.600575 
L 849.833942 152.058268 
L 853.657606 149.642834 
L 857.48127 175.459074 
L 861.304934 168.423878 
L 865.128598 180.185068 
L 868.952261 160.331017 
L 872.775925 164.095701 
L 876.599589 145.229804 
L 880.423253 159.802705 
L 884.246916 188.734146 
L 888.07058 178.625544 
L 891.894244 171.073352 
L 895.717908 154.364531 
L 899.541571 152.584706 
L 903.365235 176.027391 
L 907.188899 193.239799 
L 911.012563 158.431164 
L 914.836227 150.774739 
L 918.65989 159.195002 
L 922.483554 151.701822 
L 926.307218 149.778429 
L 930.130882 168.428062 
L 933.954545 168.962981 
L 933.954545 168.962981 
" clip-path="url(#pac84d21589)" style="fill: none; stroke: #2ca02c; stroke-width: 1.5; stroke-linecap: square"/>
   </g>
   <g id="line2d_20">
    <path d="M 173.045455 436.491555 
L 176.869118 471.978494 
L 180.692782 376.064354 
L 184.516446 334.038005 
L 188.34011 615.6 
L 192.163773 336.102572 
L 195.987437 252.534806 
L 199.811101 346.203364 
L 203.634765 329.260419 
L 207.458429 250.44553 
L 211.282092 273.749596 
L 215.105756 267.65652 
L 218.92942 202.203464 
L 222.753084 251.508472 
L 226.576747 286.895634 
L 230.400411 251.16397 
L 234.224075 279.025672 
L 238.047739 236.905431 
L 241.871402 261.806329 
L 245.695066 254.504632 
L 249.51873 248.380494 
L 253.342394 225.251762 
L 257.166058 267.913514 
L 260.989721 288.651322 
L 264.813385 302.960736 
L 268.637049 206.023318 
L 272.460713 320.499816 
L 276.284376 160.988385 
L 280.10804 246.085343 
L 283.931704 238.133723 
L 287.755368 218.765955 
L 291.579032 259.073884 
L 295.402695 171.537851 
L 299.226359 161.790158 
L 303.050023 192.38526 
L 306.873687 195.18103 
L 310.69735 215.824302 
L 314.521014 217.484573 
L 318.344678 231.216153 
L 322.168342 213.186872 
L 325.992005 192.446319 
L 329.815669 188.379932 
L 333.639333 193.07895 
L 337.462997 245.313973 
L 341.286661 213.963063 
L 345.110324 190.314971 
L 348.933988 172.004414 
L 352.757652 225.741014 
L 356.581316 228.350319 
L 360.404979 210.979198 
L 364.228643 186.430926 
L 368.052307 194.100097 
L 371.875971 199.19742 
L 375.699635 200.628418 
L 379.523298 190.860056 
L 383.346962 195.100599 
L 387.170626 200.423664 
L 390.99429 181.477613 
L 394.817953 179.392632 
L 398.641617 190.342351 
L 402.465281 188.789598 
L 406.288945 178.760801 
L 410.112608 200.307509 
L 413.936272 181.547185 
L 417.759936 193.544014 
L 421.5836 165.622221 
L 425.407264 185.555135 
L 429.230927 197.182681 
L 433.054591 162.06607 
L 436.878255 182.417699 
L 440.701919 181.822485 
L 444.525582 190.210931 
L 448.349246 199.529493 
L 452.17291 185.655508 
L 455.996574 168.815505 
L 459.820238 173.026943 
L 463.643901 190.898087 
L 467.467565 168.118586 
L 471.291229 197.310556 
L 475.114893 163.887139 
L 478.938556 170.294935 
L 482.76222 166.820189 
L 486.585884 158.695492 
L 490.409548 201.215738 
L 494.233212 173.936021 
L 498.056875 176.800353 
L 501.880539 158.718008 
L 505.704203 173.805821 
L 509.527867 174.792057 
L 513.35153 177.429865 
L 517.175194 167.527088 
L 520.998858 155.640096 
L 524.822522 177.356433 
L 528.646185 170.457394 
L 532.469849 170.309835 
L 536.293513 170.025345 
L 540.117177 159.800692 
L 543.940841 170.217599 
L 547.764504 177.338974 
L 551.588168 183.509167 
L 555.411832 168.240894 
L 559.235496 159.874755 
L 563.059159 162.459642 
L 566.882823 153.453358 
L 570.706487 162.23008 
L 574.530151 145.893147 
L 578.353815 171.821034 
L 582.177478 171.654165 
L 586.001142 150.272338 
L 589.824806 177.606053 
L 593.64847 211.356649 
L 597.472133 173.23586 
L 601.295797 154.375388 
L 605.119461 167.293287 
L 608.943125 196.382115 
L 612.766788 164.1119 
L 616.590452 194.065101 
L 620.414116 171.536553 
L 624.23778 159.182221 
L 628.061444 168.692876 
L 631.885107 176.065336 
L 635.708771 175.701536 
L 639.532435 184.774295 
L 643.356099 173.459821 
L 647.179762 166.385385 
L 651.003426 161.198616 
L 654.82709 188.111446 
L 658.650754 171.760262 
L 662.474418 179.671059 
L 666.298081 153.726328 
L 670.121745 163.054009 
L 673.945409 177.489715 
L 677.769073 187.630824 
L 681.592736 174.371874 
L 685.4164 174.044672 
L 689.240064 132.338243 
L 693.063728 172.910116 
L 696.887392 169.258392 
L 700.711055 172.164164 
L 704.534719 165.142572 
L 708.358383 161.926471 
L 712.182047 201.48107 
L 716.00571 171.493068 
L 719.829374 166.111942 
L 723.653038 190.99667 
L 727.476702 151.187559 
L 731.300365 177.350012 
L 735.124029 163.474373 
L 738.947693 150.341791 
L 742.771357 177.544163 
L 746.595021 172.136925 
L 750.418684 161.476272 
L 754.242348 174.886514 
L 758.066012 164.784994 
L 761.889676 166.560021 
L 765.713339 158.79454 
L 769.537003 159.73609 
L 773.360667 203.570031 
L 777.184331 178.867025 
L 781.007995 173.509937 
L 784.831658 162.368131 
L 788.655322 162.151875 
L 792.478986 192.010384 
L 796.30265 162.851205 
L 800.126313 148.25428 
L 803.949977 162.220631 
L 807.773641 166.255061 
L 811.597305 176.466775 
L 815.420968 169.566797 
L 819.244632 163.875706 
L 823.068296 159.420419 
L 826.89196 158.493979 
L 830.715624 176.820844 
L 834.539287 176.466836 
L 838.362951 188.960115 
L 842.186615 191.736883 
L 846.010279 152.18956 
L 849.833942 159.283984 
L 853.657606 149.653556 
L 857.48127 174.132146 
L 861.304934 182.288819 
L 865.128598 205.946666 
L 868.952261 156.508238 
L 872.775925 167.380406 
L 876.599589 153.51409 
L 880.423253 154.863836 
L 884.246916 185.902744 
L 888.07058 176.812735 
L 891.894244 167.268301 
L 895.717908 154.572716 
L 899.541571 160.820106 
L 903.365235 180.953395 
L 907.188899 189.049681 
L 911.012563 151.541268 
L 914.836227 156.959118 
L 918.65989 160.452458 
L 922.483554 154.76744 
L 926.307218 158.543262 
L 930.130882 172.757373 
L 933.954545 170.475892 
L 933.954545 170.475892 
" clip-path="url(#pac84d21589)" style="fill: none; stroke: #d62728; stroke-width: 1.5; stroke-linecap: square"/>
   </g>
   <g id="patch_3">
    <path d="M 135 640.8 
L 135 86.4 
" style="fill: none; stroke: #000000; stroke-width: 0.8; stroke-linejoin: miter; stroke-linecap: square"/>
   </g>
   <g id="patch_4">
    <path d="M 972 640.8 
L 972 86.4 
" style="fill: none; stroke: #000000; stroke-width: 0.8; stroke-linejoin: miter; stroke-linecap: square"/>
   </g>
   <g id="patch_5">
    <path d="M 135 640.8 
L 972 640.8 
" style="fill: none; stroke: #000000; stroke-width: 0.8; stroke-linejoin: miter; stroke-linecap: square"/>
   </g>
   <g id="patch_6">
    <path d="M 135 86.4 
L 972 86.4 
" style="fill: none; stroke: #000000; stroke-width: 0.8; stroke-linejoin: miter; stroke-linecap: square"/>
   </g>
   <g id="legend_1">
    <g id="patch_7">
     <path d="M 142 153.1125 
L 254.8 153.1125 
Q 256.8 153.1125 256.8 151.1125 
L 256.8 93.4 
Q 256.8 91.4 254.8 91.4 
L 142 91.4 
Q 140 91.4 140 93.4 
L 140 151.1125 
Q 140 153.1125 142 153.1125 
z
" style="fill: #ffffff; opacity: 0.8; stroke: #cccccc; stroke-linejoin: miter"/>
    </g>
    <g id="line2d_21">
     <path d="M 144 99.498437 
L 154 99.498437 
L 164 99.498437 
" style="fill: none; stroke: #1f77b4; stroke-width: 1.5; stroke-linecap: square"/>
    </g>
    <g id="text_19">
     <!-- Accuracy -->
     <g transform="translate(172 102.998437) scale(0.1 -0.1)">
      <defs>
       <path id="DejaVuSans-41" d="M 2188 4044 
L 1331 1722 
L 3047 1722 
L 2188 4044 
z
M 1831 4666 
L 2547 4666 
L 4325 0 
L 3669 0 
L 3244 1197 
L 1141 1197 
L 716 0 
L 50 0 
L 1831 4666 
z
" transform="scale(0.015625)"/>
       <path id="DejaVuSans-75" d="M 544 1381 
L 544 3500 
L 1119 3500 
L 1119 1403 
Q 1119 906 1312 657 
Q 1506 409 1894 409 
Q 2359 409 2629 706 
Q 2900 1003 2900 1516 
L 2900 3500 
L 3475 3500 
L 3475 0 
L 2900 0 
L 2900 538 
Q 2691 219 2414 64 
Q 2138 -91 1772 -91 
Q 1169 -91 856 284 
Q 544 659 544 1381 
z
M 1991 3584 
L 1991 3584 
z
" transform="scale(0.015625)"/>
       <path id="DejaVuSans-61" d="M 2194 1759 
Q 1497 1759 1228 1600 
Q 959 1441 959 1056 
Q 959 750 1161 570 
Q 1363 391 1709 391 
Q 2188 391 2477 730 
Q 2766 1069 2766 1631 
L 2766 1759 
L 2194 1759 
z
M 3341 1997 
L 3341 0 
L 2766 0 
L 2766 531 
Q 2569 213 2275 61 
Q 1981 -91 1556 -91 
Q 1019 -91 701 211 
Q 384 513 384 1019 
Q 384 1609 779 1909 
Q 1175 2209 1959 2209 
L 2766 2209 
L 2766 2266 
Q 2766 2663 2505 2880 
Q 2244 3097 1772 3097 
Q 1472 3097 1187 3025 
Q 903 2953 641 2809 
L 641 3341 
Q 956 3463 1253 3523 
Q 1550 3584 1831 3584 
Q 2591 3584 2966 3190 
Q 3341 2797 3341 1997 
z
" transform="scale(0.015625)"/>
       <path id="DejaVuSans-79" d="M 2059 -325 
Q 1816 -950 1584 -1140 
Q 1353 -1331 966 -1331 
L 506 -1331 
L 506 -850 
L 844 -850 
Q 1081 -850 1212 -737 
Q 1344 -625 1503 -206 
L 1606 56 
L 191 3500 
L 800 3500 
L 1894 763 
L 2988 3500 
L 3597 3500 
L 2059 -325 
z
" transform="scale(0.015625)"/>
      </defs>
      <use xlink:href="#DejaVuSans-41"/>
      <use xlink:href="#DejaVuSans-63" x="66.658203"/>
      <use xlink:href="#DejaVuSans-63" x="121.638672"/>
      <use xlink:href="#DejaVuSans-75" x="176.619141"/>
      <use xlink:href="#DejaVuSans-72" x="239.998047"/>
      <use xlink:href="#DejaVuSans-61" x="281.111328"/>
      <use xlink:href="#DejaVuSans-63" x="342.390625"/>
      <use xlink:href="#DejaVuSans-79" x="397.371094"/>
     </g>
    </g>
    <g id="line2d_22">
     <path d="M 144 114.176562 
L 154 114.176562 
L 164 114.176562 
" style="fill: none; stroke: #ff7f0e; stroke-width: 1.5; stroke-linecap: square"/>
    </g>
    <g id="text_20">
     <!-- Precision Macro' -->
     <g transform="translate(172 117.676562) scale(0.1 -0.1)">
      <defs>
       <path id="DejaVuSans-50" d="M 1259 4147 
L 1259 2394 
L 2053 2394 
Q 2494 2394 2734 2622 
Q 2975 2850 2975 3272 
Q 2975 3691 2734 3919 
Q 2494 4147 2053 4147 
L 1259 4147 
z
M 628 4666 
L 2053 4666 
Q 2838 4666 3239 4311 
Q 3641 3956 3641 3272 
Q 3641 2581 3239 2228 
Q 2838 1875 2053 1875 
L 1259 1875 
L 1259 0 
L 628 0 
L 628 4666 
z
" transform="scale(0.015625)"/>
       <path id="DejaVuSans-69" d="M 603 3500 
L 1178 3500 
L 1178 0 
L 603 0 
L 603 3500 
z
M 603 4863 
L 1178 4863 
L 1178 4134 
L 603 4134 
L 603 4863 
z
" transform="scale(0.015625)"/>
       <path id="DejaVuSans-6e" d="M 3513 2113 
L 3513 0 
L 2938 0 
L 2938 2094 
Q 2938 2591 2744 2837 
Q 2550 3084 2163 3084 
Q 1697 3084 1428 2787 
Q 1159 2491 1159 1978 
L 1159 0 
L 581 0 
L 581 3500 
L 1159 3500 
L 1159 2956 
Q 1366 3272 1645 3428 
Q 1925 3584 2291 3584 
Q 2894 3584 3203 3211 
Q 3513 2838 3513 2113 
z
" transform="scale(0.015625)"/>
       <path id="DejaVuSans-20" transform="scale(0.015625)"/>
       <path id="DejaVuSans-4d" d="M 628 4666 
L 1569 4666 
L 2759 1491 
L 3956 4666 
L 4897 4666 
L 4897 0 
L 4281 0 
L 4281 4097 
L 3078 897 
L 2444 897 
L 1241 4097 
L 1241 0 
L 628 0 
L 628 4666 
z
" transform="scale(0.015625)"/>
       <path id="DejaVuSans-27" d="M 1147 4666 
L 1147 2931 
L 616 2931 
L 616 4666 
L 1147 4666 
z
" transform="scale(0.015625)"/>
      </defs>
      <use xlink:href="#DejaVuSans-50"/>
      <use xlink:href="#DejaVuSans-72" x="58.552734"/>
      <use xlink:href="#DejaVuSans-65" x="97.416016"/>
      <use xlink:href="#DejaVuSans-63" x="158.939453"/>
      <use xlink:href="#DejaVuSans-69" x="213.919922"/>
      <use xlink:href="#DejaVuSans-73" x="241.703125"/>
      <use xlink:href="#DejaVuSans-69" x="293.802734"/>
      <use xlink:href="#DejaVuSans-6f" x="321.585938"/>
      <use xlink:href="#DejaVuSans-6e" x="382.767578"/>
      <use xlink:href="#DejaVuSans-20" x="446.146484"/>
      <use xlink:href="#DejaVuSans-4d" x="477.933594"/>
      <use xlink:href="#DejaVuSans-61" x="564.212891"/>
      <use xlink:href="#DejaVuSans-63" x="625.492188"/>
      <use xlink:href="#DejaVuSans-72" x="680.472656"/>
      <use xlink:href="#DejaVuSans-6f" x="719.335938"/>
      <use xlink:href="#DejaVuSans-27" x="780.517578"/>
     </g>
    </g>
    <g id="line2d_23">
     <path d="M 144 128.854687 
L 154 128.854687 
L 164 128.854687 
" style="fill: none; stroke: #2ca02c; stroke-width: 1.5; stroke-linecap: square"/>
    </g>
    <g id="text_21">
     <!-- Recall Macro -->
     <g transform="translate(172 132.354687) scale(0.1 -0.1)">
      <defs>
       <path id="DejaVuSans-52" d="M 2841 2188 
Q 3044 2119 3236 1894 
Q 3428 1669 3622 1275 
L 4263 0 
L 3584 0 
L 2988 1197 
Q 2756 1666 2539 1819 
Q 2322 1972 1947 1972 
L 1259 1972 
L 1259 0 
L 628 0 
L 628 4666 
L 2053 4666 
Q 2853 4666 3247 4331 
Q 3641 3997 3641 3322 
Q 3641 2881 3436 2590 
Q 3231 2300 2841 2188 
z
M 1259 4147 
L 1259 2491 
L 2053 2491 
Q 2509 2491 2742 2702 
Q 2975 2913 2975 3322 
Q 2975 3731 2742 3939 
Q 2509 4147 2053 4147 
L 1259 4147 
z
" transform="scale(0.015625)"/>
       <path id="DejaVuSans-6c" d="M 603 4863 
L 1178 4863 
L 1178 0 
L 603 0 
L 603 4863 
z
" transform="scale(0.015625)"/>
      </defs>
      <use xlink:href="#DejaVuSans-52"/>
      <use xlink:href="#DejaVuSans-65" x="64.982422"/>
      <use xlink:href="#DejaVuSans-63" x="126.505859"/>
      <use xlink:href="#DejaVuSans-61" x="181.486328"/>
      <use xlink:href="#DejaVuSans-6c" x="242.765625"/>
      <use xlink:href="#DejaVuSans-6c" x="270.548828"/>
      <use xlink:href="#DejaVuSans-20" x="298.332031"/>
      <use xlink:href="#DejaVuSans-4d" x="330.119141"/>
      <use xlink:href="#DejaVuSans-61" x="416.398438"/>
      <use xlink:href="#DejaVuSans-63" x="477.677734"/>
      <use xlink:href="#DejaVuSans-72" x="532.658203"/>
      <use xlink:href="#DejaVuSans-6f" x="571.521484"/>
     </g>
    </g>
    <g id="line2d_24">
     <path d="M 144 143.532812 
L 154 143.532812 
L 164 143.532812 
" style="fill: none; stroke: #d62728; stroke-width: 1.5; stroke-linecap: square"/>
    </g>
    <g id="text_22">
     <!-- F1 Score Macro -->
     <g transform="translate(172 147.032812) scale(0.1 -0.1)">
      <defs>
       <path id="DejaVuSans-46" d="M 628 4666 
L 3309 4666 
L 3309 4134 
L 1259 4134 
L 1259 2759 
L 3109 2759 
L 3109 2228 
L 1259 2228 
L 1259 0 
L 628 0 
L 628 4666 
z
" transform="scale(0.015625)"/>
       <path id="DejaVuSans-53" d="M 3425 4513 
L 3425 3897 
Q 3066 4069 2747 4153 
Q 2428 4238 2131 4238 
Q 1616 4238 1336 4038 
Q 1056 3838 1056 3469 
Q 1056 3159 1242 3001 
Q 1428 2844 1947 2747 
L 2328 2669 
Q 3034 2534 3370 2195 
Q 3706 1856 3706 1288 
Q 3706 609 3251 259 
Q 2797 -91 1919 -91 
Q 1588 -91 1214 -16 
Q 841 59 441 206 
L 441 856 
Q 825 641 1194 531 
Q 1563 422 1919 422 
Q 2459 422 2753 634 
Q 3047 847 3047 1241 
Q 3047 1584 2836 1778 
Q 2625 1972 2144 2069 
L 1759 2144 
Q 1053 2284 737 2584 
Q 422 2884 422 3419 
Q 422 4038 858 4394 
Q 1294 4750 2059 4750 
Q 2388 4750 2728 4690 
Q 3069 4631 3425 4513 
z
" transform="scale(0.015625)"/>
      </defs>
      <use xlink:href="#DejaVuSans-46"/>
      <use xlink:href="#DejaVuSans-31" x="57.519531"/>
      <use xlink:href="#DejaVuSans-20" x="121.142578"/>
      <use xlink:href="#DejaVuSans-53" x="152.929688"/>
      <use xlink:href="#DejaVuSans-63" x="216.40625"/>
      <use xlink:href="#DejaVuSans-6f" x="271.386719"/>
      <use xlink:href="#DejaVuSans-72" x="332.568359"/>
      <use xlink:href="#DejaVuSans-65" x="371.431641"/>
      <use xlink:href="#DejaVuSans-20" x="432.955078"/>
      <use xlink:href="#DejaVuSans-4d" x="464.742188"/>
      <use xlink:href="#DejaVuSans-61" x="551.021484"/>
      <use xlink:href="#DejaVuSans-63" x="612.300781"/>
      <use xlink:href="#DejaVuSans-72" x="667.28125"/>
      <use xlink:href="#DejaVuSans-6f" x="706.144531"/>
     </g>
    </g>
   </g>
  </g>
 </g>
 <defs>
  <clipPath id="pac84d21589">
   <rect x="135" y="86.4" width="837" height="554.4"/>
  </clipPath>
 </defs>
</svg>
