<?xml version="1.0" encoding="utf-8" standalone="no"?>
<!DOCTYPE svg PUBLIC "-//W3C//DTD SVG 1.1//EN"
  "http://www.w3.org/Graphics/SVG/1.1/DTD/svg11.dtd">
<svg xmlns:xlink="http://www.w3.org/1999/xlink" width="1080pt" height="720pt" viewBox="0 0 1080 720" xmlns="http://www.w3.org/2000/svg" version="1.1">
 <metadata>
  <rdf:RDF xmlns:dc="http://purl.org/dc/elements/1.1/" xmlns:cc="http://creativecommons.org/ns#" xmlns:rdf="http://www.w3.org/1999/02/22-rdf-syntax-ns#">
   <cc:Work>
    <dc:type rdf:resource="http://purl.org/dc/dcmitype/StillImage"/>
    <dc:date>2023-11-16T18:20:29.714894</dc:date>
    <dc:format>image/svg+xml</dc:format>
    <dc:creator>
     <cc:Agent>
      <dc:title>Matplotlib v3.7.2, https://matplotlib.org/</dc:title>
     </cc:Agent>
    </dc:creator>
   </cc:Work>
  </rdf:RDF>
 </metadata>
 <defs>
  <style type="text/css">*{stroke-linejoin: round; stroke-linecap: butt}</style>
 </defs>
 <g id="figure_1">
  <g id="patch_1">
   <path d="M 0 720 
L 1080 720 
L 1080 0 
L 0 0 
z
" style="fill: #ffffff"/>
  </g>
  <g id="axes_1">
   <g id="patch_2">
    <path d="M 135 640.8 
L 972 640.8 
L 972 86.4 
L 135 86.4 
z
" style="fill: #ffffff"/>
   </g>
   <g id="matplotlib.axis_1">
    <g id="xtick_1">
     <g id="line2d_1">
      <defs>
       <path id="maca79b2f69" d="M 0 0 
L 0 3.5 
" style="stroke: #000000; stroke-width: 0.8"/>
      </defs>
      <g>
       <use xlink:href="#maca79b2f69" x="173.045455" y="640.8" style="stroke: #000000; stroke-width: 0.8"/>
      </g>
     </g>
     <g id="text_1">
      <!-- 0 -->
      <g transform="translate(169.864205 655.398438) scale(0.1 -0.1)">
       <defs>
        <path id="DejaVuSans-30" d="M 2034 4250 
Q 1547 4250 1301 3770 
Q 1056 3291 1056 2328 
Q 1056 1369 1301 889 
Q 1547 409 2034 409 
Q 2525 409 2770 889 
Q 3016 1369 3016 2328 
Q 3016 3291 2770 3770 
Q 2525 4250 2034 4250 
z
M 2034 4750 
Q 2819 4750 3233 4129 
Q 3647 3509 3647 2328 
Q 3647 1150 3233 529 
Q 2819 -91 2034 -91 
Q 1250 -91 836 529 
Q 422 1150 422 2328 
Q 422 3509 836 4129 
Q 1250 4750 2034 4750 
z
" transform="scale(0.015625)"/>
       </defs>
       <use xlink:href="#DejaVuSans-30"/>
      </g>
     </g>
    </g>
    <g id="xtick_2">
     <g id="line2d_2">
      <g>
       <use xlink:href="#maca79b2f69" x="268.637049" y="640.8" style="stroke: #000000; stroke-width: 0.8"/>
      </g>
     </g>
     <g id="text_2">
      <!-- 25 -->
      <g transform="translate(262.274549 655.398438) scale(0.1 -0.1)">
       <defs>
        <path id="DejaVuSans-32" d="M 1228 531 
L 3431 531 
L 3431 0 
L 469 0 
L 469 531 
Q 828 903 1448 1529 
Q 2069 2156 2228 2338 
Q 2531 2678 2651 2914 
Q 2772 3150 2772 3378 
Q 2772 3750 2511 3984 
Q 2250 4219 1831 4219 
Q 1534 4219 1204 4116 
Q 875 4013 500 3803 
L 500 4441 
Q 881 4594 1212 4672 
Q 1544 4750 1819 4750 
Q 2544 4750 2975 4387 
Q 3406 4025 3406 3419 
Q 3406 3131 3298 2873 
Q 3191 2616 2906 2266 
Q 2828 2175 2409 1742 
Q 1991 1309 1228 531 
z
" transform="scale(0.015625)"/>
        <path id="DejaVuSans-35" d="M 691 4666 
L 3169 4666 
L 3169 4134 
L 1269 4134 
L 1269 2991 
Q 1406 3038 1543 3061 
Q 1681 3084 1819 3084 
Q 2600 3084 3056 2656 
Q 3513 2228 3513 1497 
Q 3513 744 3044 326 
Q 2575 -91 1722 -91 
Q 1428 -91 1123 -41 
Q 819 9 494 109 
L 494 744 
Q 775 591 1075 516 
Q 1375 441 1709 441 
Q 2250 441 2565 725 
Q 2881 1009 2881 1497 
Q 2881 1984 2565 2268 
Q 2250 2553 1709 2553 
Q 1456 2553 1204 2497 
Q 953 2441 691 2322 
L 691 4666 
z
" transform="scale(0.015625)"/>
       </defs>
       <use xlink:href="#DejaVuSans-32"/>
       <use xlink:href="#DejaVuSans-35" x="63.623047"/>
      </g>
     </g>
    </g>
    <g id="xtick_3">
     <g id="line2d_3">
      <g>
       <use xlink:href="#maca79b2f69" x="364.228643" y="640.8" style="stroke: #000000; stroke-width: 0.8"/>
      </g>
     </g>
     <g id="text_3">
      <!-- 50 -->
      <g transform="translate(357.866143 655.398438) scale(0.1 -0.1)">
       <use xlink:href="#DejaVuSans-35"/>
       <use xlink:href="#DejaVuSans-30" x="63.623047"/>
      </g>
     </g>
    </g>
    <g id="xtick_4">
     <g id="line2d_4">
      <g>
       <use xlink:href="#maca79b2f69" x="459.820238" y="640.8" style="stroke: #000000; stroke-width: 0.8"/>
      </g>
     </g>
     <g id="text_4">
      <!-- 75 -->
      <g transform="translate(453.457738 655.398438) scale(0.1 -0.1)">
       <defs>
        <path id="DejaVuSans-37" d="M 525 4666 
L 3525 4666 
L 3525 4397 
L 1831 0 
L 1172 0 
L 2766 4134 
L 525 4134 
L 525 4666 
z
" transform="scale(0.015625)"/>
       </defs>
       <use xlink:href="#DejaVuSans-37"/>
       <use xlink:href="#DejaVuSans-35" x="63.623047"/>
      </g>
     </g>
    </g>
    <g id="xtick_5">
     <g id="line2d_5">
      <g>
       <use xlink:href="#maca79b2f69" x="555.411832" y="640.8" style="stroke: #000000; stroke-width: 0.8"/>
      </g>
     </g>
     <g id="text_5">
      <!-- 100 -->
      <g transform="translate(545.868082 655.398438) scale(0.1 -0.1)">
       <defs>
        <path id="DejaVuSans-31" d="M 794 531 
L 1825 531 
L 1825 4091 
L 703 3866 
L 703 4441 
L 1819 4666 
L 2450 4666 
L 2450 531 
L 3481 531 
L 3481 0 
L 794 0 
L 794 531 
z
" transform="scale(0.015625)"/>
       </defs>
       <use xlink:href="#DejaVuSans-31"/>
       <use xlink:href="#DejaVuSans-30" x="63.623047"/>
       <use xlink:href="#DejaVuSans-30" x="127.246094"/>
      </g>
     </g>
    </g>
    <g id="xtick_6">
     <g id="line2d_6">
      <g>
       <use xlink:href="#maca79b2f69" x="651.003426" y="640.8" style="stroke: #000000; stroke-width: 0.8"/>
      </g>
     </g>
     <g id="text_6">
      <!-- 125 -->
      <g transform="translate(641.459676 655.398438) scale(0.1 -0.1)">
       <use xlink:href="#DejaVuSans-31"/>
       <use xlink:href="#DejaVuSans-32" x="63.623047"/>
       <use xlink:href="#DejaVuSans-35" x="127.246094"/>
      </g>
     </g>
    </g>
    <g id="xtick_7">
     <g id="line2d_7">
      <g>
       <use xlink:href="#maca79b2f69" x="746.595021" y="640.8" style="stroke: #000000; stroke-width: 0.8"/>
      </g>
     </g>
     <g id="text_7">
      <!-- 150 -->
      <g transform="translate(737.051271 655.398438) scale(0.1 -0.1)">
       <use xlink:href="#DejaVuSans-31"/>
       <use xlink:href="#DejaVuSans-35" x="63.623047"/>
       <use xlink:href="#DejaVuSans-30" x="127.246094"/>
      </g>
     </g>
    </g>
    <g id="xtick_8">
     <g id="line2d_8">
      <g>
       <use xlink:href="#maca79b2f69" x="842.186615" y="640.8" style="stroke: #000000; stroke-width: 0.8"/>
      </g>
     </g>
     <g id="text_8">
      <!-- 175 -->
      <g transform="translate(832.642865 655.398438) scale(0.1 -0.1)">
       <use xlink:href="#DejaVuSans-31"/>
       <use xlink:href="#DejaVuSans-37" x="63.623047"/>
       <use xlink:href="#DejaVuSans-35" x="127.246094"/>
      </g>
     </g>
    </g>
    <g id="xtick_9">
     <g id="line2d_9">
      <g>
       <use xlink:href="#maca79b2f69" x="937.778209" y="640.8" style="stroke: #000000; stroke-width: 0.8"/>
      </g>
     </g>
     <g id="text_9">
      <!-- 200 -->
      <g transform="translate(928.234459 655.398438) scale(0.1 -0.1)">
       <use xlink:href="#DejaVuSans-32"/>
       <use xlink:href="#DejaVuSans-30" x="63.623047"/>
       <use xlink:href="#DejaVuSans-30" x="127.246094"/>
      </g>
     </g>
    </g>
    <g id="text_10">
     <!-- epoch -->
     <g transform="translate(538.271875 669.076563) scale(0.1 -0.1)">
      <defs>
       <path id="DejaVuSans-65" d="M 3597 1894 
L 3597 1613 
L 953 1613 
Q 991 1019 1311 708 
Q 1631 397 2203 397 
Q 2534 397 2845 478 
Q 3156 559 3463 722 
L 3463 178 
Q 3153 47 2828 -22 
Q 2503 -91 2169 -91 
Q 1331 -91 842 396 
Q 353 884 353 1716 
Q 353 2575 817 3079 
Q 1281 3584 2069 3584 
Q 2775 3584 3186 3129 
Q 3597 2675 3597 1894 
z
M 3022 2063 
Q 3016 2534 2758 2815 
Q 2500 3097 2075 3097 
Q 1594 3097 1305 2825 
Q 1016 2553 972 2059 
L 3022 2063 
z
" transform="scale(0.015625)"/>
       <path id="DejaVuSans-70" d="M 1159 525 
L 1159 -1331 
L 581 -1331 
L 581 3500 
L 1159 3500 
L 1159 2969 
Q 1341 3281 1617 3432 
Q 1894 3584 2278 3584 
Q 2916 3584 3314 3078 
Q 3713 2572 3713 1747 
Q 3713 922 3314 415 
Q 2916 -91 2278 -91 
Q 1894 -91 1617 61 
Q 1341 213 1159 525 
z
M 3116 1747 
Q 3116 2381 2855 2742 
Q 2594 3103 2138 3103 
Q 1681 3103 1420 2742 
Q 1159 2381 1159 1747 
Q 1159 1113 1420 752 
Q 1681 391 2138 391 
Q 2594 391 2855 752 
Q 3116 1113 3116 1747 
z
" transform="scale(0.015625)"/>
       <path id="DejaVuSans-6f" d="M 1959 3097 
Q 1497 3097 1228 2736 
Q 959 2375 959 1747 
Q 959 1119 1226 758 
Q 1494 397 1959 397 
Q 2419 397 2687 759 
Q 2956 1122 2956 1747 
Q 2956 2369 2687 2733 
Q 2419 3097 1959 3097 
z
M 1959 3584 
Q 2709 3584 3137 3096 
Q 3566 2609 3566 1747 
Q 3566 888 3137 398 
Q 2709 -91 1959 -91 
Q 1206 -91 779 398 
Q 353 888 353 1747 
Q 353 2609 779 3096 
Q 1206 3584 1959 3584 
z
" transform="scale(0.015625)"/>
       <path id="DejaVuSans-63" d="M 3122 3366 
L 3122 2828 
Q 2878 2963 2633 3030 
Q 2388 3097 2138 3097 
Q 1578 3097 1268 2742 
Q 959 2388 959 1747 
Q 959 1106 1268 751 
Q 1578 397 2138 397 
Q 2388 397 2633 464 
Q 2878 531 3122 666 
L 3122 134 
Q 2881 22 2623 -34 
Q 2366 -91 2075 -91 
Q 1284 -91 818 406 
Q 353 903 353 1747 
Q 353 2603 823 3093 
Q 1294 3584 2113 3584 
Q 2378 3584 2631 3529 
Q 2884 3475 3122 3366 
z
" transform="scale(0.015625)"/>
       <path id="DejaVuSans-68" d="M 3513 2113 
L 3513 0 
L 2938 0 
L 2938 2094 
Q 2938 2591 2744 2837 
Q 2550 3084 2163 3084 
Q 1697 3084 1428 2787 
Q 1159 2491 1159 1978 
L 1159 0 
L 581 0 
L 581 4863 
L 1159 4863 
L 1159 2956 
Q 1366 3272 1645 3428 
Q 1925 3584 2291 3584 
Q 2894 3584 3203 3211 
Q 3513 2838 3513 2113 
z
" transform="scale(0.015625)"/>
      </defs>
      <use xlink:href="#DejaVuSans-65"/>
      <use xlink:href="#DejaVuSans-70" x="61.523438"/>
      <use xlink:href="#DejaVuSans-6f" x="125"/>
      <use xlink:href="#DejaVuSans-63" x="186.181641"/>
      <use xlink:href="#DejaVuSans-68" x="241.162109"/>
     </g>
    </g>
   </g>
   <g id="matplotlib.axis_2">
    <g id="ytick_1">
     <g id="line2d_10">
      <defs>
       <path id="mf983fb3796" d="M 0 0 
L -3.5 0 
" style="stroke: #000000; stroke-width: 0.8"/>
      </defs>
      <g>
       <use xlink:href="#mf983fb3796" x="135" y="630.253568" style="stroke: #000000; stroke-width: 0.8"/>
      </g>
     </g>
     <g id="text_11">
      <!-- 0.1 -->
      <g transform="translate(112.096875 634.052786) scale(0.1 -0.1)">
       <defs>
        <path id="DejaVuSans-2e" d="M 684 794 
L 1344 794 
L 1344 0 
L 684 0 
L 684 794 
z
" transform="scale(0.015625)"/>
       </defs>
       <use xlink:href="#DejaVuSans-30"/>
       <use xlink:href="#DejaVuSans-2e" x="63.623047"/>
       <use xlink:href="#DejaVuSans-31" x="95.410156"/>
      </g>
     </g>
    </g>
    <g id="ytick_2">
     <g id="line2d_11">
      <g>
       <use xlink:href="#mf983fb3796" x="135" y="531.853518" style="stroke: #000000; stroke-width: 0.8"/>
      </g>
     </g>
     <g id="text_12">
      <!-- 0.2 -->
      <g transform="translate(112.096875 535.652737) scale(0.1 -0.1)">
       <use xlink:href="#DejaVuSans-30"/>
       <use xlink:href="#DejaVuSans-2e" x="63.623047"/>
       <use xlink:href="#DejaVuSans-32" x="95.410156"/>
      </g>
     </g>
    </g>
    <g id="ytick_3">
     <g id="line2d_12">
      <g>
       <use xlink:href="#mf983fb3796" x="135" y="433.453468" style="stroke: #000000; stroke-width: 0.8"/>
      </g>
     </g>
     <g id="text_13">
      <!-- 0.3 -->
      <g transform="translate(112.096875 437.252687) scale(0.1 -0.1)">
       <defs>
        <path id="DejaVuSans-33" d="M 2597 2516 
Q 3050 2419 3304 2112 
Q 3559 1806 3559 1356 
Q 3559 666 3084 287 
Q 2609 -91 1734 -91 
Q 1441 -91 1130 -33 
Q 819 25 488 141 
L 488 750 
Q 750 597 1062 519 
Q 1375 441 1716 441 
Q 2309 441 2620 675 
Q 2931 909 2931 1356 
Q 2931 1769 2642 2001 
Q 2353 2234 1838 2234 
L 1294 2234 
L 1294 2753 
L 1863 2753 
Q 2328 2753 2575 2939 
Q 2822 3125 2822 3475 
Q 2822 3834 2567 4026 
Q 2313 4219 1838 4219 
Q 1578 4219 1281 4162 
Q 984 4106 628 3988 
L 628 4550 
Q 988 4650 1302 4700 
Q 1616 4750 1894 4750 
Q 2613 4750 3031 4423 
Q 3450 4097 3450 3541 
Q 3450 3153 3228 2886 
Q 3006 2619 2597 2516 
z
" transform="scale(0.015625)"/>
       </defs>
       <use xlink:href="#DejaVuSans-30"/>
       <use xlink:href="#DejaVuSans-2e" x="63.623047"/>
       <use xlink:href="#DejaVuSans-33" x="95.410156"/>
      </g>
     </g>
    </g>
    <g id="ytick_4">
     <g id="line2d_13">
      <g>
       <use xlink:href="#mf983fb3796" x="135" y="335.053419" style="stroke: #000000; stroke-width: 0.8"/>
      </g>
     </g>
     <g id="text_14">
      <!-- 0.4 -->
      <g transform="translate(112.096875 338.852637) scale(0.1 -0.1)">
       <defs>
        <path id="DejaVuSans-34" d="M 2419 4116 
L 825 1625 
L 2419 1625 
L 2419 4116 
z
M 2253 4666 
L 3047 4666 
L 3047 1625 
L 3713 1625 
L 3713 1100 
L 3047 1100 
L 3047 0 
L 2419 0 
L 2419 1100 
L 313 1100 
L 313 1709 
L 2253 4666 
z
" transform="scale(0.015625)"/>
       </defs>
       <use xlink:href="#DejaVuSans-30"/>
       <use xlink:href="#DejaVuSans-2e" x="63.623047"/>
       <use xlink:href="#DejaVuSans-34" x="95.410156"/>
      </g>
     </g>
    </g>
    <g id="ytick_5">
     <g id="line2d_14">
      <g>
       <use xlink:href="#mf983fb3796" x="135" y="236.653369" style="stroke: #000000; stroke-width: 0.8"/>
      </g>
     </g>
     <g id="text_15">
      <!-- 0.5 -->
      <g transform="translate(112.096875 240.452588) scale(0.1 -0.1)">
       <use xlink:href="#DejaVuSans-30"/>
       <use xlink:href="#DejaVuSans-2e" x="63.623047"/>
       <use xlink:href="#DejaVuSans-35" x="95.410156"/>
      </g>
     </g>
    </g>
    <g id="ytick_6">
     <g id="line2d_15">
      <g>
       <use xlink:href="#mf983fb3796" x="135" y="138.253319" style="stroke: #000000; stroke-width: 0.8"/>
      </g>
     </g>
     <g id="text_16">
      <!-- 0.6 -->
      <g transform="translate(112.096875 142.052538) scale(0.1 -0.1)">
       <defs>
        <path id="DejaVuSans-36" d="M 2113 2584 
Q 1688 2584 1439 2293 
Q 1191 2003 1191 1497 
Q 1191 994 1439 701 
Q 1688 409 2113 409 
Q 2538 409 2786 701 
Q 3034 994 3034 1497 
Q 3034 2003 2786 2293 
Q 2538 2584 2113 2584 
z
M 3366 4563 
L 3366 3988 
Q 3128 4100 2886 4159 
Q 2644 4219 2406 4219 
Q 1781 4219 1451 3797 
Q 1122 3375 1075 2522 
Q 1259 2794 1537 2939 
Q 1816 3084 2150 3084 
Q 2853 3084 3261 2657 
Q 3669 2231 3669 1497 
Q 3669 778 3244 343 
Q 2819 -91 2113 -91 
Q 1303 -91 875 529 
Q 447 1150 447 2328 
Q 447 3434 972 4092 
Q 1497 4750 2381 4750 
Q 2619 4750 2861 4703 
Q 3103 4656 3366 4563 
z
" transform="scale(0.015625)"/>
       </defs>
       <use xlink:href="#DejaVuSans-30"/>
       <use xlink:href="#DejaVuSans-2e" x="63.623047"/>
       <use xlink:href="#DejaVuSans-36" x="95.410156"/>
      </g>
     </g>
    </g>
    <g id="text_17">
     <!-- score -->
     <g transform="translate(106.017187 377.032812) rotate(-90) scale(0.1 -0.1)">
      <defs>
       <path id="DejaVuSans-73" d="M 2834 3397 
L 2834 2853 
Q 2591 2978 2328 3040 
Q 2066 3103 1784 3103 
Q 1356 3103 1142 2972 
Q 928 2841 928 2578 
Q 928 2378 1081 2264 
Q 1234 2150 1697 2047 
L 1894 2003 
Q 2506 1872 2764 1633 
Q 3022 1394 3022 966 
Q 3022 478 2636 193 
Q 2250 -91 1575 -91 
Q 1294 -91 989 -36 
Q 684 19 347 128 
L 347 722 
Q 666 556 975 473 
Q 1284 391 1588 391 
Q 1994 391 2212 530 
Q 2431 669 2431 922 
Q 2431 1156 2273 1281 
Q 2116 1406 1581 1522 
L 1381 1569 
Q 847 1681 609 1914 
Q 372 2147 372 2553 
Q 372 3047 722 3315 
Q 1072 3584 1716 3584 
Q 2034 3584 2315 3537 
Q 2597 3491 2834 3397 
z
" transform="scale(0.015625)"/>
       <path id="DejaVuSans-72" d="M 2631 2963 
Q 2534 3019 2420 3045 
Q 2306 3072 2169 3072 
Q 1681 3072 1420 2755 
Q 1159 2438 1159 1844 
L 1159 0 
L 581 0 
L 581 3500 
L 1159 3500 
L 1159 2956 
Q 1341 3275 1631 3429 
Q 1922 3584 2338 3584 
Q 2397 3584 2469 3576 
Q 2541 3569 2628 3553 
L 2631 2963 
z
" transform="scale(0.015625)"/>
      </defs>
      <use xlink:href="#DejaVuSans-73"/>
      <use xlink:href="#DejaVuSans-63" x="52.099609"/>
      <use xlink:href="#DejaVuSans-6f" x="107.080078"/>
      <use xlink:href="#DejaVuSans-72" x="168.261719"/>
      <use xlink:href="#DejaVuSans-65" x="207.125"/>
     </g>
    </g>
   </g>
   <g id="line2d_16">
    <path d="M 173.045455 447.384262 
L 176.869118 393.430077 
L 180.692782 382.816139 
L 184.516446 323.554986 
L 188.34011 342.571625 
L 192.163773 291.713172 
L 195.987437 317.363522 
L 199.811101 282.868224 
L 203.634765 261.1981 
L 207.458429 259.429111 
L 211.282092 231.125276 
L 215.105756 243.950451 
L 218.92942 218.742349 
L 222.753084 244.392699 
L 226.576747 228.471792 
L 230.400411 231.125276 
L 234.224075 193.091999 
L 238.047739 240.854719 
L 241.871402 215.204369 
L 245.695066 206.359421 
L 249.51873 199.72571 
L 253.342394 199.72571 
L 257.166058 159.038948 
L 260.989721 183.362556 
L 264.813385 201.936947 
L 268.637049 186.01604 
L 272.460713 191.765256 
L 276.284376 182.478061 
L 280.10804 202.821442 
L 283.931704 187.78503 
L 287.755368 159.038948 
L 291.579032 156.827711 
L 295.402695 243.065956 
L 299.226359 218.742349 
L 303.050023 228.471792 
L 306.873687 191.323009 
L 310.69735 168.768391 
L 314.521014 153.731979 
L 318.344678 154.174226 
L 322.168342 228.914039 
L 325.992005 168.768391 
L 329.815669 153.289731 
L 333.639333 161.250185 
L 337.462997 175.402102 
L 341.286661 161.692432 
L 345.110324 176.286597 
L 348.933988 155.943216 
L 352.757652 174.517607 
L 356.581316 147.098268 
L 360.404979 166.114906 
L 364.228643 156.827711 
L 368.052307 166.999401 
L 371.875971 171.421875 
L 375.699635 163.019174 
L 379.523298 153.289731 
L 383.346962 144.444783 
L 387.170626 164.345917 
L 390.99429 155.500968 
L 394.817953 166.557154 
L 398.641617 139.137814 
L 402.465281 153.731979 
L 406.288945 150.636247 
L 410.112608 150.636247 
L 413.936272 147.982762 
L 417.759936 142.233546 
L 421.5836 153.289731 
L 425.407264 169.210638 
L 429.230927 169.652886 
L 433.054591 163.903669 
L 436.878255 127.639381 
L 440.701919 160.36569 
L 444.525582 141.349051 
L 448.349246 149.751752 
L 452.17291 159.923443 
L 455.996574 155.500968 
L 459.820238 195.303236 
L 463.643901 194.418741 
L 467.467565 145.329278 
L 471.291229 157.712205 
L 475.114893 167.883896 
L 478.938556 144.88703 
L 482.76222 174.959855 
L 486.585884 162.13468 
L 490.409548 147.982762 
L 494.233212 136.926577 
L 498.056875 154.616474 
L 501.880539 188.669524 
L 505.704203 144.88703 
L 509.527867 140.022309 
L 513.35153 159.923443 
L 517.175194 159.923443 
L 520.998858 165.230412 
L 524.822522 158.154453 
L 528.646185 153.289731 
L 532.469849 145.771525 
L 536.293513 191.765256 
L 540.117177 141.791299 
L 543.940841 159.481195 
L 547.764504 144.002536 
L 551.588168 133.388598 
L 555.411832 147.982762 
L 559.235496 154.616474 
L 563.059159 134.71534 
L 566.882823 171.864123 
L 570.706487 159.038948 
L 574.530151 155.058721 
L 578.353815 149.751752 
L 582.177478 169.210638 
L 586.001142 160.807937 
L 589.824806 146.213773 
L 593.64847 181.593566 
L 597.472133 155.943216 
L 601.295797 143.560288 
L 605.119461 147.540515 
L 608.943125 158.154453 
L 612.766788 161.250185 
L 616.590452 136.926577 
L 620.414116 151.520742 
L 624.23778 135.157587 
L 628.061444 145.329278 
L 631.885107 152.847484 
L 635.708771 142.675793 
L 639.532435 150.193999 
L 643.356099 137.811072 
L 647.179762 147.540515 
L 651.003426 133.388598 
L 654.82709 120.563423 
L 658.650754 155.500968 
L 662.474418 140.022309 
L 666.298081 149.751752 
L 670.121745 144.002536 
L 673.945409 140.906804 
L 677.769073 139.137814 
L 681.592736 140.022309 
L 685.4164 151.962989 
L 689.240064 132.061855 
L 693.063728 155.500968 
L 696.887392 190.880762 
L 700.711055 154.174226 
L 704.534719 150.636247 
L 708.358383 203.263689 
L 712.182047 169.652886 
L 716.00571 155.500968 
L 719.829374 168.768391 
L 723.653038 149.309505 
L 727.476702 148.42501 
L 731.300365 137.368824 
L 735.124029 151.520742 
L 738.947693 139.580061 
L 742.771357 141.791299 
L 746.595021 133.388598 
L 750.418684 169.210638 
L 754.242348 166.114906 
L 758.066012 143.560288 
L 761.889676 138.695567 
L 765.713339 174.07536 
L 769.537003 133.388598 
L 773.360667 159.481195 
L 777.184331 188.669524 
L 781.007995 140.464556 
L 784.831658 160.36569 
L 788.655322 143.118041 
L 792.478986 141.349051 
L 796.30265 160.807937 
L 800.126313 160.36569 
L 803.949977 151.078494 
L 807.773641 145.329278 
L 811.597305 145.329278 
L 815.420968 155.943216 
L 819.244632 151.520742 
L 823.068296 145.329278 
L 826.89196 136.042082 
L 830.715624 152.405237 
L 834.539287 139.580061 
L 838.362951 146.213773 
L 842.186615 143.118041 
L 846.010279 153.731979 
L 849.833942 133.388598 
L 853.657606 140.906804 
L 857.48127 181.151318 
L 861.304934 159.923443 
L 865.128598 148.42501 
L 868.952261 134.71534 
L 872.775925 173.190865 
L 876.599589 147.982762 
L 880.423253 165.672659 
L 884.246916 146.213773 
L 888.07058 151.078494 
L 891.894244 151.078494 
L 895.717908 148.42501 
L 899.541571 148.42501 
L 903.365235 153.289731 
L 907.188899 167.883896 
L 911.012563 162.13468 
L 914.836227 143.560288 
L 918.65989 158.5967 
L 922.483554 159.923443 
L 926.307218 166.557154 
L 930.130882 174.07536 
L 933.954545 146.65602 
L 933.954545 146.65602 
" clip-path="url(#pc6cd9422b1)" style="fill: none; stroke: #1f77b4; stroke-width: 1.5; stroke-linecap: square"/>
   </g>
   <g id="line2d_17">
    <path d="M 173.045455 603.54194 
L 176.869118 561.182106 
L 180.692782 464.168358 
L 184.516446 394.661939 
L 188.34011 333.319337 
L 195.987437 234.595846 
L 199.811101 235.904162 
L 203.634765 367.187926 
L 207.458429 335.734144 
L 211.282092 268.707327 
L 215.105756 207.660877 
L 222.753084 253.428963 
L 226.576747 208.133474 
L 230.400411 235.043242 
L 234.224075 214.595244 
L 238.047739 225.167405 
L 241.871402 223.755413 
L 245.695066 185.189565 
L 249.51873 169.27325 
L 253.342394 171.969829 
L 257.166058 184.989517 
L 260.989721 210.08112 
L 264.813385 199.327903 
L 268.637049 202.323627 
L 272.460713 169.883705 
L 276.284376 181.296738 
L 280.10804 202.298488 
L 283.931704 187.257092 
L 287.755368 188.71942 
L 291.579032 169.827649 
L 295.402695 169.162591 
L 299.226359 136.351291 
L 303.050023 166.875622 
L 306.873687 161.015966 
L 310.69735 186.716775 
L 314.521014 160.024091 
L 318.344678 175.988634 
L 322.168342 164.767423 
L 325.992005 158.388036 
L 329.815669 157.882181 
L 333.639333 158.8199 
L 337.462997 175.267946 
L 341.286661 173.972423 
L 345.110324 141.096207 
L 348.933988 147.926929 
L 352.757652 167.371493 
L 356.581316 140.907568 
L 360.404979 185.450105 
L 364.228643 151.345747 
L 368.052307 164.017266 
L 371.875971 171.267864 
L 375.699635 149.465523 
L 379.523298 167.785904 
L 383.346962 137.844495 
L 387.170626 168.1397 
L 390.99429 154.174426 
L 394.817953 141.523934 
L 398.641617 141.581193 
L 402.465281 141.882275 
L 406.288945 148.130563 
L 410.112608 134.78537 
L 413.936272 152.230482 
L 417.759936 151.250947 
L 421.5836 150.434026 
L 425.407264 130.175477 
L 429.230927 149.227381 
L 433.054591 130.721114 
L 436.878255 135.864336 
L 440.701919 146.965413 
L 444.525582 122.337617 
L 448.349246 153.107372 
L 452.17291 152.588991 
L 455.996574 158.095045 
L 459.820238 160.634122 
L 463.643901 144.978076 
L 467.467565 141.631748 
L 471.291229 155.761648 
L 475.114893 173.005954 
L 478.938556 145.855704 
L 482.76222 190.672752 
L 486.585884 154.179589 
L 490.409548 146.600739 
L 494.233212 138.597039 
L 498.056875 149.971573 
L 501.880539 187.36552 
L 505.704203 153.796843 
L 509.527867 125.646887 
L 513.35153 155.733756 
L 517.175194 159.826466 
L 520.998858 161.015436 
L 524.822522 151.96622 
L 528.646185 149.732471 
L 532.469849 146.342336 
L 536.293513 150.417705 
L 540.117177 144.579228 
L 543.940841 153.409054 
L 547.764504 149.773147 
L 551.588168 160.828212 
L 555.411832 152.888223 
L 559.235496 137.487716 
L 563.059159 143.524356 
L 566.882823 150.258182 
L 570.706487 147.65432 
L 574.530151 151.661319 
L 578.353815 139.713425 
L 582.177478 147.312292 
L 586.001142 142.113184 
L 589.824806 159.585121 
L 593.64847 153.217699 
L 597.472133 163.910989 
L 601.295797 139.656391 
L 605.119461 161.945351 
L 608.943125 157.665817 
L 612.766788 172.37613 
L 616.590452 141.309439 
L 620.414116 122.635835 
L 624.23778 155.606467 
L 628.061444 144.160881 
L 631.885107 136.190344 
L 635.708771 161.511135 
L 639.532435 129.548536 
L 643.356099 130.752878 
L 647.179762 153.664215 
L 651.003426 145.170809 
L 654.82709 130.196146 
L 658.650754 141.932667 
L 662.474418 111.6 
L 666.298081 139.624444 
L 670.121745 154.782602 
L 673.945409 142.142449 
L 677.769073 137.930299 
L 681.592736 138.63143 
L 685.4164 146.219956 
L 689.240064 141.624558 
L 693.063728 160.437135 
L 696.887392 132.040179 
L 700.711055 149.722097 
L 704.534719 138.045091 
L 708.358383 155.40311 
L 712.182047 156.760052 
L 716.00571 149.825017 
L 719.829374 148.275194 
L 723.653038 123.784979 
L 727.476702 137.576398 
L 731.300365 140.052002 
L 735.124029 153.261217 
L 738.947693 147.033667 
L 742.771357 155.273011 
L 746.595021 132.771877 
L 750.418684 155.55676 
L 754.242348 124.429733 
L 758.066012 138.753895 
L 761.889676 130.637882 
L 765.713339 160.436529 
L 769.537003 144.232578 
L 773.360667 145.910454 
L 777.184331 195.665371 
L 781.007995 133.935004 
L 784.831658 138.402843 
L 788.655322 127.887796 
L 792.478986 143.47663 
L 796.30265 142.472784 
L 800.126313 143.784892 
L 803.949977 147.517757 
L 807.773641 142.627864 
L 811.597305 152.344101 
L 815.420968 151.003472 
L 819.244632 118.721438 
L 823.068296 148.940911 
L 826.89196 148.489579 
L 830.715624 137.239091 
L 834.539287 150.304747 
L 838.362951 137.339536 
L 842.186615 136.688487 
L 846.010279 169.406869 
L 849.833942 128.132368 
L 853.657606 139.153142 
L 857.48127 173.168105 
L 861.304934 152.088315 
L 865.128598 166.451018 
L 868.952261 150.262685 
L 872.775925 159.79953 
L 876.599589 131.996672 
L 880.423253 180.485803 
L 884.246916 159.221275 
L 888.07058 122.665691 
L 891.894244 159.352767 
L 895.717908 155.412642 
L 899.541571 135.854363 
L 903.365235 131.241613 
L 907.188899 175.883391 
L 911.012563 165.756519 
L 914.836227 142.910455 
L 918.65989 132.216008 
L 922.483554 151.757738 
L 926.307218 161.755395 
L 930.130882 167.307019 
L 933.954545 148.821536 
L 933.954545 148.821536 
" clip-path="url(#pc6cd9422b1)" style="fill: none; stroke: #ff7f0e; stroke-width: 1.5; stroke-linecap: square"/>
   </g>
   <g id="line2d_18">
    <path d="M 173.045455 482.658783 
L 176.869118 422.565702 
L 180.692782 419.214454 
L 184.516446 358.588683 
L 188.34011 335.683089 
L 192.163773 322.692558 
L 199.811101 279.686066 
L 203.634765 291.112033 
L 207.458429 273.744736 
L 211.282092 240.489587 
L 215.105756 254.430345 
L 218.92942 226.699042 
L 222.753084 268.386219 
L 226.576747 225.162179 
L 230.400411 253.443432 
L 234.224075 210.708276 
L 238.047739 273.600465 
L 241.871402 245.818773 
L 245.695066 220.208441 
L 249.51873 203.700123 
L 253.342394 200.676913 
L 257.166058 175.861667 
L 260.989721 186.875013 
L 264.813385 229.321577 
L 268.637049 210.366715 
L 272.460713 214.156839 
L 276.284376 201.915153 
L 280.10804 201.667136 
L 283.931704 197.944433 
L 287.755368 177.417741 
L 291.579032 173.715284 
L 295.402695 234.498725 
L 299.226359 216.105342 
L 303.050023 263.592171 
L 306.873687 185.091583 
L 310.69735 179.37264 
L 314.521014 174.025665 
L 318.344678 170.336194 
L 322.168342 219.738581 
L 325.992005 175.660944 
L 329.815669 167.801864 
L 333.639333 171.522739 
L 337.462997 192.768438 
L 341.286661 171.351061 
L 345.110324 190.856214 
L 348.933988 168.684767 
L 352.757652 196.419267 
L 356.581316 149.575812 
L 360.404979 179.671432 
L 364.228643 168.925502 
L 368.052307 178.175102 
L 371.875971 191.751614 
L 375.699635 170.524447 
L 379.523298 158.668141 
L 383.346962 158.340236 
L 387.170626 182.286558 
L 390.99429 168.351193 
L 394.817953 160.04294 
L 398.641617 142.151214 
L 402.465281 160.620798 
L 406.288945 162.997147 
L 410.112608 152.153175 
L 413.936272 154.114976 
L 417.759936 152.047391 
L 421.5836 151.515762 
L 425.407264 164.720984 
L 429.230927 185.415255 
L 433.054591 180.130698 
L 436.878255 135.559014 
L 440.701919 169.501053 
L 444.525582 148.855958 
L 448.349246 164.366505 
L 452.17291 158.020629 
L 455.996574 158.792953 
L 459.820238 197.266338 
L 463.643901 216.874219 
L 467.467565 159.312226 
L 471.291229 162.828916 
L 475.114893 188.217711 
L 478.938556 149.38168 
L 482.76222 181.070601 
L 486.585884 158.462162 
L 490.409548 159.120872 
L 494.233212 146.794875 
L 498.056875 174.570605 
L 501.880539 189.430585 
L 505.704203 151.279192 
L 509.527867 143.252628 
L 513.35153 163.070396 
L 517.175194 162.700149 
L 520.998858 178.984511 
L 524.822522 171.680903 
L 528.646185 158.724897 
L 532.469849 154.013413 
L 536.293513 182.977924 
L 540.117177 149.243728 
L 543.940841 159.90284 
L 547.764504 145.056664 
L 551.588168 142.985021 
L 555.411832 158.568942 
L 559.235496 161.295325 
L 563.059159 147.881352 
L 566.882823 171.998432 
L 570.706487 176.656378 
L 574.530151 165.885013 
L 578.353815 146.891866 
L 582.177478 167.919489 
L 586.001142 171.803472 
L 589.824806 153.209801 
L 593.64847 173.739927 
L 597.472133 166.10584 
L 601.295797 156.044562 
L 605.119461 164.497474 
L 608.943125 164.216793 
L 612.766788 162.759588 
L 616.590452 144.402093 
L 620.414116 162.354782 
L 624.23778 142.437562 
L 628.061444 156.583412 
L 631.885107 162.433885 
L 635.708771 146.443492 
L 639.532435 163.580045 
L 643.356099 142.858259 
L 647.179762 157.786139 
L 651.003426 138.681214 
L 654.82709 127.327472 
L 658.650754 156.524935 
L 662.474418 144.261148 
L 666.298081 160.001451 
L 670.121745 145.140379 
L 673.945409 145.636718 
L 677.769073 149.067857 
L 681.592736 149.631051 
L 685.4164 164.978652 
L 689.240064 144.224468 
L 693.063728 170.927762 
L 696.887392 182.466277 
L 700.711055 157.072489 
L 704.534719 150.501118 
L 708.358383 192.465237 
L 712.182047 172.615198 
L 716.00571 159.284054 
L 719.829374 166.919713 
L 723.653038 147.945804 
L 727.476702 153.675062 
L 731.300365 148.53847 
L 735.124029 159.486614 
L 738.947693 144.283013 
L 742.771357 156.263432 
L 746.595021 141.274556 
L 750.418684 167.822138 
L 754.242348 167.756637 
L 758.066012 149.962167 
L 761.889676 148.370714 
L 765.713339 168.696377 
L 769.537003 136.726091 
L 773.360667 168.291856 
L 777.184331 202.251389 
L 781.007995 143.694729 
L 784.831658 161.45571 
L 788.655322 154.383483 
L 792.478986 147.584613 
L 796.30265 175.494557 
L 800.126313 163.526716 
L 803.949977 154.83605 
L 807.773641 162.40425 
L 811.597305 153.627498 
L 815.420968 165.928357 
L 819.244632 150.941839 
L 823.068296 151.624506 
L 826.89196 146.809289 
L 830.715624 155.683555 
L 834.539287 146.179496 
L 838.362951 144.572566 
L 842.186615 159.0915 
L 846.010279 166.726434 
L 849.833942 141.351444 
L 853.657606 143.154349 
L 857.48127 183.38867 
L 861.304934 154.957508 
L 865.128598 155.856946 
L 868.952261 149.427192 
L 872.775925 172.229514 
L 876.599589 152.741126 
L 880.423253 169.330708 
L 884.246916 149.37519 
L 888.07058 161.391693 
L 891.894244 156.087026 
L 895.717908 157.669003 
L 899.541571 166.421342 
L 903.365235 156.61533 
L 907.188899 170.670493 
L 911.012563 161.056411 
L 914.836227 143.564764 
L 918.65989 163.827303 
L 922.483554 162.205389 
L 926.307218 169.781961 
L 930.130882 170.028826 
L 933.954545 147.3322 
L 933.954545 147.3322 
" clip-path="url(#pc6cd9422b1)" style="fill: none; stroke: #2ca02c; stroke-width: 1.5; stroke-linecap: square"/>
   </g>
   <g id="line2d_19">
    <path d="M 173.045455 615.6 
L 176.869118 512.211913 
L 180.692782 507.672162 
L 188.34011 350.192348 
L 192.163773 362.702673 
L 195.987437 348.789629 
L 199.811101 281.497201 
L 203.634765 361.002738 
L 207.458429 333.976195 
L 211.282092 274.123693 
L 215.105756 242.651993 
L 218.92942 229.663459 
L 222.753084 315.719026 
L 226.576747 239.949461 
L 230.400411 266.887648 
L 234.224075 228.554969 
L 238.047739 326.069661 
L 241.871402 289.906042 
L 245.695066 212.502243 
L 249.51873 195.036662 
L 253.342394 204.120112 
L 257.166058 196.959689 
L 260.989721 207.586103 
L 264.813385 257.795246 
L 268.637049 239.703526 
L 272.460713 224.297628 
L 276.284376 207.774175 
L 280.10804 212.671223 
L 283.931704 194.932029 
L 287.755368 205.898232 
L 291.579032 185.578408 
L 295.402695 242.28904 
L 299.226359 228.960758 
L 303.050023 308.020272 
L 306.873687 186.604636 
L 310.69735 185.4808 
L 314.521014 184.054329 
L 318.344678 184.069992 
L 322.168342 238.829035 
L 325.992005 168.714337 
L 329.815669 169.110132 
L 333.639333 167.868637 
L 337.462997 195.740204 
L 341.286661 174.649978 
L 345.110324 182.318506 
L 348.933988 163.751658 
L 352.757652 203.389265 
L 356.581316 147.119516 
L 360.404979 188.214108 
L 364.228643 165.270375 
L 368.052307 176.157852 
L 371.875971 197.663435 
L 375.699635 163.836729 
L 379.523298 164.841384 
L 383.346962 155.160048 
L 387.170626 187.601628 
L 390.99429 167.86514 
L 394.817953 165.85991 
L 398.641617 144.046618 
L 402.465281 153.685528 
L 406.288945 159.068064 
L 410.112608 147.184918 
L 413.936272 153.716745 
L 417.759936 154.384684 
L 421.5836 158.503046 
L 425.407264 159.860151 
L 429.230927 179.783061 
L 433.054591 177.443555 
L 436.878255 136.758694 
L 440.701919 165.928153 
L 444.525582 139.456114 
L 448.349246 168.067628 
L 452.17291 162.930226 
L 455.996574 161.247653 
L 459.820238 185.594728 
L 463.643901 214.930087 
L 467.467565 157.505172 
L 471.291229 159.73566 
L 475.114893 198.06242 
L 478.938556 154.132891 
L 482.76222 197.811924 
L 486.585884 166.78461 
L 490.409548 163.46496 
L 494.233212 144.217007 
L 498.056875 178.50884 
L 501.880539 209.092592 
L 505.704203 153.175064 
L 509.527867 137.252831 
L 513.35153 163.724426 
L 517.175194 162.654913 
L 520.998858 175.954545 
L 524.822522 168.969062 
L 528.646185 156.340353 
L 532.469849 153.26227 
L 536.293513 196.570612 
L 540.117177 147.2434 
L 543.940841 161.679789 
L 547.764504 151.538668 
L 551.588168 161.815473 
L 555.411832 161.251341 
L 559.235496 153.04778 
L 563.059159 150.845393 
L 566.882823 166.797288 
L 570.706487 175.756695 
L 574.530151 162.55443 
L 578.353815 154.045573 
L 582.177478 164.46413 
L 586.001142 165.1735 
L 589.824806 158.456376 
L 593.64847 186.020311 
L 597.472133 165.809229 
L 601.295797 156.89032 
L 605.119461 181.597937 
L 608.943125 169.521657 
L 612.766788 177.063731 
L 616.590452 143.501807 
L 620.414116 155.539373 
L 624.23778 151.364801 
L 628.061444 156.25329 
L 631.885107 154.718278 
L 635.708771 160.949952 
L 639.532435 156.081736 
L 643.356099 138.65708 
L 647.179762 157.410373 
L 651.003426 144.313215 
L 654.82709 129.008776 
L 658.650754 153.197546 
L 662.474418 133.864207 
L 666.298081 153.408949 
L 670.121745 155.64239 
L 673.945409 147.504974 
L 677.769073 145.791029 
L 681.592736 146.051248 
L 685.4164 161.970007 
L 689.240064 149.906768 
L 693.063728 174.650451 
L 696.887392 181.793892 
L 700.711055 155.648757 
L 704.534719 148.10808 
L 708.358383 207.281273 
L 712.182047 167.461212 
L 716.00571 156.998701 
L 719.829374 165.611861 
L 723.653038 143.152916 
L 727.476702 147.552338 
L 731.300365 147.998772 
L 735.124029 158.537511 
L 738.947693 150.024249 
L 742.771357 160.229291 
L 746.595021 138.214957 
L 750.418684 169.921756 
L 754.242348 158.844669 
L 758.066012 147.021657 
L 761.889676 144.318229 
L 765.713339 178.762517 
L 769.537003 142.034138 
L 773.360667 160.795387 
L 777.184331 216.822381 
L 781.007995 140.355623 
L 784.831658 155.110866 
L 788.655322 150.145948 
L 792.478986 146.285463 
L 796.30265 170.293603 
L 800.126313 158.103034 
L 803.949977 152.224193 
L 807.773641 163.149742 
L 811.597305 153.312312 
L 815.420968 161.145566 
L 819.244632 143.458996 
L 823.068296 151.04131 
L 826.89196 150.7357 
L 830.715624 149.261656 
L 834.539287 148.90644 
L 838.362951 148.325222 
L 842.186615 160.336197 
L 846.010279 171.772694 
L 849.833942 136.466539 
L 853.657606 142.521149 
L 857.48127 181.447682 
L 861.304934 165.246981 
L 865.128598 163.108511 
L 868.952261 157.872854 
L 872.775925 173.765997 
L 876.599589 149.976343 
L 880.423253 177.070541 
L 884.246916 156.270463 
L 888.07058 151.710135 
L 891.894244 159.514921 
L 895.717908 157.405947 
L 899.541571 172.928427 
L 903.365235 148.294351 
L 907.188899 177.518849 
L 911.012563 168.607495 
L 914.836227 147.944108 
L 918.65989 156.315201 
L 922.483554 158.763194 
L 926.307218 166.646378 
L 930.130882 179.586875 
L 933.954545 151.264526 
L 933.954545 151.264526 
" clip-path="url(#pc6cd9422b1)" style="fill: none; stroke: #d62728; stroke-width: 1.5; stroke-linecap: square"/>
   </g>
   <g id="patch_3">
    <path d="M 135 640.8 
L 135 86.4 
" style="fill: none; stroke: #000000; stroke-width: 0.8; stroke-linejoin: miter; stroke-linecap: square"/>
   </g>
   <g id="patch_4">
    <path d="M 972 640.8 
L 972 86.4 
" style="fill: none; stroke: #000000; stroke-width: 0.8; stroke-linejoin: miter; stroke-linecap: square"/>
   </g>
   <g id="patch_5">
    <path d="M 135 640.8 
L 972 640.8 
" style="fill: none; stroke: #000000; stroke-width: 0.8; stroke-linejoin: miter; stroke-linecap: square"/>
   </g>
   <g id="patch_6">
    <path d="M 135 86.4 
L 972 86.4 
" style="fill: none; stroke: #000000; stroke-width: 0.8; stroke-linejoin: miter; stroke-linecap: square"/>
   </g>
   <g id="legend_1">
    <g id="patch_7">
     <path d="M 142 153.1125 
L 254.8 153.1125 
Q 256.8 153.1125 256.8 151.1125 
L 256.8 93.4 
Q 256.8 91.4 254.8 91.4 
L 142 91.4 
Q 140 91.4 140 93.4 
L 140 151.1125 
Q 140 153.1125 142 153.1125 
z
" style="fill: #ffffff; opacity: 0.8; stroke: #cccccc; stroke-linejoin: miter"/>
    </g>
    <g id="line2d_20">
     <path d="M 144 99.498437 
L 154 99.498437 
L 164 99.498437 
" style="fill: none; stroke: #1f77b4; stroke-width: 1.5; stroke-linecap: square"/>
    </g>
    <g id="text_18">
     <!-- Accuracy -->
     <g transform="translate(172 102.998437) scale(0.1 -0.1)">
      <defs>
       <path id="DejaVuSans-41" d="M 2188 4044 
L 1331 1722 
L 3047 1722 
L 2188 4044 
z
M 1831 4666 
L 2547 4666 
L 4325 0 
L 3669 0 
L 3244 1197 
L 1141 1197 
L 716 0 
L 50 0 
L 1831 4666 
z
" transform="scale(0.015625)"/>
       <path id="DejaVuSans-75" d="M 544 1381 
L 544 3500 
L 1119 3500 
L 1119 1403 
Q 1119 906 1312 657 
Q 1506 409 1894 409 
Q 2359 409 2629 706 
Q 2900 1003 2900 1516 
L 2900 3500 
L 3475 3500 
L 3475 0 
L 2900 0 
L 2900 538 
Q 2691 219 2414 64 
Q 2138 -91 1772 -91 
Q 1169 -91 856 284 
Q 544 659 544 1381 
z
M 1991 3584 
L 1991 3584 
z
" transform="scale(0.015625)"/>
       <path id="DejaVuSans-61" d="M 2194 1759 
Q 1497 1759 1228 1600 
Q 959 1441 959 1056 
Q 959 750 1161 570 
Q 1363 391 1709 391 
Q 2188 391 2477 730 
Q 2766 1069 2766 1631 
L 2766 1759 
L 2194 1759 
z
M 3341 1997 
L 3341 0 
L 2766 0 
L 2766 531 
Q 2569 213 2275 61 
Q 1981 -91 1556 -91 
Q 1019 -91 701 211 
Q 384 513 384 1019 
Q 384 1609 779 1909 
Q 1175 2209 1959 2209 
L 2766 2209 
L 2766 2266 
Q 2766 2663 2505 2880 
Q 2244 3097 1772 3097 
Q 1472 3097 1187 3025 
Q 903 2953 641 2809 
L 641 3341 
Q 956 3463 1253 3523 
Q 1550 3584 1831 3584 
Q 2591 3584 2966 3190 
Q 3341 2797 3341 1997 
z
" transform="scale(0.015625)"/>
       <path id="DejaVuSans-79" d="M 2059 -325 
Q 1816 -950 1584 -1140 
Q 1353 -1331 966 -1331 
L 506 -1331 
L 506 -850 
L 844 -850 
Q 1081 -850 1212 -737 
Q 1344 -625 1503 -206 
L 1606 56 
L 191 3500 
L 800 3500 
L 1894 763 
L 2988 3500 
L 3597 3500 
L 2059 -325 
z
" transform="scale(0.015625)"/>
      </defs>
      <use xlink:href="#DejaVuSans-41"/>
      <use xlink:href="#DejaVuSans-63" x="66.658203"/>
      <use xlink:href="#DejaVuSans-63" x="121.638672"/>
      <use xlink:href="#DejaVuSans-75" x="176.619141"/>
      <use xlink:href="#DejaVuSans-72" x="239.998047"/>
      <use xlink:href="#DejaVuSans-61" x="281.111328"/>
      <use xlink:href="#DejaVuSans-63" x="342.390625"/>
      <use xlink:href="#DejaVuSans-79" x="397.371094"/>
     </g>
    </g>
    <g id="line2d_21">
     <path d="M 144 114.176562 
L 154 114.176562 
L 164 114.176562 
" style="fill: none; stroke: #ff7f0e; stroke-width: 1.5; stroke-linecap: square"/>
    </g>
    <g id="text_19">
     <!-- Precision Macro' -->
     <g transform="translate(172 117.676562) scale(0.1 -0.1)">
      <defs>
       <path id="DejaVuSans-50" d="M 1259 4147 
L 1259 2394 
L 2053 2394 
Q 2494 2394 2734 2622 
Q 2975 2850 2975 3272 
Q 2975 3691 2734 3919 
Q 2494 4147 2053 4147 
L 1259 4147 
z
M 628 4666 
L 2053 4666 
Q 2838 4666 3239 4311 
Q 3641 3956 3641 3272 
Q 3641 2581 3239 2228 
Q 2838 1875 2053 1875 
L 1259 1875 
L 1259 0 
L 628 0 
L 628 4666 
z
" transform="scale(0.015625)"/>
       <path id="DejaVuSans-69" d="M 603 3500 
L 1178 3500 
L 1178 0 
L 603 0 
L 603 3500 
z
M 603 4863 
L 1178 4863 
L 1178 4134 
L 603 4134 
L 603 4863 
z
" transform="scale(0.015625)"/>
       <path id="DejaVuSans-6e" d="M 3513 2113 
L 3513 0 
L 2938 0 
L 2938 2094 
Q 2938 2591 2744 2837 
Q 2550 3084 2163 3084 
Q 1697 3084 1428 2787 
Q 1159 2491 1159 1978 
L 1159 0 
L 581 0 
L 581 3500 
L 1159 3500 
L 1159 2956 
Q 1366 3272 1645 3428 
Q 1925 3584 2291 3584 
Q 2894 3584 3203 3211 
Q 3513 2838 3513 2113 
z
" transform="scale(0.015625)"/>
       <path id="DejaVuSans-20" transform="scale(0.015625)"/>
       <path id="DejaVuSans-4d" d="M 628 4666 
L 1569 4666 
L 2759 1491 
L 3956 4666 
L 4897 4666 
L 4897 0 
L 4281 0 
L 4281 4097 
L 3078 897 
L 2444 897 
L 1241 4097 
L 1241 0 
L 628 0 
L 628 4666 
z
" transform="scale(0.015625)"/>
       <path id="DejaVuSans-27" d="M 1147 4666 
L 1147 2931 
L 616 2931 
L 616 4666 
L 1147 4666 
z
" transform="scale(0.015625)"/>
      </defs>
      <use xlink:href="#DejaVuSans-50"/>
      <use xlink:href="#DejaVuSans-72" x="58.552734"/>
      <use xlink:href="#DejaVuSans-65" x="97.416016"/>
      <use xlink:href="#DejaVuSans-63" x="158.939453"/>
      <use xlink:href="#DejaVuSans-69" x="213.919922"/>
      <use xlink:href="#DejaVuSans-73" x="241.703125"/>
      <use xlink:href="#DejaVuSans-69" x="293.802734"/>
      <use xlink:href="#DejaVuSans-6f" x="321.585938"/>
      <use xlink:href="#DejaVuSans-6e" x="382.767578"/>
      <use xlink:href="#DejaVuSans-20" x="446.146484"/>
      <use xlink:href="#DejaVuSans-4d" x="477.933594"/>
      <use xlink:href="#DejaVuSans-61" x="564.212891"/>
      <use xlink:href="#DejaVuSans-63" x="625.492188"/>
      <use xlink:href="#DejaVuSans-72" x="680.472656"/>
      <use xlink:href="#DejaVuSans-6f" x="719.335938"/>
      <use xlink:href="#DejaVuSans-27" x="780.517578"/>
     </g>
    </g>
    <g id="line2d_22">
     <path d="M 144 128.854687 
L 154 128.854687 
L 164 128.854687 
" style="fill: none; stroke: #2ca02c; stroke-width: 1.5; stroke-linecap: square"/>
    </g>
    <g id="text_20">
     <!-- Recall Macro -->
     <g transform="translate(172 132.354687) scale(0.1 -0.1)">
      <defs>
       <path id="DejaVuSans-52" d="M 2841 2188 
Q 3044 2119 3236 1894 
Q 3428 1669 3622 1275 
L 4263 0 
L 3584 0 
L 2988 1197 
Q 2756 1666 2539 1819 
Q 2322 1972 1947 1972 
L 1259 1972 
L 1259 0 
L 628 0 
L 628 4666 
L 2053 4666 
Q 2853 4666 3247 4331 
Q 3641 3997 3641 3322 
Q 3641 2881 3436 2590 
Q 3231 2300 2841 2188 
z
M 1259 4147 
L 1259 2491 
L 2053 2491 
Q 2509 2491 2742 2702 
Q 2975 2913 2975 3322 
Q 2975 3731 2742 3939 
Q 2509 4147 2053 4147 
L 1259 4147 
z
" transform="scale(0.015625)"/>
       <path id="DejaVuSans-6c" d="M 603 4863 
L 1178 4863 
L 1178 0 
L 603 0 
L 603 4863 
z
" transform="scale(0.015625)"/>
      </defs>
      <use xlink:href="#DejaVuSans-52"/>
      <use xlink:href="#DejaVuSans-65" x="64.982422"/>
      <use xlink:href="#DejaVuSans-63" x="126.505859"/>
      <use xlink:href="#DejaVuSans-61" x="181.486328"/>
      <use xlink:href="#DejaVuSans-6c" x="242.765625"/>
      <use xlink:href="#DejaVuSans-6c" x="270.548828"/>
      <use xlink:href="#DejaVuSans-20" x="298.332031"/>
      <use xlink:href="#DejaVuSans-4d" x="330.119141"/>
      <use xlink:href="#DejaVuSans-61" x="416.398438"/>
      <use xlink:href="#DejaVuSans-63" x="477.677734"/>
      <use xlink:href="#DejaVuSans-72" x="532.658203"/>
      <use xlink:href="#DejaVuSans-6f" x="571.521484"/>
     </g>
    </g>
    <g id="line2d_23">
     <path d="M 144 143.532812 
L 154 143.532812 
L 164 143.532812 
" style="fill: none; stroke: #d62728; stroke-width: 1.5; stroke-linecap: square"/>
    </g>
    <g id="text_21">
     <!-- F1 Score Macro -->
     <g transform="translate(172 147.032812) scale(0.1 -0.1)">
      <defs>
       <path id="DejaVuSans-46" d="M 628 4666 
L 3309 4666 
L 3309 4134 
L 1259 4134 
L 1259 2759 
L 3109 2759 
L 3109 2228 
L 1259 2228 
L 1259 0 
L 628 0 
L 628 4666 
z
" transform="scale(0.015625)"/>
       <path id="DejaVuSans-53" d="M 3425 4513 
L 3425 3897 
Q 3066 4069 2747 4153 
Q 2428 4238 2131 4238 
Q 1616 4238 1336 4038 
Q 1056 3838 1056 3469 
Q 1056 3159 1242 3001 
Q 1428 2844 1947 2747 
L 2328 2669 
Q 3034 2534 3370 2195 
Q 3706 1856 3706 1288 
Q 3706 609 3251 259 
Q 2797 -91 1919 -91 
Q 1588 -91 1214 -16 
Q 841 59 441 206 
L 441 856 
Q 825 641 1194 531 
Q 1563 422 1919 422 
Q 2459 422 2753 634 
Q 3047 847 3047 1241 
Q 3047 1584 2836 1778 
Q 2625 1972 2144 2069 
L 1759 2144 
Q 1053 2284 737 2584 
Q 422 2884 422 3419 
Q 422 4038 858 4394 
Q 1294 4750 2059 4750 
Q 2388 4750 2728 4690 
Q 3069 4631 3425 4513 
z
" transform="scale(0.015625)"/>
      </defs>
      <use xlink:href="#DejaVuSans-46"/>
      <use xlink:href="#DejaVuSans-31" x="57.519531"/>
      <use xlink:href="#DejaVuSans-20" x="121.142578"/>
      <use xlink:href="#DejaVuSans-53" x="152.929688"/>
      <use xlink:href="#DejaVuSans-63" x="216.40625"/>
      <use xlink:href="#DejaVuSans-6f" x="271.386719"/>
      <use xlink:href="#DejaVuSans-72" x="332.568359"/>
      <use xlink:href="#DejaVuSans-65" x="371.431641"/>
      <use xlink:href="#DejaVuSans-20" x="432.955078"/>
      <use xlink:href="#DejaVuSans-4d" x="464.742188"/>
      <use xlink:href="#DejaVuSans-61" x="551.021484"/>
      <use xlink:href="#DejaVuSans-63" x="612.300781"/>
      <use xlink:href="#DejaVuSans-72" x="667.28125"/>
      <use xlink:href="#DejaVuSans-6f" x="706.144531"/>
     </g>
    </g>
   </g>
  </g>
 </g>
 <defs>
  <clipPath id="pc6cd9422b1">
   <rect x="135" y="86.4" width="837" height="554.4"/>
  </clipPath>
 </defs>
</svg>
