<?xml version="1.0" encoding="utf-8" standalone="no"?>
<!DOCTYPE svg PUBLIC "-//W3C//DTD SVG 1.1//EN"
  "http://www.w3.org/Graphics/SVG/1.1/DTD/svg11.dtd">
<svg xmlns:xlink="http://www.w3.org/1999/xlink" width="1080pt" height="720pt" viewBox="0 0 1080 720" xmlns="http://www.w3.org/2000/svg" version="1.1">
 <metadata>
  <rdf:RDF xmlns:dc="http://purl.org/dc/elements/1.1/" xmlns:cc="http://creativecommons.org/ns#" xmlns:rdf="http://www.w3.org/1999/02/22-rdf-syntax-ns#">
   <cc:Work>
    <dc:type rdf:resource="http://purl.org/dc/dcmitype/StillImage"/>
    <dc:date>2023-11-16T23:15:14.342050</dc:date>
    <dc:format>image/svg+xml</dc:format>
    <dc:creator>
     <cc:Agent>
      <dc:title>Matplotlib v3.7.2, https://matplotlib.org/</dc:title>
     </cc:Agent>
    </dc:creator>
   </cc:Work>
  </rdf:RDF>
 </metadata>
 <defs>
  <style type="text/css">*{stroke-linejoin: round; stroke-linecap: butt}</style>
 </defs>
 <g id="figure_1">
  <g id="patch_1">
   <path d="M 0 720 
L 1080 720 
L 1080 0 
L 0 0 
z
" style="fill: #ffffff"/>
  </g>
  <g id="axes_1">
   <g id="patch_2">
    <path d="M 135 640.8 
L 972 640.8 
L 972 86.4 
L 135 86.4 
z
" style="fill: #ffffff"/>
   </g>
   <g id="matplotlib.axis_1">
    <g id="xtick_1">
     <g id="line2d_1">
      <defs>
       <path id="m30f0a1203d" d="M 0 0 
L 0 3.5 
" style="stroke: #000000; stroke-width: 0.8"/>
      </defs>
      <g>
       <use xlink:href="#m30f0a1203d" x="173.045455" y="640.8" style="stroke: #000000; stroke-width: 0.8"/>
      </g>
     </g>
     <g id="text_1">
      <!-- 0 -->
      <g transform="translate(169.864205 655.398438) scale(0.1 -0.1)">
       <defs>
        <path id="DejaVuSans-30" d="M 2034 4250 
Q 1547 4250 1301 3770 
Q 1056 3291 1056 2328 
Q 1056 1369 1301 889 
Q 1547 409 2034 409 
Q 2525 409 2770 889 
Q 3016 1369 3016 2328 
Q 3016 3291 2770 3770 
Q 2525 4250 2034 4250 
z
M 2034 4750 
Q 2819 4750 3233 4129 
Q 3647 3509 3647 2328 
Q 3647 1150 3233 529 
Q 2819 -91 2034 -91 
Q 1250 -91 836 529 
Q 422 1150 422 2328 
Q 422 3509 836 4129 
Q 1250 4750 2034 4750 
z
" transform="scale(0.015625)"/>
       </defs>
       <use xlink:href="#DejaVuSans-30"/>
      </g>
     </g>
    </g>
    <g id="xtick_2">
     <g id="line2d_2">
      <g>
       <use xlink:href="#m30f0a1203d" x="326.764463" y="640.8" style="stroke: #000000; stroke-width: 0.8"/>
      </g>
     </g>
     <g id="text_2">
      <!-- 20 -->
      <g transform="translate(320.401963 655.398438) scale(0.1 -0.1)">
       <defs>
        <path id="DejaVuSans-32" d="M 1228 531 
L 3431 531 
L 3431 0 
L 469 0 
L 469 531 
Q 828 903 1448 1529 
Q 2069 2156 2228 2338 
Q 2531 2678 2651 2914 
Q 2772 3150 2772 3378 
Q 2772 3750 2511 3984 
Q 2250 4219 1831 4219 
Q 1534 4219 1204 4116 
Q 875 4013 500 3803 
L 500 4441 
Q 881 4594 1212 4672 
Q 1544 4750 1819 4750 
Q 2544 4750 2975 4387 
Q 3406 4025 3406 3419 
Q 3406 3131 3298 2873 
Q 3191 2616 2906 2266 
Q 2828 2175 2409 1742 
Q 1991 1309 1228 531 
z
" transform="scale(0.015625)"/>
       </defs>
       <use xlink:href="#DejaVuSans-32"/>
       <use xlink:href="#DejaVuSans-30" x="63.623047"/>
      </g>
     </g>
    </g>
    <g id="xtick_3">
     <g id="line2d_3">
      <g>
       <use xlink:href="#m30f0a1203d" x="480.483471" y="640.8" style="stroke: #000000; stroke-width: 0.8"/>
      </g>
     </g>
     <g id="text_3">
      <!-- 40 -->
      <g transform="translate(474.120971 655.398438) scale(0.1 -0.1)">
       <defs>
        <path id="DejaVuSans-34" d="M 2419 4116 
L 825 1625 
L 2419 1625 
L 2419 4116 
z
M 2253 4666 
L 3047 4666 
L 3047 1625 
L 3713 1625 
L 3713 1100 
L 3047 1100 
L 3047 0 
L 2419 0 
L 2419 1100 
L 313 1100 
L 313 1709 
L 2253 4666 
z
" transform="scale(0.015625)"/>
       </defs>
       <use xlink:href="#DejaVuSans-34"/>
       <use xlink:href="#DejaVuSans-30" x="63.623047"/>
      </g>
     </g>
    </g>
    <g id="xtick_4">
     <g id="line2d_4">
      <g>
       <use xlink:href="#m30f0a1203d" x="634.202479" y="640.8" style="stroke: #000000; stroke-width: 0.8"/>
      </g>
     </g>
     <g id="text_4">
      <!-- 60 -->
      <g transform="translate(627.839979 655.398438) scale(0.1 -0.1)">
       <defs>
        <path id="DejaVuSans-36" d="M 2113 2584 
Q 1688 2584 1439 2293 
Q 1191 2003 1191 1497 
Q 1191 994 1439 701 
Q 1688 409 2113 409 
Q 2538 409 2786 701 
Q 3034 994 3034 1497 
Q 3034 2003 2786 2293 
Q 2538 2584 2113 2584 
z
M 3366 4563 
L 3366 3988 
Q 3128 4100 2886 4159 
Q 2644 4219 2406 4219 
Q 1781 4219 1451 3797 
Q 1122 3375 1075 2522 
Q 1259 2794 1537 2939 
Q 1816 3084 2150 3084 
Q 2853 3084 3261 2657 
Q 3669 2231 3669 1497 
Q 3669 778 3244 343 
Q 2819 -91 2113 -91 
Q 1303 -91 875 529 
Q 447 1150 447 2328 
Q 447 3434 972 4092 
Q 1497 4750 2381 4750 
Q 2619 4750 2861 4703 
Q 3103 4656 3366 4563 
z
" transform="scale(0.015625)"/>
       </defs>
       <use xlink:href="#DejaVuSans-36"/>
       <use xlink:href="#DejaVuSans-30" x="63.623047"/>
      </g>
     </g>
    </g>
    <g id="xtick_5">
     <g id="line2d_5">
      <g>
       <use xlink:href="#m30f0a1203d" x="787.921488" y="640.8" style="stroke: #000000; stroke-width: 0.8"/>
      </g>
     </g>
     <g id="text_5">
      <!-- 80 -->
      <g transform="translate(781.558988 655.398438) scale(0.1 -0.1)">
       <defs>
        <path id="DejaVuSans-38" d="M 2034 2216 
Q 1584 2216 1326 1975 
Q 1069 1734 1069 1313 
Q 1069 891 1326 650 
Q 1584 409 2034 409 
Q 2484 409 2743 651 
Q 3003 894 3003 1313 
Q 3003 1734 2745 1975 
Q 2488 2216 2034 2216 
z
M 1403 2484 
Q 997 2584 770 2862 
Q 544 3141 544 3541 
Q 544 4100 942 4425 
Q 1341 4750 2034 4750 
Q 2731 4750 3128 4425 
Q 3525 4100 3525 3541 
Q 3525 3141 3298 2862 
Q 3072 2584 2669 2484 
Q 3125 2378 3379 2068 
Q 3634 1759 3634 1313 
Q 3634 634 3220 271 
Q 2806 -91 2034 -91 
Q 1263 -91 848 271 
Q 434 634 434 1313 
Q 434 1759 690 2068 
Q 947 2378 1403 2484 
z
M 1172 3481 
Q 1172 3119 1398 2916 
Q 1625 2713 2034 2713 
Q 2441 2713 2670 2916 
Q 2900 3119 2900 3481 
Q 2900 3844 2670 4047 
Q 2441 4250 2034 4250 
Q 1625 4250 1398 4047 
Q 1172 3844 1172 3481 
z
" transform="scale(0.015625)"/>
       </defs>
       <use xlink:href="#DejaVuSans-38"/>
       <use xlink:href="#DejaVuSans-30" x="63.623047"/>
      </g>
     </g>
    </g>
    <g id="xtick_6">
     <g id="line2d_6">
      <g>
       <use xlink:href="#m30f0a1203d" x="941.640496" y="640.8" style="stroke: #000000; stroke-width: 0.8"/>
      </g>
     </g>
     <g id="text_6">
      <!-- 100 -->
      <g transform="translate(932.096746 655.398438) scale(0.1 -0.1)">
       <defs>
        <path id="DejaVuSans-31" d="M 794 531 
L 1825 531 
L 1825 4091 
L 703 3866 
L 703 4441 
L 1819 4666 
L 2450 4666 
L 2450 531 
L 3481 531 
L 3481 0 
L 794 0 
L 794 531 
z
" transform="scale(0.015625)"/>
       </defs>
       <use xlink:href="#DejaVuSans-31"/>
       <use xlink:href="#DejaVuSans-30" x="63.623047"/>
       <use xlink:href="#DejaVuSans-30" x="127.246094"/>
      </g>
     </g>
    </g>
    <g id="text_7">
     <!-- epoch -->
     <g transform="translate(538.271875 669.076563) scale(0.1 -0.1)">
      <defs>
       <path id="DejaVuSans-65" d="M 3597 1894 
L 3597 1613 
L 953 1613 
Q 991 1019 1311 708 
Q 1631 397 2203 397 
Q 2534 397 2845 478 
Q 3156 559 3463 722 
L 3463 178 
Q 3153 47 2828 -22 
Q 2503 -91 2169 -91 
Q 1331 -91 842 396 
Q 353 884 353 1716 
Q 353 2575 817 3079 
Q 1281 3584 2069 3584 
Q 2775 3584 3186 3129 
Q 3597 2675 3597 1894 
z
M 3022 2063 
Q 3016 2534 2758 2815 
Q 2500 3097 2075 3097 
Q 1594 3097 1305 2825 
Q 1016 2553 972 2059 
L 3022 2063 
z
" transform="scale(0.015625)"/>
       <path id="DejaVuSans-70" d="M 1159 525 
L 1159 -1331 
L 581 -1331 
L 581 3500 
L 1159 3500 
L 1159 2969 
Q 1341 3281 1617 3432 
Q 1894 3584 2278 3584 
Q 2916 3584 3314 3078 
Q 3713 2572 3713 1747 
Q 3713 922 3314 415 
Q 2916 -91 2278 -91 
Q 1894 -91 1617 61 
Q 1341 213 1159 525 
z
M 3116 1747 
Q 3116 2381 2855 2742 
Q 2594 3103 2138 3103 
Q 1681 3103 1420 2742 
Q 1159 2381 1159 1747 
Q 1159 1113 1420 752 
Q 1681 391 2138 391 
Q 2594 391 2855 752 
Q 3116 1113 3116 1747 
z
" transform="scale(0.015625)"/>
       <path id="DejaVuSans-6f" d="M 1959 3097 
Q 1497 3097 1228 2736 
Q 959 2375 959 1747 
Q 959 1119 1226 758 
Q 1494 397 1959 397 
Q 2419 397 2687 759 
Q 2956 1122 2956 1747 
Q 2956 2369 2687 2733 
Q 2419 3097 1959 3097 
z
M 1959 3584 
Q 2709 3584 3137 3096 
Q 3566 2609 3566 1747 
Q 3566 888 3137 398 
Q 2709 -91 1959 -91 
Q 1206 -91 779 398 
Q 353 888 353 1747 
Q 353 2609 779 3096 
Q 1206 3584 1959 3584 
z
" transform="scale(0.015625)"/>
       <path id="DejaVuSans-63" d="M 3122 3366 
L 3122 2828 
Q 2878 2963 2633 3030 
Q 2388 3097 2138 3097 
Q 1578 3097 1268 2742 
Q 959 2388 959 1747 
Q 959 1106 1268 751 
Q 1578 397 2138 397 
Q 2388 397 2633 464 
Q 2878 531 3122 666 
L 3122 134 
Q 2881 22 2623 -34 
Q 2366 -91 2075 -91 
Q 1284 -91 818 406 
Q 353 903 353 1747 
Q 353 2603 823 3093 
Q 1294 3584 2113 3584 
Q 2378 3584 2631 3529 
Q 2884 3475 3122 3366 
z
" transform="scale(0.015625)"/>
       <path id="DejaVuSans-68" d="M 3513 2113 
L 3513 0 
L 2938 0 
L 2938 2094 
Q 2938 2591 2744 2837 
Q 2550 3084 2163 3084 
Q 1697 3084 1428 2787 
Q 1159 2491 1159 1978 
L 1159 0 
L 581 0 
L 581 4863 
L 1159 4863 
L 1159 2956 
Q 1366 3272 1645 3428 
Q 1925 3584 2291 3584 
Q 2894 3584 3203 3211 
Q 3513 2838 3513 2113 
z
" transform="scale(0.015625)"/>
      </defs>
      <use xlink:href="#DejaVuSans-65"/>
      <use xlink:href="#DejaVuSans-70" x="61.523438"/>
      <use xlink:href="#DejaVuSans-6f" x="125"/>
      <use xlink:href="#DejaVuSans-63" x="186.181641"/>
      <use xlink:href="#DejaVuSans-68" x="241.162109"/>
     </g>
    </g>
   </g>
   <g id="matplotlib.axis_2">
    <g id="ytick_1">
     <g id="line2d_7">
      <defs>
       <path id="m04a1fa1bb3" d="M 0 0 
L -3.5 0 
" style="stroke: #000000; stroke-width: 0.8"/>
      </defs>
      <g>
       <use xlink:href="#m04a1fa1bb3" x="135" y="583.067371" style="stroke: #000000; stroke-width: 0.8"/>
      </g>
     </g>
     <g id="text_8">
      <!-- 0.2 -->
      <g transform="translate(112.096875 586.866589) scale(0.1 -0.1)">
       <defs>
        <path id="DejaVuSans-2e" d="M 684 794 
L 1344 794 
L 1344 0 
L 684 0 
L 684 794 
z
" transform="scale(0.015625)"/>
       </defs>
       <use xlink:href="#DejaVuSans-30"/>
       <use xlink:href="#DejaVuSans-2e" x="63.623047"/>
       <use xlink:href="#DejaVuSans-32" x="95.410156"/>
      </g>
     </g>
    </g>
    <g id="ytick_2">
     <g id="line2d_8">
      <g>
       <use xlink:href="#m04a1fa1bb3" x="135" y="478.587682" style="stroke: #000000; stroke-width: 0.8"/>
      </g>
     </g>
     <g id="text_9">
      <!-- 0.3 -->
      <g transform="translate(112.096875 482.386901) scale(0.1 -0.1)">
       <defs>
        <path id="DejaVuSans-33" d="M 2597 2516 
Q 3050 2419 3304 2112 
Q 3559 1806 3559 1356 
Q 3559 666 3084 287 
Q 2609 -91 1734 -91 
Q 1441 -91 1130 -33 
Q 819 25 488 141 
L 488 750 
Q 750 597 1062 519 
Q 1375 441 1716 441 
Q 2309 441 2620 675 
Q 2931 909 2931 1356 
Q 2931 1769 2642 2001 
Q 2353 2234 1838 2234 
L 1294 2234 
L 1294 2753 
L 1863 2753 
Q 2328 2753 2575 2939 
Q 2822 3125 2822 3475 
Q 2822 3834 2567 4026 
Q 2313 4219 1838 4219 
Q 1578 4219 1281 4162 
Q 984 4106 628 3988 
L 628 4550 
Q 988 4650 1302 4700 
Q 1616 4750 1894 4750 
Q 2613 4750 3031 4423 
Q 3450 4097 3450 3541 
Q 3450 3153 3228 2886 
Q 3006 2619 2597 2516 
z
" transform="scale(0.015625)"/>
       </defs>
       <use xlink:href="#DejaVuSans-30"/>
       <use xlink:href="#DejaVuSans-2e" x="63.623047"/>
       <use xlink:href="#DejaVuSans-33" x="95.410156"/>
      </g>
     </g>
    </g>
    <g id="ytick_3">
     <g id="line2d_9">
      <g>
       <use xlink:href="#m04a1fa1bb3" x="135" y="374.107993" style="stroke: #000000; stroke-width: 0.8"/>
      </g>
     </g>
     <g id="text_10">
      <!-- 0.4 -->
      <g transform="translate(112.096875 377.907212) scale(0.1 -0.1)">
       <use xlink:href="#DejaVuSans-30"/>
       <use xlink:href="#DejaVuSans-2e" x="63.623047"/>
       <use xlink:href="#DejaVuSans-34" x="95.410156"/>
      </g>
     </g>
    </g>
    <g id="ytick_4">
     <g id="line2d_10">
      <g>
       <use xlink:href="#m04a1fa1bb3" x="135" y="269.628305" style="stroke: #000000; stroke-width: 0.8"/>
      </g>
     </g>
     <g id="text_11">
      <!-- 0.5 -->
      <g transform="translate(112.096875 273.427524) scale(0.1 -0.1)">
       <defs>
        <path id="DejaVuSans-35" d="M 691 4666 
L 3169 4666 
L 3169 4134 
L 1269 4134 
L 1269 2991 
Q 1406 3038 1543 3061 
Q 1681 3084 1819 3084 
Q 2600 3084 3056 2656 
Q 3513 2228 3513 1497 
Q 3513 744 3044 326 
Q 2575 -91 1722 -91 
Q 1428 -91 1123 -41 
Q 819 9 494 109 
L 494 744 
Q 775 591 1075 516 
Q 1375 441 1709 441 
Q 2250 441 2565 725 
Q 2881 1009 2881 1497 
Q 2881 1984 2565 2268 
Q 2250 2553 1709 2553 
Q 1456 2553 1204 2497 
Q 953 2441 691 2322 
L 691 4666 
z
" transform="scale(0.015625)"/>
       </defs>
       <use xlink:href="#DejaVuSans-30"/>
       <use xlink:href="#DejaVuSans-2e" x="63.623047"/>
       <use xlink:href="#DejaVuSans-35" x="95.410156"/>
      </g>
     </g>
    </g>
    <g id="ytick_5">
     <g id="line2d_11">
      <g>
       <use xlink:href="#m04a1fa1bb3" x="135" y="165.148616" style="stroke: #000000; stroke-width: 0.8"/>
      </g>
     </g>
     <g id="text_12">
      <!-- 0.6 -->
      <g transform="translate(112.096875 168.947835) scale(0.1 -0.1)">
       <use xlink:href="#DejaVuSans-30"/>
       <use xlink:href="#DejaVuSans-2e" x="63.623047"/>
       <use xlink:href="#DejaVuSans-36" x="95.410156"/>
      </g>
     </g>
    </g>
    <g id="text_13">
     <!-- score -->
     <g transform="translate(106.017187 377.032812) rotate(-90) scale(0.1 -0.1)">
      <defs>
       <path id="DejaVuSans-73" d="M 2834 3397 
L 2834 2853 
Q 2591 2978 2328 3040 
Q 2066 3103 1784 3103 
Q 1356 3103 1142 2972 
Q 928 2841 928 2578 
Q 928 2378 1081 2264 
Q 1234 2150 1697 2047 
L 1894 2003 
Q 2506 1872 2764 1633 
Q 3022 1394 3022 966 
Q 3022 478 2636 193 
Q 2250 -91 1575 -91 
Q 1294 -91 989 -36 
Q 684 19 347 128 
L 347 722 
Q 666 556 975 473 
Q 1284 391 1588 391 
Q 1994 391 2212 530 
Q 2431 669 2431 922 
Q 2431 1156 2273 1281 
Q 2116 1406 1581 1522 
L 1381 1569 
Q 847 1681 609 1914 
Q 372 2147 372 2553 
Q 372 3047 722 3315 
Q 1072 3584 1716 3584 
Q 2034 3584 2315 3537 
Q 2597 3491 2834 3397 
z
" transform="scale(0.015625)"/>
       <path id="DejaVuSans-72" d="M 2631 2963 
Q 2534 3019 2420 3045 
Q 2306 3072 2169 3072 
Q 1681 3072 1420 2755 
Q 1159 2438 1159 1844 
L 1159 0 
L 581 0 
L 581 3500 
L 1159 3500 
L 1159 2956 
Q 1341 3275 1631 3429 
Q 1922 3584 2338 3584 
Q 2397 3584 2469 3576 
Q 2541 3569 2628 3553 
L 2631 2963 
z
" transform="scale(0.015625)"/>
      </defs>
      <use xlink:href="#DejaVuSans-73"/>
      <use xlink:href="#DejaVuSans-63" x="52.099609"/>
      <use xlink:href="#DejaVuSans-6f" x="107.080078"/>
      <use xlink:href="#DejaVuSans-72" x="168.261719"/>
      <use xlink:href="#DejaVuSans-65" x="207.125"/>
     </g>
    </g>
   </g>
   <g id="line2d_12">
    <path d="M 173.045455 439.848022 
L 180.731405 411.204153 
L 188.417355 346.403267 
L 196.103306 339.359693 
L 203.789256 329.96826 
L 211.475207 328.559545 
L 219.161157 331.376975 
L 226.847107 307.428821 
L 234.533058 298.50696 
L 242.219008 293.811244 
L 249.904959 340.298836 
L 257.590909 265.167374 
L 265.27686 251.549797 
L 272.96281 246.854081 
L 280.64876 314.002824 
L 288.334711 235.584361 
L 296.020661 230.888645 
L 303.706612 244.975794 
L 311.392562 229.47993 
L 319.078512 281.602382 
L 326.764463 229.949502 
L 334.450413 223.845071 
L 342.136364 258.1238 
L 349.822314 215.862353 
L 357.508264 210.697065 
L 365.194215 221.497212 
L 372.880165 198.488202 
L 380.566116 233.706075 
L 388.252066 218.210211 
L 395.938017 180.174909 
L 403.623967 222.436356 
L 411.309917 196.140344 
L 418.995868 195.201201 
L 426.681818 198.488202 
L 434.367769 232.766932 
L 442.053719 217.271068 
L 449.739669 198.957774 
L 457.42562 189.09677 
L 465.11157 213.514495 
L 472.797521 193.792486 
L 480.483471 213.984066 
L 488.169421 213.044923 
L 495.855372 214.453638 
L 503.541322 204.592634 
L 511.227273 185.340197 
L 518.913223 206.001348 
L 526.599174 206.940492 
L 534.285124 172.661762 
L 541.971074 197.079487 
L 549.657025 208.349207 
L 557.342975 198.488202 
L 565.028926 167.496474 
L 572.714876 180.64448 
L 580.400826 161.861615 
L 588.086777 183.931482 
L 595.772727 173.131334 
L 603.458678 216.801496 
L 611.144628 185.340197 
L 618.830579 198.957774 
L 626.516529 194.262058 
L 634.202479 192.383771 
L 641.88843 158.574613 
L 649.57438 180.64448 
L 657.260331 197.079487 
L 664.946281 192.383771 
L 672.632231 174.070477 
L 680.318182 182.992338 
L 688.004132 160.922472 
L 695.690083 178.766194 
L 703.376033 157.63547 
L 711.061983 177.357479 
L 718.747934 198.488202 
L 726.433884 176.418335 
L 734.119835 171.253048 
L 741.805785 173.131334 
L 749.491736 171.722619 
L 757.177686 166.08776 
L 764.863636 207.879635 
L 772.549587 220.558069 
L 780.235537 181.114052 
L 787.921488 162.800758 
L 795.607438 174.070477 
L 803.293388 168.435618 
L 810.979339 203.183919 
L 818.665289 167.496474 
L 826.35124 177.357479 
L 834.03719 193.322914 
L 841.72314 183.46191 
L 849.409091 185.340197 
L 857.095041 158.574613 
L 864.780992 166.08776 
L 872.466942 171.253048 
L 880.152893 197.549059 
L 887.838843 168.435618 
L 895.524793 173.131334 
L 903.210744 164.209473 
L 910.896694 169.844333 
L 918.582645 187.218483 
L 926.268595 170.313904 
L 933.954545 168.435618 
" clip-path="url(#p9664c58a99)" style="fill: none; stroke: #1f77b4; stroke-width: 1.5; stroke-linecap: square"/>
   </g>
   <g id="line2d_13">
    <path d="M 173.045455 615.6 
L 180.731405 344.113611 
L 188.417355 340.043702 
L 196.103306 356.196576 
L 203.789256 332.340985 
L 211.475207 316.585098 
L 219.161157 332.517902 
L 226.847107 305.029944 
L 234.533058 287.382733 
L 242.219008 311.131345 
L 249.904959 215.415216 
L 257.590909 262.570107 
L 265.27686 219.731104 
L 272.96281 243.769648 
L 280.64876 229.158735 
L 288.334711 224.197556 
L 296.020661 224.524549 
L 303.706612 191.578714 
L 311.392562 181.485268 
L 319.078512 205.988386 
L 326.764463 157.685236 
L 334.450413 209.439281 
L 342.136364 198.35298 
L 349.822314 230.921837 
L 357.508264 214.273942 
L 365.194215 209.194961 
L 372.880165 185.50508 
L 380.566116 156.742678 
L 388.252066 198.857115 
L 395.938017 168.248392 
L 403.623967 182.229489 
L 411.309917 187.607692 
L 418.995868 209.986653 
L 426.681818 196.577012 
L 434.367769 225.659583 
L 442.053719 182.218818 
L 449.739669 192.1729 
L 457.42562 183.242624 
L 465.11157 194.165032 
L 472.797521 159.958057 
L 480.483471 183.290505 
L 488.169421 211.286131 
L 495.855372 217.708493 
L 503.541322 187.418733 
L 511.227273 173.125396 
L 518.913223 158.013747 
L 526.599174 157.869521 
L 534.285124 181.839854 
L 541.971074 173.22325 
L 549.657025 196.5597 
L 557.342975 178.269299 
L 565.028926 167.8648 
L 572.714876 188.02693 
L 580.400826 174.174982 
L 588.086777 191.103387 
L 595.772727 172.045782 
L 603.458678 184.450322 
L 611.144628 188.378021 
L 618.830579 148.478741 
L 626.516529 148.120759 
L 634.202479 177.006171 
L 641.88843 156.242044 
L 649.57438 175.860988 
L 657.260331 197.026049 
L 664.946281 195.940944 
L 672.632231 203.415671 
L 680.318182 162.887158 
L 688.004132 178.434032 
L 695.690083 140.257949 
L 703.376033 159.025342 
L 711.061983 178.354537 
L 718.747934 181.493908 
L 726.433884 188.902326 
L 734.119835 156.771675 
L 741.805785 175.189248 
L 749.491736 152.996999 
L 757.177686 166.077319 
L 764.863636 183.449302 
L 772.549587 120.873622 
L 780.235537 159.973111 
L 787.921488 153.299795 
L 795.607438 176.879969 
L 803.293388 171.65701 
L 810.979339 204.494667 
L 818.665289 156.76803 
L 826.35124 195.676729 
L 834.03719 180.197598 
L 841.72314 179.549289 
L 849.409091 111.6 
L 857.095041 156.584257 
L 864.780992 169.935801 
L 872.466942 157.088065 
L 880.152893 160.609086 
L 887.838843 166.852381 
L 895.524793 188.868374 
L 903.210744 156.826574 
L 910.896694 142.37457 
L 918.582645 151.220006 
L 926.268595 179.78008 
L 933.954545 154.312623 
" clip-path="url(#p9664c58a99)" style="fill: none; stroke: #ff7f0e; stroke-width: 1.5; stroke-linecap: square"/>
   </g>
   <g id="line2d_14">
    <path d="M 173.045455 467.407757 
L 180.731405 444.080756 
L 188.417355 355.095383 
L 196.103306 359.381784 
L 203.789256 346.523765 
L 211.475207 352.511053 
L 219.161157 340.774373 
L 226.847107 317.153583 
L 234.533058 316.079752 
L 242.219008 303.170955 
L 249.904959 348.142024 
L 257.590909 267.079651 
L 265.27686 257.66649 
L 272.96281 244.726034 
L 280.64876 306.538281 
L 288.334711 248.379847 
L 296.020661 229.221021 
L 303.706612 262.903605 
L 311.392562 235.796529 
L 319.078512 304.777603 
L 326.764463 236.545761 
L 334.450413 218.272251 
L 342.136364 252.301157 
L 349.822314 214.705309 
L 357.508264 212.451847 
L 365.194215 213.357915 
L 372.880165 201.957205 
L 380.566116 230.038772 
L 388.252066 212.110986 
L 395.938017 176.91353 
L 403.623967 212.3383 
L 411.309917 192.233735 
L 418.995868 190.74249 
L 426.681818 189.774964 
L 434.367769 246.975378 
L 442.053719 231.249266 
L 449.739669 207.488858 
L 457.42562 195.496431 
L 465.11157 201.614139 
L 472.797521 196.63418 
L 480.483471 209.405113 
L 488.169421 202.920442 
L 495.855372 223.834863 
L 503.541322 198.604941 
L 511.227273 191.670148 
L 518.913223 212.623803 
L 526.599174 217.447081 
L 534.285124 170.38573 
L 541.971074 210.518946 
L 549.657025 211.271161 
L 557.342975 192.989181 
L 565.028926 166.829818 
L 572.714876 177.651901 
L 580.400826 163.593957 
L 588.086777 171.354436 
L 595.772727 168.067181 
L 603.458678 204.13438 
L 611.144628 183.862127 
L 618.830579 186.165494 
L 626.516529 183.994239 
L 634.202479 198.224429 
L 641.88843 155.080526 
L 649.57438 181.624093 
L 657.260331 196.76291 
L 664.946281 183.38869 
L 672.632231 171.740931 
L 680.318182 170.017536 
L 688.004132 162.241008 
L 695.690083 179.638249 
L 703.376033 154.283841 
L 711.061983 175.796861 
L 718.747934 212.469034 
L 726.433884 180.237953 
L 734.119835 162.242603 
L 741.805785 166.796905 
L 749.491736 168.805996 
L 757.177686 165.465156 
L 764.863636 219.156706 
L 772.549587 206.186591 
L 780.235537 183.183723 
L 787.921488 158.099182 
L 795.607438 167.554288 
L 803.293388 169.004143 
L 810.979339 191.629296 
L 818.665289 166.747812 
L 826.35124 180.939471 
L 834.03719 178.730746 
L 841.72314 178.931931 
L 849.409091 184.86418 
L 857.095041 158.052424 
L 864.780992 160.935137 
L 872.466942 167.992974 
L 880.152893 202.128662 
L 887.838843 160.716866 
L 895.524793 169.583647 
L 903.210744 166.214058 
L 910.896694 172.155269 
L 918.582645 188.541606 
L 926.268595 162.54856 
L 933.954545 165.961539 
" clip-path="url(#p9664c58a99)" style="fill: none; stroke: #2ca02c; stroke-width: 1.5; stroke-linecap: square"/>
   </g>
   <g id="line2d_15">
    <path d="M 173.045455 566.779179 
L 180.731405 492.719091 
L 188.417355 352.548645 
L 196.103306 404.473198 
L 203.789256 391.438743 
L 211.475207 406.426801 
L 219.161157 377.895085 
L 226.847107 329.382236 
L 234.533058 345.518265 
L 242.219008 358.412565 
L 249.904959 404.226146 
L 257.590909 279.923587 
L 265.27686 251.768799 
L 272.96281 254.761369 
L 280.64876 331.57653 
L 288.334711 267.807605 
L 296.020661 251.077342 
L 303.706612 305.835106 
L 311.392562 225.191826 
L 319.078512 329.046397 
L 326.764463 236.496603 
L 334.450413 220.58412 
L 342.136364 273.121672 
L 349.822314 229.21875 
L 357.508264 217.932707 
L 365.194215 216.368595 
L 372.880165 198.186553 
L 380.566116 215.007365 
L 388.252066 209.15586 
L 395.938017 173.29574 
L 403.623967 212.055585 
L 411.309917 191.733937 
L 418.995868 218.481171 
L 426.681818 203.819349 
L 434.367769 290.42458 
L 442.053719 236.429257 
L 449.739669 217.741161 
L 457.42562 207.301204 
L 465.11157 208.885523 
L 472.797521 190.187076 
L 480.483471 221.269556 
L 488.169421 217.037363 
L 495.855372 252.523546 
L 503.541322 203.542342 
L 511.227273 197.423144 
L 518.913223 221.181064 
L 526.599174 209.755722 
L 534.285124 182.272978 
L 541.971074 223.405715 
L 549.657025 218.678381 
L 557.342975 202.148134 
L 565.028926 169.902436 
L 572.714876 185.174226 
L 580.400826 196.941751 
L 588.086777 204.011136 
L 595.772727 172.407611 
L 603.458678 207.556985 
L 611.144628 187.148155 
L 618.830579 189.127323 
L 626.516529 182.236438 
L 634.202479 195.522704 
L 641.88843 155.973649 
L 649.57438 185.926873 
L 657.260331 206.45141 
L 664.946281 196.320739 
L 672.632231 220.232135 
L 680.318182 175.694239 
L 688.004132 181.929393 
L 695.690083 165.986891 
L 703.376033 157.847156 
L 711.061983 182.945793 
L 718.747934 239.747218 
L 726.433884 197.910033 
L 734.119835 163.587445 
L 741.805785 173.086634 
L 749.491736 164.886703 
L 757.177686 167.154775 
L 764.863636 246.802157 
L 772.549587 222.788247 
L 780.235537 174.819021 
L 787.921488 156.157501 
L 795.607438 173.453623 
L 803.293388 172.148035 
L 810.979339 225.926794 
L 818.665289 166.712819 
L 826.35124 225.521343 
L 834.03719 193.565457 
L 841.72314 180.793218 
L 849.409091 170.182427 
L 857.095041 158.991647 
L 864.780992 166.33007 
L 872.466942 163.257688 
L 880.152893 190.812445 
L 887.838843 174.757448 
L 895.524793 185.583387 
L 903.210744 167.413626 
L 910.896694 162.040493 
L 918.582645 182.097154 
L 926.268595 174.616128 
L 933.954545 162.267846 
" clip-path="url(#p9664c58a99)" style="fill: none; stroke: #d62728; stroke-width: 1.5; stroke-linecap: square"/>
   </g>
   <g id="patch_3">
    <path d="M 135 640.8 
L 135 86.4 
" style="fill: none; stroke: #000000; stroke-width: 0.8; stroke-linejoin: miter; stroke-linecap: square"/>
   </g>
   <g id="patch_4">
    <path d="M 972 640.8 
L 972 86.4 
" style="fill: none; stroke: #000000; stroke-width: 0.8; stroke-linejoin: miter; stroke-linecap: square"/>
   </g>
   <g id="patch_5">
    <path d="M 135 640.8 
L 972 640.8 
" style="fill: none; stroke: #000000; stroke-width: 0.8; stroke-linejoin: miter; stroke-linecap: square"/>
   </g>
   <g id="patch_6">
    <path d="M 135 86.4 
L 972 86.4 
" style="fill: none; stroke: #000000; stroke-width: 0.8; stroke-linejoin: miter; stroke-linecap: square"/>
   </g>
   <g id="legend_1">
    <g id="patch_7">
     <path d="M 142 153.1125 
L 254.8 153.1125 
Q 256.8 153.1125 256.8 151.1125 
L 256.8 93.4 
Q 256.8 91.4 254.8 91.4 
L 142 91.4 
Q 140 91.4 140 93.4 
L 140 151.1125 
Q 140 153.1125 142 153.1125 
z
" style="fill: #ffffff; opacity: 0.8; stroke: #cccccc; stroke-linejoin: miter"/>
    </g>
    <g id="line2d_16">
     <path d="M 144 99.498437 
L 154 99.498437 
L 164 99.498437 
" style="fill: none; stroke: #1f77b4; stroke-width: 1.5; stroke-linecap: square"/>
    </g>
    <g id="text_14">
     <!-- Accuracy -->
     <g transform="translate(172 102.998437) scale(0.1 -0.1)">
      <defs>
       <path id="DejaVuSans-41" d="M 2188 4044 
L 1331 1722 
L 3047 1722 
L 2188 4044 
z
M 1831 4666 
L 2547 4666 
L 4325 0 
L 3669 0 
L 3244 1197 
L 1141 1197 
L 716 0 
L 50 0 
L 1831 4666 
z
" transform="scale(0.015625)"/>
       <path id="DejaVuSans-75" d="M 544 1381 
L 544 3500 
L 1119 3500 
L 1119 1403 
Q 1119 906 1312 657 
Q 1506 409 1894 409 
Q 2359 409 2629 706 
Q 2900 1003 2900 1516 
L 2900 3500 
L 3475 3500 
L 3475 0 
L 2900 0 
L 2900 538 
Q 2691 219 2414 64 
Q 2138 -91 1772 -91 
Q 1169 -91 856 284 
Q 544 659 544 1381 
z
M 1991 3584 
L 1991 3584 
z
" transform="scale(0.015625)"/>
       <path id="DejaVuSans-61" d="M 2194 1759 
Q 1497 1759 1228 1600 
Q 959 1441 959 1056 
Q 959 750 1161 570 
Q 1363 391 1709 391 
Q 2188 391 2477 730 
Q 2766 1069 2766 1631 
L 2766 1759 
L 2194 1759 
z
M 3341 1997 
L 3341 0 
L 2766 0 
L 2766 531 
Q 2569 213 2275 61 
Q 1981 -91 1556 -91 
Q 1019 -91 701 211 
Q 384 513 384 1019 
Q 384 1609 779 1909 
Q 1175 2209 1959 2209 
L 2766 2209 
L 2766 2266 
Q 2766 2663 2505 2880 
Q 2244 3097 1772 3097 
Q 1472 3097 1187 3025 
Q 903 2953 641 2809 
L 641 3341 
Q 956 3463 1253 3523 
Q 1550 3584 1831 3584 
Q 2591 3584 2966 3190 
Q 3341 2797 3341 1997 
z
" transform="scale(0.015625)"/>
       <path id="DejaVuSans-79" d="M 2059 -325 
Q 1816 -950 1584 -1140 
Q 1353 -1331 966 -1331 
L 506 -1331 
L 506 -850 
L 844 -850 
Q 1081 -850 1212 -737 
Q 1344 -625 1503 -206 
L 1606 56 
L 191 3500 
L 800 3500 
L 1894 763 
L 2988 3500 
L 3597 3500 
L 2059 -325 
z
" transform="scale(0.015625)"/>
      </defs>
      <use xlink:href="#DejaVuSans-41"/>
      <use xlink:href="#DejaVuSans-63" x="66.658203"/>
      <use xlink:href="#DejaVuSans-63" x="121.638672"/>
      <use xlink:href="#DejaVuSans-75" x="176.619141"/>
      <use xlink:href="#DejaVuSans-72" x="239.998047"/>
      <use xlink:href="#DejaVuSans-61" x="281.111328"/>
      <use xlink:href="#DejaVuSans-63" x="342.390625"/>
      <use xlink:href="#DejaVuSans-79" x="397.371094"/>
     </g>
    </g>
    <g id="line2d_17">
     <path d="M 144 114.176562 
L 154 114.176562 
L 164 114.176562 
" style="fill: none; stroke: #ff7f0e; stroke-width: 1.5; stroke-linecap: square"/>
    </g>
    <g id="text_15">
     <!-- Precision Macro' -->
     <g transform="translate(172 117.676562) scale(0.1 -0.1)">
      <defs>
       <path id="DejaVuSans-50" d="M 1259 4147 
L 1259 2394 
L 2053 2394 
Q 2494 2394 2734 2622 
Q 2975 2850 2975 3272 
Q 2975 3691 2734 3919 
Q 2494 4147 2053 4147 
L 1259 4147 
z
M 628 4666 
L 2053 4666 
Q 2838 4666 3239 4311 
Q 3641 3956 3641 3272 
Q 3641 2581 3239 2228 
Q 2838 1875 2053 1875 
L 1259 1875 
L 1259 0 
L 628 0 
L 628 4666 
z
" transform="scale(0.015625)"/>
       <path id="DejaVuSans-69" d="M 603 3500 
L 1178 3500 
L 1178 0 
L 603 0 
L 603 3500 
z
M 603 4863 
L 1178 4863 
L 1178 4134 
L 603 4134 
L 603 4863 
z
" transform="scale(0.015625)"/>
       <path id="DejaVuSans-6e" d="M 3513 2113 
L 3513 0 
L 2938 0 
L 2938 2094 
Q 2938 2591 2744 2837 
Q 2550 3084 2163 3084 
Q 1697 3084 1428 2787 
Q 1159 2491 1159 1978 
L 1159 0 
L 581 0 
L 581 3500 
L 1159 3500 
L 1159 2956 
Q 1366 3272 1645 3428 
Q 1925 3584 2291 3584 
Q 2894 3584 3203 3211 
Q 3513 2838 3513 2113 
z
" transform="scale(0.015625)"/>
       <path id="DejaVuSans-20" transform="scale(0.015625)"/>
       <path id="DejaVuSans-4d" d="M 628 4666 
L 1569 4666 
L 2759 1491 
L 3956 4666 
L 4897 4666 
L 4897 0 
L 4281 0 
L 4281 4097 
L 3078 897 
L 2444 897 
L 1241 4097 
L 1241 0 
L 628 0 
L 628 4666 
z
" transform="scale(0.015625)"/>
       <path id="DejaVuSans-27" d="M 1147 4666 
L 1147 2931 
L 616 2931 
L 616 4666 
L 1147 4666 
z
" transform="scale(0.015625)"/>
      </defs>
      <use xlink:href="#DejaVuSans-50"/>
      <use xlink:href="#DejaVuSans-72" x="58.552734"/>
      <use xlink:href="#DejaVuSans-65" x="97.416016"/>
      <use xlink:href="#DejaVuSans-63" x="158.939453"/>
      <use xlink:href="#DejaVuSans-69" x="213.919922"/>
      <use xlink:href="#DejaVuSans-73" x="241.703125"/>
      <use xlink:href="#DejaVuSans-69" x="293.802734"/>
      <use xlink:href="#DejaVuSans-6f" x="321.585938"/>
      <use xlink:href="#DejaVuSans-6e" x="382.767578"/>
      <use xlink:href="#DejaVuSans-20" x="446.146484"/>
      <use xlink:href="#DejaVuSans-4d" x="477.933594"/>
      <use xlink:href="#DejaVuSans-61" x="564.212891"/>
      <use xlink:href="#DejaVuSans-63" x="625.492188"/>
      <use xlink:href="#DejaVuSans-72" x="680.472656"/>
      <use xlink:href="#DejaVuSans-6f" x="719.335938"/>
      <use xlink:href="#DejaVuSans-27" x="780.517578"/>
     </g>
    </g>
    <g id="line2d_18">
     <path d="M 144 128.854687 
L 154 128.854687 
L 164 128.854687 
" style="fill: none; stroke: #2ca02c; stroke-width: 1.5; stroke-linecap: square"/>
    </g>
    <g id="text_16">
     <!-- Recall Macro -->
     <g transform="translate(172 132.354687) scale(0.1 -0.1)">
      <defs>
       <path id="DejaVuSans-52" d="M 2841 2188 
Q 3044 2119 3236 1894 
Q 3428 1669 3622 1275 
L 4263 0 
L 3584 0 
L 2988 1197 
Q 2756 1666 2539 1819 
Q 2322 1972 1947 1972 
L 1259 1972 
L 1259 0 
L 628 0 
L 628 4666 
L 2053 4666 
Q 2853 4666 3247 4331 
Q 3641 3997 3641 3322 
Q 3641 2881 3436 2590 
Q 3231 2300 2841 2188 
z
M 1259 4147 
L 1259 2491 
L 2053 2491 
Q 2509 2491 2742 2702 
Q 2975 2913 2975 3322 
Q 2975 3731 2742 3939 
Q 2509 4147 2053 4147 
L 1259 4147 
z
" transform="scale(0.015625)"/>
       <path id="DejaVuSans-6c" d="M 603 4863 
L 1178 4863 
L 1178 0 
L 603 0 
L 603 4863 
z
" transform="scale(0.015625)"/>
      </defs>
      <use xlink:href="#DejaVuSans-52"/>
      <use xlink:href="#DejaVuSans-65" x="64.982422"/>
      <use xlink:href="#DejaVuSans-63" x="126.505859"/>
      <use xlink:href="#DejaVuSans-61" x="181.486328"/>
      <use xlink:href="#DejaVuSans-6c" x="242.765625"/>
      <use xlink:href="#DejaVuSans-6c" x="270.548828"/>
      <use xlink:href="#DejaVuSans-20" x="298.332031"/>
      <use xlink:href="#DejaVuSans-4d" x="330.119141"/>
      <use xlink:href="#DejaVuSans-61" x="416.398438"/>
      <use xlink:href="#DejaVuSans-63" x="477.677734"/>
      <use xlink:href="#DejaVuSans-72" x="532.658203"/>
      <use xlink:href="#DejaVuSans-6f" x="571.521484"/>
     </g>
    </g>
    <g id="line2d_19">
     <path d="M 144 143.532812 
L 154 143.532812 
L 164 143.532812 
" style="fill: none; stroke: #d62728; stroke-width: 1.5; stroke-linecap: square"/>
    </g>
    <g id="text_17">
     <!-- F1 Score Macro -->
     <g transform="translate(172 147.032812) scale(0.1 -0.1)">
      <defs>
       <path id="DejaVuSans-46" d="M 628 4666 
L 3309 4666 
L 3309 4134 
L 1259 4134 
L 1259 2759 
L 3109 2759 
L 3109 2228 
L 1259 2228 
L 1259 0 
L 628 0 
L 628 4666 
z
" transform="scale(0.015625)"/>
       <path id="DejaVuSans-53" d="M 3425 4513 
L 3425 3897 
Q 3066 4069 2747 4153 
Q 2428 4238 2131 4238 
Q 1616 4238 1336 4038 
Q 1056 3838 1056 3469 
Q 1056 3159 1242 3001 
Q 1428 2844 1947 2747 
L 2328 2669 
Q 3034 2534 3370 2195 
Q 3706 1856 3706 1288 
Q 3706 609 3251 259 
Q 2797 -91 1919 -91 
Q 1588 -91 1214 -16 
Q 841 59 441 206 
L 441 856 
Q 825 641 1194 531 
Q 1563 422 1919 422 
Q 2459 422 2753 634 
Q 3047 847 3047 1241 
Q 3047 1584 2836 1778 
Q 2625 1972 2144 2069 
L 1759 2144 
Q 1053 2284 737 2584 
Q 422 2884 422 3419 
Q 422 4038 858 4394 
Q 1294 4750 2059 4750 
Q 2388 4750 2728 4690 
Q 3069 4631 3425 4513 
z
" transform="scale(0.015625)"/>
      </defs>
      <use xlink:href="#DejaVuSans-46"/>
      <use xlink:href="#DejaVuSans-31" x="57.519531"/>
      <use xlink:href="#DejaVuSans-20" x="121.142578"/>
      <use xlink:href="#DejaVuSans-53" x="152.929688"/>
      <use xlink:href="#DejaVuSans-63" x="216.40625"/>
      <use xlink:href="#DejaVuSans-6f" x="271.386719"/>
      <use xlink:href="#DejaVuSans-72" x="332.568359"/>
      <use xlink:href="#DejaVuSans-65" x="371.431641"/>
      <use xlink:href="#DejaVuSans-20" x="432.955078"/>
      <use xlink:href="#DejaVuSans-4d" x="464.742188"/>
      <use xlink:href="#DejaVuSans-61" x="551.021484"/>
      <use xlink:href="#DejaVuSans-63" x="612.300781"/>
      <use xlink:href="#DejaVuSans-72" x="667.28125"/>
      <use xlink:href="#DejaVuSans-6f" x="706.144531"/>
     </g>
    </g>
   </g>
  </g>
 </g>
 <defs>
  <clipPath id="p9664c58a99">
   <rect x="135" y="86.4" width="837" height="554.4"/>
  </clipPath>
 </defs>
</svg>
