<?xml version="1.0" encoding="utf-8" standalone="no"?>
<!DOCTYPE svg PUBLIC "-//W3C//DTD SVG 1.1//EN"
  "http://www.w3.org/Graphics/SVG/1.1/DTD/svg11.dtd">
<svg xmlns:xlink="http://www.w3.org/1999/xlink" width="1080pt" height="720pt" viewBox="0 0 1080 720" xmlns="http://www.w3.org/2000/svg" version="1.1">
 <metadata>
  <rdf:RDF xmlns:dc="http://purl.org/dc/elements/1.1/" xmlns:cc="http://creativecommons.org/ns#" xmlns:rdf="http://www.w3.org/1999/02/22-rdf-syntax-ns#">
   <cc:Work>
    <dc:type rdf:resource="http://purl.org/dc/dcmitype/StillImage"/>
    <dc:date>2023-11-16T16:12:13.485130</dc:date>
    <dc:format>image/svg+xml</dc:format>
    <dc:creator>
     <cc:Agent>
      <dc:title>Matplotlib v3.7.2, https://matplotlib.org/</dc:title>
     </cc:Agent>
    </dc:creator>
   </cc:Work>
  </rdf:RDF>
 </metadata>
 <defs>
  <style type="text/css">*{stroke-linejoin: round; stroke-linecap: butt}</style>
 </defs>
 <g id="figure_1">
  <g id="patch_1">
   <path d="M 0 720 
L 1080 720 
L 1080 0 
L 0 0 
z
" style="fill: #ffffff"/>
  </g>
  <g id="axes_1">
   <g id="patch_2">
    <path d="M 135 640.8 
L 972 640.8 
L 972 86.4 
L 135 86.4 
z
" style="fill: #ffffff"/>
   </g>
   <g id="matplotlib.axis_1">
    <g id="xtick_1">
     <g id="line2d_1">
      <defs>
       <path id="ma8f5bb100c" d="M 0 0 
L 0 3.5 
" style="stroke: #000000; stroke-width: 0.8"/>
      </defs>
      <g>
       <use xlink:href="#ma8f5bb100c" x="173.045455" y="640.8" style="stroke: #000000; stroke-width: 0.8"/>
      </g>
     </g>
     <g id="text_1">
      <!-- 0 -->
      <g transform="translate(169.864205 655.398438) scale(0.1 -0.1)">
       <defs>
        <path id="DejaVuSans-30" d="M 2034 4250 
Q 1547 4250 1301 3770 
Q 1056 3291 1056 2328 
Q 1056 1369 1301 889 
Q 1547 409 2034 409 
Q 2525 409 2770 889 
Q 3016 1369 3016 2328 
Q 3016 3291 2770 3770 
Q 2525 4250 2034 4250 
z
M 2034 4750 
Q 2819 4750 3233 4129 
Q 3647 3509 3647 2328 
Q 3647 1150 3233 529 
Q 2819 -91 2034 -91 
Q 1250 -91 836 529 
Q 422 1150 422 2328 
Q 422 3509 836 4129 
Q 1250 4750 2034 4750 
z
" transform="scale(0.015625)"/>
       </defs>
       <use xlink:href="#DejaVuSans-30"/>
      </g>
     </g>
    </g>
    <g id="xtick_2">
     <g id="line2d_2">
      <g>
       <use xlink:href="#ma8f5bb100c" x="268.637049" y="640.8" style="stroke: #000000; stroke-width: 0.8"/>
      </g>
     </g>
     <g id="text_2">
      <!-- 25 -->
      <g transform="translate(262.274549 655.398438) scale(0.1 -0.1)">
       <defs>
        <path id="DejaVuSans-32" d="M 1228 531 
L 3431 531 
L 3431 0 
L 469 0 
L 469 531 
Q 828 903 1448 1529 
Q 2069 2156 2228 2338 
Q 2531 2678 2651 2914 
Q 2772 3150 2772 3378 
Q 2772 3750 2511 3984 
Q 2250 4219 1831 4219 
Q 1534 4219 1204 4116 
Q 875 4013 500 3803 
L 500 4441 
Q 881 4594 1212 4672 
Q 1544 4750 1819 4750 
Q 2544 4750 2975 4387 
Q 3406 4025 3406 3419 
Q 3406 3131 3298 2873 
Q 3191 2616 2906 2266 
Q 2828 2175 2409 1742 
Q 1991 1309 1228 531 
z
" transform="scale(0.015625)"/>
        <path id="DejaVuSans-35" d="M 691 4666 
L 3169 4666 
L 3169 4134 
L 1269 4134 
L 1269 2991 
Q 1406 3038 1543 3061 
Q 1681 3084 1819 3084 
Q 2600 3084 3056 2656 
Q 3513 2228 3513 1497 
Q 3513 744 3044 326 
Q 2575 -91 1722 -91 
Q 1428 -91 1123 -41 
Q 819 9 494 109 
L 494 744 
Q 775 591 1075 516 
Q 1375 441 1709 441 
Q 2250 441 2565 725 
Q 2881 1009 2881 1497 
Q 2881 1984 2565 2268 
Q 2250 2553 1709 2553 
Q 1456 2553 1204 2497 
Q 953 2441 691 2322 
L 691 4666 
z
" transform="scale(0.015625)"/>
       </defs>
       <use xlink:href="#DejaVuSans-32"/>
       <use xlink:href="#DejaVuSans-35" x="63.623047"/>
      </g>
     </g>
    </g>
    <g id="xtick_3">
     <g id="line2d_3">
      <g>
       <use xlink:href="#ma8f5bb100c" x="364.228643" y="640.8" style="stroke: #000000; stroke-width: 0.8"/>
      </g>
     </g>
     <g id="text_3">
      <!-- 50 -->
      <g transform="translate(357.866143 655.398438) scale(0.1 -0.1)">
       <use xlink:href="#DejaVuSans-35"/>
       <use xlink:href="#DejaVuSans-30" x="63.623047"/>
      </g>
     </g>
    </g>
    <g id="xtick_4">
     <g id="line2d_4">
      <g>
       <use xlink:href="#ma8f5bb100c" x="459.820238" y="640.8" style="stroke: #000000; stroke-width: 0.8"/>
      </g>
     </g>
     <g id="text_4">
      <!-- 75 -->
      <g transform="translate(453.457738 655.398438) scale(0.1 -0.1)">
       <defs>
        <path id="DejaVuSans-37" d="M 525 4666 
L 3525 4666 
L 3525 4397 
L 1831 0 
L 1172 0 
L 2766 4134 
L 525 4134 
L 525 4666 
z
" transform="scale(0.015625)"/>
       </defs>
       <use xlink:href="#DejaVuSans-37"/>
       <use xlink:href="#DejaVuSans-35" x="63.623047"/>
      </g>
     </g>
    </g>
    <g id="xtick_5">
     <g id="line2d_5">
      <g>
       <use xlink:href="#ma8f5bb100c" x="555.411832" y="640.8" style="stroke: #000000; stroke-width: 0.8"/>
      </g>
     </g>
     <g id="text_5">
      <!-- 100 -->
      <g transform="translate(545.868082 655.398438) scale(0.1 -0.1)">
       <defs>
        <path id="DejaVuSans-31" d="M 794 531 
L 1825 531 
L 1825 4091 
L 703 3866 
L 703 4441 
L 1819 4666 
L 2450 4666 
L 2450 531 
L 3481 531 
L 3481 0 
L 794 0 
L 794 531 
z
" transform="scale(0.015625)"/>
       </defs>
       <use xlink:href="#DejaVuSans-31"/>
       <use xlink:href="#DejaVuSans-30" x="63.623047"/>
       <use xlink:href="#DejaVuSans-30" x="127.246094"/>
      </g>
     </g>
    </g>
    <g id="xtick_6">
     <g id="line2d_6">
      <g>
       <use xlink:href="#ma8f5bb100c" x="651.003426" y="640.8" style="stroke: #000000; stroke-width: 0.8"/>
      </g>
     </g>
     <g id="text_6">
      <!-- 125 -->
      <g transform="translate(641.459676 655.398438) scale(0.1 -0.1)">
       <use xlink:href="#DejaVuSans-31"/>
       <use xlink:href="#DejaVuSans-32" x="63.623047"/>
       <use xlink:href="#DejaVuSans-35" x="127.246094"/>
      </g>
     </g>
    </g>
    <g id="xtick_7">
     <g id="line2d_7">
      <g>
       <use xlink:href="#ma8f5bb100c" x="746.595021" y="640.8" style="stroke: #000000; stroke-width: 0.8"/>
      </g>
     </g>
     <g id="text_7">
      <!-- 150 -->
      <g transform="translate(737.051271 655.398438) scale(0.1 -0.1)">
       <use xlink:href="#DejaVuSans-31"/>
       <use xlink:href="#DejaVuSans-35" x="63.623047"/>
       <use xlink:href="#DejaVuSans-30" x="127.246094"/>
      </g>
     </g>
    </g>
    <g id="xtick_8">
     <g id="line2d_8">
      <g>
       <use xlink:href="#ma8f5bb100c" x="842.186615" y="640.8" style="stroke: #000000; stroke-width: 0.8"/>
      </g>
     </g>
     <g id="text_8">
      <!-- 175 -->
      <g transform="translate(832.642865 655.398438) scale(0.1 -0.1)">
       <use xlink:href="#DejaVuSans-31"/>
       <use xlink:href="#DejaVuSans-37" x="63.623047"/>
       <use xlink:href="#DejaVuSans-35" x="127.246094"/>
      </g>
     </g>
    </g>
    <g id="xtick_9">
     <g id="line2d_9">
      <g>
       <use xlink:href="#ma8f5bb100c" x="937.778209" y="640.8" style="stroke: #000000; stroke-width: 0.8"/>
      </g>
     </g>
     <g id="text_9">
      <!-- 200 -->
      <g transform="translate(928.234459 655.398438) scale(0.1 -0.1)">
       <use xlink:href="#DejaVuSans-32"/>
       <use xlink:href="#DejaVuSans-30" x="63.623047"/>
       <use xlink:href="#DejaVuSans-30" x="127.246094"/>
      </g>
     </g>
    </g>
    <g id="text_10">
     <!-- epoch -->
     <g transform="translate(538.271875 669.076563) scale(0.1 -0.1)">
      <defs>
       <path id="DejaVuSans-65" d="M 3597 1894 
L 3597 1613 
L 953 1613 
Q 991 1019 1311 708 
Q 1631 397 2203 397 
Q 2534 397 2845 478 
Q 3156 559 3463 722 
L 3463 178 
Q 3153 47 2828 -22 
Q 2503 -91 2169 -91 
Q 1331 -91 842 396 
Q 353 884 353 1716 
Q 353 2575 817 3079 
Q 1281 3584 2069 3584 
Q 2775 3584 3186 3129 
Q 3597 2675 3597 1894 
z
M 3022 2063 
Q 3016 2534 2758 2815 
Q 2500 3097 2075 3097 
Q 1594 3097 1305 2825 
Q 1016 2553 972 2059 
L 3022 2063 
z
" transform="scale(0.015625)"/>
       <path id="DejaVuSans-70" d="M 1159 525 
L 1159 -1331 
L 581 -1331 
L 581 3500 
L 1159 3500 
L 1159 2969 
Q 1341 3281 1617 3432 
Q 1894 3584 2278 3584 
Q 2916 3584 3314 3078 
Q 3713 2572 3713 1747 
Q 3713 922 3314 415 
Q 2916 -91 2278 -91 
Q 1894 -91 1617 61 
Q 1341 213 1159 525 
z
M 3116 1747 
Q 3116 2381 2855 2742 
Q 2594 3103 2138 3103 
Q 1681 3103 1420 2742 
Q 1159 2381 1159 1747 
Q 1159 1113 1420 752 
Q 1681 391 2138 391 
Q 2594 391 2855 752 
Q 3116 1113 3116 1747 
z
" transform="scale(0.015625)"/>
       <path id="DejaVuSans-6f" d="M 1959 3097 
Q 1497 3097 1228 2736 
Q 959 2375 959 1747 
Q 959 1119 1226 758 
Q 1494 397 1959 397 
Q 2419 397 2687 759 
Q 2956 1122 2956 1747 
Q 2956 2369 2687 2733 
Q 2419 3097 1959 3097 
z
M 1959 3584 
Q 2709 3584 3137 3096 
Q 3566 2609 3566 1747 
Q 3566 888 3137 398 
Q 2709 -91 1959 -91 
Q 1206 -91 779 398 
Q 353 888 353 1747 
Q 353 2609 779 3096 
Q 1206 3584 1959 3584 
z
" transform="scale(0.015625)"/>
       <path id="DejaVuSans-63" d="M 3122 3366 
L 3122 2828 
Q 2878 2963 2633 3030 
Q 2388 3097 2138 3097 
Q 1578 3097 1268 2742 
Q 959 2388 959 1747 
Q 959 1106 1268 751 
Q 1578 397 2138 397 
Q 2388 397 2633 464 
Q 2878 531 3122 666 
L 3122 134 
Q 2881 22 2623 -34 
Q 2366 -91 2075 -91 
Q 1284 -91 818 406 
Q 353 903 353 1747 
Q 353 2603 823 3093 
Q 1294 3584 2113 3584 
Q 2378 3584 2631 3529 
Q 2884 3475 3122 3366 
z
" transform="scale(0.015625)"/>
       <path id="DejaVuSans-68" d="M 3513 2113 
L 3513 0 
L 2938 0 
L 2938 2094 
Q 2938 2591 2744 2837 
Q 2550 3084 2163 3084 
Q 1697 3084 1428 2787 
Q 1159 2491 1159 1978 
L 1159 0 
L 581 0 
L 581 4863 
L 1159 4863 
L 1159 2956 
Q 1366 3272 1645 3428 
Q 1925 3584 2291 3584 
Q 2894 3584 3203 3211 
Q 3513 2838 3513 2113 
z
" transform="scale(0.015625)"/>
      </defs>
      <use xlink:href="#DejaVuSans-65"/>
      <use xlink:href="#DejaVuSans-70" x="61.523438"/>
      <use xlink:href="#DejaVuSans-6f" x="125"/>
      <use xlink:href="#DejaVuSans-63" x="186.181641"/>
      <use xlink:href="#DejaVuSans-68" x="241.162109"/>
     </g>
    </g>
   </g>
   <g id="matplotlib.axis_2">
    <g id="ytick_1">
     <g id="line2d_10">
      <defs>
       <path id="m154c778836" d="M 0 0 
L -3.5 0 
" style="stroke: #000000; stroke-width: 0.8"/>
      </defs>
      <g>
       <use xlink:href="#m154c778836" x="135" y="608.20273" style="stroke: #000000; stroke-width: 0.8"/>
      </g>
     </g>
     <g id="text_11">
      <!-- 0.30 -->
      <g transform="translate(105.734375 612.001949) scale(0.1 -0.1)">
       <defs>
        <path id="DejaVuSans-2e" d="M 684 794 
L 1344 794 
L 1344 0 
L 684 0 
L 684 794 
z
" transform="scale(0.015625)"/>
        <path id="DejaVuSans-33" d="M 2597 2516 
Q 3050 2419 3304 2112 
Q 3559 1806 3559 1356 
Q 3559 666 3084 287 
Q 2609 -91 1734 -91 
Q 1441 -91 1130 -33 
Q 819 25 488 141 
L 488 750 
Q 750 597 1062 519 
Q 1375 441 1716 441 
Q 2309 441 2620 675 
Q 2931 909 2931 1356 
Q 2931 1769 2642 2001 
Q 2353 2234 1838 2234 
L 1294 2234 
L 1294 2753 
L 1863 2753 
Q 2328 2753 2575 2939 
Q 2822 3125 2822 3475 
Q 2822 3834 2567 4026 
Q 2313 4219 1838 4219 
Q 1578 4219 1281 4162 
Q 984 4106 628 3988 
L 628 4550 
Q 988 4650 1302 4700 
Q 1616 4750 1894 4750 
Q 2613 4750 3031 4423 
Q 3450 4097 3450 3541 
Q 3450 3153 3228 2886 
Q 3006 2619 2597 2516 
z
" transform="scale(0.015625)"/>
       </defs>
       <use xlink:href="#DejaVuSans-30"/>
       <use xlink:href="#DejaVuSans-2e" x="63.623047"/>
       <use xlink:href="#DejaVuSans-33" x="95.410156"/>
       <use xlink:href="#DejaVuSans-30" x="159.033203"/>
      </g>
     </g>
    </g>
    <g id="ytick_2">
     <g id="line2d_11">
      <g>
       <use xlink:href="#m154c778836" x="135" y="530.524685" style="stroke: #000000; stroke-width: 0.8"/>
      </g>
     </g>
     <g id="text_12">
      <!-- 0.35 -->
      <g transform="translate(105.734375 534.323903) scale(0.1 -0.1)">
       <use xlink:href="#DejaVuSans-30"/>
       <use xlink:href="#DejaVuSans-2e" x="63.623047"/>
       <use xlink:href="#DejaVuSans-33" x="95.410156"/>
       <use xlink:href="#DejaVuSans-35" x="159.033203"/>
      </g>
     </g>
    </g>
    <g id="ytick_3">
     <g id="line2d_12">
      <g>
       <use xlink:href="#m154c778836" x="135" y="452.846639" style="stroke: #000000; stroke-width: 0.8"/>
      </g>
     </g>
     <g id="text_13">
      <!-- 0.40 -->
      <g transform="translate(105.734375 456.645858) scale(0.1 -0.1)">
       <defs>
        <path id="DejaVuSans-34" d="M 2419 4116 
L 825 1625 
L 2419 1625 
L 2419 4116 
z
M 2253 4666 
L 3047 4666 
L 3047 1625 
L 3713 1625 
L 3713 1100 
L 3047 1100 
L 3047 0 
L 2419 0 
L 2419 1100 
L 313 1100 
L 313 1709 
L 2253 4666 
z
" transform="scale(0.015625)"/>
       </defs>
       <use xlink:href="#DejaVuSans-30"/>
       <use xlink:href="#DejaVuSans-2e" x="63.623047"/>
       <use xlink:href="#DejaVuSans-34" x="95.410156"/>
       <use xlink:href="#DejaVuSans-30" x="159.033203"/>
      </g>
     </g>
    </g>
    <g id="ytick_4">
     <g id="line2d_13">
      <g>
       <use xlink:href="#m154c778836" x="135" y="375.168594" style="stroke: #000000; stroke-width: 0.8"/>
      </g>
     </g>
     <g id="text_14">
      <!-- 0.45 -->
      <g transform="translate(105.734375 378.967813) scale(0.1 -0.1)">
       <use xlink:href="#DejaVuSans-30"/>
       <use xlink:href="#DejaVuSans-2e" x="63.623047"/>
       <use xlink:href="#DejaVuSans-34" x="95.410156"/>
       <use xlink:href="#DejaVuSans-35" x="159.033203"/>
      </g>
     </g>
    </g>
    <g id="ytick_5">
     <g id="line2d_14">
      <g>
       <use xlink:href="#m154c778836" x="135" y="297.490549" style="stroke: #000000; stroke-width: 0.8"/>
      </g>
     </g>
     <g id="text_15">
      <!-- 0.50 -->
      <g transform="translate(105.734375 301.289767) scale(0.1 -0.1)">
       <use xlink:href="#DejaVuSans-30"/>
       <use xlink:href="#DejaVuSans-2e" x="63.623047"/>
       <use xlink:href="#DejaVuSans-35" x="95.410156"/>
       <use xlink:href="#DejaVuSans-30" x="159.033203"/>
      </g>
     </g>
    </g>
    <g id="ytick_6">
     <g id="line2d_15">
      <g>
       <use xlink:href="#m154c778836" x="135" y="219.812503" style="stroke: #000000; stroke-width: 0.8"/>
      </g>
     </g>
     <g id="text_16">
      <!-- 0.55 -->
      <g transform="translate(105.734375 223.611722) scale(0.1 -0.1)">
       <use xlink:href="#DejaVuSans-30"/>
       <use xlink:href="#DejaVuSans-2e" x="63.623047"/>
       <use xlink:href="#DejaVuSans-35" x="95.410156"/>
       <use xlink:href="#DejaVuSans-35" x="159.033203"/>
      </g>
     </g>
    </g>
    <g id="ytick_7">
     <g id="line2d_16">
      <g>
       <use xlink:href="#m154c778836" x="135" y="142.134458" style="stroke: #000000; stroke-width: 0.8"/>
      </g>
     </g>
     <g id="text_17">
      <!-- 0.60 -->
      <g transform="translate(105.734375 145.933676) scale(0.1 -0.1)">
       <defs>
        <path id="DejaVuSans-36" d="M 2113 2584 
Q 1688 2584 1439 2293 
Q 1191 2003 1191 1497 
Q 1191 994 1439 701 
Q 1688 409 2113 409 
Q 2538 409 2786 701 
Q 3034 994 3034 1497 
Q 3034 2003 2786 2293 
Q 2538 2584 2113 2584 
z
M 3366 4563 
L 3366 3988 
Q 3128 4100 2886 4159 
Q 2644 4219 2406 4219 
Q 1781 4219 1451 3797 
Q 1122 3375 1075 2522 
Q 1259 2794 1537 2939 
Q 1816 3084 2150 3084 
Q 2853 3084 3261 2657 
Q 3669 2231 3669 1497 
Q 3669 778 3244 343 
Q 2819 -91 2113 -91 
Q 1303 -91 875 529 
Q 447 1150 447 2328 
Q 447 3434 972 4092 
Q 1497 4750 2381 4750 
Q 2619 4750 2861 4703 
Q 3103 4656 3366 4563 
z
" transform="scale(0.015625)"/>
       </defs>
       <use xlink:href="#DejaVuSans-30"/>
       <use xlink:href="#DejaVuSans-2e" x="63.623047"/>
       <use xlink:href="#DejaVuSans-36" x="95.410156"/>
       <use xlink:href="#DejaVuSans-30" x="159.033203"/>
      </g>
     </g>
    </g>
    <g id="text_18">
     <!-- score -->
     <g transform="translate(99.654687 377.032812) rotate(-90) scale(0.1 -0.1)">
      <defs>
       <path id="DejaVuSans-73" d="M 2834 3397 
L 2834 2853 
Q 2591 2978 2328 3040 
Q 2066 3103 1784 3103 
Q 1356 3103 1142 2972 
Q 928 2841 928 2578 
Q 928 2378 1081 2264 
Q 1234 2150 1697 2047 
L 1894 2003 
Q 2506 1872 2764 1633 
Q 3022 1394 3022 966 
Q 3022 478 2636 193 
Q 2250 -91 1575 -91 
Q 1294 -91 989 -36 
Q 684 19 347 128 
L 347 722 
Q 666 556 975 473 
Q 1284 391 1588 391 
Q 1994 391 2212 530 
Q 2431 669 2431 922 
Q 2431 1156 2273 1281 
Q 2116 1406 1581 1522 
L 1381 1569 
Q 847 1681 609 1914 
Q 372 2147 372 2553 
Q 372 3047 722 3315 
Q 1072 3584 1716 3584 
Q 2034 3584 2315 3537 
Q 2597 3491 2834 3397 
z
" transform="scale(0.015625)"/>
       <path id="DejaVuSans-72" d="M 2631 2963 
Q 2534 3019 2420 3045 
Q 2306 3072 2169 3072 
Q 1681 3072 1420 2755 
Q 1159 2438 1159 1844 
L 1159 0 
L 581 0 
L 581 3500 
L 1159 3500 
L 1159 2956 
Q 1341 3275 1631 3429 
Q 1922 3584 2338 3584 
Q 2397 3584 2469 3576 
Q 2541 3569 2628 3553 
L 2631 2963 
z
" transform="scale(0.015625)"/>
      </defs>
      <use xlink:href="#DejaVuSans-73"/>
      <use xlink:href="#DejaVuSans-63" x="52.099609"/>
      <use xlink:href="#DejaVuSans-6f" x="107.080078"/>
      <use xlink:href="#DejaVuSans-72" x="168.261719"/>
      <use xlink:href="#DejaVuSans-65" x="207.125"/>
     </g>
    </g>
   </g>
   <g id="line2d_17">
    <path d="M 173.045455 464.716543 
L 176.869118 489.852809 
L 180.692782 445.864343 
L 184.516446 362.076788 
L 188.34011 332.751144 
L 192.163773 330.656456 
L 195.987437 307.614878 
L 199.811101 399.781188 
L 203.634765 337.638752 
L 207.458429 283.875071 
L 211.282092 279.685693 
L 215.105756 268.514019 
L 218.92942 419.331617 
L 222.753084 270.608708 
L 226.576747 278.987464 
L 230.400411 208.466272 
L 234.224075 316.691863 
L 238.047739 294.348515 
L 241.871402 242.679523 
L 245.695066 203.578664 
L 249.51873 192.40699 
L 253.342394 239.886605 
L 257.166058 203.578664 
L 260.989721 240.584834 
L 264.813385 216.146798 
L 268.637049 203.578664 
L 272.460713 199.389287 
L 276.284376 209.862731 
L 280.10804 244.075982 
L 283.931704 193.10522 
L 287.755368 225.223783 
L 291.579032 190.312302 
L 295.402695 188.217613 
L 299.226359 207.768042 
L 303.050023 188.915842 
L 306.873687 180.537087 
L 310.69735 193.80345 
L 314.521014 167.270724 
L 318.344678 234.998997 
L 322.168342 232.904309 
L 325.992005 179.838857 
L 329.815669 202.880435 
L 333.639333 217.543257 
L 337.462997 278.987464 
L 341.286661 213.353879 
L 345.110324 179.140628 
L 348.933988 202.182205 
L 352.757652 237.093686 
L 356.581316 188.217613 
L 360.404979 198.691057 
L 364.228643 179.140628 
L 368.052307 248.96359 
L 371.875971 197.294598 
L 375.699635 216.146798 
L 379.523298 262.229953 
L 383.346962 207.768042 
L 387.170626 226.620242 
L 390.99429 211.25919 
L 394.817953 272.005167 
L 398.641617 207.768042 
L 402.465281 179.838857 
L 406.288945 172.158331 
L 410.112608 213.353879 
L 413.936272 199.389287 
L 417.759936 216.146798 
L 421.5836 186.821154 
L 425.407264 241.981294 
L 433.054591 195.199909 
L 436.878255 195.199909 
L 440.701919 186.122924 
L 444.525582 204.975124 
L 448.349246 199.389287 
L 452.17291 207.069813 
L 455.996574 175.64948 
L 459.820238 204.975124 
L 463.643901 191.010531 
L 467.467565 189.614072 
L 471.291229 180.537087 
L 475.114893 225.922012 
L 478.938556 186.122924 
L 482.76222 170.063643 
L 486.585884 195.199909 
L 490.409548 191.708761 
L 494.233212 193.80345 
L 498.056875 221.034405 
L 501.880539 197.992827 
L 505.704203 227.318472 
L 509.527867 197.294598 
L 513.35153 206.371583 
L 517.175194 204.975124 
L 520.998858 188.217613 
L 524.822522 218.939716 
L 528.646185 198.691057 
L 532.469849 177.744168 
L 536.293513 176.347709 
L 540.117177 204.276894 
L 543.940841 193.80345 
L 547.764504 202.182205 
L 551.588168 192.40699 
L 555.411832 221.732635 
L 559.235496 197.992827 
L 563.059159 190.312302 
L 566.882823 186.821154 
L 570.706487 202.880435 
L 574.530151 194.501679 
L 578.353815 177.744168 
L 582.177478 197.992827 
L 586.001142 224.525553 
L 589.824806 216.845027 
L 593.64847 171.460102 
L 597.472133 188.217613 
L 601.295797 207.069813 
L 605.119461 199.389287 
L 608.943125 210.560961 
L 612.766788 188.217613 
L 616.590452 201.483976 
L 620.414116 200.087516 
L 624.23778 192.40699 
L 628.061444 214.052109 
L 631.885107 195.898139 
L 635.708771 189.614072 
L 639.532435 191.708761 
L 643.356099 182.631776 
L 647.179762 207.768042 
L 651.003426 214.750338 
L 654.82709 197.992827 
L 658.650754 186.122924 
L 662.474418 190.312302 
L 666.298081 186.821154 
L 670.121745 201.483976 
L 673.945409 191.010531 
L 677.769073 216.845027 
L 681.592736 193.80345 
L 685.4164 177.744168 
L 689.240064 225.223783 
L 693.063728 203.578664 
L 696.887392 195.898139 
L 700.711055 200.785746 
L 704.534719 176.347709 
L 708.358383 188.915842 
L 712.182047 183.330005 
L 716.00571 202.880435 
L 719.829374 188.915842 
L 723.653038 195.898139 
L 727.476702 216.845027 
L 731.300365 186.122924 
L 735.124029 198.691057 
L 738.947693 188.217613 
L 742.771357 206.371583 
L 746.595021 203.578664 
L 750.418684 209.164501 
L 754.242348 218.241486 
L 758.066012 177.744168 
L 761.889676 196.596368 
L 765.713339 180.537087 
L 769.537003 195.199909 
L 773.360667 191.708761 
L 777.184331 190.312302 
L 781.007995 210.560961 
L 784.831658 204.276894 
L 788.655322 213.353879 
L 792.478986 170.063643 
L 796.30265 190.312302 
L 800.126313 202.182205 
L 803.949977 181.235317 
L 807.773641 199.389287 
L 811.597305 190.312302 
L 815.420968 191.010531 
L 819.244632 231.507849 
L 823.068296 181.933546 
L 826.89196 207.069813 
L 830.715624 208.466272 
L 834.539287 216.146798 
L 838.362951 209.164501 
L 842.186615 191.010531 
L 846.010279 217.543257 
L 849.833942 217.543257 
L 853.657606 203.578664 
L 857.48127 202.880435 
L 865.128598 221.034405 
L 868.952261 196.596368 
L 872.775925 194.501679 
L 876.599589 222.430864 
L 880.423253 212.65565 
L 884.246916 218.939716 
L 888.07058 199.389287 
L 891.894244 222.430864 
L 895.717908 198.691057 
L 899.541571 197.294598 
L 903.365235 205.673353 
L 907.188899 168.667183 
L 911.012563 196.596368 
L 914.836227 191.010531 
L 918.65989 191.010531 
L 922.483554 170.063643 
L 926.307218 227.318472 
L 930.130882 194.501679 
L 933.954545 228.016701 
L 933.954545 228.016701 
" clip-path="url(#p1581fe1901)" style="fill: none; stroke: #1f77b4; stroke-width: 1.5; stroke-linecap: square"/>
   </g>
   <g id="line2d_18">
    <path d="M 173.045455 488.373094 
L 176.869118 371.698028 
L 180.692782 367.525407 
L 184.516446 394.339059 
L 188.34011 352.768235 
L 192.163773 318.554183 
L 195.987437 336.889886 
L 199.811101 209.924075 
L 203.634765 311.498926 
L 207.458429 335.023811 
L 211.282092 250.461705 
L 215.105756 265.303018 
L 218.92942 245.493189 
L 222.753084 180.336734 
L 226.576747 217.016548 
L 230.400411 232.165304 
L 234.224075 126.898169 
L 238.047739 228.743058 
L 241.871402 260.374964 
L 245.695066 228.900603 
L 249.51873 224.710034 
L 253.342394 264.437552 
L 257.166058 186.307069 
L 260.989721 246.430251 
L 264.813385 225.537625 
L 268.637049 200.836077 
L 272.460713 187.057709 
L 276.284376 248.190098 
L 280.10804 205.327328 
L 283.931704 202.863771 
L 287.755368 179.996671 
L 291.579032 198.943667 
L 295.402695 206.464511 
L 299.226359 219.165885 
L 303.050023 200.378905 
L 306.873687 213.304247 
L 310.69735 217.271351 
L 314.521014 187.440925 
L 318.344678 198.636125 
L 322.168342 172.725736 
L 325.992005 170.329147 
L 329.815669 211.114085 
L 333.639333 240.804486 
L 337.462997 111.6 
L 341.286661 187.619009 
L 345.110324 197.389885 
L 348.933988 205.551133 
L 352.757652 183.701317 
L 356.581316 208.113471 
L 360.404979 172.47049 
L 364.228643 191.707891 
L 368.052307 179.302095 
L 371.875971 196.31907 
L 375.699635 151.979379 
L 379.523298 198.144534 
L 383.346962 199.619913 
L 387.170626 175.707418 
L 390.99429 226.045303 
L 394.817953 168.797314 
L 398.641617 203.532767 
L 402.465281 200.962119 
L 406.288945 200.802702 
L 410.112608 221.842988 
L 413.936272 205.811434 
L 417.759936 215.573636 
L 421.5836 168.062677 
L 425.407264 221.533238 
L 429.230927 213.464356 
L 433.054591 214.997001 
L 436.878255 194.867632 
L 440.701919 201.7982 
L 444.525582 199.029025 
L 448.349246 178.452958 
L 452.17291 195.95762 
L 455.996574 191.475735 
L 459.820238 204.72603 
L 463.643901 192.494641 
L 467.467565 174.025315 
L 471.291229 184.70562 
L 475.114893 230.297528 
L 478.938556 197.1471 
L 482.76222 155.153045 
L 486.585884 189.950024 
L 490.409548 197.226186 
L 494.233212 209.990794 
L 498.056875 195.489862 
L 501.880539 221.939675 
L 505.704203 202.531766 
L 509.527867 198.715541 
L 513.35153 220.65801 
L 517.175194 194.642483 
L 520.998858 177.555751 
L 524.822522 218.615621 
L 528.646185 175.636835 
L 532.469849 167.807732 
L 536.293513 175.842909 
L 540.117177 201.026928 
L 543.940841 182.542988 
L 547.764504 201.360572 
L 551.588168 215.286011 
L 555.411832 204.943613 
L 559.235496 215.3586 
L 563.059159 173.660226 
L 566.882823 184.888432 
L 570.706487 201.341564 
L 574.530151 208.208968 
L 578.353815 199.96442 
L 582.177478 204.077396 
L 586.001142 181.337223 
L 589.824806 185.340213 
L 593.64847 172.08326 
L 597.472133 195.182144 
L 601.295797 205.175986 
L 605.119461 231.894093 
L 608.943125 210.776773 
L 612.766788 176.655254 
L 616.590452 203.900425 
L 620.414116 193.816285 
L 624.23778 209.672911 
L 628.061444 217.573104 
L 631.885107 187.099994 
L 635.708771 189.40709 
L 639.532435 192.421035 
L 643.356099 211.67869 
L 647.179762 221.034875 
L 651.003426 190.81173 
L 654.82709 192.055762 
L 658.650754 186.535274 
L 662.474418 196.270173 
L 666.298081 183.719748 
L 670.121745 203.89609 
L 673.945409 209.589903 
L 677.769073 189.634819 
L 681.592736 197.475172 
L 685.4164 167.708199 
L 689.240064 204.04951 
L 693.063728 159.128306 
L 696.887392 195.417924 
L 700.711055 190.53942 
L 704.534719 180.700406 
L 708.358383 164.088321 
L 712.182047 186.921889 
L 716.00571 211.101841 
L 719.829374 177.905705 
L 723.653038 178.667541 
L 727.476702 212.06543 
L 731.300365 180.584401 
L 735.124029 192.569007 
L 738.947693 205.289687 
L 742.771357 210.021077 
L 746.595021 176.620823 
L 750.418684 195.645269 
L 754.242348 210.895662 
L 758.066012 201.728476 
L 761.889676 203.593179 
L 765.713339 183.857393 
L 769.537003 195.144951 
L 773.360667 199.333055 
L 777.184331 207.335852 
L 781.007995 208.329587 
L 784.831658 189.741904 
L 788.655322 213.135835 
L 792.478986 177.983255 
L 796.30265 169.140408 
L 800.126313 215.695672 
L 803.949977 182.44193 
L 807.773641 213.1032 
L 811.597305 210.34651 
L 815.420968 199.236904 
L 819.244632 218.080777 
L 823.068296 192.213353 
L 826.89196 200.785527 
L 830.715624 203.097575 
L 834.539287 219.410823 
L 838.362951 210.683757 
L 842.186615 181.21915 
L 846.010279 191.646097 
L 849.833942 197.894386 
L 853.657606 206.617696 
L 857.48127 174.344548 
L 861.304934 216.262688 
L 865.128598 172.902824 
L 868.952261 201.057434 
L 872.775925 189.691376 
L 876.599589 220.261743 
L 880.423253 236.062092 
L 884.246916 213.403775 
L 888.07058 185.829944 
L 891.894244 202.14696 
L 895.717908 182.411089 
L 899.541571 192.94612 
L 903.365235 202.633274 
L 907.188899 172.682501 
L 911.012563 212.491005 
L 914.836227 200.835069 
L 918.65989 189.820631 
L 922.483554 180.272966 
L 926.307218 211.362619 
L 930.130882 198.648158 
L 933.954545 222.17585 
L 933.954545 222.17585 
" clip-path="url(#p1581fe1901)" style="fill: none; stroke: #ff7f0e; stroke-width: 1.5; stroke-linecap: square"/>
   </g>
   <g id="line2d_19">
    <path d="M 173.045455 479.635134 
L 176.869118 539.509492 
L 180.692782 431.272514 
L 184.516446 385.891823 
L 188.34011 359.171665 
L 192.163773 338.837755 
L 195.987437 319.338859 
L 199.811101 366.55758 
L 203.634765 330.856081 
L 207.458429 328.655864 
L 211.282092 306.094394 
L 215.105756 290.509529 
L 218.92942 397.253892 
L 222.753084 259.210076 
L 226.576747 289.25599 
L 230.400411 225.945244 
L 234.224075 286.199572 
L 238.047739 286.963545 
L 241.871402 263.390653 
L 245.695066 229.293607 
L 249.51873 209.609368 
L 253.342394 270.827546 
L 257.166058 233.402928 
L 260.989721 269.599787 
L 264.813385 223.62491 
L 268.637049 202.198527 
L 272.460713 214.828592 
L 276.284376 231.987357 
L 280.10804 277.779971 
L 283.931704 216.244665 
L 287.755368 224.587724 
L 291.579032 209.55979 
L 295.402695 195.993775 
L 299.226359 234.457477 
L 303.050023 212.148413 
L 306.873687 197.238576 
L 310.69735 212.76412 
L 314.521014 192.219262 
L 322.168342 276.825169 
L 325.992005 187.466495 
L 329.815669 222.990017 
L 333.639333 236.286588 
L 337.462997 300.82851 
L 341.286661 204.743272 
L 345.110324 196.880038 
L 348.933988 207.555409 
L 352.757652 233.396244 
L 356.581316 203.366255 
L 360.404979 199.123845 
L 364.228643 190.977326 
L 368.052307 240.453936 
L 371.875971 205.36209 
L 375.699635 207.212142 
L 379.523298 245.416142 
L 383.346962 215.325954 
L 387.170626 229.509453 
L 390.99429 228.778438 
L 394.817953 254.785134 
L 398.641617 229.549652 
L 402.465281 188.903539 
L 406.288945 187.269557 
L 410.112608 216.94814 
L 413.936272 206.312798 
L 417.759936 225.707616 
L 421.5836 203.654234 
L 425.407264 232.972468 
L 429.230927 221.067546 
L 433.054591 200.170201 
L 436.878255 207.211531 
L 440.701919 200.429754 
L 444.525582 217.769329 
L 448.349246 219.461401 
L 452.17291 214.201902 
L 455.996574 186.147131 
L 459.820238 214.158387 
L 463.643901 205.318811 
L 467.467565 194.623741 
L 471.291229 194.34341 
L 475.114893 252.346656 
L 478.938556 208.96468 
L 482.76222 181.265668 
L 486.585884 194.740053 
L 490.409548 208.778084 
L 494.233212 212.111026 
L 498.056875 222.546223 
L 501.880539 210.385822 
L 505.704203 222.122673 
L 509.527867 211.082314 
L 513.35153 216.381542 
L 517.175194 212.872304 
L 520.998858 202.336335 
L 524.822522 220.315903 
L 528.646185 194.997178 
L 532.469849 179.667919 
L 536.293513 184.702558 
L 540.117177 206.272085 
L 543.940841 201.767587 
L 547.764504 213.635112 
L 551.588168 202.394672 
L 555.411832 228.162968 
L 559.235496 213.271867 
L 563.059159 197.522919 
L 566.882823 190.640529 
L 570.706487 207.709322 
L 574.530151 208.096147 
L 578.353815 191.776708 
L 582.177478 212.903703 
L 586.001142 229.357496 
L 589.824806 223.75874 
L 593.64847 181.729236 
L 597.472133 194.056522 
L 601.295797 210.326062 
L 605.119461 215.338969 
L 608.943125 216.91163 
L 612.766788 205.428941 
L 616.590452 206.78457 
L 620.414116 196.781446 
L 624.23778 203.047798 
L 628.061444 227.668278 
L 631.885107 207.7638 
L 635.708771 196.798611 
L 639.532435 206.05577 
L 643.356099 199.606256 
L 647.179762 213.064086 
L 651.003426 230.282269 
L 654.82709 209.825854 
L 658.650754 195.387436 
L 662.474418 201.461974 
L 666.298081 199.108262 
L 670.121745 208.515346 
L 673.945409 205.635203 
L 677.769073 219.710539 
L 681.592736 202.296434 
L 685.4164 182.076322 
L 689.240064 226.13045 
L 693.063728 209.628608 
L 696.887392 198.438207 
L 700.711055 211.683369 
L 704.534719 183.229987 
L 708.358383 202.850049 
L 712.182047 190.782646 
L 716.00571 211.851227 
L 719.829374 190.276632 
L 723.653038 206.666108 
L 727.476702 220.640112 
L 731.300365 194.367686 
L 735.124029 211.386579 
L 738.947693 203.489647 
L 742.771357 213.424005 
L 746.595021 212.274703 
L 750.418684 209.860173 
L 754.242348 227.774003 
L 758.066012 186.103049 
L 761.889676 211.037462 
L 765.713339 188.249515 
L 769.537003 200.146899 
L 773.360667 204.455155 
L 777.184331 202.487435 
L 781.007995 212.3321 
L 784.831658 209.853746 
L 788.655322 214.302569 
L 792.478986 175.223223 
L 796.30265 191.414073 
L 800.126313 216.172927 
L 803.949977 190.829969 
L 807.773641 214.163488 
L 811.597305 207.873063 
L 815.420968 203.324034 
L 819.244632 233.704049 
L 823.068296 190.276268 
L 826.89196 208.467103 
L 830.715624 222.497393 
L 834.539287 220.744244 
L 838.362951 214.133961 
L 842.186615 198.323178 
L 846.010279 232.166776 
L 849.833942 225.61973 
L 853.657606 218.301907 
L 857.48127 205.183067 
L 861.304934 220.966601 
L 865.128598 217.406908 
L 868.952261 205.228828 
L 872.775925 195.559914 
L 876.599589 233.594998 
L 880.423253 225.141381 
L 884.246916 226.365662 
L 888.07058 215.65316 
L 891.894244 224.309767 
L 895.717908 203.038527 
L 899.541571 201.64688 
L 903.365235 207.951923 
L 907.188899 172.896867 
L 911.012563 213.170121 
L 914.836227 200.326778 
L 918.65989 199.363857 
L 922.483554 179.804154 
L 926.307218 231.985273 
L 930.130882 205.771118 
L 933.954545 225.471538 
L 933.954545 225.471538 
" clip-path="url(#p1581fe1901)" style="fill: none; stroke: #2ca02c; stroke-width: 1.5; stroke-linecap: square"/>
   </g>
   <g id="line2d_20">
    <path d="M 173.045455 490.901105 
L 176.869118 615.6 
L 180.692782 474.724558 
L 184.516446 405.367233 
L 188.34011 387.405508 
L 192.163773 338.624618 
L 195.987437 334.820625 
L 199.811101 442.000227 
L 203.634765 372.212389 
L 207.458429 417.583006 
L 211.282092 354.319276 
L 215.105756 347.599077 
L 218.92942 462.273464 
L 222.753084 256.244679 
L 226.576747 293.98984 
L 230.400411 241.34625 
L 234.224075 321.670555 
L 238.047739 312.11575 
L 241.871402 358.986522 
L 245.695066 249.89407 
L 249.51873 232.498608 
L 253.342394 334.098938 
L 257.166058 265.650301 
L 260.989721 295.637662 
L 264.813385 225.16393 
L 268.637049 210.000813 
L 272.460713 273.03764 
L 276.284376 269.148744 
L 280.10804 307.205207 
L 283.931704 219.928501 
L 287.755368 217.492382 
L 291.579032 217.38663 
L 295.402695 219.355726 
L 299.226359 245.922827 
L 303.050023 217.807441 
L 306.873687 216.570321 
L 310.69735 226.496594 
L 314.521014 266.838709 
L 318.344678 241.248015 
L 322.168342 307.73904 
L 325.992005 180.746885 
L 329.815669 222.797666 
L 333.639333 244.780142 
L 337.462997 293.331973 
L 341.286661 213.354722 
L 345.110324 201.479345 
L 348.933988 207.373522 
L 352.757652 224.200081 
L 356.581316 208.524282 
L 360.404979 196.644602 
L 364.228643 196.641054 
L 368.052307 237.126589 
L 371.875971 207.316527 
L 375.699635 203.094189 
L 379.523298 272.611348 
L 383.346962 218.122215 
L 387.170626 216.196584 
L 390.99429 231.662996 
L 394.817953 257.218647 
L 398.641617 228.323519 
L 402.465281 197.997923 
L 406.288945 198.139211 
L 410.112608 221.063479 
L 413.936272 206.605562 
L 417.759936 222.843029 
L 421.5836 197.336975 
L 425.407264 248.611721 
L 429.230927 221.693925 
L 433.054591 211.063889 
L 436.878255 202.727738 
L 440.701919 209.383624 
L 444.525582 211.494435 
L 448.349246 218.796709 
L 452.17291 208.602566 
L 455.996574 193.010318 
L 459.820238 210.079675 
L 463.643901 201.671155 
L 467.467565 187.600256 
L 471.291229 194.318477 
L 475.114893 266.401772 
L 478.938556 224.144981 
L 482.76222 175.064708 
L 486.585884 198.099313 
L 490.409548 207.990317 
L 494.233212 234.920946 
L 498.056875 219.067001 
L 501.880539 219.432946 
L 505.704203 222.275265 
L 509.527867 207.299753 
L 513.35153 218.675265 
L 517.175194 205.719457 
L 520.998858 194.794324 
L 524.822522 232.103415 
L 528.646185 198.572212 
L 532.469849 178.018553 
L 536.293513 181.060017 
L 540.117177 206.511021 
L 543.940841 194.742796 
L 547.764504 209.005055 
L 551.588168 210.540073 
L 555.411832 218.973882 
L 559.235496 217.979661 
L 563.059159 188.75715 
L 566.882823 192.355005 
L 570.706487 205.48331 
L 574.530151 210.35012 
L 578.353815 200.223977 
L 582.177478 212.292822 
L 586.001142 213.650652 
L 589.824806 211.423382 
L 593.64847 178.925092 
L 597.472133 195.413285 
L 605.119461 229.351492 
L 608.943125 214.982021 
L 612.766788 197.44317 
L 616.590452 205.686498 
L 620.414116 204.081953 
L 624.23778 209.243172 
L 628.061444 224.738953 
L 631.885107 200.897734 
L 635.708771 193.819327 
L 639.532435 201.693671 
L 643.356099 216.284359 
L 647.179762 220.57552 
L 651.003426 221.875579 
L 654.82709 203.473612 
L 658.650754 191.679086 
L 662.474418 199.890699 
L 666.298081 193.293139 
L 670.121745 206.423656 
L 673.945409 211.315674 
L 677.769073 214.134121 
L 681.592736 200.394 
L 685.4164 182.228419 
L 689.240064 220.60616 
L 693.063728 196.802122 
L 696.887392 199.062653 
L 700.711055 205.89261 
L 704.534719 183.061551 
L 708.358383 192.351115 
L 712.182047 188.969929 
L 716.00571 213.774904 
L 719.829374 188.625156 
L 723.653038 196.354594 
L 727.476702 222.528995 
L 731.300365 188.793342 
L 735.124029 207.184994 
L 738.947693 206.961123 
L 742.771357 213.147591 
L 746.595021 200.346419 
L 750.418684 206.973614 
L 754.242348 221.040714 
L 758.066012 200.698781 
L 761.889676 211.16988 
L 765.713339 186.598739 
L 769.537003 198.369562 
L 773.360667 204.735696 
L 777.184331 205.797302 
L 781.007995 213.598468 
L 784.831658 202.58432 
L 788.655322 220.816379 
L 792.478986 177.972508 
L 796.30265 186.0106 
L 800.126313 220.249934 
L 803.949977 187.409347 
L 807.773641 215.42804 
L 811.597305 215.765397 
L 815.420968 202.390719 
L 819.244632 229.510065 
L 823.068296 192.188912 
L 826.89196 208.692911 
L 830.715624 216.013684 
L 834.539287 222.594143 
L 838.362951 212.930928 
L 842.186615 191.281561 
L 846.010279 223.81898 
L 849.833942 215.149441 
L 853.657606 218.239609 
L 857.48127 197.456011 
L 861.304934 218.985154 
L 865.128598 209.863274 
L 868.952261 203.725669 
L 872.775925 199.100652 
L 876.599589 228.11575 
L 880.423253 231.910511 
L 884.246916 220.854086 
L 888.07058 208.802149 
L 891.894244 217.962439 
L 895.717908 196.667551 
L 899.541571 198.76855 
L 903.365235 208.474222 
L 907.188899 173.722728 
L 911.012563 217.729147 
L 914.836227 200.937497 
L 918.65989 195.220526 
L 922.483554 180.828217 
L 926.307218 227.209333 
L 930.130882 204.91827 
L 933.954545 233.994996 
L 933.954545 233.994996 
" clip-path="url(#p1581fe1901)" style="fill: none; stroke: #d62728; stroke-width: 1.5; stroke-linecap: square"/>
   </g>
   <g id="patch_3">
    <path d="M 135 640.8 
L 135 86.4 
" style="fill: none; stroke: #000000; stroke-width: 0.8; stroke-linejoin: miter; stroke-linecap: square"/>
   </g>
   <g id="patch_4">
    <path d="M 972 640.8 
L 972 86.4 
" style="fill: none; stroke: #000000; stroke-width: 0.8; stroke-linejoin: miter; stroke-linecap: square"/>
   </g>
   <g id="patch_5">
    <path d="M 135 640.8 
L 972 640.8 
" style="fill: none; stroke: #000000; stroke-width: 0.8; stroke-linejoin: miter; stroke-linecap: square"/>
   </g>
   <g id="patch_6">
    <path d="M 135 86.4 
L 972 86.4 
" style="fill: none; stroke: #000000; stroke-width: 0.8; stroke-linejoin: miter; stroke-linecap: square"/>
   </g>
   <g id="legend_1">
    <g id="patch_7">
     <path d="M 852.2 153.1125 
L 965 153.1125 
Q 967 153.1125 967 151.1125 
L 967 93.4 
Q 967 91.4 965 91.4 
L 852.2 91.4 
Q 850.2 91.4 850.2 93.4 
L 850.2 151.1125 
Q 850.2 153.1125 852.2 153.1125 
z
" style="fill: #ffffff; opacity: 0.8; stroke: #cccccc; stroke-linejoin: miter"/>
    </g>
    <g id="line2d_21">
     <path d="M 854.2 99.498437 
L 864.2 99.498437 
L 874.2 99.498437 
" style="fill: none; stroke: #1f77b4; stroke-width: 1.5; stroke-linecap: square"/>
    </g>
    <g id="text_19">
     <!-- Accuracy -->
     <g transform="translate(882.2 102.998437) scale(0.1 -0.1)">
      <defs>
       <path id="DejaVuSans-41" d="M 2188 4044 
L 1331 1722 
L 3047 1722 
L 2188 4044 
z
M 1831 4666 
L 2547 4666 
L 4325 0 
L 3669 0 
L 3244 1197 
L 1141 1197 
L 716 0 
L 50 0 
L 1831 4666 
z
" transform="scale(0.015625)"/>
       <path id="DejaVuSans-75" d="M 544 1381 
L 544 3500 
L 1119 3500 
L 1119 1403 
Q 1119 906 1312 657 
Q 1506 409 1894 409 
Q 2359 409 2629 706 
Q 2900 1003 2900 1516 
L 2900 3500 
L 3475 3500 
L 3475 0 
L 2900 0 
L 2900 538 
Q 2691 219 2414 64 
Q 2138 -91 1772 -91 
Q 1169 -91 856 284 
Q 544 659 544 1381 
z
M 1991 3584 
L 1991 3584 
z
" transform="scale(0.015625)"/>
       <path id="DejaVuSans-61" d="M 2194 1759 
Q 1497 1759 1228 1600 
Q 959 1441 959 1056 
Q 959 750 1161 570 
Q 1363 391 1709 391 
Q 2188 391 2477 730 
Q 2766 1069 2766 1631 
L 2766 1759 
L 2194 1759 
z
M 3341 1997 
L 3341 0 
L 2766 0 
L 2766 531 
Q 2569 213 2275 61 
Q 1981 -91 1556 -91 
Q 1019 -91 701 211 
Q 384 513 384 1019 
Q 384 1609 779 1909 
Q 1175 2209 1959 2209 
L 2766 2209 
L 2766 2266 
Q 2766 2663 2505 2880 
Q 2244 3097 1772 3097 
Q 1472 3097 1187 3025 
Q 903 2953 641 2809 
L 641 3341 
Q 956 3463 1253 3523 
Q 1550 3584 1831 3584 
Q 2591 3584 2966 3190 
Q 3341 2797 3341 1997 
z
" transform="scale(0.015625)"/>
       <path id="DejaVuSans-79" d="M 2059 -325 
Q 1816 -950 1584 -1140 
Q 1353 -1331 966 -1331 
L 506 -1331 
L 506 -850 
L 844 -850 
Q 1081 -850 1212 -737 
Q 1344 -625 1503 -206 
L 1606 56 
L 191 3500 
L 800 3500 
L 1894 763 
L 2988 3500 
L 3597 3500 
L 2059 -325 
z
" transform="scale(0.015625)"/>
      </defs>
      <use xlink:href="#DejaVuSans-41"/>
      <use xlink:href="#DejaVuSans-63" x="66.658203"/>
      <use xlink:href="#DejaVuSans-63" x="121.638672"/>
      <use xlink:href="#DejaVuSans-75" x="176.619141"/>
      <use xlink:href="#DejaVuSans-72" x="239.998047"/>
      <use xlink:href="#DejaVuSans-61" x="281.111328"/>
      <use xlink:href="#DejaVuSans-63" x="342.390625"/>
      <use xlink:href="#DejaVuSans-79" x="397.371094"/>
     </g>
    </g>
    <g id="line2d_22">
     <path d="M 854.2 114.176562 
L 864.2 114.176562 
L 874.2 114.176562 
" style="fill: none; stroke: #ff7f0e; stroke-width: 1.5; stroke-linecap: square"/>
    </g>
    <g id="text_20">
     <!-- Precision Macro' -->
     <g transform="translate(882.2 117.676562) scale(0.1 -0.1)">
      <defs>
       <path id="DejaVuSans-50" d="M 1259 4147 
L 1259 2394 
L 2053 2394 
Q 2494 2394 2734 2622 
Q 2975 2850 2975 3272 
Q 2975 3691 2734 3919 
Q 2494 4147 2053 4147 
L 1259 4147 
z
M 628 4666 
L 2053 4666 
Q 2838 4666 3239 4311 
Q 3641 3956 3641 3272 
Q 3641 2581 3239 2228 
Q 2838 1875 2053 1875 
L 1259 1875 
L 1259 0 
L 628 0 
L 628 4666 
z
" transform="scale(0.015625)"/>
       <path id="DejaVuSans-69" d="M 603 3500 
L 1178 3500 
L 1178 0 
L 603 0 
L 603 3500 
z
M 603 4863 
L 1178 4863 
L 1178 4134 
L 603 4134 
L 603 4863 
z
" transform="scale(0.015625)"/>
       <path id="DejaVuSans-6e" d="M 3513 2113 
L 3513 0 
L 2938 0 
L 2938 2094 
Q 2938 2591 2744 2837 
Q 2550 3084 2163 3084 
Q 1697 3084 1428 2787 
Q 1159 2491 1159 1978 
L 1159 0 
L 581 0 
L 581 3500 
L 1159 3500 
L 1159 2956 
Q 1366 3272 1645 3428 
Q 1925 3584 2291 3584 
Q 2894 3584 3203 3211 
Q 3513 2838 3513 2113 
z
" transform="scale(0.015625)"/>
       <path id="DejaVuSans-20" transform="scale(0.015625)"/>
       <path id="DejaVuSans-4d" d="M 628 4666 
L 1569 4666 
L 2759 1491 
L 3956 4666 
L 4897 4666 
L 4897 0 
L 4281 0 
L 4281 4097 
L 3078 897 
L 2444 897 
L 1241 4097 
L 1241 0 
L 628 0 
L 628 4666 
z
" transform="scale(0.015625)"/>
       <path id="DejaVuSans-27" d="M 1147 4666 
L 1147 2931 
L 616 2931 
L 616 4666 
L 1147 4666 
z
" transform="scale(0.015625)"/>
      </defs>
      <use xlink:href="#DejaVuSans-50"/>
      <use xlink:href="#DejaVuSans-72" x="58.552734"/>
      <use xlink:href="#DejaVuSans-65" x="97.416016"/>
      <use xlink:href="#DejaVuSans-63" x="158.939453"/>
      <use xlink:href="#DejaVuSans-69" x="213.919922"/>
      <use xlink:href="#DejaVuSans-73" x="241.703125"/>
      <use xlink:href="#DejaVuSans-69" x="293.802734"/>
      <use xlink:href="#DejaVuSans-6f" x="321.585938"/>
      <use xlink:href="#DejaVuSans-6e" x="382.767578"/>
      <use xlink:href="#DejaVuSans-20" x="446.146484"/>
      <use xlink:href="#DejaVuSans-4d" x="477.933594"/>
      <use xlink:href="#DejaVuSans-61" x="564.212891"/>
      <use xlink:href="#DejaVuSans-63" x="625.492188"/>
      <use xlink:href="#DejaVuSans-72" x="680.472656"/>
      <use xlink:href="#DejaVuSans-6f" x="719.335938"/>
      <use xlink:href="#DejaVuSans-27" x="780.517578"/>
     </g>
    </g>
    <g id="line2d_23">
     <path d="M 854.2 128.854687 
L 864.2 128.854687 
L 874.2 128.854687 
" style="fill: none; stroke: #2ca02c; stroke-width: 1.5; stroke-linecap: square"/>
    </g>
    <g id="text_21">
     <!-- Recall Macro -->
     <g transform="translate(882.2 132.354687) scale(0.1 -0.1)">
      <defs>
       <path id="DejaVuSans-52" d="M 2841 2188 
Q 3044 2119 3236 1894 
Q 3428 1669 3622 1275 
L 4263 0 
L 3584 0 
L 2988 1197 
Q 2756 1666 2539 1819 
Q 2322 1972 1947 1972 
L 1259 1972 
L 1259 0 
L 628 0 
L 628 4666 
L 2053 4666 
Q 2853 4666 3247 4331 
Q 3641 3997 3641 3322 
Q 3641 2881 3436 2590 
Q 3231 2300 2841 2188 
z
M 1259 4147 
L 1259 2491 
L 2053 2491 
Q 2509 2491 2742 2702 
Q 2975 2913 2975 3322 
Q 2975 3731 2742 3939 
Q 2509 4147 2053 4147 
L 1259 4147 
z
" transform="scale(0.015625)"/>
       <path id="DejaVuSans-6c" d="M 603 4863 
L 1178 4863 
L 1178 0 
L 603 0 
L 603 4863 
z
" transform="scale(0.015625)"/>
      </defs>
      <use xlink:href="#DejaVuSans-52"/>
      <use xlink:href="#DejaVuSans-65" x="64.982422"/>
      <use xlink:href="#DejaVuSans-63" x="126.505859"/>
      <use xlink:href="#DejaVuSans-61" x="181.486328"/>
      <use xlink:href="#DejaVuSans-6c" x="242.765625"/>
      <use xlink:href="#DejaVuSans-6c" x="270.548828"/>
      <use xlink:href="#DejaVuSans-20" x="298.332031"/>
      <use xlink:href="#DejaVuSans-4d" x="330.119141"/>
      <use xlink:href="#DejaVuSans-61" x="416.398438"/>
      <use xlink:href="#DejaVuSans-63" x="477.677734"/>
      <use xlink:href="#DejaVuSans-72" x="532.658203"/>
      <use xlink:href="#DejaVuSans-6f" x="571.521484"/>
     </g>
    </g>
    <g id="line2d_24">
     <path d="M 854.2 143.532812 
L 864.2 143.532812 
L 874.2 143.532812 
" style="fill: none; stroke: #d62728; stroke-width: 1.5; stroke-linecap: square"/>
    </g>
    <g id="text_22">
     <!-- F1 Score Macro -->
     <g transform="translate(882.2 147.032812) scale(0.1 -0.1)">
      <defs>
       <path id="DejaVuSans-46" d="M 628 4666 
L 3309 4666 
L 3309 4134 
L 1259 4134 
L 1259 2759 
L 3109 2759 
L 3109 2228 
L 1259 2228 
L 1259 0 
L 628 0 
L 628 4666 
z
" transform="scale(0.015625)"/>
       <path id="DejaVuSans-53" d="M 3425 4513 
L 3425 3897 
Q 3066 4069 2747 4153 
Q 2428 4238 2131 4238 
Q 1616 4238 1336 4038 
Q 1056 3838 1056 3469 
Q 1056 3159 1242 3001 
Q 1428 2844 1947 2747 
L 2328 2669 
Q 3034 2534 3370 2195 
Q 3706 1856 3706 1288 
Q 3706 609 3251 259 
Q 2797 -91 1919 -91 
Q 1588 -91 1214 -16 
Q 841 59 441 206 
L 441 856 
Q 825 641 1194 531 
Q 1563 422 1919 422 
Q 2459 422 2753 634 
Q 3047 847 3047 1241 
Q 3047 1584 2836 1778 
Q 2625 1972 2144 2069 
L 1759 2144 
Q 1053 2284 737 2584 
Q 422 2884 422 3419 
Q 422 4038 858 4394 
Q 1294 4750 2059 4750 
Q 2388 4750 2728 4690 
Q 3069 4631 3425 4513 
z
" transform="scale(0.015625)"/>
      </defs>
      <use xlink:href="#DejaVuSans-46"/>
      <use xlink:href="#DejaVuSans-31" x="57.519531"/>
      <use xlink:href="#DejaVuSans-20" x="121.142578"/>
      <use xlink:href="#DejaVuSans-53" x="152.929688"/>
      <use xlink:href="#DejaVuSans-63" x="216.40625"/>
      <use xlink:href="#DejaVuSans-6f" x="271.386719"/>
      <use xlink:href="#DejaVuSans-72" x="332.568359"/>
      <use xlink:href="#DejaVuSans-65" x="371.431641"/>
      <use xlink:href="#DejaVuSans-20" x="432.955078"/>
      <use xlink:href="#DejaVuSans-4d" x="464.742188"/>
      <use xlink:href="#DejaVuSans-61" x="551.021484"/>
      <use xlink:href="#DejaVuSans-63" x="612.300781"/>
      <use xlink:href="#DejaVuSans-72" x="667.28125"/>
      <use xlink:href="#DejaVuSans-6f" x="706.144531"/>
     </g>
    </g>
   </g>
  </g>
 </g>
 <defs>
  <clipPath id="p1581fe1901">
   <rect x="135" y="86.4" width="837" height="554.4"/>
  </clipPath>
 </defs>
</svg>
