<?xml version="1.0" encoding="utf-8" standalone="no"?>
<!DOCTYPE svg PUBLIC "-//W3C//DTD SVG 1.1//EN"
  "http://www.w3.org/Graphics/SVG/1.1/DTD/svg11.dtd">
<svg xmlns:xlink="http://www.w3.org/1999/xlink" width="1080pt" height="720pt" viewBox="0 0 1080 720" xmlns="http://www.w3.org/2000/svg" version="1.1">
 <metadata>
  <rdf:RDF xmlns:dc="http://purl.org/dc/elements/1.1/" xmlns:cc="http://creativecommons.org/ns#" xmlns:rdf="http://www.w3.org/1999/02/22-rdf-syntax-ns#">
   <cc:Work>
    <dc:type rdf:resource="http://purl.org/dc/dcmitype/StillImage"/>
    <dc:date>2023-11-16T16:12:13.751570</dc:date>
    <dc:format>image/svg+xml</dc:format>
    <dc:creator>
     <cc:Agent>
      <dc:title>Matplotlib v3.7.2, https://matplotlib.org/</dc:title>
     </cc:Agent>
    </dc:creator>
   </cc:Work>
  </rdf:RDF>
 </metadata>
 <defs>
  <style type="text/css">*{stroke-linejoin: round; stroke-linecap: butt}</style>
 </defs>
 <g id="figure_1">
  <g id="patch_1">
   <path d="M 0 720 
L 1080 720 
L 1080 0 
L 0 0 
z
" style="fill: #ffffff"/>
  </g>
  <g id="axes_1">
   <g id="patch_2">
    <path d="M 135 640.8 
L 972 640.8 
L 972 86.4 
L 135 86.4 
z
" style="fill: #ffffff"/>
   </g>
   <g id="matplotlib.axis_1">
    <g id="xtick_1">
     <g id="line2d_1">
      <defs>
       <path id="m923f0ae17b" d="M 0 0 
L 0 3.5 
" style="stroke: #000000; stroke-width: 0.8"/>
      </defs>
      <g>
       <use xlink:href="#m923f0ae17b" x="173.045455" y="640.8" style="stroke: #000000; stroke-width: 0.8"/>
      </g>
     </g>
     <g id="text_1">
      <!-- 0 -->
      <g transform="translate(169.864205 655.398438) scale(0.1 -0.1)">
       <defs>
        <path id="DejaVuSans-30" d="M 2034 4250 
Q 1547 4250 1301 3770 
Q 1056 3291 1056 2328 
Q 1056 1369 1301 889 
Q 1547 409 2034 409 
Q 2525 409 2770 889 
Q 3016 1369 3016 2328 
Q 3016 3291 2770 3770 
Q 2525 4250 2034 4250 
z
M 2034 4750 
Q 2819 4750 3233 4129 
Q 3647 3509 3647 2328 
Q 3647 1150 3233 529 
Q 2819 -91 2034 -91 
Q 1250 -91 836 529 
Q 422 1150 422 2328 
Q 422 3509 836 4129 
Q 1250 4750 2034 4750 
z
" transform="scale(0.015625)"/>
       </defs>
       <use xlink:href="#DejaVuSans-30"/>
      </g>
     </g>
    </g>
    <g id="xtick_2">
     <g id="line2d_2">
      <g>
       <use xlink:href="#m923f0ae17b" x="268.637049" y="640.8" style="stroke: #000000; stroke-width: 0.8"/>
      </g>
     </g>
     <g id="text_2">
      <!-- 25 -->
      <g transform="translate(262.274549 655.398438) scale(0.1 -0.1)">
       <defs>
        <path id="DejaVuSans-32" d="M 1228 531 
L 3431 531 
L 3431 0 
L 469 0 
L 469 531 
Q 828 903 1448 1529 
Q 2069 2156 2228 2338 
Q 2531 2678 2651 2914 
Q 2772 3150 2772 3378 
Q 2772 3750 2511 3984 
Q 2250 4219 1831 4219 
Q 1534 4219 1204 4116 
Q 875 4013 500 3803 
L 500 4441 
Q 881 4594 1212 4672 
Q 1544 4750 1819 4750 
Q 2544 4750 2975 4387 
Q 3406 4025 3406 3419 
Q 3406 3131 3298 2873 
Q 3191 2616 2906 2266 
Q 2828 2175 2409 1742 
Q 1991 1309 1228 531 
z
" transform="scale(0.015625)"/>
        <path id="DejaVuSans-35" d="M 691 4666 
L 3169 4666 
L 3169 4134 
L 1269 4134 
L 1269 2991 
Q 1406 3038 1543 3061 
Q 1681 3084 1819 3084 
Q 2600 3084 3056 2656 
Q 3513 2228 3513 1497 
Q 3513 744 3044 326 
Q 2575 -91 1722 -91 
Q 1428 -91 1123 -41 
Q 819 9 494 109 
L 494 744 
Q 775 591 1075 516 
Q 1375 441 1709 441 
Q 2250 441 2565 725 
Q 2881 1009 2881 1497 
Q 2881 1984 2565 2268 
Q 2250 2553 1709 2553 
Q 1456 2553 1204 2497 
Q 953 2441 691 2322 
L 691 4666 
z
" transform="scale(0.015625)"/>
       </defs>
       <use xlink:href="#DejaVuSans-32"/>
       <use xlink:href="#DejaVuSans-35" x="63.623047"/>
      </g>
     </g>
    </g>
    <g id="xtick_3">
     <g id="line2d_3">
      <g>
       <use xlink:href="#m923f0ae17b" x="364.228643" y="640.8" style="stroke: #000000; stroke-width: 0.8"/>
      </g>
     </g>
     <g id="text_3">
      <!-- 50 -->
      <g transform="translate(357.866143 655.398438) scale(0.1 -0.1)">
       <use xlink:href="#DejaVuSans-35"/>
       <use xlink:href="#DejaVuSans-30" x="63.623047"/>
      </g>
     </g>
    </g>
    <g id="xtick_4">
     <g id="line2d_4">
      <g>
       <use xlink:href="#m923f0ae17b" x="459.820238" y="640.8" style="stroke: #000000; stroke-width: 0.8"/>
      </g>
     </g>
     <g id="text_4">
      <!-- 75 -->
      <g transform="translate(453.457738 655.398438) scale(0.1 -0.1)">
       <defs>
        <path id="DejaVuSans-37" d="M 525 4666 
L 3525 4666 
L 3525 4397 
L 1831 0 
L 1172 0 
L 2766 4134 
L 525 4134 
L 525 4666 
z
" transform="scale(0.015625)"/>
       </defs>
       <use xlink:href="#DejaVuSans-37"/>
       <use xlink:href="#DejaVuSans-35" x="63.623047"/>
      </g>
     </g>
    </g>
    <g id="xtick_5">
     <g id="line2d_5">
      <g>
       <use xlink:href="#m923f0ae17b" x="555.411832" y="640.8" style="stroke: #000000; stroke-width: 0.8"/>
      </g>
     </g>
     <g id="text_5">
      <!-- 100 -->
      <g transform="translate(545.868082 655.398438) scale(0.1 -0.1)">
       <defs>
        <path id="DejaVuSans-31" d="M 794 531 
L 1825 531 
L 1825 4091 
L 703 3866 
L 703 4441 
L 1819 4666 
L 2450 4666 
L 2450 531 
L 3481 531 
L 3481 0 
L 794 0 
L 794 531 
z
" transform="scale(0.015625)"/>
       </defs>
       <use xlink:href="#DejaVuSans-31"/>
       <use xlink:href="#DejaVuSans-30" x="63.623047"/>
       <use xlink:href="#DejaVuSans-30" x="127.246094"/>
      </g>
     </g>
    </g>
    <g id="xtick_6">
     <g id="line2d_6">
      <g>
       <use xlink:href="#m923f0ae17b" x="651.003426" y="640.8" style="stroke: #000000; stroke-width: 0.8"/>
      </g>
     </g>
     <g id="text_6">
      <!-- 125 -->
      <g transform="translate(641.459676 655.398438) scale(0.1 -0.1)">
       <use xlink:href="#DejaVuSans-31"/>
       <use xlink:href="#DejaVuSans-32" x="63.623047"/>
       <use xlink:href="#DejaVuSans-35" x="127.246094"/>
      </g>
     </g>
    </g>
    <g id="xtick_7">
     <g id="line2d_7">
      <g>
       <use xlink:href="#m923f0ae17b" x="746.595021" y="640.8" style="stroke: #000000; stroke-width: 0.8"/>
      </g>
     </g>
     <g id="text_7">
      <!-- 150 -->
      <g transform="translate(737.051271 655.398438) scale(0.1 -0.1)">
       <use xlink:href="#DejaVuSans-31"/>
       <use xlink:href="#DejaVuSans-35" x="63.623047"/>
       <use xlink:href="#DejaVuSans-30" x="127.246094"/>
      </g>
     </g>
    </g>
    <g id="xtick_8">
     <g id="line2d_8">
      <g>
       <use xlink:href="#m923f0ae17b" x="842.186615" y="640.8" style="stroke: #000000; stroke-width: 0.8"/>
      </g>
     </g>
     <g id="text_8">
      <!-- 175 -->
      <g transform="translate(832.642865 655.398438) scale(0.1 -0.1)">
       <use xlink:href="#DejaVuSans-31"/>
       <use xlink:href="#DejaVuSans-37" x="63.623047"/>
       <use xlink:href="#DejaVuSans-35" x="127.246094"/>
      </g>
     </g>
    </g>
    <g id="xtick_9">
     <g id="line2d_9">
      <g>
       <use xlink:href="#m923f0ae17b" x="937.778209" y="640.8" style="stroke: #000000; stroke-width: 0.8"/>
      </g>
     </g>
     <g id="text_9">
      <!-- 200 -->
      <g transform="translate(928.234459 655.398438) scale(0.1 -0.1)">
       <use xlink:href="#DejaVuSans-32"/>
       <use xlink:href="#DejaVuSans-30" x="63.623047"/>
       <use xlink:href="#DejaVuSans-30" x="127.246094"/>
      </g>
     </g>
    </g>
    <g id="text_10">
     <!-- epoch -->
     <g transform="translate(538.271875 669.076563) scale(0.1 -0.1)">
      <defs>
       <path id="DejaVuSans-65" d="M 3597 1894 
L 3597 1613 
L 953 1613 
Q 991 1019 1311 708 
Q 1631 397 2203 397 
Q 2534 397 2845 478 
Q 3156 559 3463 722 
L 3463 178 
Q 3153 47 2828 -22 
Q 2503 -91 2169 -91 
Q 1331 -91 842 396 
Q 353 884 353 1716 
Q 353 2575 817 3079 
Q 1281 3584 2069 3584 
Q 2775 3584 3186 3129 
Q 3597 2675 3597 1894 
z
M 3022 2063 
Q 3016 2534 2758 2815 
Q 2500 3097 2075 3097 
Q 1594 3097 1305 2825 
Q 1016 2553 972 2059 
L 3022 2063 
z
" transform="scale(0.015625)"/>
       <path id="DejaVuSans-70" d="M 1159 525 
L 1159 -1331 
L 581 -1331 
L 581 3500 
L 1159 3500 
L 1159 2969 
Q 1341 3281 1617 3432 
Q 1894 3584 2278 3584 
Q 2916 3584 3314 3078 
Q 3713 2572 3713 1747 
Q 3713 922 3314 415 
Q 2916 -91 2278 -91 
Q 1894 -91 1617 61 
Q 1341 213 1159 525 
z
M 3116 1747 
Q 3116 2381 2855 2742 
Q 2594 3103 2138 3103 
Q 1681 3103 1420 2742 
Q 1159 2381 1159 1747 
Q 1159 1113 1420 752 
Q 1681 391 2138 391 
Q 2594 391 2855 752 
Q 3116 1113 3116 1747 
z
" transform="scale(0.015625)"/>
       <path id="DejaVuSans-6f" d="M 1959 3097 
Q 1497 3097 1228 2736 
Q 959 2375 959 1747 
Q 959 1119 1226 758 
Q 1494 397 1959 397 
Q 2419 397 2687 759 
Q 2956 1122 2956 1747 
Q 2956 2369 2687 2733 
Q 2419 3097 1959 3097 
z
M 1959 3584 
Q 2709 3584 3137 3096 
Q 3566 2609 3566 1747 
Q 3566 888 3137 398 
Q 2709 -91 1959 -91 
Q 1206 -91 779 398 
Q 353 888 353 1747 
Q 353 2609 779 3096 
Q 1206 3584 1959 3584 
z
" transform="scale(0.015625)"/>
       <path id="DejaVuSans-63" d="M 3122 3366 
L 3122 2828 
Q 2878 2963 2633 3030 
Q 2388 3097 2138 3097 
Q 1578 3097 1268 2742 
Q 959 2388 959 1747 
Q 959 1106 1268 751 
Q 1578 397 2138 397 
Q 2388 397 2633 464 
Q 2878 531 3122 666 
L 3122 134 
Q 2881 22 2623 -34 
Q 2366 -91 2075 -91 
Q 1284 -91 818 406 
Q 353 903 353 1747 
Q 353 2603 823 3093 
Q 1294 3584 2113 3584 
Q 2378 3584 2631 3529 
Q 2884 3475 3122 3366 
z
" transform="scale(0.015625)"/>
       <path id="DejaVuSans-68" d="M 3513 2113 
L 3513 0 
L 2938 0 
L 2938 2094 
Q 2938 2591 2744 2837 
Q 2550 3084 2163 3084 
Q 1697 3084 1428 2787 
Q 1159 2491 1159 1978 
L 1159 0 
L 581 0 
L 581 4863 
L 1159 4863 
L 1159 2956 
Q 1366 3272 1645 3428 
Q 1925 3584 2291 3584 
Q 2894 3584 3203 3211 
Q 3513 2838 3513 2113 
z
" transform="scale(0.015625)"/>
      </defs>
      <use xlink:href="#DejaVuSans-65"/>
      <use xlink:href="#DejaVuSans-70" x="61.523438"/>
      <use xlink:href="#DejaVuSans-6f" x="125"/>
      <use xlink:href="#DejaVuSans-63" x="186.181641"/>
      <use xlink:href="#DejaVuSans-68" x="241.162109"/>
     </g>
    </g>
   </g>
   <g id="matplotlib.axis_2">
    <g id="ytick_1">
     <g id="line2d_10">
      <defs>
       <path id="m7613664d9a" d="M 0 0 
L -3.5 0 
" style="stroke: #000000; stroke-width: 0.8"/>
      </defs>
      <g>
       <use xlink:href="#m7613664d9a" x="135" y="557.781818" style="stroke: #000000; stroke-width: 0.8"/>
      </g>
     </g>
     <g id="text_11">
      <!-- 0.40 -->
      <g transform="translate(105.734375 561.581037) scale(0.1 -0.1)">
       <defs>
        <path id="DejaVuSans-2e" d="M 684 794 
L 1344 794 
L 1344 0 
L 684 0 
L 684 794 
z
" transform="scale(0.015625)"/>
        <path id="DejaVuSans-34" d="M 2419 4116 
L 825 1625 
L 2419 1625 
L 2419 4116 
z
M 2253 4666 
L 3047 4666 
L 3047 1625 
L 3713 1625 
L 3713 1100 
L 3047 1100 
L 3047 0 
L 2419 0 
L 2419 1100 
L 313 1100 
L 313 1709 
L 2253 4666 
z
" transform="scale(0.015625)"/>
       </defs>
       <use xlink:href="#DejaVuSans-30"/>
       <use xlink:href="#DejaVuSans-2e" x="63.623047"/>
       <use xlink:href="#DejaVuSans-34" x="95.410156"/>
       <use xlink:href="#DejaVuSans-30" x="159.033203"/>
      </g>
     </g>
    </g>
    <g id="ytick_2">
     <g id="line2d_11">
      <g>
       <use xlink:href="#m7613664d9a" x="135" y="436.418182" style="stroke: #000000; stroke-width: 0.8"/>
      </g>
     </g>
     <g id="text_12">
      <!-- 0.45 -->
      <g transform="translate(105.734375 440.217401) scale(0.1 -0.1)">
       <use xlink:href="#DejaVuSans-30"/>
       <use xlink:href="#DejaVuSans-2e" x="63.623047"/>
       <use xlink:href="#DejaVuSans-34" x="95.410156"/>
       <use xlink:href="#DejaVuSans-35" x="159.033203"/>
      </g>
     </g>
    </g>
    <g id="ytick_3">
     <g id="line2d_12">
      <g>
       <use xlink:href="#m7613664d9a" x="135" y="315.054545" style="stroke: #000000; stroke-width: 0.8"/>
      </g>
     </g>
     <g id="text_13">
      <!-- 0.50 -->
      <g transform="translate(105.734375 318.853764) scale(0.1 -0.1)">
       <use xlink:href="#DejaVuSans-30"/>
       <use xlink:href="#DejaVuSans-2e" x="63.623047"/>
       <use xlink:href="#DejaVuSans-35" x="95.410156"/>
       <use xlink:href="#DejaVuSans-30" x="159.033203"/>
      </g>
     </g>
    </g>
    <g id="ytick_4">
     <g id="line2d_13">
      <g>
       <use xlink:href="#m7613664d9a" x="135" y="193.690909" style="stroke: #000000; stroke-width: 0.8"/>
      </g>
     </g>
     <g id="text_14">
      <!-- 0.55 -->
      <g transform="translate(105.734375 197.490128) scale(0.1 -0.1)">
       <use xlink:href="#DejaVuSans-30"/>
       <use xlink:href="#DejaVuSans-2e" x="63.623047"/>
       <use xlink:href="#DejaVuSans-35" x="95.410156"/>
       <use xlink:href="#DejaVuSans-35" x="159.033203"/>
      </g>
     </g>
    </g>
    <g id="text_15">
     <!-- score -->
     <g transform="translate(99.654687 377.032812) rotate(-90) scale(0.1 -0.1)">
      <defs>
       <path id="DejaVuSans-73" d="M 2834 3397 
L 2834 2853 
Q 2591 2978 2328 3040 
Q 2066 3103 1784 3103 
Q 1356 3103 1142 2972 
Q 928 2841 928 2578 
Q 928 2378 1081 2264 
Q 1234 2150 1697 2047 
L 1894 2003 
Q 2506 1872 2764 1633 
Q 3022 1394 3022 966 
Q 3022 478 2636 193 
Q 2250 -91 1575 -91 
Q 1294 -91 989 -36 
Q 684 19 347 128 
L 347 722 
Q 666 556 975 473 
Q 1284 391 1588 391 
Q 1994 391 2212 530 
Q 2431 669 2431 922 
Q 2431 1156 2273 1281 
Q 2116 1406 1581 1522 
L 1381 1569 
Q 847 1681 609 1914 
Q 372 2147 372 2553 
Q 372 3047 722 3315 
Q 1072 3584 1716 3584 
Q 2034 3584 2315 3537 
Q 2597 3491 2834 3397 
z
" transform="scale(0.015625)"/>
       <path id="DejaVuSans-72" d="M 2631 2963 
Q 2534 3019 2420 3045 
Q 2306 3072 2169 3072 
Q 1681 3072 1420 2755 
Q 1159 2438 1159 1844 
L 1159 0 
L 581 0 
L 581 3500 
L 1159 3500 
L 1159 2956 
Q 1341 3275 1631 3429 
Q 1922 3584 2338 3584 
Q 2397 3584 2469 3576 
Q 2541 3569 2628 3553 
L 2631 2963 
z
" transform="scale(0.015625)"/>
      </defs>
      <use xlink:href="#DejaVuSans-73"/>
      <use xlink:href="#DejaVuSans-63" x="52.099609"/>
      <use xlink:href="#DejaVuSans-6f" x="107.080078"/>
      <use xlink:href="#DejaVuSans-72" x="168.261719"/>
      <use xlink:href="#DejaVuSans-65" x="207.125"/>
     </g>
    </g>
   </g>
   <g id="line2d_14">
    <path d="M 173.045455 576.327273 
L 176.869118 615.6 
L 180.692782 546.872727 
L 184.516446 415.963636 
L 188.34011 370.145455 
L 192.163773 366.872727 
L 195.987437 330.872727 
L 199.811101 474.872727 
L 203.634765 377.781818 
L 207.458429 293.781818 
L 211.282092 287.236364 
L 215.105756 269.781818 
L 218.92942 505.418182 
L 222.753084 273.054545 
L 226.576747 286.145455 
L 230.400411 175.963636 
L 234.224075 345.054545 
L 238.047739 310.145455 
L 241.871402 229.418182 
L 245.695066 168.327273 
L 249.51873 150.872727 
L 253.342394 225.054545 
L 257.166058 168.327273 
L 260.989721 226.145455 
L 264.813385 187.963636 
L 268.637049 168.327273 
L 272.460713 161.781818 
L 276.284376 178.145455 
L 280.10804 231.6 
L 283.931704 151.963636 
L 287.755368 202.145455 
L 291.579032 147.6 
L 295.402695 144.327273 
L 299.226359 174.872727 
L 303.050023 145.418182 
L 306.873687 132.327273 
L 310.69735 153.054545 
L 314.521014 111.6 
L 318.344678 217.418182 
L 322.168342 214.145455 
L 325.992005 131.236364 
L 329.815669 167.236364 
L 333.639333 190.145455 
L 337.462997 286.145455 
L 341.286661 183.6 
L 345.110324 130.145455 
L 348.933988 166.145455 
L 352.757652 220.690909 
L 356.581316 144.327273 
L 360.404979 160.690909 
L 364.228643 130.145455 
L 368.052307 239.236364 
L 371.875971 158.509091 
L 375.699635 187.963636 
L 379.523298 259.963636 
L 383.346962 174.872727 
L 387.170626 204.327273 
L 390.99429 180.327273 
L 394.817953 275.236364 
L 398.641617 174.872727 
L 402.465281 131.236364 
L 406.288945 119.236364 
L 410.112608 183.6 
L 413.936272 161.781818 
L 417.759936 187.963636 
L 421.5836 142.145455 
L 425.407264 228.327273 
L 429.230927 191.236364 
L 433.054591 155.236364 
L 436.878255 155.236364 
L 440.701919 141.054545 
L 444.525582 170.509091 
L 448.349246 161.781818 
L 452.17291 173.781818 
L 455.996574 124.690909 
L 459.820238 170.509091 
L 463.643901 148.690909 
L 467.467565 146.509091 
L 471.291229 132.327273 
L 475.114893 203.236364 
L 478.938556 141.054545 
L 482.76222 115.963636 
L 486.585884 155.236364 
L 490.409548 149.781818 
L 494.233212 153.054545 
L 498.056875 195.6 
L 501.880539 159.6 
L 505.704203 205.418182 
L 509.527867 158.509091 
L 513.35153 172.690909 
L 517.175194 170.509091 
L 520.998858 144.327273 
L 524.822522 192.327273 
L 528.646185 160.690909 
L 532.469849 127.963636 
L 536.293513 125.781818 
L 540.117177 169.418182 
L 543.940841 153.054545 
L 547.764504 166.145455 
L 551.588168 150.872727 
L 555.411832 196.690909 
L 559.235496 159.6 
L 563.059159 147.6 
L 566.882823 142.145455 
L 570.706487 167.236364 
L 574.530151 154.145455 
L 578.353815 127.963636 
L 582.177478 159.6 
L 586.001142 201.054545 
L 589.824806 189.054545 
L 593.64847 118.145455 
L 597.472133 144.327273 
L 601.295797 173.781818 
L 605.119461 161.781818 
L 608.943125 179.236364 
L 612.766788 144.327273 
L 616.590452 165.054545 
L 620.414116 162.872727 
L 624.23778 150.872727 
L 628.061444 184.690909 
L 631.885107 156.327273 
L 635.708771 146.509091 
L 639.532435 149.781818 
L 643.356099 135.6 
L 647.179762 174.872727 
L 651.003426 185.781818 
L 654.82709 159.6 
L 658.650754 141.054545 
L 662.474418 147.6 
L 666.298081 142.145455 
L 670.121745 165.054545 
L 673.945409 148.690909 
L 677.769073 189.054545 
L 681.592736 153.054545 
L 685.4164 127.963636 
L 689.240064 202.145455 
L 693.063728 168.327273 
L 696.887392 156.327273 
L 700.711055 163.963636 
L 704.534719 125.781818 
L 708.358383 145.418182 
L 712.182047 136.690909 
L 716.00571 167.236364 
L 719.829374 145.418182 
L 723.653038 156.327273 
L 727.476702 189.054545 
L 731.300365 141.054545 
L 735.124029 160.690909 
L 738.947693 144.327273 
L 742.771357 172.690909 
L 746.595021 168.327273 
L 750.418684 177.054545 
L 754.242348 191.236364 
L 758.066012 127.963636 
L 761.889676 157.418182 
L 765.713339 132.327273 
L 769.537003 155.236364 
L 773.360667 149.781818 
L 777.184331 147.6 
L 781.007995 179.236364 
L 784.831658 169.418182 
L 788.655322 183.6 
L 792.478986 115.963636 
L 796.30265 147.6 
L 800.126313 166.145455 
L 803.949977 133.418182 
L 807.773641 161.781818 
L 811.597305 147.6 
L 815.420968 148.690909 
L 819.244632 211.963636 
L 823.068296 134.509091 
L 826.89196 173.781818 
L 830.715624 175.963636 
L 834.539287 187.963636 
L 838.362951 177.054545 
L 842.186615 148.690909 
L 846.010279 190.145455 
L 849.833942 190.145455 
L 853.657606 168.327273 
L 857.48127 167.236364 
L 865.128598 195.6 
L 868.952261 157.418182 
L 872.775925 154.145455 
L 876.599589 197.781818 
L 880.423253 182.509091 
L 884.246916 192.327273 
L 888.07058 161.781818 
L 891.894244 197.781818 
L 895.717908 160.690909 
L 899.541571 158.509091 
L 903.365235 171.6 
L 907.188899 113.781818 
L 911.012563 157.418182 
L 914.836227 148.690909 
L 918.65989 148.690909 
L 922.483554 115.963636 
L 926.307218 205.418182 
L 930.130882 154.145455 
L 933.954545 206.509091 
L 933.954545 206.509091 
" clip-path="url(#p037b382d43)" style="fill: none; stroke: #1f77b4; stroke-width: 1.5; stroke-linecap: square"/>
   </g>
   <g id="line2d_15">
    <path d="M 173.045455 576.327273 
L 176.869118 615.6 
L 180.692782 546.872727 
L 184.516446 415.963636 
L 188.34011 370.145455 
L 192.163773 366.872727 
L 195.987437 330.872727 
L 199.811101 474.872727 
L 203.634765 377.781818 
L 207.458429 293.781818 
L 211.282092 287.236364 
L 215.105756 269.781818 
L 218.92942 505.418182 
L 222.753084 273.054545 
L 226.576747 286.145455 
L 230.400411 175.963636 
L 234.224075 345.054545 
L 238.047739 310.145455 
L 241.871402 229.418182 
L 245.695066 168.327273 
L 249.51873 150.872727 
L 253.342394 225.054545 
L 257.166058 168.327273 
L 260.989721 226.145455 
L 264.813385 187.963636 
L 268.637049 168.327273 
L 272.460713 161.781818 
L 276.284376 178.145455 
L 280.10804 231.6 
L 283.931704 151.963636 
L 287.755368 202.145455 
L 291.579032 147.6 
L 295.402695 144.327273 
L 299.226359 174.872727 
L 303.050023 145.418182 
L 306.873687 132.327273 
L 310.69735 153.054545 
L 314.521014 111.6 
L 318.344678 217.418182 
L 322.168342 214.145455 
L 325.992005 131.236364 
L 329.815669 167.236364 
L 333.639333 190.145455 
L 337.462997 286.145455 
L 341.286661 183.6 
L 345.110324 130.145455 
L 348.933988 166.145455 
L 352.757652 220.690909 
L 356.581316 144.327273 
L 360.404979 160.690909 
L 364.228643 130.145455 
L 368.052307 239.236364 
L 371.875971 158.509091 
L 375.699635 187.963636 
L 379.523298 259.963636 
L 383.346962 174.872727 
L 387.170626 204.327273 
L 390.99429 180.327273 
L 394.817953 275.236364 
L 398.641617 174.872727 
L 402.465281 131.236364 
L 406.288945 119.236364 
L 410.112608 183.6 
L 413.936272 161.781818 
L 417.759936 187.963636 
L 421.5836 142.145455 
L 425.407264 228.327273 
L 429.230927 191.236364 
L 433.054591 155.236364 
L 436.878255 155.236364 
L 440.701919 141.054545 
L 444.525582 170.509091 
L 448.349246 161.781818 
L 452.17291 173.781818 
L 455.996574 124.690909 
L 459.820238 170.509091 
L 463.643901 148.690909 
L 467.467565 146.509091 
L 471.291229 132.327273 
L 475.114893 203.236364 
L 478.938556 141.054545 
L 482.76222 115.963636 
L 486.585884 155.236364 
L 490.409548 149.781818 
L 494.233212 153.054545 
L 498.056875 195.6 
L 501.880539 159.6 
L 505.704203 205.418182 
L 509.527867 158.509091 
L 513.35153 172.690909 
L 517.175194 170.509091 
L 520.998858 144.327273 
L 524.822522 192.327273 
L 528.646185 160.690909 
L 532.469849 127.963636 
L 536.293513 125.781818 
L 540.117177 169.418182 
L 543.940841 153.054545 
L 547.764504 166.145455 
L 551.588168 150.872727 
L 555.411832 196.690909 
L 559.235496 159.6 
L 563.059159 147.6 
L 566.882823 142.145455 
L 570.706487 167.236364 
L 574.530151 154.145455 
L 578.353815 127.963636 
L 582.177478 159.6 
L 586.001142 201.054545 
L 589.824806 189.054545 
L 593.64847 118.145455 
L 597.472133 144.327273 
L 601.295797 173.781818 
L 605.119461 161.781818 
L 608.943125 179.236364 
L 612.766788 144.327273 
L 616.590452 165.054545 
L 620.414116 162.872727 
L 624.23778 150.872727 
L 628.061444 184.690909 
L 631.885107 156.327273 
L 635.708771 146.509091 
L 639.532435 149.781818 
L 643.356099 135.6 
L 647.179762 174.872727 
L 651.003426 185.781818 
L 654.82709 159.6 
L 658.650754 141.054545 
L 662.474418 147.6 
L 666.298081 142.145455 
L 670.121745 165.054545 
L 673.945409 148.690909 
L 677.769073 189.054545 
L 681.592736 153.054545 
L 685.4164 127.963636 
L 689.240064 202.145455 
L 693.063728 168.327273 
L 696.887392 156.327273 
L 700.711055 163.963636 
L 704.534719 125.781818 
L 708.358383 145.418182 
L 712.182047 136.690909 
L 716.00571 167.236364 
L 719.829374 145.418182 
L 723.653038 156.327273 
L 727.476702 189.054545 
L 731.300365 141.054545 
L 735.124029 160.690909 
L 738.947693 144.327273 
L 742.771357 172.690909 
L 746.595021 168.327273 
L 750.418684 177.054545 
L 754.242348 191.236364 
L 758.066012 127.963636 
L 761.889676 157.418182 
L 765.713339 132.327273 
L 769.537003 155.236364 
L 773.360667 149.781818 
L 777.184331 147.6 
L 781.007995 179.236364 
L 784.831658 169.418182 
L 788.655322 183.6 
L 792.478986 115.963636 
L 796.30265 147.6 
L 800.126313 166.145455 
L 803.949977 133.418182 
L 807.773641 161.781818 
L 811.597305 147.6 
L 815.420968 148.690909 
L 819.244632 211.963636 
L 823.068296 134.509091 
L 826.89196 173.781818 
L 830.715624 175.963636 
L 834.539287 187.963636 
L 838.362951 177.054545 
L 842.186615 148.690909 
L 846.010279 190.145455 
L 849.833942 190.145455 
L 853.657606 168.327273 
L 857.48127 167.236364 
L 865.128598 195.6 
L 868.952261 157.418182 
L 872.775925 154.145455 
L 876.599589 197.781818 
L 880.423253 182.509091 
L 884.246916 192.327273 
L 888.07058 161.781818 
L 891.894244 197.781818 
L 895.717908 160.690909 
L 899.541571 158.509091 
L 903.365235 171.6 
L 907.188899 113.781818 
L 911.012563 157.418182 
L 914.836227 148.690909 
L 918.65989 148.690909 
L 922.483554 115.963636 
L 926.307218 205.418182 
L 930.130882 154.145455 
L 933.954545 206.509091 
L 933.954545 206.509091 
" clip-path="url(#p037b382d43)" style="fill: none; stroke: #ff7f0e; stroke-width: 1.5; stroke-linecap: square"/>
   </g>
   <g id="line2d_16">
    <path d="M 173.045455 576.327273 
L 176.869118 615.6 
L 180.692782 546.872727 
L 184.516446 415.963636 
L 188.34011 370.145455 
L 192.163773 366.872727 
L 195.987437 330.872727 
L 199.811101 474.872727 
L 203.634765 377.781818 
L 207.458429 293.781818 
L 211.282092 287.236364 
L 215.105756 269.781818 
L 218.92942 505.418182 
L 222.753084 273.054545 
L 226.576747 286.145455 
L 230.400411 175.963636 
L 234.224075 345.054545 
L 238.047739 310.145455 
L 241.871402 229.418182 
L 245.695066 168.327273 
L 249.51873 150.872727 
L 253.342394 225.054545 
L 257.166058 168.327273 
L 260.989721 226.145455 
L 264.813385 187.963636 
L 268.637049 168.327273 
L 272.460713 161.781818 
L 276.284376 178.145455 
L 280.10804 231.6 
L 283.931704 151.963636 
L 287.755368 202.145455 
L 291.579032 147.6 
L 295.402695 144.327273 
L 299.226359 174.872727 
L 303.050023 145.418182 
L 306.873687 132.327273 
L 310.69735 153.054545 
L 314.521014 111.6 
L 318.344678 217.418182 
L 322.168342 214.145455 
L 325.992005 131.236364 
L 329.815669 167.236364 
L 333.639333 190.145455 
L 337.462997 286.145455 
L 341.286661 183.6 
L 345.110324 130.145455 
L 348.933988 166.145455 
L 352.757652 220.690909 
L 356.581316 144.327273 
L 360.404979 160.690909 
L 364.228643 130.145455 
L 368.052307 239.236364 
L 371.875971 158.509091 
L 375.699635 187.963636 
L 379.523298 259.963636 
L 383.346962 174.872727 
L 387.170626 204.327273 
L 390.99429 180.327273 
L 394.817953 275.236364 
L 398.641617 174.872727 
L 402.465281 131.236364 
L 406.288945 119.236364 
L 410.112608 183.6 
L 413.936272 161.781818 
L 417.759936 187.963636 
L 421.5836 142.145455 
L 425.407264 228.327273 
L 429.230927 191.236364 
L 433.054591 155.236364 
L 436.878255 155.236364 
L 440.701919 141.054545 
L 444.525582 170.509091 
L 448.349246 161.781818 
L 452.17291 173.781818 
L 455.996574 124.690909 
L 459.820238 170.509091 
L 463.643901 148.690909 
L 467.467565 146.509091 
L 471.291229 132.327273 
L 475.114893 203.236364 
L 478.938556 141.054545 
L 482.76222 115.963636 
L 486.585884 155.236364 
L 490.409548 149.781818 
L 494.233212 153.054545 
L 498.056875 195.6 
L 501.880539 159.6 
L 505.704203 205.418182 
L 509.527867 158.509091 
L 513.35153 172.690909 
L 517.175194 170.509091 
L 520.998858 144.327273 
L 524.822522 192.327273 
L 528.646185 160.690909 
L 532.469849 127.963636 
L 536.293513 125.781818 
L 540.117177 169.418182 
L 543.940841 153.054545 
L 547.764504 166.145455 
L 551.588168 150.872727 
L 555.411832 196.690909 
L 559.235496 159.6 
L 563.059159 147.6 
L 566.882823 142.145455 
L 570.706487 167.236364 
L 574.530151 154.145455 
L 578.353815 127.963636 
L 582.177478 159.6 
L 586.001142 201.054545 
L 589.824806 189.054545 
L 593.64847 118.145455 
L 597.472133 144.327273 
L 601.295797 173.781818 
L 605.119461 161.781818 
L 608.943125 179.236364 
L 612.766788 144.327273 
L 616.590452 165.054545 
L 620.414116 162.872727 
L 624.23778 150.872727 
L 628.061444 184.690909 
L 631.885107 156.327273 
L 635.708771 146.509091 
L 639.532435 149.781818 
L 643.356099 135.6 
L 647.179762 174.872727 
L 651.003426 185.781818 
L 654.82709 159.6 
L 658.650754 141.054545 
L 662.474418 147.6 
L 666.298081 142.145455 
L 670.121745 165.054545 
L 673.945409 148.690909 
L 677.769073 189.054545 
L 681.592736 153.054545 
L 685.4164 127.963636 
L 689.240064 202.145455 
L 693.063728 168.327273 
L 696.887392 156.327273 
L 700.711055 163.963636 
L 704.534719 125.781818 
L 708.358383 145.418182 
L 712.182047 136.690909 
L 716.00571 167.236364 
L 719.829374 145.418182 
L 723.653038 156.327273 
L 727.476702 189.054545 
L 731.300365 141.054545 
L 735.124029 160.690909 
L 738.947693 144.327273 
L 742.771357 172.690909 
L 746.595021 168.327273 
L 750.418684 177.054545 
L 754.242348 191.236364 
L 758.066012 127.963636 
L 761.889676 157.418182 
L 765.713339 132.327273 
L 769.537003 155.236364 
L 773.360667 149.781818 
L 777.184331 147.6 
L 781.007995 179.236364 
L 784.831658 169.418182 
L 788.655322 183.6 
L 792.478986 115.963636 
L 796.30265 147.6 
L 800.126313 166.145455 
L 803.949977 133.418182 
L 807.773641 161.781818 
L 811.597305 147.6 
L 815.420968 148.690909 
L 819.244632 211.963636 
L 823.068296 134.509091 
L 826.89196 173.781818 
L 830.715624 175.963636 
L 834.539287 187.963636 
L 838.362951 177.054545 
L 842.186615 148.690909 
L 846.010279 190.145455 
L 849.833942 190.145455 
L 853.657606 168.327273 
L 857.48127 167.236364 
L 865.128598 195.6 
L 868.952261 157.418182 
L 872.775925 154.145455 
L 876.599589 197.781818 
L 880.423253 182.509091 
L 884.246916 192.327273 
L 888.07058 161.781818 
L 891.894244 197.781818 
L 895.717908 160.690909 
L 899.541571 158.509091 
L 903.365235 171.6 
L 907.188899 113.781818 
L 911.012563 157.418182 
L 914.836227 148.690909 
L 918.65989 148.690909 
L 922.483554 115.963636 
L 926.307218 205.418182 
L 930.130882 154.145455 
L 933.954545 206.509091 
L 933.954545 206.509091 
" clip-path="url(#p037b382d43)" style="fill: none; stroke: #2ca02c; stroke-width: 1.5; stroke-linecap: square"/>
   </g>
   <g id="line2d_17">
    <path d="M 173.045455 576.327273 
L 176.869118 615.6 
L 180.692782 546.872727 
L 184.516446 415.963636 
L 188.34011 370.145455 
L 192.163773 366.872727 
L 195.987437 330.872727 
L 199.811101 474.872727 
L 203.634765 377.781818 
L 207.458429 293.781818 
L 211.282092 287.236364 
L 215.105756 269.781818 
L 218.92942 505.418182 
L 222.753084 273.054545 
L 226.576747 286.145455 
L 230.400411 175.963636 
L 234.224075 345.054545 
L 238.047739 310.145455 
L 241.871402 229.418182 
L 245.695066 168.327273 
L 249.51873 150.872727 
L 253.342394 225.054545 
L 257.166058 168.327273 
L 260.989721 226.145455 
L 264.813385 187.963636 
L 268.637049 168.327273 
L 272.460713 161.781818 
L 276.284376 178.145455 
L 280.10804 231.6 
L 283.931704 151.963636 
L 287.755368 202.145455 
L 291.579032 147.6 
L 295.402695 144.327273 
L 299.226359 174.872727 
L 303.050023 145.418182 
L 306.873687 132.327273 
L 310.69735 153.054545 
L 314.521014 111.6 
L 318.344678 217.418182 
L 322.168342 214.145455 
L 325.992005 131.236364 
L 329.815669 167.236364 
L 333.639333 190.145455 
L 337.462997 286.145455 
L 341.286661 183.6 
L 345.110324 130.145455 
L 348.933988 166.145455 
L 352.757652 220.690909 
L 356.581316 144.327273 
L 360.404979 160.690909 
L 364.228643 130.145455 
L 368.052307 239.236364 
L 371.875971 158.509091 
L 375.699635 187.963636 
L 379.523298 259.963636 
L 383.346962 174.872727 
L 387.170626 204.327273 
L 390.99429 180.327273 
L 394.817953 275.236364 
L 398.641617 174.872727 
L 402.465281 131.236364 
L 406.288945 119.236364 
L 410.112608 183.6 
L 413.936272 161.781818 
L 417.759936 187.963636 
L 421.5836 142.145455 
L 425.407264 228.327273 
L 429.230927 191.236364 
L 433.054591 155.236364 
L 436.878255 155.236364 
L 440.701919 141.054545 
L 444.525582 170.509091 
L 448.349246 161.781818 
L 452.17291 173.781818 
L 455.996574 124.690909 
L 459.820238 170.509091 
L 463.643901 148.690909 
L 467.467565 146.509091 
L 471.291229 132.327273 
L 475.114893 203.236364 
L 478.938556 141.054545 
L 482.76222 115.963636 
L 486.585884 155.236364 
L 490.409548 149.781818 
L 494.233212 153.054545 
L 498.056875 195.6 
L 501.880539 159.6 
L 505.704203 205.418182 
L 509.527867 158.509091 
L 513.35153 172.690909 
L 517.175194 170.509091 
L 520.998858 144.327273 
L 524.822522 192.327273 
L 528.646185 160.690909 
L 532.469849 127.963636 
L 536.293513 125.781818 
L 540.117177 169.418182 
L 543.940841 153.054545 
L 547.764504 166.145455 
L 551.588168 150.872727 
L 555.411832 196.690909 
L 559.235496 159.6 
L 563.059159 147.6 
L 566.882823 142.145455 
L 570.706487 167.236364 
L 574.530151 154.145455 
L 578.353815 127.963636 
L 582.177478 159.6 
L 586.001142 201.054545 
L 589.824806 189.054545 
L 593.64847 118.145455 
L 597.472133 144.327273 
L 601.295797 173.781818 
L 605.119461 161.781818 
L 608.943125 179.236364 
L 612.766788 144.327273 
L 616.590452 165.054545 
L 620.414116 162.872727 
L 624.23778 150.872727 
L 628.061444 184.690909 
L 631.885107 156.327273 
L 635.708771 146.509091 
L 639.532435 149.781818 
L 643.356099 135.6 
L 647.179762 174.872727 
L 651.003426 185.781818 
L 654.82709 159.6 
L 658.650754 141.054545 
L 662.474418 147.6 
L 666.298081 142.145455 
L 670.121745 165.054545 
L 673.945409 148.690909 
L 677.769073 189.054545 
L 681.592736 153.054545 
L 685.4164 127.963636 
L 689.240064 202.145455 
L 693.063728 168.327273 
L 696.887392 156.327273 
L 700.711055 163.963636 
L 704.534719 125.781818 
L 708.358383 145.418182 
L 712.182047 136.690909 
L 716.00571 167.236364 
L 719.829374 145.418182 
L 723.653038 156.327273 
L 727.476702 189.054545 
L 731.300365 141.054545 
L 735.124029 160.690909 
L 738.947693 144.327273 
L 742.771357 172.690909 
L 746.595021 168.327273 
L 750.418684 177.054545 
L 754.242348 191.236364 
L 758.066012 127.963636 
L 761.889676 157.418182 
L 765.713339 132.327273 
L 769.537003 155.236364 
L 773.360667 149.781818 
L 777.184331 147.6 
L 781.007995 179.236364 
L 784.831658 169.418182 
L 788.655322 183.6 
L 792.478986 115.963636 
L 796.30265 147.6 
L 800.126313 166.145455 
L 803.949977 133.418182 
L 807.773641 161.781818 
L 811.597305 147.6 
L 815.420968 148.690909 
L 819.244632 211.963636 
L 823.068296 134.509091 
L 826.89196 173.781818 
L 830.715624 175.963636 
L 834.539287 187.963636 
L 838.362951 177.054545 
L 842.186615 148.690909 
L 846.010279 190.145455 
L 849.833942 190.145455 
L 853.657606 168.327273 
L 857.48127 167.236364 
L 865.128598 195.6 
L 868.952261 157.418182 
L 872.775925 154.145455 
L 876.599589 197.781818 
L 880.423253 182.509091 
L 884.246916 192.327273 
L 888.07058 161.781818 
L 891.894244 197.781818 
L 895.717908 160.690909 
L 899.541571 158.509091 
L 903.365235 171.6 
L 907.188899 113.781818 
L 911.012563 157.418182 
L 914.836227 148.690909 
L 918.65989 148.690909 
L 922.483554 115.963636 
L 926.307218 205.418182 
L 930.130882 154.145455 
L 933.954545 206.509091 
L 933.954545 206.509091 
" clip-path="url(#p037b382d43)" style="fill: none; stroke: #d62728; stroke-width: 1.5; stroke-linecap: square"/>
   </g>
   <g id="patch_3">
    <path d="M 135 640.8 
L 135 86.4 
" style="fill: none; stroke: #000000; stroke-width: 0.8; stroke-linejoin: miter; stroke-linecap: square"/>
   </g>
   <g id="patch_4">
    <path d="M 972 640.8 
L 972 86.4 
" style="fill: none; stroke: #000000; stroke-width: 0.8; stroke-linejoin: miter; stroke-linecap: square"/>
   </g>
   <g id="patch_5">
    <path d="M 135 640.8 
L 972 640.8 
" style="fill: none; stroke: #000000; stroke-width: 0.8; stroke-linejoin: miter; stroke-linecap: square"/>
   </g>
   <g id="patch_6">
    <path d="M 135 86.4 
L 972 86.4 
" style="fill: none; stroke: #000000; stroke-width: 0.8; stroke-linejoin: miter; stroke-linecap: square"/>
   </g>
   <g id="legend_1">
    <g id="patch_7">
     <path d="M 855.55 635.8 
L 965 635.8 
Q 967 635.8 967 633.8 
L 967 576.0875 
Q 967 574.0875 965 574.0875 
L 855.55 574.0875 
Q 853.55 574.0875 853.55 576.0875 
L 853.55 633.8 
Q 853.55 635.8 855.55 635.8 
z
" style="fill: #ffffff; opacity: 0.8; stroke: #cccccc; stroke-linejoin: miter"/>
    </g>
    <g id="line2d_18">
     <path d="M 857.55 582.185938 
L 867.55 582.185938 
L 877.55 582.185938 
" style="fill: none; stroke: #1f77b4; stroke-width: 1.5; stroke-linecap: square"/>
    </g>
    <g id="text_16">
     <!-- Accuracy -->
     <g transform="translate(885.55 585.685938) scale(0.1 -0.1)">
      <defs>
       <path id="DejaVuSans-41" d="M 2188 4044 
L 1331 1722 
L 3047 1722 
L 2188 4044 
z
M 1831 4666 
L 2547 4666 
L 4325 0 
L 3669 0 
L 3244 1197 
L 1141 1197 
L 716 0 
L 50 0 
L 1831 4666 
z
" transform="scale(0.015625)"/>
       <path id="DejaVuSans-75" d="M 544 1381 
L 544 3500 
L 1119 3500 
L 1119 1403 
Q 1119 906 1312 657 
Q 1506 409 1894 409 
Q 2359 409 2629 706 
Q 2900 1003 2900 1516 
L 2900 3500 
L 3475 3500 
L 3475 0 
L 2900 0 
L 2900 538 
Q 2691 219 2414 64 
Q 2138 -91 1772 -91 
Q 1169 -91 856 284 
Q 544 659 544 1381 
z
M 1991 3584 
L 1991 3584 
z
" transform="scale(0.015625)"/>
       <path id="DejaVuSans-61" d="M 2194 1759 
Q 1497 1759 1228 1600 
Q 959 1441 959 1056 
Q 959 750 1161 570 
Q 1363 391 1709 391 
Q 2188 391 2477 730 
Q 2766 1069 2766 1631 
L 2766 1759 
L 2194 1759 
z
M 3341 1997 
L 3341 0 
L 2766 0 
L 2766 531 
Q 2569 213 2275 61 
Q 1981 -91 1556 -91 
Q 1019 -91 701 211 
Q 384 513 384 1019 
Q 384 1609 779 1909 
Q 1175 2209 1959 2209 
L 2766 2209 
L 2766 2266 
Q 2766 2663 2505 2880 
Q 2244 3097 1772 3097 
Q 1472 3097 1187 3025 
Q 903 2953 641 2809 
L 641 3341 
Q 956 3463 1253 3523 
Q 1550 3584 1831 3584 
Q 2591 3584 2966 3190 
Q 3341 2797 3341 1997 
z
" transform="scale(0.015625)"/>
       <path id="DejaVuSans-79" d="M 2059 -325 
Q 1816 -950 1584 -1140 
Q 1353 -1331 966 -1331 
L 506 -1331 
L 506 -850 
L 844 -850 
Q 1081 -850 1212 -737 
Q 1344 -625 1503 -206 
L 1606 56 
L 191 3500 
L 800 3500 
L 1894 763 
L 2988 3500 
L 3597 3500 
L 2059 -325 
z
" transform="scale(0.015625)"/>
      </defs>
      <use xlink:href="#DejaVuSans-41"/>
      <use xlink:href="#DejaVuSans-63" x="66.658203"/>
      <use xlink:href="#DejaVuSans-63" x="121.638672"/>
      <use xlink:href="#DejaVuSans-75" x="176.619141"/>
      <use xlink:href="#DejaVuSans-72" x="239.998047"/>
      <use xlink:href="#DejaVuSans-61" x="281.111328"/>
      <use xlink:href="#DejaVuSans-63" x="342.390625"/>
      <use xlink:href="#DejaVuSans-79" x="397.371094"/>
     </g>
    </g>
    <g id="line2d_19">
     <path d="M 857.55 596.864063 
L 867.55 596.864063 
L 877.55 596.864063 
" style="fill: none; stroke: #ff7f0e; stroke-width: 1.5; stroke-linecap: square"/>
    </g>
    <g id="text_17">
     <!-- Precision Micro' -->
     <g transform="translate(885.55 600.364063) scale(0.1 -0.1)">
      <defs>
       <path id="DejaVuSans-50" d="M 1259 4147 
L 1259 2394 
L 2053 2394 
Q 2494 2394 2734 2622 
Q 2975 2850 2975 3272 
Q 2975 3691 2734 3919 
Q 2494 4147 2053 4147 
L 1259 4147 
z
M 628 4666 
L 2053 4666 
Q 2838 4666 3239 4311 
Q 3641 3956 3641 3272 
Q 3641 2581 3239 2228 
Q 2838 1875 2053 1875 
L 1259 1875 
L 1259 0 
L 628 0 
L 628 4666 
z
" transform="scale(0.015625)"/>
       <path id="DejaVuSans-69" d="M 603 3500 
L 1178 3500 
L 1178 0 
L 603 0 
L 603 3500 
z
M 603 4863 
L 1178 4863 
L 1178 4134 
L 603 4134 
L 603 4863 
z
" transform="scale(0.015625)"/>
       <path id="DejaVuSans-6e" d="M 3513 2113 
L 3513 0 
L 2938 0 
L 2938 2094 
Q 2938 2591 2744 2837 
Q 2550 3084 2163 3084 
Q 1697 3084 1428 2787 
Q 1159 2491 1159 1978 
L 1159 0 
L 581 0 
L 581 3500 
L 1159 3500 
L 1159 2956 
Q 1366 3272 1645 3428 
Q 1925 3584 2291 3584 
Q 2894 3584 3203 3211 
Q 3513 2838 3513 2113 
z
" transform="scale(0.015625)"/>
       <path id="DejaVuSans-20" transform="scale(0.015625)"/>
       <path id="DejaVuSans-4d" d="M 628 4666 
L 1569 4666 
L 2759 1491 
L 3956 4666 
L 4897 4666 
L 4897 0 
L 4281 0 
L 4281 4097 
L 3078 897 
L 2444 897 
L 1241 4097 
L 1241 0 
L 628 0 
L 628 4666 
z
" transform="scale(0.015625)"/>
       <path id="DejaVuSans-27" d="M 1147 4666 
L 1147 2931 
L 616 2931 
L 616 4666 
L 1147 4666 
z
" transform="scale(0.015625)"/>
      </defs>
      <use xlink:href="#DejaVuSans-50"/>
      <use xlink:href="#DejaVuSans-72" x="58.552734"/>
      <use xlink:href="#DejaVuSans-65" x="97.416016"/>
      <use xlink:href="#DejaVuSans-63" x="158.939453"/>
      <use xlink:href="#DejaVuSans-69" x="213.919922"/>
      <use xlink:href="#DejaVuSans-73" x="241.703125"/>
      <use xlink:href="#DejaVuSans-69" x="293.802734"/>
      <use xlink:href="#DejaVuSans-6f" x="321.585938"/>
      <use xlink:href="#DejaVuSans-6e" x="382.767578"/>
      <use xlink:href="#DejaVuSans-20" x="446.146484"/>
      <use xlink:href="#DejaVuSans-4d" x="477.933594"/>
      <use xlink:href="#DejaVuSans-69" x="564.212891"/>
      <use xlink:href="#DejaVuSans-63" x="591.996094"/>
      <use xlink:href="#DejaVuSans-72" x="646.976562"/>
      <use xlink:href="#DejaVuSans-6f" x="685.839844"/>
      <use xlink:href="#DejaVuSans-27" x="747.021484"/>
     </g>
    </g>
    <g id="line2d_20">
     <path d="M 857.55 611.542188 
L 867.55 611.542188 
L 877.55 611.542188 
" style="fill: none; stroke: #2ca02c; stroke-width: 1.5; stroke-linecap: square"/>
    </g>
    <g id="text_18">
     <!-- Recall Micro -->
     <g transform="translate(885.55 615.042188) scale(0.1 -0.1)">
      <defs>
       <path id="DejaVuSans-52" d="M 2841 2188 
Q 3044 2119 3236 1894 
Q 3428 1669 3622 1275 
L 4263 0 
L 3584 0 
L 2988 1197 
Q 2756 1666 2539 1819 
Q 2322 1972 1947 1972 
L 1259 1972 
L 1259 0 
L 628 0 
L 628 4666 
L 2053 4666 
Q 2853 4666 3247 4331 
Q 3641 3997 3641 3322 
Q 3641 2881 3436 2590 
Q 3231 2300 2841 2188 
z
M 1259 4147 
L 1259 2491 
L 2053 2491 
Q 2509 2491 2742 2702 
Q 2975 2913 2975 3322 
Q 2975 3731 2742 3939 
Q 2509 4147 2053 4147 
L 1259 4147 
z
" transform="scale(0.015625)"/>
       <path id="DejaVuSans-6c" d="M 603 4863 
L 1178 4863 
L 1178 0 
L 603 0 
L 603 4863 
z
" transform="scale(0.015625)"/>
      </defs>
      <use xlink:href="#DejaVuSans-52"/>
      <use xlink:href="#DejaVuSans-65" x="64.982422"/>
      <use xlink:href="#DejaVuSans-63" x="126.505859"/>
      <use xlink:href="#DejaVuSans-61" x="181.486328"/>
      <use xlink:href="#DejaVuSans-6c" x="242.765625"/>
      <use xlink:href="#DejaVuSans-6c" x="270.548828"/>
      <use xlink:href="#DejaVuSans-20" x="298.332031"/>
      <use xlink:href="#DejaVuSans-4d" x="330.119141"/>
      <use xlink:href="#DejaVuSans-69" x="416.398438"/>
      <use xlink:href="#DejaVuSans-63" x="444.181641"/>
      <use xlink:href="#DejaVuSans-72" x="499.162109"/>
      <use xlink:href="#DejaVuSans-6f" x="538.025391"/>
     </g>
    </g>
    <g id="line2d_21">
     <path d="M 857.55 626.220313 
L 867.55 626.220313 
L 877.55 626.220313 
" style="fill: none; stroke: #d62728; stroke-width: 1.5; stroke-linecap: square"/>
    </g>
    <g id="text_19">
     <!-- F1 Score Micro -->
     <g transform="translate(885.55 629.720313) scale(0.1 -0.1)">
      <defs>
       <path id="DejaVuSans-46" d="M 628 4666 
L 3309 4666 
L 3309 4134 
L 1259 4134 
L 1259 2759 
L 3109 2759 
L 3109 2228 
L 1259 2228 
L 1259 0 
L 628 0 
L 628 4666 
z
" transform="scale(0.015625)"/>
       <path id="DejaVuSans-53" d="M 3425 4513 
L 3425 3897 
Q 3066 4069 2747 4153 
Q 2428 4238 2131 4238 
Q 1616 4238 1336 4038 
Q 1056 3838 1056 3469 
Q 1056 3159 1242 3001 
Q 1428 2844 1947 2747 
L 2328 2669 
Q 3034 2534 3370 2195 
Q 3706 1856 3706 1288 
Q 3706 609 3251 259 
Q 2797 -91 1919 -91 
Q 1588 -91 1214 -16 
Q 841 59 441 206 
L 441 856 
Q 825 641 1194 531 
Q 1563 422 1919 422 
Q 2459 422 2753 634 
Q 3047 847 3047 1241 
Q 3047 1584 2836 1778 
Q 2625 1972 2144 2069 
L 1759 2144 
Q 1053 2284 737 2584 
Q 422 2884 422 3419 
Q 422 4038 858 4394 
Q 1294 4750 2059 4750 
Q 2388 4750 2728 4690 
Q 3069 4631 3425 4513 
z
" transform="scale(0.015625)"/>
      </defs>
      <use xlink:href="#DejaVuSans-46"/>
      <use xlink:href="#DejaVuSans-31" x="57.519531"/>
      <use xlink:href="#DejaVuSans-20" x="121.142578"/>
      <use xlink:href="#DejaVuSans-53" x="152.929688"/>
      <use xlink:href="#DejaVuSans-63" x="216.40625"/>
      <use xlink:href="#DejaVuSans-6f" x="271.386719"/>
      <use xlink:href="#DejaVuSans-72" x="332.568359"/>
      <use xlink:href="#DejaVuSans-65" x="371.431641"/>
      <use xlink:href="#DejaVuSans-20" x="432.955078"/>
      <use xlink:href="#DejaVuSans-4d" x="464.742188"/>
      <use xlink:href="#DejaVuSans-69" x="551.021484"/>
      <use xlink:href="#DejaVuSans-63" x="578.804688"/>
      <use xlink:href="#DejaVuSans-72" x="633.785156"/>
      <use xlink:href="#DejaVuSans-6f" x="672.648438"/>
     </g>
    </g>
   </g>
  </g>
 </g>
 <defs>
  <clipPath id="p037b382d43">
   <rect x="135" y="86.4" width="837" height="554.4"/>
  </clipPath>
 </defs>
</svg>
