<?xml version="1.0" encoding="utf-8" standalone="no"?>
<!DOCTYPE svg PUBLIC "-//W3C//DTD SVG 1.1//EN"
  "http://www.w3.org/Graphics/SVG/1.1/DTD/svg11.dtd">
<svg xmlns:xlink="http://www.w3.org/1999/xlink" width="1080pt" height="720pt" viewBox="0 0 1080 720" xmlns="http://www.w3.org/2000/svg" version="1.1">
 <metadata>
  <rdf:RDF xmlns:dc="http://purl.org/dc/elements/1.1/" xmlns:cc="http://creativecommons.org/ns#" xmlns:rdf="http://www.w3.org/1999/02/22-rdf-syntax-ns#">
   <cc:Work>
    <dc:type rdf:resource="http://purl.org/dc/dcmitype/StillImage"/>
    <dc:date>2023-11-16T22:23:45.726312</dc:date>
    <dc:format>image/svg+xml</dc:format>
    <dc:creator>
     <cc:Agent>
      <dc:title>Matplotlib v3.7.2, https://matplotlib.org/</dc:title>
     </cc:Agent>
    </dc:creator>
   </cc:Work>
  </rdf:RDF>
 </metadata>
 <defs>
  <style type="text/css">*{stroke-linejoin: round; stroke-linecap: butt}</style>
 </defs>
 <g id="figure_1">
  <g id="patch_1">
   <path d="M 0 720 
L 1080 720 
L 1080 0 
L 0 0 
z
" style="fill: #ffffff"/>
  </g>
  <g id="axes_1">
   <g id="patch_2">
    <path d="M 135 640.8 
L 972 640.8 
L 972 86.4 
L 135 86.4 
z
" style="fill: #ffffff"/>
   </g>
   <g id="matplotlib.axis_1">
    <g id="xtick_1">
     <g id="line2d_1">
      <defs>
       <path id="ma02e2e998f" d="M 0 0 
L 0 3.5 
" style="stroke: #000000; stroke-width: 0.8"/>
      </defs>
      <g>
       <use xlink:href="#ma02e2e998f" x="173.045455" y="640.8" style="stroke: #000000; stroke-width: 0.8"/>
      </g>
     </g>
     <g id="text_1">
      <!-- 0 -->
      <g transform="translate(169.864205 655.398438) scale(0.1 -0.1)">
       <defs>
        <path id="DejaVuSans-30" d="M 2034 4250 
Q 1547 4250 1301 3770 
Q 1056 3291 1056 2328 
Q 1056 1369 1301 889 
Q 1547 409 2034 409 
Q 2525 409 2770 889 
Q 3016 1369 3016 2328 
Q 3016 3291 2770 3770 
Q 2525 4250 2034 4250 
z
M 2034 4750 
Q 2819 4750 3233 4129 
Q 3647 3509 3647 2328 
Q 3647 1150 3233 529 
Q 2819 -91 2034 -91 
Q 1250 -91 836 529 
Q 422 1150 422 2328 
Q 422 3509 836 4129 
Q 1250 4750 2034 4750 
z
" transform="scale(0.015625)"/>
       </defs>
       <use xlink:href="#DejaVuSans-30"/>
      </g>
     </g>
    </g>
    <g id="xtick_2">
     <g id="line2d_2">
      <g>
       <use xlink:href="#ma02e2e998f" x="326.764463" y="640.8" style="stroke: #000000; stroke-width: 0.8"/>
      </g>
     </g>
     <g id="text_2">
      <!-- 20 -->
      <g transform="translate(320.401963 655.398438) scale(0.1 -0.1)">
       <defs>
        <path id="DejaVuSans-32" d="M 1228 531 
L 3431 531 
L 3431 0 
L 469 0 
L 469 531 
Q 828 903 1448 1529 
Q 2069 2156 2228 2338 
Q 2531 2678 2651 2914 
Q 2772 3150 2772 3378 
Q 2772 3750 2511 3984 
Q 2250 4219 1831 4219 
Q 1534 4219 1204 4116 
Q 875 4013 500 3803 
L 500 4441 
Q 881 4594 1212 4672 
Q 1544 4750 1819 4750 
Q 2544 4750 2975 4387 
Q 3406 4025 3406 3419 
Q 3406 3131 3298 2873 
Q 3191 2616 2906 2266 
Q 2828 2175 2409 1742 
Q 1991 1309 1228 531 
z
" transform="scale(0.015625)"/>
       </defs>
       <use xlink:href="#DejaVuSans-32"/>
       <use xlink:href="#DejaVuSans-30" x="63.623047"/>
      </g>
     </g>
    </g>
    <g id="xtick_3">
     <g id="line2d_3">
      <g>
       <use xlink:href="#ma02e2e998f" x="480.483471" y="640.8" style="stroke: #000000; stroke-width: 0.8"/>
      </g>
     </g>
     <g id="text_3">
      <!-- 40 -->
      <g transform="translate(474.120971 655.398438) scale(0.1 -0.1)">
       <defs>
        <path id="DejaVuSans-34" d="M 2419 4116 
L 825 1625 
L 2419 1625 
L 2419 4116 
z
M 2253 4666 
L 3047 4666 
L 3047 1625 
L 3713 1625 
L 3713 1100 
L 3047 1100 
L 3047 0 
L 2419 0 
L 2419 1100 
L 313 1100 
L 313 1709 
L 2253 4666 
z
" transform="scale(0.015625)"/>
       </defs>
       <use xlink:href="#DejaVuSans-34"/>
       <use xlink:href="#DejaVuSans-30" x="63.623047"/>
      </g>
     </g>
    </g>
    <g id="xtick_4">
     <g id="line2d_4">
      <g>
       <use xlink:href="#ma02e2e998f" x="634.202479" y="640.8" style="stroke: #000000; stroke-width: 0.8"/>
      </g>
     </g>
     <g id="text_4">
      <!-- 60 -->
      <g transform="translate(627.839979 655.398438) scale(0.1 -0.1)">
       <defs>
        <path id="DejaVuSans-36" d="M 2113 2584 
Q 1688 2584 1439 2293 
Q 1191 2003 1191 1497 
Q 1191 994 1439 701 
Q 1688 409 2113 409 
Q 2538 409 2786 701 
Q 3034 994 3034 1497 
Q 3034 2003 2786 2293 
Q 2538 2584 2113 2584 
z
M 3366 4563 
L 3366 3988 
Q 3128 4100 2886 4159 
Q 2644 4219 2406 4219 
Q 1781 4219 1451 3797 
Q 1122 3375 1075 2522 
Q 1259 2794 1537 2939 
Q 1816 3084 2150 3084 
Q 2853 3084 3261 2657 
Q 3669 2231 3669 1497 
Q 3669 778 3244 343 
Q 2819 -91 2113 -91 
Q 1303 -91 875 529 
Q 447 1150 447 2328 
Q 447 3434 972 4092 
Q 1497 4750 2381 4750 
Q 2619 4750 2861 4703 
Q 3103 4656 3366 4563 
z
" transform="scale(0.015625)"/>
       </defs>
       <use xlink:href="#DejaVuSans-36"/>
       <use xlink:href="#DejaVuSans-30" x="63.623047"/>
      </g>
     </g>
    </g>
    <g id="xtick_5">
     <g id="line2d_5">
      <g>
       <use xlink:href="#ma02e2e998f" x="787.921488" y="640.8" style="stroke: #000000; stroke-width: 0.8"/>
      </g>
     </g>
     <g id="text_5">
      <!-- 80 -->
      <g transform="translate(781.558988 655.398438) scale(0.1 -0.1)">
       <defs>
        <path id="DejaVuSans-38" d="M 2034 2216 
Q 1584 2216 1326 1975 
Q 1069 1734 1069 1313 
Q 1069 891 1326 650 
Q 1584 409 2034 409 
Q 2484 409 2743 651 
Q 3003 894 3003 1313 
Q 3003 1734 2745 1975 
Q 2488 2216 2034 2216 
z
M 1403 2484 
Q 997 2584 770 2862 
Q 544 3141 544 3541 
Q 544 4100 942 4425 
Q 1341 4750 2034 4750 
Q 2731 4750 3128 4425 
Q 3525 4100 3525 3541 
Q 3525 3141 3298 2862 
Q 3072 2584 2669 2484 
Q 3125 2378 3379 2068 
Q 3634 1759 3634 1313 
Q 3634 634 3220 271 
Q 2806 -91 2034 -91 
Q 1263 -91 848 271 
Q 434 634 434 1313 
Q 434 1759 690 2068 
Q 947 2378 1403 2484 
z
M 1172 3481 
Q 1172 3119 1398 2916 
Q 1625 2713 2034 2713 
Q 2441 2713 2670 2916 
Q 2900 3119 2900 3481 
Q 2900 3844 2670 4047 
Q 2441 4250 2034 4250 
Q 1625 4250 1398 4047 
Q 1172 3844 1172 3481 
z
" transform="scale(0.015625)"/>
       </defs>
       <use xlink:href="#DejaVuSans-38"/>
       <use xlink:href="#DejaVuSans-30" x="63.623047"/>
      </g>
     </g>
    </g>
    <g id="xtick_6">
     <g id="line2d_6">
      <g>
       <use xlink:href="#ma02e2e998f" x="941.640496" y="640.8" style="stroke: #000000; stroke-width: 0.8"/>
      </g>
     </g>
     <g id="text_6">
      <!-- 100 -->
      <g transform="translate(932.096746 655.398438) scale(0.1 -0.1)">
       <defs>
        <path id="DejaVuSans-31" d="M 794 531 
L 1825 531 
L 1825 4091 
L 703 3866 
L 703 4441 
L 1819 4666 
L 2450 4666 
L 2450 531 
L 3481 531 
L 3481 0 
L 794 0 
L 794 531 
z
" transform="scale(0.015625)"/>
       </defs>
       <use xlink:href="#DejaVuSans-31"/>
       <use xlink:href="#DejaVuSans-30" x="63.623047"/>
       <use xlink:href="#DejaVuSans-30" x="127.246094"/>
      </g>
     </g>
    </g>
    <g id="text_7">
     <!-- epoch -->
     <g transform="translate(538.271875 669.076563) scale(0.1 -0.1)">
      <defs>
       <path id="DejaVuSans-65" d="M 3597 1894 
L 3597 1613 
L 953 1613 
Q 991 1019 1311 708 
Q 1631 397 2203 397 
Q 2534 397 2845 478 
Q 3156 559 3463 722 
L 3463 178 
Q 3153 47 2828 -22 
Q 2503 -91 2169 -91 
Q 1331 -91 842 396 
Q 353 884 353 1716 
Q 353 2575 817 3079 
Q 1281 3584 2069 3584 
Q 2775 3584 3186 3129 
Q 3597 2675 3597 1894 
z
M 3022 2063 
Q 3016 2534 2758 2815 
Q 2500 3097 2075 3097 
Q 1594 3097 1305 2825 
Q 1016 2553 972 2059 
L 3022 2063 
z
" transform="scale(0.015625)"/>
       <path id="DejaVuSans-70" d="M 1159 525 
L 1159 -1331 
L 581 -1331 
L 581 3500 
L 1159 3500 
L 1159 2969 
Q 1341 3281 1617 3432 
Q 1894 3584 2278 3584 
Q 2916 3584 3314 3078 
Q 3713 2572 3713 1747 
Q 3713 922 3314 415 
Q 2916 -91 2278 -91 
Q 1894 -91 1617 61 
Q 1341 213 1159 525 
z
M 3116 1747 
Q 3116 2381 2855 2742 
Q 2594 3103 2138 3103 
Q 1681 3103 1420 2742 
Q 1159 2381 1159 1747 
Q 1159 1113 1420 752 
Q 1681 391 2138 391 
Q 2594 391 2855 752 
Q 3116 1113 3116 1747 
z
" transform="scale(0.015625)"/>
       <path id="DejaVuSans-6f" d="M 1959 3097 
Q 1497 3097 1228 2736 
Q 959 2375 959 1747 
Q 959 1119 1226 758 
Q 1494 397 1959 397 
Q 2419 397 2687 759 
Q 2956 1122 2956 1747 
Q 2956 2369 2687 2733 
Q 2419 3097 1959 3097 
z
M 1959 3584 
Q 2709 3584 3137 3096 
Q 3566 2609 3566 1747 
Q 3566 888 3137 398 
Q 2709 -91 1959 -91 
Q 1206 -91 779 398 
Q 353 888 353 1747 
Q 353 2609 779 3096 
Q 1206 3584 1959 3584 
z
" transform="scale(0.015625)"/>
       <path id="DejaVuSans-63" d="M 3122 3366 
L 3122 2828 
Q 2878 2963 2633 3030 
Q 2388 3097 2138 3097 
Q 1578 3097 1268 2742 
Q 959 2388 959 1747 
Q 959 1106 1268 751 
Q 1578 397 2138 397 
Q 2388 397 2633 464 
Q 2878 531 3122 666 
L 3122 134 
Q 2881 22 2623 -34 
Q 2366 -91 2075 -91 
Q 1284 -91 818 406 
Q 353 903 353 1747 
Q 353 2603 823 3093 
Q 1294 3584 2113 3584 
Q 2378 3584 2631 3529 
Q 2884 3475 3122 3366 
z
" transform="scale(0.015625)"/>
       <path id="DejaVuSans-68" d="M 3513 2113 
L 3513 0 
L 2938 0 
L 2938 2094 
Q 2938 2591 2744 2837 
Q 2550 3084 2163 3084 
Q 1697 3084 1428 2787 
Q 1159 2491 1159 1978 
L 1159 0 
L 581 0 
L 581 4863 
L 1159 4863 
L 1159 2956 
Q 1366 3272 1645 3428 
Q 1925 3584 2291 3584 
Q 2894 3584 3203 3211 
Q 3513 2838 3513 2113 
z
" transform="scale(0.015625)"/>
      </defs>
      <use xlink:href="#DejaVuSans-65"/>
      <use xlink:href="#DejaVuSans-70" x="61.523438"/>
      <use xlink:href="#DejaVuSans-6f" x="125"/>
      <use xlink:href="#DejaVuSans-63" x="186.181641"/>
      <use xlink:href="#DejaVuSans-68" x="241.162109"/>
     </g>
    </g>
   </g>
   <g id="matplotlib.axis_2">
    <g id="ytick_1">
     <g id="line2d_7">
      <defs>
       <path id="mc73e7dcd35" d="M 0 0 
L -3.5 0 
" style="stroke: #000000; stroke-width: 0.8"/>
      </defs>
      <g>
       <use xlink:href="#mc73e7dcd35" x="135" y="600.682862" style="stroke: #000000; stroke-width: 0.8"/>
      </g>
     </g>
     <g id="text_8">
      <!-- 0.30 -->
      <g transform="translate(105.734375 604.482081) scale(0.1 -0.1)">
       <defs>
        <path id="DejaVuSans-2e" d="M 684 794 
L 1344 794 
L 1344 0 
L 684 0 
L 684 794 
z
" transform="scale(0.015625)"/>
        <path id="DejaVuSans-33" d="M 2597 2516 
Q 3050 2419 3304 2112 
Q 3559 1806 3559 1356 
Q 3559 666 3084 287 
Q 2609 -91 1734 -91 
Q 1441 -91 1130 -33 
Q 819 25 488 141 
L 488 750 
Q 750 597 1062 519 
Q 1375 441 1716 441 
Q 2309 441 2620 675 
Q 2931 909 2931 1356 
Q 2931 1769 2642 2001 
Q 2353 2234 1838 2234 
L 1294 2234 
L 1294 2753 
L 1863 2753 
Q 2328 2753 2575 2939 
Q 2822 3125 2822 3475 
Q 2822 3834 2567 4026 
Q 2313 4219 1838 4219 
Q 1578 4219 1281 4162 
Q 984 4106 628 3988 
L 628 4550 
Q 988 4650 1302 4700 
Q 1616 4750 1894 4750 
Q 2613 4750 3031 4423 
Q 3450 4097 3450 3541 
Q 3450 3153 3228 2886 
Q 3006 2619 2597 2516 
z
" transform="scale(0.015625)"/>
       </defs>
       <use xlink:href="#DejaVuSans-30"/>
       <use xlink:href="#DejaVuSans-2e" x="63.623047"/>
       <use xlink:href="#DejaVuSans-33" x="95.410156"/>
       <use xlink:href="#DejaVuSans-30" x="159.033203"/>
      </g>
     </g>
    </g>
    <g id="ytick_2">
     <g id="line2d_8">
      <g>
       <use xlink:href="#mc73e7dcd35" x="135" y="524.873962" style="stroke: #000000; stroke-width: 0.8"/>
      </g>
     </g>
     <g id="text_9">
      <!-- 0.35 -->
      <g transform="translate(105.734375 528.67318) scale(0.1 -0.1)">
       <defs>
        <path id="DejaVuSans-35" d="M 691 4666 
L 3169 4666 
L 3169 4134 
L 1269 4134 
L 1269 2991 
Q 1406 3038 1543 3061 
Q 1681 3084 1819 3084 
Q 2600 3084 3056 2656 
Q 3513 2228 3513 1497 
Q 3513 744 3044 326 
Q 2575 -91 1722 -91 
Q 1428 -91 1123 -41 
Q 819 9 494 109 
L 494 744 
Q 775 591 1075 516 
Q 1375 441 1709 441 
Q 2250 441 2565 725 
Q 2881 1009 2881 1497 
Q 2881 1984 2565 2268 
Q 2250 2553 1709 2553 
Q 1456 2553 1204 2497 
Q 953 2441 691 2322 
L 691 4666 
z
" transform="scale(0.015625)"/>
       </defs>
       <use xlink:href="#DejaVuSans-30"/>
       <use xlink:href="#DejaVuSans-2e" x="63.623047"/>
       <use xlink:href="#DejaVuSans-33" x="95.410156"/>
       <use xlink:href="#DejaVuSans-35" x="159.033203"/>
      </g>
     </g>
    </g>
    <g id="ytick_3">
     <g id="line2d_9">
      <g>
       <use xlink:href="#mc73e7dcd35" x="135" y="449.065061" style="stroke: #000000; stroke-width: 0.8"/>
      </g>
     </g>
     <g id="text_10">
      <!-- 0.40 -->
      <g transform="translate(105.734375 452.86428) scale(0.1 -0.1)">
       <use xlink:href="#DejaVuSans-30"/>
       <use xlink:href="#DejaVuSans-2e" x="63.623047"/>
       <use xlink:href="#DejaVuSans-34" x="95.410156"/>
       <use xlink:href="#DejaVuSans-30" x="159.033203"/>
      </g>
     </g>
    </g>
    <g id="ytick_4">
     <g id="line2d_10">
      <g>
       <use xlink:href="#mc73e7dcd35" x="135" y="373.25616" style="stroke: #000000; stroke-width: 0.8"/>
      </g>
     </g>
     <g id="text_11">
      <!-- 0.45 -->
      <g transform="translate(105.734375 377.055379) scale(0.1 -0.1)">
       <use xlink:href="#DejaVuSans-30"/>
       <use xlink:href="#DejaVuSans-2e" x="63.623047"/>
       <use xlink:href="#DejaVuSans-34" x="95.410156"/>
       <use xlink:href="#DejaVuSans-35" x="159.033203"/>
      </g>
     </g>
    </g>
    <g id="ytick_5">
     <g id="line2d_11">
      <g>
       <use xlink:href="#mc73e7dcd35" x="135" y="297.447259" style="stroke: #000000; stroke-width: 0.8"/>
      </g>
     </g>
     <g id="text_12">
      <!-- 0.50 -->
      <g transform="translate(105.734375 301.246478) scale(0.1 -0.1)">
       <use xlink:href="#DejaVuSans-30"/>
       <use xlink:href="#DejaVuSans-2e" x="63.623047"/>
       <use xlink:href="#DejaVuSans-35" x="95.410156"/>
       <use xlink:href="#DejaVuSans-30" x="159.033203"/>
      </g>
     </g>
    </g>
    <g id="ytick_6">
     <g id="line2d_12">
      <g>
       <use xlink:href="#mc73e7dcd35" x="135" y="221.638358" style="stroke: #000000; stroke-width: 0.8"/>
      </g>
     </g>
     <g id="text_13">
      <!-- 0.55 -->
      <g transform="translate(105.734375 225.437577) scale(0.1 -0.1)">
       <use xlink:href="#DejaVuSans-30"/>
       <use xlink:href="#DejaVuSans-2e" x="63.623047"/>
       <use xlink:href="#DejaVuSans-35" x="95.410156"/>
       <use xlink:href="#DejaVuSans-35" x="159.033203"/>
      </g>
     </g>
    </g>
    <g id="ytick_7">
     <g id="line2d_13">
      <g>
       <use xlink:href="#mc73e7dcd35" x="135" y="145.829458" style="stroke: #000000; stroke-width: 0.8"/>
      </g>
     </g>
     <g id="text_14">
      <!-- 0.60 -->
      <g transform="translate(105.734375 149.628676) scale(0.1 -0.1)">
       <use xlink:href="#DejaVuSans-30"/>
       <use xlink:href="#DejaVuSans-2e" x="63.623047"/>
       <use xlink:href="#DejaVuSans-36" x="95.410156"/>
       <use xlink:href="#DejaVuSans-30" x="159.033203"/>
      </g>
     </g>
    </g>
    <g id="text_15">
     <!-- score -->
     <g transform="translate(99.654687 377.032812) rotate(-90) scale(0.1 -0.1)">
      <defs>
       <path id="DejaVuSans-73" d="M 2834 3397 
L 2834 2853 
Q 2591 2978 2328 3040 
Q 2066 3103 1784 3103 
Q 1356 3103 1142 2972 
Q 928 2841 928 2578 
Q 928 2378 1081 2264 
Q 1234 2150 1697 2047 
L 1894 2003 
Q 2506 1872 2764 1633 
Q 3022 1394 3022 966 
Q 3022 478 2636 193 
Q 2250 -91 1575 -91 
Q 1294 -91 989 -36 
Q 684 19 347 128 
L 347 722 
Q 666 556 975 473 
Q 1284 391 1588 391 
Q 1994 391 2212 530 
Q 2431 669 2431 922 
Q 2431 1156 2273 1281 
Q 2116 1406 1581 1522 
L 1381 1569 
Q 847 1681 609 1914 
Q 372 2147 372 2553 
Q 372 3047 722 3315 
Q 1072 3584 1716 3584 
Q 2034 3584 2315 3537 
Q 2597 3491 2834 3397 
z
" transform="scale(0.015625)"/>
       <path id="DejaVuSans-72" d="M 2631 2963 
Q 2534 3019 2420 3045 
Q 2306 3072 2169 3072 
Q 1681 3072 1420 2755 
Q 1159 2438 1159 1844 
L 1159 0 
L 581 0 
L 581 3500 
L 1159 3500 
L 1159 2956 
Q 1341 3275 1631 3429 
Q 1922 3584 2338 3584 
Q 2397 3584 2469 3576 
Q 2541 3569 2628 3553 
L 2631 2963 
z
" transform="scale(0.015625)"/>
      </defs>
      <use xlink:href="#DejaVuSans-73"/>
      <use xlink:href="#DejaVuSans-63" x="52.099609"/>
      <use xlink:href="#DejaVuSans-6f" x="107.080078"/>
      <use xlink:href="#DejaVuSans-72" x="168.261719"/>
      <use xlink:href="#DejaVuSans-65" x="207.125"/>
     </g>
    </g>
   </g>
   <g id="line2d_14">
    <path d="M 173.045455 508.349325 
L 180.731405 431.347924 
L 188.417355 410.905075 
L 196.103306 352.983667 
L 203.789256 361.842236 
L 211.475207 399.320793 
L 219.161157 284.159407 
L 226.847107 337.310816 
L 234.533058 353.665096 
L 242.219008 312.779396 
L 249.904959 320.275108 
L 257.590909 344.806528 
L 265.27686 339.355101 
L 272.96281 447.020776 
L 280.64876 267.123699 
L 288.334711 313.460825 
L 296.020661 255.539417 
L 303.706612 286.203692 
L 311.392562 282.79655 
L 319.078512 258.265131 
L 326.764463 226.238 
L 334.450413 245.999421 
L 342.136364 261.672272 
L 349.822314 235.777996 
L 357.508264 220.786573 
L 365.194215 208.520863 
L 372.880165 261.672272 
L 380.566116 213.97229 
L 388.252066 216.016575 
L 395.938017 233.733711 
L 403.623967 243.273708 
L 411.309917 357.072237 
L 418.995868 232.370854 
L 426.681818 215.335146 
L 434.367769 207.158007 
L 442.053719 225.556571 
L 449.739669 263.716557 
L 457.42562 184.670872 
L 465.11157 221.468001 
L 472.797521 187.396585 
L 480.483471 189.44087 
L 488.169421 188.759442 
L 495.855372 177.856589 
L 503.541322 218.742288 
L 511.227273 182.626587 
L 518.913223 165.590879 
L 526.599174 202.388008 
L 534.285124 192.166584 
L 541.971074 195.573725 
L 549.657025 191.485155 
L 557.342975 176.493732 
L 565.028926 175.130875 
L 572.714876 224.193715 
L 580.400826 175.812304 
L 588.086777 194.892297 
L 595.772727 220.786573 
L 603.458678 194.210868 
L 611.144628 160.820881 
L 618.830579 206.476578 
L 626.516529 173.768019 
L 634.202479 172.405162 
L 641.88843 186.715157 
L 649.57438 214.653718 
L 657.260331 198.980867 
L 664.946281 176.493732 
L 672.632231 163.546594 
L 680.318182 225.556571 
L 688.004132 190.803727 
L 695.690083 184.670872 
L 703.376033 213.290861 
L 711.061983 179.900874 
L 718.747934 188.078014 
L 726.433884 206.476578 
L 734.119835 168.316592 
L 741.805785 196.255153 
L 749.491736 163.546594 
L 757.177686 186.715157 
L 764.863636 184.670872 
L 772.549587 177.17516 
L 780.235537 183.308015 
L 787.921488 182.626587 
L 795.607438 168.998021 
L 803.293388 195.573725 
L 810.979339 162.183737 
L 818.665289 169.679449 
L 826.35124 188.759442 
L 834.03719 183.308015 
L 841.72314 198.980867 
L 849.409091 178.538017 
L 857.095041 157.413739 
L 864.780992 179.219445 
L 872.466942 176.493732 
L 880.152893 190.803727 
L 887.838843 179.219445 
L 895.524793 173.086591 
L 903.210744 192.848012 
L 910.896694 212.609433 
L 918.582645 160.820881 
L 926.268595 172.405162 
L 933.954545 176.493732 
" clip-path="url(#p249eb9ae86)" style="fill: none; stroke: #1f77b4; stroke-width: 1.5; stroke-linecap: square"/>
   </g>
   <g id="line2d_15">
    <path d="M 173.045455 487.717845 
L 180.731405 357.23981 
L 188.417355 409.928659 
L 196.103306 371.367071 
L 203.789256 157.106443 
L 211.475207 361.786444 
L 219.161157 286.973027 
L 226.847107 331.931801 
L 234.533058 326.25871 
L 242.219008 332.564287 
L 249.904959 280.948944 
L 257.590909 220.365476 
L 265.27686 246.856357 
L 272.96281 173.351268 
L 280.64876 281.297325 
L 288.334711 306.849913 
L 296.020661 255.126827 
L 303.706612 263.896817 
L 311.392562 274.189773 
L 319.078512 278.872353 
L 326.764463 211.507674 
L 334.450413 229.260416 
L 342.136364 222.960423 
L 349.822314 218.412921 
L 357.508264 217.445268 
L 365.194215 195.496416 
L 372.880165 252.274734 
L 380.566116 220.720871 
L 388.252066 202.427697 
L 395.938017 197.238125 
L 403.623967 195.023837 
L 411.309917 124.656266 
L 418.995868 264.475324 
L 426.681818 237.052939 
L 434.367769 207.535354 
L 442.053719 174.059638 
L 449.739669 165.203268 
L 457.42562 215.373702 
L 465.11157 224.715802 
L 472.797521 199.079333 
L 480.483471 203.855856 
L 488.169421 180.734033 
L 495.855372 158.622399 
L 503.541322 242.937765 
L 511.227273 201.4717 
L 518.913223 162.356095 
L 526.599174 156.63017 
L 534.285124 186.214179 
L 541.971074 179.228455 
L 549.657025 184.756539 
L 557.342975 198.033169 
L 565.028926 173.588274 
L 572.714876 111.6 
L 580.400826 158.212622 
L 588.086777 214.316763 
L 595.772727 178.380529 
L 603.458678 166.127955 
L 611.144628 155.20071 
L 618.830579 164.836899 
L 626.516529 173.066298 
L 634.202479 165.056945 
L 641.88843 149.863644 
L 649.57438 163.095624 
L 657.260331 190.416022 
L 664.946281 167.964575 
L 672.632231 134.41709 
L 680.318182 126.852876 
L 688.004132 159.807976 
L 695.690083 134.294727 
L 703.376033 204.421093 
L 711.061983 174.74186 
L 718.747934 193.32491 
L 726.433884 154.821448 
L 734.119835 187.444496 
L 741.805785 147.013985 
L 749.491736 169.743138 
L 757.177686 181.863805 
L 764.863636 187.027411 
L 772.549587 165.365413 
L 780.235537 158.65118 
L 787.921488 166.560259 
L 795.607438 179.821837 
L 803.293388 169.217639 
L 810.979339 146.35405 
L 818.665289 147.258918 
L 826.35124 192.599482 
L 834.03719 184.01888 
L 841.72314 161.759706 
L 849.409091 171.685272 
L 857.095041 145.308266 
L 864.780992 184.208169 
L 872.466942 171.41285 
L 880.152893 165.349502 
L 887.838843 177.195534 
L 895.524793 147.657146 
L 903.210744 192.431203 
L 910.896694 209.722775 
L 918.582645 140.491987 
L 926.268595 176.452273 
L 933.954545 194.702367 
" clip-path="url(#p249eb9ae86)" style="fill: none; stroke: #ff7f0e; stroke-width: 1.5; stroke-linecap: square"/>
   </g>
   <g id="line2d_16">
    <path d="M 173.045455 520.104885 
L 180.731405 464.583644 
L 188.417355 438.215969 
L 196.103306 379.840786 
L 203.789256 395.472444 
L 211.475207 382.735682 
L 219.161157 292.154082 
L 226.847107 326.979505 
L 234.533058 331.729601 
L 242.219008 323.840651 
L 249.904959 350.694204 
L 257.590909 382.442257 
L 265.27686 362.710177 
L 272.96281 399.927246 
L 280.64876 279.127457 
L 288.334711 294.96703 
L 296.020661 250.66037 
L 303.706612 283.951112 
L 311.392562 303.518846 
L 319.078512 250.15671 
L 326.764463 238.39218 
L 334.450413 262.1948 
L 342.136364 238.666082 
L 349.822314 214.698813 
L 357.508264 216.130957 
L 365.194215 223.083855 
L 372.880165 258.310003 
L 380.566116 212.527948 
L 388.252066 213.255151 
L 395.938017 256.593995 
L 403.623967 249.892485 
L 411.309917 318.005743 
L 418.995868 225.570392 
L 426.681818 215.203059 
L 434.367769 194.183139 
L 442.053719 232.007257 
L 449.739669 231.408713 
L 457.42562 187.612522 
L 465.11157 214.199351 
L 472.797521 193.602054 
L 480.483471 172.401693 
L 488.169421 171.537285 
L 495.855372 185.324905 
L 503.541322 218.067575 
L 511.227273 176.260221 
L 518.913223 159.880919 
L 526.599174 204.000358 
L 534.285124 182.939538 
L 541.971074 212.829821 
L 549.657025 198.23577 
L 557.342975 183.967919 
L 565.028926 180.706232 
L 572.714876 207.776293 
L 580.400826 167.961671 
L 588.086777 192.617303 
L 595.772727 195.986985 
L 603.458678 186.349474 
L 611.144628 153.6435 
L 618.830579 221.210953 
L 626.516529 164.144119 
L 634.202479 179.738066 
L 641.88843 194.009342 
L 649.57438 218.477608 
L 657.260331 198.523469 
L 664.946281 177.477751 
L 672.632231 158.424725 
L 680.318182 210.226689 
L 688.004132 213.440966 
L 695.690083 181.706491 
L 703.376033 229.654569 
L 711.061983 177.82707 
L 718.747934 194.040921 
L 726.433884 187.948436 
L 734.119835 175.496358 
L 741.805785 187.884943 
L 749.491736 159.046905 
L 757.177686 174.456752 
L 764.863636 183.236394 
L 772.549587 182.916149 
L 780.235537 180.312413 
L 787.921488 187.613541 
L 795.607438 158.5597 
L 803.293388 193.109999 
L 810.979339 153.830342 
L 818.665289 166.133591 
L 826.35124 185.1993 
L 834.03719 183.195232 
L 841.72314 203.567713 
L 849.409091 161.53941 
L 857.095041 152.604486 
L 864.780992 178.483809 
L 872.466942 178.305477 
L 880.152893 182.755553 
L 887.838843 177.162451 
L 895.524793 153.351808 
L 903.210744 183.963525 
L 910.896694 197.948225 
L 918.582645 163.358014 
L 926.268595 177.174351 
L 933.954545 185.371092 
" clip-path="url(#p249eb9ae86)" style="fill: none; stroke: #2ca02c; stroke-width: 1.5; stroke-linecap: square"/>
   </g>
   <g id="line2d_17">
    <path d="M 173.045455 615.6 
L 180.731405 481.666084 
L 188.417355 487.420108 
L 196.103306 459.987765 
L 203.789256 467.223775 
L 211.475207 464.553241 
L 219.161157 291.02753 
L 226.847107 356.985112 
L 234.533058 374.278812 
L 242.219008 345.816669 
L 249.904959 367.201997 
L 257.590909 433.024748 
L 265.27686 388.916861 
L 272.96281 482.860968 
L 280.64876 290.170607 
L 288.334711 370.958973 
L 296.020661 255.063492 
L 303.706612 316.418409 
L 311.392562 344.60146 
L 319.078512 273.023879 
L 326.764463 303.872361 
L 334.450413 264.179231 
L 342.136364 280.82584 
L 349.822314 237.896115 
L 357.508264 219.081366 
L 365.194215 236.263662 
L 372.880165 275.186609 
L 380.566116 218.432043 
L 388.252066 219.303346 
L 395.938017 293.920651 
L 403.623967 234.182047 
L 411.309917 367.221868 
L 418.995868 274.309275 
L 426.681818 230.107111 
L 434.367769 215.484734 
L 442.053719 216.420781 
L 449.739669 279.108759 
L 457.42562 215.699175 
L 465.11157 226.962486 
L 472.797521 265.877506 
L 480.483471 208.250779 
L 488.169421 194.674214 
L 495.855372 176.353892 
L 503.541322 244.077802 
L 511.227273 215.474035 
L 518.913223 163.044385 
L 526.599174 190.168486 
L 534.285124 205.675413 
L 541.971074 230.224934 
L 549.657025 203.53804 
L 557.342975 219.04578 
L 565.028926 197.741672 
L 572.714876 217.159329 
L 580.400826 168.068116 
L 588.086777 226.228941 
L 595.772727 217.073278 
L 603.458678 185.170654 
L 611.144628 162.374812 
L 618.830579 212.253507 
L 626.516529 188.900017 
L 634.202479 191.583942 
L 641.88843 180.026934 
L 649.57438 225.315659 
L 657.260331 199.792731 
L 664.946281 173.347628 
L 672.632231 156.26192 
L 680.318182 206.910552 
L 688.004132 230.022835 
L 695.690083 168.218461 
L 703.376033 249.24274 
L 711.061983 176.38522 
L 718.747934 204.055266 
L 726.433884 196.946414 
L 734.119835 198.019891 
L 741.805785 177.247647 
L 749.491736 166.052031 
L 757.177686 189.733045 
L 764.863636 191.924261 
L 772.549587 178.430897 
L 780.235537 173.292844 
L 787.921488 179.838694 
L 795.607438 174.041707 
L 803.293388 183.848426 
L 810.979339 155.309949 
L 818.665289 161.470832 
L 826.35124 190.670419 
L 834.03719 183.96127 
L 841.72314 190.259492 
L 849.409091 179.920546 
L 857.095041 150.926632 
L 864.780992 182.484447 
L 872.466942 175.148155 
L 880.152893 201.513505 
L 887.838843 180.05527 
L 895.524793 172.050616 
L 903.210744 193.771959 
L 910.896694 216.774259 
L 918.582645 154.053441 
L 926.268595 182.709532 
L 933.954545 207.293245 
" clip-path="url(#p249eb9ae86)" style="fill: none; stroke: #d62728; stroke-width: 1.5; stroke-linecap: square"/>
   </g>
   <g id="patch_3">
    <path d="M 135 640.8 
L 135 86.4 
" style="fill: none; stroke: #000000; stroke-width: 0.8; stroke-linejoin: miter; stroke-linecap: square"/>
   </g>
   <g id="patch_4">
    <path d="M 972 640.8 
L 972 86.4 
" style="fill: none; stroke: #000000; stroke-width: 0.8; stroke-linejoin: miter; stroke-linecap: square"/>
   </g>
   <g id="patch_5">
    <path d="M 135 640.8 
L 972 640.8 
" style="fill: none; stroke: #000000; stroke-width: 0.8; stroke-linejoin: miter; stroke-linecap: square"/>
   </g>
   <g id="patch_6">
    <path d="M 135 86.4 
L 972 86.4 
" style="fill: none; stroke: #000000; stroke-width: 0.8; stroke-linejoin: miter; stroke-linecap: square"/>
   </g>
   <g id="legend_1">
    <g id="patch_7">
     <path d="M 142 153.1125 
L 254.8 153.1125 
Q 256.8 153.1125 256.8 151.1125 
L 256.8 93.4 
Q 256.8 91.4 254.8 91.4 
L 142 91.4 
Q 140 91.4 140 93.4 
L 140 151.1125 
Q 140 153.1125 142 153.1125 
z
" style="fill: #ffffff; opacity: 0.8; stroke: #cccccc; stroke-linejoin: miter"/>
    </g>
    <g id="line2d_18">
     <path d="M 144 99.498437 
L 154 99.498437 
L 164 99.498437 
" style="fill: none; stroke: #1f77b4; stroke-width: 1.5; stroke-linecap: square"/>
    </g>
    <g id="text_16">
     <!-- Accuracy -->
     <g transform="translate(172 102.998437) scale(0.1 -0.1)">
      <defs>
       <path id="DejaVuSans-41" d="M 2188 4044 
L 1331 1722 
L 3047 1722 
L 2188 4044 
z
M 1831 4666 
L 2547 4666 
L 4325 0 
L 3669 0 
L 3244 1197 
L 1141 1197 
L 716 0 
L 50 0 
L 1831 4666 
z
" transform="scale(0.015625)"/>
       <path id="DejaVuSans-75" d="M 544 1381 
L 544 3500 
L 1119 3500 
L 1119 1403 
Q 1119 906 1312 657 
Q 1506 409 1894 409 
Q 2359 409 2629 706 
Q 2900 1003 2900 1516 
L 2900 3500 
L 3475 3500 
L 3475 0 
L 2900 0 
L 2900 538 
Q 2691 219 2414 64 
Q 2138 -91 1772 -91 
Q 1169 -91 856 284 
Q 544 659 544 1381 
z
M 1991 3584 
L 1991 3584 
z
" transform="scale(0.015625)"/>
       <path id="DejaVuSans-61" d="M 2194 1759 
Q 1497 1759 1228 1600 
Q 959 1441 959 1056 
Q 959 750 1161 570 
Q 1363 391 1709 391 
Q 2188 391 2477 730 
Q 2766 1069 2766 1631 
L 2766 1759 
L 2194 1759 
z
M 3341 1997 
L 3341 0 
L 2766 0 
L 2766 531 
Q 2569 213 2275 61 
Q 1981 -91 1556 -91 
Q 1019 -91 701 211 
Q 384 513 384 1019 
Q 384 1609 779 1909 
Q 1175 2209 1959 2209 
L 2766 2209 
L 2766 2266 
Q 2766 2663 2505 2880 
Q 2244 3097 1772 3097 
Q 1472 3097 1187 3025 
Q 903 2953 641 2809 
L 641 3341 
Q 956 3463 1253 3523 
Q 1550 3584 1831 3584 
Q 2591 3584 2966 3190 
Q 3341 2797 3341 1997 
z
" transform="scale(0.015625)"/>
       <path id="DejaVuSans-79" d="M 2059 -325 
Q 1816 -950 1584 -1140 
Q 1353 -1331 966 -1331 
L 506 -1331 
L 506 -850 
L 844 -850 
Q 1081 -850 1212 -737 
Q 1344 -625 1503 -206 
L 1606 56 
L 191 3500 
L 800 3500 
L 1894 763 
L 2988 3500 
L 3597 3500 
L 2059 -325 
z
" transform="scale(0.015625)"/>
      </defs>
      <use xlink:href="#DejaVuSans-41"/>
      <use xlink:href="#DejaVuSans-63" x="66.658203"/>
      <use xlink:href="#DejaVuSans-63" x="121.638672"/>
      <use xlink:href="#DejaVuSans-75" x="176.619141"/>
      <use xlink:href="#DejaVuSans-72" x="239.998047"/>
      <use xlink:href="#DejaVuSans-61" x="281.111328"/>
      <use xlink:href="#DejaVuSans-63" x="342.390625"/>
      <use xlink:href="#DejaVuSans-79" x="397.371094"/>
     </g>
    </g>
    <g id="line2d_19">
     <path d="M 144 114.176562 
L 154 114.176562 
L 164 114.176562 
" style="fill: none; stroke: #ff7f0e; stroke-width: 1.5; stroke-linecap: square"/>
    </g>
    <g id="text_17">
     <!-- Precision Macro' -->
     <g transform="translate(172 117.676562) scale(0.1 -0.1)">
      <defs>
       <path id="DejaVuSans-50" d="M 1259 4147 
L 1259 2394 
L 2053 2394 
Q 2494 2394 2734 2622 
Q 2975 2850 2975 3272 
Q 2975 3691 2734 3919 
Q 2494 4147 2053 4147 
L 1259 4147 
z
M 628 4666 
L 2053 4666 
Q 2838 4666 3239 4311 
Q 3641 3956 3641 3272 
Q 3641 2581 3239 2228 
Q 2838 1875 2053 1875 
L 1259 1875 
L 1259 0 
L 628 0 
L 628 4666 
z
" transform="scale(0.015625)"/>
       <path id="DejaVuSans-69" d="M 603 3500 
L 1178 3500 
L 1178 0 
L 603 0 
L 603 3500 
z
M 603 4863 
L 1178 4863 
L 1178 4134 
L 603 4134 
L 603 4863 
z
" transform="scale(0.015625)"/>
       <path id="DejaVuSans-6e" d="M 3513 2113 
L 3513 0 
L 2938 0 
L 2938 2094 
Q 2938 2591 2744 2837 
Q 2550 3084 2163 3084 
Q 1697 3084 1428 2787 
Q 1159 2491 1159 1978 
L 1159 0 
L 581 0 
L 581 3500 
L 1159 3500 
L 1159 2956 
Q 1366 3272 1645 3428 
Q 1925 3584 2291 3584 
Q 2894 3584 3203 3211 
Q 3513 2838 3513 2113 
z
" transform="scale(0.015625)"/>
       <path id="DejaVuSans-20" transform="scale(0.015625)"/>
       <path id="DejaVuSans-4d" d="M 628 4666 
L 1569 4666 
L 2759 1491 
L 3956 4666 
L 4897 4666 
L 4897 0 
L 4281 0 
L 4281 4097 
L 3078 897 
L 2444 897 
L 1241 4097 
L 1241 0 
L 628 0 
L 628 4666 
z
" transform="scale(0.015625)"/>
       <path id="DejaVuSans-27" d="M 1147 4666 
L 1147 2931 
L 616 2931 
L 616 4666 
L 1147 4666 
z
" transform="scale(0.015625)"/>
      </defs>
      <use xlink:href="#DejaVuSans-50"/>
      <use xlink:href="#DejaVuSans-72" x="58.552734"/>
      <use xlink:href="#DejaVuSans-65" x="97.416016"/>
      <use xlink:href="#DejaVuSans-63" x="158.939453"/>
      <use xlink:href="#DejaVuSans-69" x="213.919922"/>
      <use xlink:href="#DejaVuSans-73" x="241.703125"/>
      <use xlink:href="#DejaVuSans-69" x="293.802734"/>
      <use xlink:href="#DejaVuSans-6f" x="321.585938"/>
      <use xlink:href="#DejaVuSans-6e" x="382.767578"/>
      <use xlink:href="#DejaVuSans-20" x="446.146484"/>
      <use xlink:href="#DejaVuSans-4d" x="477.933594"/>
      <use xlink:href="#DejaVuSans-61" x="564.212891"/>
      <use xlink:href="#DejaVuSans-63" x="625.492188"/>
      <use xlink:href="#DejaVuSans-72" x="680.472656"/>
      <use xlink:href="#DejaVuSans-6f" x="719.335938"/>
      <use xlink:href="#DejaVuSans-27" x="780.517578"/>
     </g>
    </g>
    <g id="line2d_20">
     <path d="M 144 128.854687 
L 154 128.854687 
L 164 128.854687 
" style="fill: none; stroke: #2ca02c; stroke-width: 1.5; stroke-linecap: square"/>
    </g>
    <g id="text_18">
     <!-- Recall Macro -->
     <g transform="translate(172 132.354687) scale(0.1 -0.1)">
      <defs>
       <path id="DejaVuSans-52" d="M 2841 2188 
Q 3044 2119 3236 1894 
Q 3428 1669 3622 1275 
L 4263 0 
L 3584 0 
L 2988 1197 
Q 2756 1666 2539 1819 
Q 2322 1972 1947 1972 
L 1259 1972 
L 1259 0 
L 628 0 
L 628 4666 
L 2053 4666 
Q 2853 4666 3247 4331 
Q 3641 3997 3641 3322 
Q 3641 2881 3436 2590 
Q 3231 2300 2841 2188 
z
M 1259 4147 
L 1259 2491 
L 2053 2491 
Q 2509 2491 2742 2702 
Q 2975 2913 2975 3322 
Q 2975 3731 2742 3939 
Q 2509 4147 2053 4147 
L 1259 4147 
z
" transform="scale(0.015625)"/>
       <path id="DejaVuSans-6c" d="M 603 4863 
L 1178 4863 
L 1178 0 
L 603 0 
L 603 4863 
z
" transform="scale(0.015625)"/>
      </defs>
      <use xlink:href="#DejaVuSans-52"/>
      <use xlink:href="#DejaVuSans-65" x="64.982422"/>
      <use xlink:href="#DejaVuSans-63" x="126.505859"/>
      <use xlink:href="#DejaVuSans-61" x="181.486328"/>
      <use xlink:href="#DejaVuSans-6c" x="242.765625"/>
      <use xlink:href="#DejaVuSans-6c" x="270.548828"/>
      <use xlink:href="#DejaVuSans-20" x="298.332031"/>
      <use xlink:href="#DejaVuSans-4d" x="330.119141"/>
      <use xlink:href="#DejaVuSans-61" x="416.398438"/>
      <use xlink:href="#DejaVuSans-63" x="477.677734"/>
      <use xlink:href="#DejaVuSans-72" x="532.658203"/>
      <use xlink:href="#DejaVuSans-6f" x="571.521484"/>
     </g>
    </g>
    <g id="line2d_21">
     <path d="M 144 143.532812 
L 154 143.532812 
L 164 143.532812 
" style="fill: none; stroke: #d62728; stroke-width: 1.5; stroke-linecap: square"/>
    </g>
    <g id="text_19">
     <!-- F1 Score Macro -->
     <g transform="translate(172 147.032812) scale(0.1 -0.1)">
      <defs>
       <path id="DejaVuSans-46" d="M 628 4666 
L 3309 4666 
L 3309 4134 
L 1259 4134 
L 1259 2759 
L 3109 2759 
L 3109 2228 
L 1259 2228 
L 1259 0 
L 628 0 
L 628 4666 
z
" transform="scale(0.015625)"/>
       <path id="DejaVuSans-53" d="M 3425 4513 
L 3425 3897 
Q 3066 4069 2747 4153 
Q 2428 4238 2131 4238 
Q 1616 4238 1336 4038 
Q 1056 3838 1056 3469 
Q 1056 3159 1242 3001 
Q 1428 2844 1947 2747 
L 2328 2669 
Q 3034 2534 3370 2195 
Q 3706 1856 3706 1288 
Q 3706 609 3251 259 
Q 2797 -91 1919 -91 
Q 1588 -91 1214 -16 
Q 841 59 441 206 
L 441 856 
Q 825 641 1194 531 
Q 1563 422 1919 422 
Q 2459 422 2753 634 
Q 3047 847 3047 1241 
Q 3047 1584 2836 1778 
Q 2625 1972 2144 2069 
L 1759 2144 
Q 1053 2284 737 2584 
Q 422 2884 422 3419 
Q 422 4038 858 4394 
Q 1294 4750 2059 4750 
Q 2388 4750 2728 4690 
Q 3069 4631 3425 4513 
z
" transform="scale(0.015625)"/>
      </defs>
      <use xlink:href="#DejaVuSans-46"/>
      <use xlink:href="#DejaVuSans-31" x="57.519531"/>
      <use xlink:href="#DejaVuSans-20" x="121.142578"/>
      <use xlink:href="#DejaVuSans-53" x="152.929688"/>
      <use xlink:href="#DejaVuSans-63" x="216.40625"/>
      <use xlink:href="#DejaVuSans-6f" x="271.386719"/>
      <use xlink:href="#DejaVuSans-72" x="332.568359"/>
      <use xlink:href="#DejaVuSans-65" x="371.431641"/>
      <use xlink:href="#DejaVuSans-20" x="432.955078"/>
      <use xlink:href="#DejaVuSans-4d" x="464.742188"/>
      <use xlink:href="#DejaVuSans-61" x="551.021484"/>
      <use xlink:href="#DejaVuSans-63" x="612.300781"/>
      <use xlink:href="#DejaVuSans-72" x="667.28125"/>
      <use xlink:href="#DejaVuSans-6f" x="706.144531"/>
     </g>
    </g>
   </g>
  </g>
 </g>
 <defs>
  <clipPath id="p249eb9ae86">
   <rect x="135" y="86.4" width="837" height="554.4"/>
  </clipPath>
 </defs>
</svg>
