<?xml version="1.0" encoding="utf-8" standalone="no"?>
<!DOCTYPE svg PUBLIC "-//W3C//DTD SVG 1.1//EN"
  "http://www.w3.org/Graphics/SVG/1.1/DTD/svg11.dtd">
<svg xmlns:xlink="http://www.w3.org/1999/xlink" width="1080pt" height="720pt" viewBox="0 0 1080 720" xmlns="http://www.w3.org/2000/svg" version="1.1">
 <metadata>
  <rdf:RDF xmlns:dc="http://purl.org/dc/elements/1.1/" xmlns:cc="http://creativecommons.org/ns#" xmlns:rdf="http://www.w3.org/1999/02/22-rdf-syntax-ns#">
   <cc:Work>
    <dc:type rdf:resource="http://purl.org/dc/dcmitype/StillImage"/>
    <dc:date>2023-11-16T16:10:11.021569</dc:date>
    <dc:format>image/svg+xml</dc:format>
    <dc:creator>
     <cc:Agent>
      <dc:title>Matplotlib v3.7.2, https://matplotlib.org/</dc:title>
     </cc:Agent>
    </dc:creator>
   </cc:Work>
  </rdf:RDF>
 </metadata>
 <defs>
  <style type="text/css">*{stroke-linejoin: round; stroke-linecap: butt}</style>
 </defs>
 <g id="figure_1">
  <g id="patch_1">
   <path d="M 0 720 
L 1080 720 
L 1080 0 
L 0 0 
z
" style="fill: #ffffff"/>
  </g>
  <g id="axes_1">
   <g id="patch_2">
    <path d="M 135 640.8 
L 972 640.8 
L 972 86.4 
L 135 86.4 
z
" style="fill: #ffffff"/>
   </g>
   <g id="matplotlib.axis_1">
    <g id="xtick_1">
     <g id="line2d_1">
      <defs>
       <path id="mfbb618e30a" d="M 0 0 
L 0 3.5 
" style="stroke: #000000; stroke-width: 0.8"/>
      </defs>
      <g>
       <use xlink:href="#mfbb618e30a" x="173.045455" y="640.8" style="stroke: #000000; stroke-width: 0.8"/>
      </g>
     </g>
     <g id="text_1">
      <!-- 0 -->
      <g transform="translate(169.864205 655.398438) scale(0.1 -0.1)">
       <defs>
        <path id="DejaVuSans-30" d="M 2034 4250 
Q 1547 4250 1301 3770 
Q 1056 3291 1056 2328 
Q 1056 1369 1301 889 
Q 1547 409 2034 409 
Q 2525 409 2770 889 
Q 3016 1369 3016 2328 
Q 3016 3291 2770 3770 
Q 2525 4250 2034 4250 
z
M 2034 4750 
Q 2819 4750 3233 4129 
Q 3647 3509 3647 2328 
Q 3647 1150 3233 529 
Q 2819 -91 2034 -91 
Q 1250 -91 836 529 
Q 422 1150 422 2328 
Q 422 3509 836 4129 
Q 1250 4750 2034 4750 
z
" transform="scale(0.015625)"/>
       </defs>
       <use xlink:href="#DejaVuSans-30"/>
      </g>
     </g>
    </g>
    <g id="xtick_2">
     <g id="line2d_2">
      <g>
       <use xlink:href="#mfbb618e30a" x="268.637049" y="640.8" style="stroke: #000000; stroke-width: 0.8"/>
      </g>
     </g>
     <g id="text_2">
      <!-- 25 -->
      <g transform="translate(262.274549 655.398438) scale(0.1 -0.1)">
       <defs>
        <path id="DejaVuSans-32" d="M 1228 531 
L 3431 531 
L 3431 0 
L 469 0 
L 469 531 
Q 828 903 1448 1529 
Q 2069 2156 2228 2338 
Q 2531 2678 2651 2914 
Q 2772 3150 2772 3378 
Q 2772 3750 2511 3984 
Q 2250 4219 1831 4219 
Q 1534 4219 1204 4116 
Q 875 4013 500 3803 
L 500 4441 
Q 881 4594 1212 4672 
Q 1544 4750 1819 4750 
Q 2544 4750 2975 4387 
Q 3406 4025 3406 3419 
Q 3406 3131 3298 2873 
Q 3191 2616 2906 2266 
Q 2828 2175 2409 1742 
Q 1991 1309 1228 531 
z
" transform="scale(0.015625)"/>
        <path id="DejaVuSans-35" d="M 691 4666 
L 3169 4666 
L 3169 4134 
L 1269 4134 
L 1269 2991 
Q 1406 3038 1543 3061 
Q 1681 3084 1819 3084 
Q 2600 3084 3056 2656 
Q 3513 2228 3513 1497 
Q 3513 744 3044 326 
Q 2575 -91 1722 -91 
Q 1428 -91 1123 -41 
Q 819 9 494 109 
L 494 744 
Q 775 591 1075 516 
Q 1375 441 1709 441 
Q 2250 441 2565 725 
Q 2881 1009 2881 1497 
Q 2881 1984 2565 2268 
Q 2250 2553 1709 2553 
Q 1456 2553 1204 2497 
Q 953 2441 691 2322 
L 691 4666 
z
" transform="scale(0.015625)"/>
       </defs>
       <use xlink:href="#DejaVuSans-32"/>
       <use xlink:href="#DejaVuSans-35" x="63.623047"/>
      </g>
     </g>
    </g>
    <g id="xtick_3">
     <g id="line2d_3">
      <g>
       <use xlink:href="#mfbb618e30a" x="364.228643" y="640.8" style="stroke: #000000; stroke-width: 0.8"/>
      </g>
     </g>
     <g id="text_3">
      <!-- 50 -->
      <g transform="translate(357.866143 655.398438) scale(0.1 -0.1)">
       <use xlink:href="#DejaVuSans-35"/>
       <use xlink:href="#DejaVuSans-30" x="63.623047"/>
      </g>
     </g>
    </g>
    <g id="xtick_4">
     <g id="line2d_4">
      <g>
       <use xlink:href="#mfbb618e30a" x="459.820238" y="640.8" style="stroke: #000000; stroke-width: 0.8"/>
      </g>
     </g>
     <g id="text_4">
      <!-- 75 -->
      <g transform="translate(453.457738 655.398438) scale(0.1 -0.1)">
       <defs>
        <path id="DejaVuSans-37" d="M 525 4666 
L 3525 4666 
L 3525 4397 
L 1831 0 
L 1172 0 
L 2766 4134 
L 525 4134 
L 525 4666 
z
" transform="scale(0.015625)"/>
       </defs>
       <use xlink:href="#DejaVuSans-37"/>
       <use xlink:href="#DejaVuSans-35" x="63.623047"/>
      </g>
     </g>
    </g>
    <g id="xtick_5">
     <g id="line2d_5">
      <g>
       <use xlink:href="#mfbb618e30a" x="555.411832" y="640.8" style="stroke: #000000; stroke-width: 0.8"/>
      </g>
     </g>
     <g id="text_5">
      <!-- 100 -->
      <g transform="translate(545.868082 655.398438) scale(0.1 -0.1)">
       <defs>
        <path id="DejaVuSans-31" d="M 794 531 
L 1825 531 
L 1825 4091 
L 703 3866 
L 703 4441 
L 1819 4666 
L 2450 4666 
L 2450 531 
L 3481 531 
L 3481 0 
L 794 0 
L 794 531 
z
" transform="scale(0.015625)"/>
       </defs>
       <use xlink:href="#DejaVuSans-31"/>
       <use xlink:href="#DejaVuSans-30" x="63.623047"/>
       <use xlink:href="#DejaVuSans-30" x="127.246094"/>
      </g>
     </g>
    </g>
    <g id="xtick_6">
     <g id="line2d_6">
      <g>
       <use xlink:href="#mfbb618e30a" x="651.003426" y="640.8" style="stroke: #000000; stroke-width: 0.8"/>
      </g>
     </g>
     <g id="text_6">
      <!-- 125 -->
      <g transform="translate(641.459676 655.398438) scale(0.1 -0.1)">
       <use xlink:href="#DejaVuSans-31"/>
       <use xlink:href="#DejaVuSans-32" x="63.623047"/>
       <use xlink:href="#DejaVuSans-35" x="127.246094"/>
      </g>
     </g>
    </g>
    <g id="xtick_7">
     <g id="line2d_7">
      <g>
       <use xlink:href="#mfbb618e30a" x="746.595021" y="640.8" style="stroke: #000000; stroke-width: 0.8"/>
      </g>
     </g>
     <g id="text_7">
      <!-- 150 -->
      <g transform="translate(737.051271 655.398438) scale(0.1 -0.1)">
       <use xlink:href="#DejaVuSans-31"/>
       <use xlink:href="#DejaVuSans-35" x="63.623047"/>
       <use xlink:href="#DejaVuSans-30" x="127.246094"/>
      </g>
     </g>
    </g>
    <g id="xtick_8">
     <g id="line2d_8">
      <g>
       <use xlink:href="#mfbb618e30a" x="842.186615" y="640.8" style="stroke: #000000; stroke-width: 0.8"/>
      </g>
     </g>
     <g id="text_8">
      <!-- 175 -->
      <g transform="translate(832.642865 655.398438) scale(0.1 -0.1)">
       <use xlink:href="#DejaVuSans-31"/>
       <use xlink:href="#DejaVuSans-37" x="63.623047"/>
       <use xlink:href="#DejaVuSans-35" x="127.246094"/>
      </g>
     </g>
    </g>
    <g id="xtick_9">
     <g id="line2d_9">
      <g>
       <use xlink:href="#mfbb618e30a" x="937.778209" y="640.8" style="stroke: #000000; stroke-width: 0.8"/>
      </g>
     </g>
     <g id="text_9">
      <!-- 200 -->
      <g transform="translate(928.234459 655.398438) scale(0.1 -0.1)">
       <use xlink:href="#DejaVuSans-32"/>
       <use xlink:href="#DejaVuSans-30" x="63.623047"/>
       <use xlink:href="#DejaVuSans-30" x="127.246094"/>
      </g>
     </g>
    </g>
    <g id="text_10">
     <!-- epoch -->
     <g transform="translate(538.271875 669.076563) scale(0.1 -0.1)">
      <defs>
       <path id="DejaVuSans-65" d="M 3597 1894 
L 3597 1613 
L 953 1613 
Q 991 1019 1311 708 
Q 1631 397 2203 397 
Q 2534 397 2845 478 
Q 3156 559 3463 722 
L 3463 178 
Q 3153 47 2828 -22 
Q 2503 -91 2169 -91 
Q 1331 -91 842 396 
Q 353 884 353 1716 
Q 353 2575 817 3079 
Q 1281 3584 2069 3584 
Q 2775 3584 3186 3129 
Q 3597 2675 3597 1894 
z
M 3022 2063 
Q 3016 2534 2758 2815 
Q 2500 3097 2075 3097 
Q 1594 3097 1305 2825 
Q 1016 2553 972 2059 
L 3022 2063 
z
" transform="scale(0.015625)"/>
       <path id="DejaVuSans-70" d="M 1159 525 
L 1159 -1331 
L 581 -1331 
L 581 3500 
L 1159 3500 
L 1159 2969 
Q 1341 3281 1617 3432 
Q 1894 3584 2278 3584 
Q 2916 3584 3314 3078 
Q 3713 2572 3713 1747 
Q 3713 922 3314 415 
Q 2916 -91 2278 -91 
Q 1894 -91 1617 61 
Q 1341 213 1159 525 
z
M 3116 1747 
Q 3116 2381 2855 2742 
Q 2594 3103 2138 3103 
Q 1681 3103 1420 2742 
Q 1159 2381 1159 1747 
Q 1159 1113 1420 752 
Q 1681 391 2138 391 
Q 2594 391 2855 752 
Q 3116 1113 3116 1747 
z
" transform="scale(0.015625)"/>
       <path id="DejaVuSans-6f" d="M 1959 3097 
Q 1497 3097 1228 2736 
Q 959 2375 959 1747 
Q 959 1119 1226 758 
Q 1494 397 1959 397 
Q 2419 397 2687 759 
Q 2956 1122 2956 1747 
Q 2956 2369 2687 2733 
Q 2419 3097 1959 3097 
z
M 1959 3584 
Q 2709 3584 3137 3096 
Q 3566 2609 3566 1747 
Q 3566 888 3137 398 
Q 2709 -91 1959 -91 
Q 1206 -91 779 398 
Q 353 888 353 1747 
Q 353 2609 779 3096 
Q 1206 3584 1959 3584 
z
" transform="scale(0.015625)"/>
       <path id="DejaVuSans-63" d="M 3122 3366 
L 3122 2828 
Q 2878 2963 2633 3030 
Q 2388 3097 2138 3097 
Q 1578 3097 1268 2742 
Q 959 2388 959 1747 
Q 959 1106 1268 751 
Q 1578 397 2138 397 
Q 2388 397 2633 464 
Q 2878 531 3122 666 
L 3122 134 
Q 2881 22 2623 -34 
Q 2366 -91 2075 -91 
Q 1284 -91 818 406 
Q 353 903 353 1747 
Q 353 2603 823 3093 
Q 1294 3584 2113 3584 
Q 2378 3584 2631 3529 
Q 2884 3475 3122 3366 
z
" transform="scale(0.015625)"/>
       <path id="DejaVuSans-68" d="M 3513 2113 
L 3513 0 
L 2938 0 
L 2938 2094 
Q 2938 2591 2744 2837 
Q 2550 3084 2163 3084 
Q 1697 3084 1428 2787 
Q 1159 2491 1159 1978 
L 1159 0 
L 581 0 
L 581 4863 
L 1159 4863 
L 1159 2956 
Q 1366 3272 1645 3428 
Q 1925 3584 2291 3584 
Q 2894 3584 3203 3211 
Q 3513 2838 3513 2113 
z
" transform="scale(0.015625)"/>
      </defs>
      <use xlink:href="#DejaVuSans-65"/>
      <use xlink:href="#DejaVuSans-70" x="61.523438"/>
      <use xlink:href="#DejaVuSans-6f" x="125"/>
      <use xlink:href="#DejaVuSans-63" x="186.181641"/>
      <use xlink:href="#DejaVuSans-68" x="241.162109"/>
     </g>
    </g>
   </g>
   <g id="matplotlib.axis_2">
    <g id="ytick_1">
     <g id="line2d_10">
      <defs>
       <path id="ma56a183cb4" d="M 0 0 
L -3.5 0 
" style="stroke: #000000; stroke-width: 0.8"/>
      </defs>
      <g>
       <use xlink:href="#ma56a183cb4" x="135" y="577.080657" style="stroke: #000000; stroke-width: 0.8"/>
      </g>
     </g>
     <g id="text_11">
      <!-- 0.30 -->
      <g transform="translate(105.734375 580.879876) scale(0.1 -0.1)">
       <defs>
        <path id="DejaVuSans-2e" d="M 684 794 
L 1344 794 
L 1344 0 
L 684 0 
L 684 794 
z
" transform="scale(0.015625)"/>
        <path id="DejaVuSans-33" d="M 2597 2516 
Q 3050 2419 3304 2112 
Q 3559 1806 3559 1356 
Q 3559 666 3084 287 
Q 2609 -91 1734 -91 
Q 1441 -91 1130 -33 
Q 819 25 488 141 
L 488 750 
Q 750 597 1062 519 
Q 1375 441 1716 441 
Q 2309 441 2620 675 
Q 2931 909 2931 1356 
Q 2931 1769 2642 2001 
Q 2353 2234 1838 2234 
L 1294 2234 
L 1294 2753 
L 1863 2753 
Q 2328 2753 2575 2939 
Q 2822 3125 2822 3475 
Q 2822 3834 2567 4026 
Q 2313 4219 1838 4219 
Q 1578 4219 1281 4162 
Q 984 4106 628 3988 
L 628 4550 
Q 988 4650 1302 4700 
Q 1616 4750 1894 4750 
Q 2613 4750 3031 4423 
Q 3450 4097 3450 3541 
Q 3450 3153 3228 2886 
Q 3006 2619 2597 2516 
z
" transform="scale(0.015625)"/>
       </defs>
       <use xlink:href="#DejaVuSans-30"/>
       <use xlink:href="#DejaVuSans-2e" x="63.623047"/>
       <use xlink:href="#DejaVuSans-33" x="95.410156"/>
       <use xlink:href="#DejaVuSans-30" x="159.033203"/>
      </g>
     </g>
    </g>
    <g id="ytick_2">
     <g id="line2d_11">
      <g>
       <use xlink:href="#ma56a183cb4" x="135" y="502.678345" style="stroke: #000000; stroke-width: 0.8"/>
      </g>
     </g>
     <g id="text_12">
      <!-- 0.35 -->
      <g transform="translate(105.734375 506.477564) scale(0.1 -0.1)">
       <use xlink:href="#DejaVuSans-30"/>
       <use xlink:href="#DejaVuSans-2e" x="63.623047"/>
       <use xlink:href="#DejaVuSans-33" x="95.410156"/>
       <use xlink:href="#DejaVuSans-35" x="159.033203"/>
      </g>
     </g>
    </g>
    <g id="ytick_3">
     <g id="line2d_12">
      <g>
       <use xlink:href="#ma56a183cb4" x="135" y="428.276033" style="stroke: #000000; stroke-width: 0.8"/>
      </g>
     </g>
     <g id="text_13">
      <!-- 0.40 -->
      <g transform="translate(105.734375 432.075252) scale(0.1 -0.1)">
       <defs>
        <path id="DejaVuSans-34" d="M 2419 4116 
L 825 1625 
L 2419 1625 
L 2419 4116 
z
M 2253 4666 
L 3047 4666 
L 3047 1625 
L 3713 1625 
L 3713 1100 
L 3047 1100 
L 3047 0 
L 2419 0 
L 2419 1100 
L 313 1100 
L 313 1709 
L 2253 4666 
z
" transform="scale(0.015625)"/>
       </defs>
       <use xlink:href="#DejaVuSans-30"/>
       <use xlink:href="#DejaVuSans-2e" x="63.623047"/>
       <use xlink:href="#DejaVuSans-34" x="95.410156"/>
       <use xlink:href="#DejaVuSans-30" x="159.033203"/>
      </g>
     </g>
    </g>
    <g id="ytick_4">
     <g id="line2d_13">
      <g>
       <use xlink:href="#ma56a183cb4" x="135" y="353.873721" style="stroke: #000000; stroke-width: 0.8"/>
      </g>
     </g>
     <g id="text_14">
      <!-- 0.45 -->
      <g transform="translate(105.734375 357.67294) scale(0.1 -0.1)">
       <use xlink:href="#DejaVuSans-30"/>
       <use xlink:href="#DejaVuSans-2e" x="63.623047"/>
       <use xlink:href="#DejaVuSans-34" x="95.410156"/>
       <use xlink:href="#DejaVuSans-35" x="159.033203"/>
      </g>
     </g>
    </g>
    <g id="ytick_5">
     <g id="line2d_14">
      <g>
       <use xlink:href="#ma56a183cb4" x="135" y="279.471409" style="stroke: #000000; stroke-width: 0.8"/>
      </g>
     </g>
     <g id="text_15">
      <!-- 0.50 -->
      <g transform="translate(105.734375 283.270628) scale(0.1 -0.1)">
       <use xlink:href="#DejaVuSans-30"/>
       <use xlink:href="#DejaVuSans-2e" x="63.623047"/>
       <use xlink:href="#DejaVuSans-35" x="95.410156"/>
       <use xlink:href="#DejaVuSans-30" x="159.033203"/>
      </g>
     </g>
    </g>
    <g id="ytick_6">
     <g id="line2d_15">
      <g>
       <use xlink:href="#ma56a183cb4" x="135" y="205.069097" style="stroke: #000000; stroke-width: 0.8"/>
      </g>
     </g>
     <g id="text_16">
      <!-- 0.55 -->
      <g transform="translate(105.734375 208.868316) scale(0.1 -0.1)">
       <use xlink:href="#DejaVuSans-30"/>
       <use xlink:href="#DejaVuSans-2e" x="63.623047"/>
       <use xlink:href="#DejaVuSans-35" x="95.410156"/>
       <use xlink:href="#DejaVuSans-35" x="159.033203"/>
      </g>
     </g>
    </g>
    <g id="ytick_7">
     <g id="line2d_16">
      <g>
       <use xlink:href="#ma56a183cb4" x="135" y="130.666785" style="stroke: #000000; stroke-width: 0.8"/>
      </g>
     </g>
     <g id="text_17">
      <!-- 0.60 -->
      <g transform="translate(105.734375 134.466004) scale(0.1 -0.1)">
       <defs>
        <path id="DejaVuSans-36" d="M 2113 2584 
Q 1688 2584 1439 2293 
Q 1191 2003 1191 1497 
Q 1191 994 1439 701 
Q 1688 409 2113 409 
Q 2538 409 2786 701 
Q 3034 994 3034 1497 
Q 3034 2003 2786 2293 
Q 2538 2584 2113 2584 
z
M 3366 4563 
L 3366 3988 
Q 3128 4100 2886 4159 
Q 2644 4219 2406 4219 
Q 1781 4219 1451 3797 
Q 1122 3375 1075 2522 
Q 1259 2794 1537 2939 
Q 1816 3084 2150 3084 
Q 2853 3084 3261 2657 
Q 3669 2231 3669 1497 
Q 3669 778 3244 343 
Q 2819 -91 2113 -91 
Q 1303 -91 875 529 
Q 447 1150 447 2328 
Q 447 3434 972 4092 
Q 1497 4750 2381 4750 
Q 2619 4750 2861 4703 
Q 3103 4656 3366 4563 
z
" transform="scale(0.015625)"/>
       </defs>
       <use xlink:href="#DejaVuSans-30"/>
       <use xlink:href="#DejaVuSans-2e" x="63.623047"/>
       <use xlink:href="#DejaVuSans-36" x="95.410156"/>
       <use xlink:href="#DejaVuSans-30" x="159.033203"/>
      </g>
     </g>
    </g>
    <g id="text_18">
     <!-- score -->
     <g transform="translate(99.654687 377.032812) rotate(-90) scale(0.1 -0.1)">
      <defs>
       <path id="DejaVuSans-73" d="M 2834 3397 
L 2834 2853 
Q 2591 2978 2328 3040 
Q 2066 3103 1784 3103 
Q 1356 3103 1142 2972 
Q 928 2841 928 2578 
Q 928 2378 1081 2264 
Q 1234 2150 1697 2047 
L 1894 2003 
Q 2506 1872 2764 1633 
Q 3022 1394 3022 966 
Q 3022 478 2636 193 
Q 2250 -91 1575 -91 
Q 1294 -91 989 -36 
Q 684 19 347 128 
L 347 722 
Q 666 556 975 473 
Q 1284 391 1588 391 
Q 1994 391 2212 530 
Q 2431 669 2431 922 
Q 2431 1156 2273 1281 
Q 2116 1406 1581 1522 
L 1381 1569 
Q 847 1681 609 1914 
Q 372 2147 372 2553 
Q 372 3047 722 3315 
Q 1072 3584 1716 3584 
Q 2034 3584 2315 3537 
Q 2597 3491 2834 3397 
z
" transform="scale(0.015625)"/>
       <path id="DejaVuSans-72" d="M 2631 2963 
Q 2534 3019 2420 3045 
Q 2306 3072 2169 3072 
Q 1681 3072 1420 2755 
Q 1159 2438 1159 1844 
L 1159 0 
L 581 0 
L 581 3500 
L 1159 3500 
L 1159 2956 
Q 1341 3275 1631 3429 
Q 1922 3584 2338 3584 
Q 2397 3584 2469 3576 
Q 2541 3569 2628 3553 
L 2631 2963 
z
" transform="scale(0.015625)"/>
      </defs>
      <use xlink:href="#DejaVuSans-73"/>
      <use xlink:href="#DejaVuSans-63" x="52.099609"/>
      <use xlink:href="#DejaVuSans-6f" x="107.080078"/>
      <use xlink:href="#DejaVuSans-72" x="168.261719"/>
      <use xlink:href="#DejaVuSans-65" x="207.125"/>
     </g>
    </g>
   </g>
   <g id="line2d_17">
    <path d="M 173.045455 519.899554 
L 176.869118 381.461095 
L 180.692782 368.085399 
L 184.516446 365.410259 
L 188.34011 317.257752 
L 192.163773 322.60803 
L 195.987437 288.500004 
L 199.811101 336.652512 
L 203.634765 349.359423 
L 207.458429 255.729548 
L 211.282092 273.786738 
L 215.105756 325.951954 
L 218.92942 248.372915 
L 222.753084 223.627876 
L 226.576747 263.086181 
L 230.400411 203.564331 
L 234.224075 218.946382 
L 238.047739 210.920964 
L 241.871402 209.583395 
L 245.695066 240.347497 
L 249.51873 226.9718 
L 253.342394 237.672357 
L 257.166058 257.067117 
L 260.989721 195.538913 
L 264.813385 213.596104 
L 268.637049 188.851065 
L 272.460713 194.870128 
L 276.284376 180.156862 
L 280.10804 237.672357 
L 283.931704 223.627876 
L 287.755368 255.060763 
L 291.579032 203.564331 
L 295.402695 196.876483 
L 299.226359 207.57704 
L 303.050023 197.545268 
L 306.873687 210.920964 
L 310.69735 208.91461 
L 314.521014 147.386406 
L 318.344678 218.277597 
L 322.168342 195.538913 
L 325.992005 192.194989 
L 329.815669 191.526204 
L 333.639333 198.214053 
L 337.462997 181.494432 
L 341.286661 169.456305 
L 345.110324 170.12509 
L 348.933988 176.144153 
L 352.757652 166.781166 
L 356.581316 184.838356 
L 360.404979 194.870128 
L 364.228643 208.91461 
L 368.052307 186.84471 
L 371.875971 245.02899 
L 375.699635 162.768457 
L 379.523298 212.927319 
L 383.346962 165.443596 
L 387.170626 196.207698 
L 390.99429 192.863774 
L 394.817953 194.201344 
L 398.641617 177.481723 
L 402.465281 213.596104 
L 406.288945 164.106026 
L 410.112608 198.214053 
L 413.936272 195.538913 
L 417.759936 175.475368 
L 421.5836 194.870128 
L 425.407264 195.538913 
L 429.230927 188.18228 
L 433.054591 218.946382 
L 436.878255 178.819293 
L 440.701919 196.207698 
L 444.525582 210.252179 
L 448.349246 204.233116 
L 452.17291 224.296661 
L 455.996574 187.513495 
L 459.820238 193.532559 
L 463.643901 225.63423 
L 467.467565 224.965446 
L 471.291229 184.838356 
L 475.114893 187.513495 
L 478.938556 188.18228 
L 482.76222 172.800229 
L 486.585884 185.507141 
L 490.409548 218.277597 
L 494.233212 210.252179 
L 498.056875 172.800229 
L 501.880539 208.245825 
L 505.704203 192.863774 
L 509.527867 172.800229 
L 513.35153 218.277597 
L 517.175194 216.271243 
L 520.998858 187.513495 
L 524.822522 167.44995 
L 528.646185 204.901901 
L 532.469849 168.118735 
L 536.293513 180.825647 
L 540.117177 175.475368 
L 543.940841 183.500786 
L 547.764504 214.264888 
L 551.588168 168.118735 
L 555.411832 187.513495 
L 559.235496 185.507141 
L 563.059159 165.443596 
L 566.882823 176.812938 
L 570.706487 191.526204 
L 574.530151 176.812938 
L 578.353815 194.201344 
L 582.177478 158.086963 
L 589.824806 194.201344 
L 593.64847 190.857419 
L 597.472133 218.277597 
L 601.295797 163.437242 
L 605.119461 185.507141 
L 608.943125 161.430887 
L 612.766788 202.226761 
L 616.590452 178.150508 
L 620.414116 168.78752 
L 624.23778 166.781166 
L 628.061444 163.437242 
L 631.885107 205.570686 
L 635.708771 192.194989 
L 639.532435 183.500786 
L 643.356099 188.18228 
L 647.179762 188.851065 
L 651.003426 161.430887 
L 654.82709 178.819293 
L 658.650754 154.743039 
L 662.474418 169.456305 
L 666.298081 190.857419 
L 670.121745 191.526204 
L 673.945409 188.851065 
L 677.769073 168.118735 
L 681.592736 213.596104 
L 685.4164 174.137799 
L 689.240064 164.106026 
L 693.063728 172.131444 
L 700.711055 178.819293 
L 704.534719 194.870128 
L 708.358383 165.443596 
L 712.182047 170.12509 
L 716.00571 159.424533 
L 719.829374 176.144153 
L 723.653038 198.882837 
L 727.476702 158.086963 
L 731.300365 184.169571 
L 735.124029 156.080608 
L 738.947693 202.226761 
L 742.771357 176.812938 
L 746.595021 182.832001 
L 750.418684 166.781166 
L 754.242348 182.832001 
L 758.066012 164.106026 
L 761.889676 175.475368 
L 765.713339 192.863774 
L 769.537003 188.18228 
L 773.360667 174.137799 
L 777.184331 168.78752 
L 781.007995 170.793875 
L 784.831658 176.812938 
L 788.655322 136.017064 
L 792.478986 192.863774 
L 796.30265 169.456305 
L 800.126313 183.500786 
L 803.949977 187.513495 
L 807.773641 161.430887 
L 811.597305 164.774811 
L 815.420968 184.838356 
L 819.244632 192.194989 
L 823.068296 201.557977 
L 826.89196 177.481723 
L 830.715624 213.596104 
L 834.539287 189.51985 
L 838.362951 161.430887 
L 842.186615 171.462659 
L 846.010279 168.78752 
L 849.833942 179.488077 
L 853.657606 185.507141 
L 857.48127 158.086963 
L 861.304934 160.762102 
L 865.128598 177.481723 
L 868.952261 172.800229 
L 872.775925 187.513495 
L 876.599589 192.863774 
L 880.423253 199.551622 
L 884.246916 174.806584 
L 888.07058 156.749393 
L 891.894244 183.500786 
L 895.717908 180.156862 
L 899.541571 166.112381 
L 903.365235 169.456305 
L 907.188899 182.163217 
L 911.012563 168.118735 
L 914.836227 188.851065 
L 918.65989 239.009927 
L 922.483554 175.475368 
L 926.307218 172.131444 
L 930.130882 204.233116 
L 933.954545 184.838356 
L 933.954545 184.838356 
" clip-path="url(#p91caef1dff)" style="fill: none; stroke: #1f77b4; stroke-width: 1.5; stroke-linecap: square"/>
   </g>
   <g id="line2d_18">
    <path d="M 173.045455 493.992749 
L 176.869118 533.323547 
L 180.692782 395.149094 
L 184.516446 406.633866 
L 188.34011 312.334716 
L 192.163773 318.626836 
L 195.987437 322.458655 
L 199.811101 240.906394 
L 203.634765 295.574186 
L 207.458429 300.823475 
L 211.282092 250.866181 
L 215.105756 195.809814 
L 218.92942 227.014893 
L 222.753084 222.888728 
L 226.576747 250.959225 
L 230.400411 188.084269 
L 234.224075 183.417111 
L 238.047739 202.482593 
L 241.871402 232.30084 
L 245.695066 167.922093 
L 249.51873 218.483709 
L 253.342394 238.731558 
L 257.166058 168.864464 
L 260.989721 200.686444 
L 264.813385 198.553027 
L 268.637049 165.150689 
L 272.460713 181.655999 
L 276.284376 164.57011 
L 280.10804 232.13198 
L 283.931704 163.107801 
L 287.755368 160.812416 
L 291.579032 145.835986 
L 295.402695 191.464478 
L 299.226359 205.112043 
L 303.050023 192.170474 
L 306.873687 168.239276 
L 310.69735 180.925033 
L 314.521014 167.169042 
L 318.344678 164.863874 
L 322.168342 149.667165 
L 325.992005 159.745628 
L 329.815669 197.005087 
L 333.639333 186.997766 
L 337.462997 182.586369 
L 341.286661 190.87434 
L 345.110324 146.203057 
L 348.933988 156.823259 
L 352.757652 175.792719 
L 356.581316 164.345841 
L 360.404979 146.275523 
L 364.228643 137.834143 
L 368.052307 170.05629 
L 371.875971 111.6 
L 375.699635 156.440117 
L 379.523298 177.492689 
L 383.346962 186.158284 
L 387.170626 176.000211 
L 390.99429 185.904577 
L 394.817953 186.117626 
L 398.641617 184.251742 
L 402.465281 178.676953 
L 406.288945 166.847794 
L 410.112608 200.237661 
L 413.936272 176.684584 
L 417.759936 163.415897 
L 421.5836 201.103786 
L 425.407264 196.719453 
L 429.230927 170.98905 
L 433.054591 171.803487 
L 436.878255 180.017221 
L 440.701919 196.996682 
L 444.525582 182.973352 
L 448.349246 191.21443 
L 452.17291 170.364369 
L 455.996574 178.089483 
L 459.820238 177.749709 
L 463.643901 175.380912 
L 467.467565 178.278109 
L 471.291229 172.845925 
L 475.114893 220.623876 
L 478.938556 169.018954 
L 482.76222 152.159654 
L 486.585884 163.341489 
L 490.409548 193.386292 
L 494.233212 195.596318 
L 498.056875 145.03344 
L 501.880539 152.0324 
L 505.704203 209.70344 
L 509.527867 156.764347 
L 513.35153 231.106899 
L 517.175194 159.199329 
L 520.998858 198.590796 
L 524.822522 194.366677 
L 528.646185 190.392539 
L 532.469849 168.739438 
L 536.293513 169.952986 
L 540.117177 186.617304 
L 543.940841 170.544812 
L 547.764504 170.786978 
L 551.588168 157.546463 
L 555.411832 166.700903 
L 559.235496 166.269842 
L 563.059159 153.148314 
L 566.882823 185.892414 
L 570.706487 139.417159 
L 574.530151 156.495913 
L 578.353815 177.753849 
L 582.177478 143.374128 
L 586.001142 185.187893 
L 589.824806 167.91199 
L 593.64847 179.122104 
L 597.472133 217.931149 
L 601.295797 160.65367 
L 605.119461 169.445944 
L 608.943125 142.500647 
L 612.766788 132.493867 
L 616.590452 185.871808 
L 620.414116 165.681693 
L 624.23778 165.221647 
L 628.061444 177.838591 
L 631.885107 149.340445 
L 635.708771 179.749534 
L 639.532435 182.751828 
L 643.356099 153.20191 
L 647.179762 173.686545 
L 651.003426 170.625993 
L 654.82709 176.317945 
L 658.650754 166.113613 
L 662.474418 173.462824 
L 666.298081 156.021438 
L 670.121745 175.621708 
L 673.945409 185.773858 
L 677.769073 171.714958 
L 681.592736 166.746316 
L 685.4164 150.895464 
L 689.240064 157.224689 
L 693.063728 178.468728 
L 696.887392 187.961544 
L 700.711055 175.318074 
L 704.534719 213.22954 
L 708.358383 142.027252 
L 712.182047 158.837595 
L 716.00571 160.662378 
L 719.829374 177.918199 
L 723.653038 186.170362 
L 727.476702 162.298759 
L 731.300365 184.966876 
L 735.124029 166.260058 
L 738.947693 193.832128 
L 742.771357 155.397261 
L 746.595021 182.68048 
L 750.418684 174.004459 
L 754.242348 183.148876 
L 758.066012 162.336648 
L 761.889676 171.371689 
L 765.713339 162.144524 
L 769.537003 169.936019 
L 773.360667 163.364485 
L 777.184331 164.181624 
L 781.007995 152.666155 
L 784.831658 152.808412 
L 788.655322 138.394439 
L 792.478986 188.308761 
L 796.30265 172.826449 
L 800.126313 144.419328 
L 803.949977 186.426706 
L 807.773641 184.772236 
L 811.597305 160.682105 
L 815.420968 164.401169 
L 819.244632 183.921184 
L 823.068296 192.779002 
L 826.89196 189.471643 
L 830.715624 221.522712 
L 834.539287 158.572413 
L 838.362951 150.240675 
L 842.186615 152.719126 
L 846.010279 174.02099 
L 849.833942 178.874463 
L 853.657606 152.572976 
L 857.48127 169.885851 
L 861.304934 165.901667 
L 868.952261 165.110814 
L 872.775925 165.352952 
L 876.599589 186.233634 
L 880.423253 205.828465 
L 884.246916 168.104164 
L 888.07058 165.044653 
L 891.894244 173.474007 
L 895.717908 179.663105 
L 899.541571 167.581313 
L 903.365235 161.330888 
L 907.188899 183.415578 
L 911.012563 154.579663 
L 914.836227 168.095253 
L 918.65989 210.393859 
L 922.483554 171.502235 
L 926.307218 159.237476 
L 930.130882 179.511554 
L 933.954545 159.929382 
L 933.954545 159.929382 
" clip-path="url(#p91caef1dff)" style="fill: none; stroke: #ff7f0e; stroke-width: 1.5; stroke-linecap: square"/>
   </g>
   <g id="line2d_19">
    <path d="M 173.045455 523.004825 
L 176.869118 386.822315 
L 180.692782 419.377006 
L 184.516446 382.211887 
L 188.34011 327.212604 
L 192.163773 314.410364 
L 195.987437 306.863431 
L 199.811101 325.397064 
L 203.634765 345.282357 
L 207.458429 262.1266 
L 211.282092 291.871653 
L 215.105756 300.516872 
L 218.92942 241.227574 
L 222.753084 246.539934 
L 226.576747 263.935913 
L 230.400411 209.654599 
L 234.224075 215.988177 
L 238.047739 200.478804 
L 241.871402 217.209241 
L 245.695066 224.391085 
L 249.51873 212.675215 
L 253.342394 218.911056 
L 257.166058 239.155722 
L 260.989721 195.939632 
L 264.813385 220.929796 
L 268.637049 176.907297 
L 272.460713 181.469075 
L 276.284376 193.160668 
L 280.10804 215.296805 
L 283.931704 206.20038 
L 287.755368 225.641965 
L 291.579032 218.880129 
L 295.402695 200.833534 
L 299.226359 210.625518 
L 303.050023 187.684304 
L 306.873687 204.520616 
L 310.69735 240.502422 
L 314.521014 153.440286 
L 318.344678 213.246609 
L 322.168342 207.161655 
L 325.992005 187.564137 
L 329.815669 179.870631 
L 333.639333 190.403317 
L 337.462997 190.030238 
L 345.110324 167.935037 
L 348.933988 194.110859 
L 352.757652 169.899527 
L 356.581316 208.942095 
L 360.404979 187.037085 
L 364.228643 193.791902 
L 368.052307 166.959646 
L 371.875971 225.454717 
L 375.699635 165.358156 
L 379.523298 216.785499 
L 383.346962 169.085376 
L 387.170626 194.999635 
L 390.99429 184.888352 
L 394.817953 172.088398 
L 398.641617 184.37709 
L 402.465281 231.647674 
L 406.288945 164.290812 
L 410.112608 177.392834 
L 413.936272 197.037589 
L 417.759936 184.186523 
L 421.5836 189.588924 
L 425.407264 189.260075 
L 429.230927 175.163758 
L 433.054591 207.982571 
L 436.878255 179.719425 
L 440.701919 189.310229 
L 444.525582 212.258577 
L 448.349246 207.690961 
L 452.17291 220.430712 
L 455.996574 174.385513 
L 459.820238 193.910928 
L 463.643901 200.908739 
L 467.467565 201.680447 
L 471.291229 184.776777 
L 475.114893 197.575186 
L 478.938556 178.414833 
L 482.76222 178.193509 
L 486.585884 186.218306 
L 490.409548 209.07257 
L 494.233212 194.165363 
L 498.056875 183.616663 
L 501.880539 213.140638 
L 505.704203 185.90285 
L 509.527867 181.784808 
L 513.35153 201.47625 
L 517.175194 197.900795 
L 520.998858 175.873957 
L 524.822522 172.34649 
L 528.646185 208.941961 
L 532.469849 173.932924 
L 536.293513 174.147777 
L 540.117177 190.882538 
L 543.940841 184.357025 
L 547.764504 194.660395 
L 551.588168 177.376957 
L 555.411832 181.935503 
L 559.235496 186.989013 
L 563.059159 164.393868 
L 570.706487 187.237679 
L 574.530151 178.15648 
L 578.353815 194.284326 
L 582.177478 158.73236 
L 586.001142 167.211202 
L 589.824806 195.765499 
L 593.64847 186.562699 
L 597.472133 205.251659 
L 601.295797 163.813418 
L 605.119461 205.983179 
L 608.943125 160.251534 
L 612.766788 190.444451 
L 616.590452 183.060692 
L 620.414116 170.450724 
L 624.23778 160.953573 
L 628.061444 155.80154 
L 631.885107 193.647349 
L 635.708771 186.828459 
L 639.532435 190.885955 
L 643.356099 187.605184 
L 647.179762 179.456068 
L 651.003426 162.072343 
L 654.82709 168.44565 
L 658.650754 146.46584 
L 662.474418 167.866837 
L 666.298081 180.707444 
L 670.121745 188.46987 
L 673.945409 187.724919 
L 677.769073 161.352493 
L 681.592736 231.357801 
L 685.4164 174.666804 
L 689.240064 158.065586 
L 693.063728 164.975515 
L 696.887392 167.060403 
L 700.711055 177.271516 
L 704.534719 194.370719 
L 708.358383 164.326972 
L 712.182047 168.825252 
L 716.00571 159.909408 
L 719.829374 165.467563 
L 723.653038 191.833978 
L 727.476702 158.522005 
L 731.300365 183.940114 
L 735.124029 151.374494 
L 738.947693 180.417441 
L 742.771357 169.670874 
L 746.595021 180.994727 
L 750.418684 160.188351 
L 754.242348 170.931441 
L 758.066012 172.429454 
L 761.889676 173.054923 
L 765.713339 180.920604 
L 769.537003 184.568492 
L 773.360667 172.385863 
L 777.184331 170.508229 
L 781.007995 166.487751 
L 784.831658 178.680765 
L 788.655322 133.043475 
L 792.478986 183.426702 
L 796.30265 162.938389 
L 800.126313 171.753316 
L 803.949977 189.325685 
L 807.773641 157.036341 
L 811.597305 161.146814 
L 815.420968 176.037446 
L 819.244632 185.670397 
L 823.068296 196.668848 
L 826.89196 177.927553 
L 830.715624 201.97759 
L 834.539287 183.455388 
L 838.362951 143.464993 
L 842.186615 168.35411 
L 846.010279 178.770407 
L 849.833942 168.787183 
L 853.657606 177.275798 
L 857.48127 162.747815 
L 861.304934 160.615005 
L 865.128598 165.930896 
L 868.952261 174.395905 
L 872.775925 179.426952 
L 876.599589 190.05699 
L 880.423253 192.524976 
L 884.246916 179.317174 
L 888.07058 164.216526 
L 891.894244 164.929686 
L 895.717908 173.129004 
L 899.541571 160.073051 
L 903.365235 172.49632 
L 907.188899 181.076407 
L 911.012563 159.560227 
L 918.65989 214.961514 
L 922.483554 172.839317 
L 926.307218 169.22896 
L 930.130882 195.909416 
L 933.954545 181.445513 
L 933.954545 181.445513 
" clip-path="url(#p91caef1dff)" style="fill: none; stroke: #2ca02c; stroke-width: 1.5; stroke-linecap: square"/>
   </g>
   <g id="line2d_20">
    <path d="M 173.045455 615.6 
L 176.869118 474.114645 
L 180.692782 512.762792 
L 184.516446 436.18637 
L 188.34011 321.471799 
L 192.163773 326.600616 
L 195.987437 361.254064 
L 199.811101 352.316042 
L 203.634765 375.431983 
L 207.458429 301.770961 
L 211.282092 304.433852 
L 215.105756 343.326896 
L 218.92942 243.718639 
L 222.753084 304.549666 
L 226.576747 275.808655 
L 230.400411 215.714787 
L 234.224075 214.718079 
L 238.047739 206.774965 
L 241.871402 254.697371 
L 245.695066 220.727955 
L 249.51873 274.245699 
L 253.342394 241.028597 
L 257.166058 243.525012 
L 260.989721 201.183872 
L 264.813385 212.973421 
L 268.637049 212.829358 
L 272.460713 192.810128 
L 276.284376 220.300413 
L 280.10804 289.646755 
L 283.931704 209.862556 
L 287.755368 242.790994 
L 291.579032 200.351062 
L 295.402695 202.040413 
L 299.226359 209.86194 
L 303.050023 225.458456 
L 306.873687 195.198621 
L 310.69735 269.195425 
L 314.521014 167.320761 
L 318.344678 199.718371 
L 322.168342 195.556368 
L 325.992005 177.224509 
L 329.815669 192.829811 
L 333.639333 189.782189 
L 337.462997 190.680165 
L 341.286661 196.38884 
L 345.110324 159.765715 
L 348.933988 191.681892 
L 352.757652 173.572413 
L 356.581316 214.399457 
L 360.404979 181.558668 
L 364.228643 186.403055 
L 368.052307 183.684472 
L 371.875971 229.342751 
L 375.699635 161.459281 
L 379.523298 212.824434 
L 383.346962 181.090542 
L 387.170626 186.764421 
L 390.99429 187.656543 
L 394.817953 194.686262 
L 398.641617 185.945266 
L 402.465281 228.540721 
L 406.288945 166.128801 
L 410.112608 203.453947 
L 413.936272 190.594249 
L 417.759936 185.33501 
L 421.5836 201.199875 
L 425.407264 195.016864 
L 429.230927 182.162606 
L 433.054591 200.342069 
L 436.878255 179.966892 
L 440.701919 195.908563 
L 444.525582 203.757918 
L 448.349246 227.119978 
L 452.17291 203.877692 
L 455.996574 182.781927 
L 459.820238 190.282616 
L 463.643901 214.949676 
L 467.467565 217.319741 
L 471.291229 184.173559 
L 475.114893 230.269005 
L 478.938556 178.608937 
L 482.76222 211.153238 
L 486.585884 177.012804 
L 490.409548 210.429381 
L 494.233212 203.79398 
L 498.056875 175.89141 
L 501.880539 192.66365 
L 505.704203 201.944145 
L 509.527867 174.419554 
L 513.35153 228.035505 
L 517.175194 202.830807 
L 520.998858 195.89493 
L 524.822522 189.367658 
L 528.646185 205.590985 
L 532.469849 173.636595 
L 536.293513 176.899781 
L 540.117177 217.224814 
L 543.940841 178.403028 
L 547.764504 202.869443 
L 551.588168 173.200486 
L 555.411832 177.681811 
L 559.235496 178.274923 
L 563.059159 159.874765 
L 566.882823 183.252357 
L 570.706487 174.023734 
L 574.530151 169.529218 
L 578.353815 191.634249 
L 582.177478 153.764861 
L 586.001142 182.745871 
L 589.824806 185.893342 
L 593.64847 183.083809 
L 597.472133 218.324991 
L 601.295797 162.949642 
L 605.119461 207.946669 
L 608.943125 152.8779 
L 612.766788 181.62242 
L 616.590452 186.85276 
L 620.414116 169.001637 
L 624.23778 164.514903 
L 628.061444 193.501416 
L 631.885107 184.502564 
L 635.708771 184.926491 
L 639.532435 189.05536 
L 643.356099 174.562667 
L 647.179762 180.651614 
L 651.003426 167.13206 
L 654.82709 176.096319 
L 658.650754 159.328155 
L 662.474418 172.136326 
L 666.298081 175.420977 
L 670.121745 183.910058 
L 673.945409 189.803859 
L 677.769073 168.794042 
L 681.592736 215.660175 
L 685.4164 166.387694 
L 689.240064 159.126334 
L 693.063728 175.593326 
L 696.887392 182.029144 
L 700.711055 176.487996 
L 704.534719 209.758861 
L 708.358383 158.738967 
L 712.182047 164.519665 
L 716.00571 160.572816 
L 719.829374 176.931912 
L 723.653038 190.150898 
L 727.476702 160.832738 
L 731.300365 186.163975 
L 735.124029 164.238822 
L 738.947693 203.634914 
L 742.771357 171.684909 
L 746.595021 182.356861 
L 750.418684 169.295718 
L 754.242348 181.900835 
L 758.066012 176.262353 
L 761.889676 172.834229 
L 765.713339 178.713555 
L 769.537003 179.672264 
L 773.360667 168.185909 
L 777.184331 168.821606 
L 781.007995 161.818121 
L 784.831658 171.538907 
L 788.655322 136.620246 
L 792.478986 187.948293 
L 796.30265 168.659468 
L 800.126313 170.058661 
L 803.949977 190.090546 
L 807.773641 178.153158 
L 811.597305 162.573133 
L 815.420968 173.710813 
L 819.244632 187.485458 
L 823.068296 199.1402 
L 826.89196 186.539593 
L 830.715624 218.95028 
L 834.539287 178.606658 
L 838.362951 162.753027 
L 842.186615 162.107637 
L 846.010279 184.150413 
L 849.833942 177.616253 
L 853.657606 171.776618 
L 857.48127 170.420358 
L 861.304934 164.81581 
L 865.128598 169.535146 
L 868.952261 170.666305 
L 872.775925 187.84948 
L 876.599589 188.972724 
L 880.423253 200.977156 
L 884.246916 175.653745 
L 888.07058 178.72416 
L 891.894244 186.100893 
L 895.717908 180.234225 
L 899.541571 165.383459 
L 903.365235 170.407552 
L 907.188899 182.474033 
L 911.012563 159.347719 
L 914.836227 179.254628 
L 918.65989 233.620436 
L 922.483554 172.226412 
L 926.307218 166.692782 
L 930.130882 192.703643 
L 933.954545 176.801993 
L 933.954545 176.801993 
" clip-path="url(#p91caef1dff)" style="fill: none; stroke: #d62728; stroke-width: 1.5; stroke-linecap: square"/>
   </g>
   <g id="patch_3">
    <path d="M 135 640.8 
L 135 86.4 
" style="fill: none; stroke: #000000; stroke-width: 0.8; stroke-linejoin: miter; stroke-linecap: square"/>
   </g>
   <g id="patch_4">
    <path d="M 972 640.8 
L 972 86.4 
" style="fill: none; stroke: #000000; stroke-width: 0.8; stroke-linejoin: miter; stroke-linecap: square"/>
   </g>
   <g id="patch_5">
    <path d="M 135 640.8 
L 972 640.8 
" style="fill: none; stroke: #000000; stroke-width: 0.8; stroke-linejoin: miter; stroke-linecap: square"/>
   </g>
   <g id="patch_6">
    <path d="M 135 86.4 
L 972 86.4 
" style="fill: none; stroke: #000000; stroke-width: 0.8; stroke-linejoin: miter; stroke-linecap: square"/>
   </g>
   <g id="legend_1">
    <g id="patch_7">
     <path d="M 142 153.1125 
L 254.8 153.1125 
Q 256.8 153.1125 256.8 151.1125 
L 256.8 93.4 
Q 256.8 91.4 254.8 91.4 
L 142 91.4 
Q 140 91.4 140 93.4 
L 140 151.1125 
Q 140 153.1125 142 153.1125 
z
" style="fill: #ffffff; opacity: 0.8; stroke: #cccccc; stroke-linejoin: miter"/>
    </g>
    <g id="line2d_21">
     <path d="M 144 99.498437 
L 154 99.498437 
L 164 99.498437 
" style="fill: none; stroke: #1f77b4; stroke-width: 1.5; stroke-linecap: square"/>
    </g>
    <g id="text_19">
     <!-- Accuracy -->
     <g transform="translate(172 102.998437) scale(0.1 -0.1)">
      <defs>
       <path id="DejaVuSans-41" d="M 2188 4044 
L 1331 1722 
L 3047 1722 
L 2188 4044 
z
M 1831 4666 
L 2547 4666 
L 4325 0 
L 3669 0 
L 3244 1197 
L 1141 1197 
L 716 0 
L 50 0 
L 1831 4666 
z
" transform="scale(0.015625)"/>
       <path id="DejaVuSans-75" d="M 544 1381 
L 544 3500 
L 1119 3500 
L 1119 1403 
Q 1119 906 1312 657 
Q 1506 409 1894 409 
Q 2359 409 2629 706 
Q 2900 1003 2900 1516 
L 2900 3500 
L 3475 3500 
L 3475 0 
L 2900 0 
L 2900 538 
Q 2691 219 2414 64 
Q 2138 -91 1772 -91 
Q 1169 -91 856 284 
Q 544 659 544 1381 
z
M 1991 3584 
L 1991 3584 
z
" transform="scale(0.015625)"/>
       <path id="DejaVuSans-61" d="M 2194 1759 
Q 1497 1759 1228 1600 
Q 959 1441 959 1056 
Q 959 750 1161 570 
Q 1363 391 1709 391 
Q 2188 391 2477 730 
Q 2766 1069 2766 1631 
L 2766 1759 
L 2194 1759 
z
M 3341 1997 
L 3341 0 
L 2766 0 
L 2766 531 
Q 2569 213 2275 61 
Q 1981 -91 1556 -91 
Q 1019 -91 701 211 
Q 384 513 384 1019 
Q 384 1609 779 1909 
Q 1175 2209 1959 2209 
L 2766 2209 
L 2766 2266 
Q 2766 2663 2505 2880 
Q 2244 3097 1772 3097 
Q 1472 3097 1187 3025 
Q 903 2953 641 2809 
L 641 3341 
Q 956 3463 1253 3523 
Q 1550 3584 1831 3584 
Q 2591 3584 2966 3190 
Q 3341 2797 3341 1997 
z
" transform="scale(0.015625)"/>
       <path id="DejaVuSans-79" d="M 2059 -325 
Q 1816 -950 1584 -1140 
Q 1353 -1331 966 -1331 
L 506 -1331 
L 506 -850 
L 844 -850 
Q 1081 -850 1212 -737 
Q 1344 -625 1503 -206 
L 1606 56 
L 191 3500 
L 800 3500 
L 1894 763 
L 2988 3500 
L 3597 3500 
L 2059 -325 
z
" transform="scale(0.015625)"/>
      </defs>
      <use xlink:href="#DejaVuSans-41"/>
      <use xlink:href="#DejaVuSans-63" x="66.658203"/>
      <use xlink:href="#DejaVuSans-63" x="121.638672"/>
      <use xlink:href="#DejaVuSans-75" x="176.619141"/>
      <use xlink:href="#DejaVuSans-72" x="239.998047"/>
      <use xlink:href="#DejaVuSans-61" x="281.111328"/>
      <use xlink:href="#DejaVuSans-63" x="342.390625"/>
      <use xlink:href="#DejaVuSans-79" x="397.371094"/>
     </g>
    </g>
    <g id="line2d_22">
     <path d="M 144 114.176562 
L 154 114.176562 
L 164 114.176562 
" style="fill: none; stroke: #ff7f0e; stroke-width: 1.5; stroke-linecap: square"/>
    </g>
    <g id="text_20">
     <!-- Precision Macro' -->
     <g transform="translate(172 117.676562) scale(0.1 -0.1)">
      <defs>
       <path id="DejaVuSans-50" d="M 1259 4147 
L 1259 2394 
L 2053 2394 
Q 2494 2394 2734 2622 
Q 2975 2850 2975 3272 
Q 2975 3691 2734 3919 
Q 2494 4147 2053 4147 
L 1259 4147 
z
M 628 4666 
L 2053 4666 
Q 2838 4666 3239 4311 
Q 3641 3956 3641 3272 
Q 3641 2581 3239 2228 
Q 2838 1875 2053 1875 
L 1259 1875 
L 1259 0 
L 628 0 
L 628 4666 
z
" transform="scale(0.015625)"/>
       <path id="DejaVuSans-69" d="M 603 3500 
L 1178 3500 
L 1178 0 
L 603 0 
L 603 3500 
z
M 603 4863 
L 1178 4863 
L 1178 4134 
L 603 4134 
L 603 4863 
z
" transform="scale(0.015625)"/>
       <path id="DejaVuSans-6e" d="M 3513 2113 
L 3513 0 
L 2938 0 
L 2938 2094 
Q 2938 2591 2744 2837 
Q 2550 3084 2163 3084 
Q 1697 3084 1428 2787 
Q 1159 2491 1159 1978 
L 1159 0 
L 581 0 
L 581 3500 
L 1159 3500 
L 1159 2956 
Q 1366 3272 1645 3428 
Q 1925 3584 2291 3584 
Q 2894 3584 3203 3211 
Q 3513 2838 3513 2113 
z
" transform="scale(0.015625)"/>
       <path id="DejaVuSans-20" transform="scale(0.015625)"/>
       <path id="DejaVuSans-4d" d="M 628 4666 
L 1569 4666 
L 2759 1491 
L 3956 4666 
L 4897 4666 
L 4897 0 
L 4281 0 
L 4281 4097 
L 3078 897 
L 2444 897 
L 1241 4097 
L 1241 0 
L 628 0 
L 628 4666 
z
" transform="scale(0.015625)"/>
       <path id="DejaVuSans-27" d="M 1147 4666 
L 1147 2931 
L 616 2931 
L 616 4666 
L 1147 4666 
z
" transform="scale(0.015625)"/>
      </defs>
      <use xlink:href="#DejaVuSans-50"/>
      <use xlink:href="#DejaVuSans-72" x="58.552734"/>
      <use xlink:href="#DejaVuSans-65" x="97.416016"/>
      <use xlink:href="#DejaVuSans-63" x="158.939453"/>
      <use xlink:href="#DejaVuSans-69" x="213.919922"/>
      <use xlink:href="#DejaVuSans-73" x="241.703125"/>
      <use xlink:href="#DejaVuSans-69" x="293.802734"/>
      <use xlink:href="#DejaVuSans-6f" x="321.585938"/>
      <use xlink:href="#DejaVuSans-6e" x="382.767578"/>
      <use xlink:href="#DejaVuSans-20" x="446.146484"/>
      <use xlink:href="#DejaVuSans-4d" x="477.933594"/>
      <use xlink:href="#DejaVuSans-61" x="564.212891"/>
      <use xlink:href="#DejaVuSans-63" x="625.492188"/>
      <use xlink:href="#DejaVuSans-72" x="680.472656"/>
      <use xlink:href="#DejaVuSans-6f" x="719.335938"/>
      <use xlink:href="#DejaVuSans-27" x="780.517578"/>
     </g>
    </g>
    <g id="line2d_23">
     <path d="M 144 128.854687 
L 154 128.854687 
L 164 128.854687 
" style="fill: none; stroke: #2ca02c; stroke-width: 1.5; stroke-linecap: square"/>
    </g>
    <g id="text_21">
     <!-- Recall Macro -->
     <g transform="translate(172 132.354687) scale(0.1 -0.1)">
      <defs>
       <path id="DejaVuSans-52" d="M 2841 2188 
Q 3044 2119 3236 1894 
Q 3428 1669 3622 1275 
L 4263 0 
L 3584 0 
L 2988 1197 
Q 2756 1666 2539 1819 
Q 2322 1972 1947 1972 
L 1259 1972 
L 1259 0 
L 628 0 
L 628 4666 
L 2053 4666 
Q 2853 4666 3247 4331 
Q 3641 3997 3641 3322 
Q 3641 2881 3436 2590 
Q 3231 2300 2841 2188 
z
M 1259 4147 
L 1259 2491 
L 2053 2491 
Q 2509 2491 2742 2702 
Q 2975 2913 2975 3322 
Q 2975 3731 2742 3939 
Q 2509 4147 2053 4147 
L 1259 4147 
z
" transform="scale(0.015625)"/>
       <path id="DejaVuSans-6c" d="M 603 4863 
L 1178 4863 
L 1178 0 
L 603 0 
L 603 4863 
z
" transform="scale(0.015625)"/>
      </defs>
      <use xlink:href="#DejaVuSans-52"/>
      <use xlink:href="#DejaVuSans-65" x="64.982422"/>
      <use xlink:href="#DejaVuSans-63" x="126.505859"/>
      <use xlink:href="#DejaVuSans-61" x="181.486328"/>
      <use xlink:href="#DejaVuSans-6c" x="242.765625"/>
      <use xlink:href="#DejaVuSans-6c" x="270.548828"/>
      <use xlink:href="#DejaVuSans-20" x="298.332031"/>
      <use xlink:href="#DejaVuSans-4d" x="330.119141"/>
      <use xlink:href="#DejaVuSans-61" x="416.398438"/>
      <use xlink:href="#DejaVuSans-63" x="477.677734"/>
      <use xlink:href="#DejaVuSans-72" x="532.658203"/>
      <use xlink:href="#DejaVuSans-6f" x="571.521484"/>
     </g>
    </g>
    <g id="line2d_24">
     <path d="M 144 143.532812 
L 154 143.532812 
L 164 143.532812 
" style="fill: none; stroke: #d62728; stroke-width: 1.5; stroke-linecap: square"/>
    </g>
    <g id="text_22">
     <!-- F1 Score Macro -->
     <g transform="translate(172 147.032812) scale(0.1 -0.1)">
      <defs>
       <path id="DejaVuSans-46" d="M 628 4666 
L 3309 4666 
L 3309 4134 
L 1259 4134 
L 1259 2759 
L 3109 2759 
L 3109 2228 
L 1259 2228 
L 1259 0 
L 628 0 
L 628 4666 
z
" transform="scale(0.015625)"/>
       <path id="DejaVuSans-53" d="M 3425 4513 
L 3425 3897 
Q 3066 4069 2747 4153 
Q 2428 4238 2131 4238 
Q 1616 4238 1336 4038 
Q 1056 3838 1056 3469 
Q 1056 3159 1242 3001 
Q 1428 2844 1947 2747 
L 2328 2669 
Q 3034 2534 3370 2195 
Q 3706 1856 3706 1288 
Q 3706 609 3251 259 
Q 2797 -91 1919 -91 
Q 1588 -91 1214 -16 
Q 841 59 441 206 
L 441 856 
Q 825 641 1194 531 
Q 1563 422 1919 422 
Q 2459 422 2753 634 
Q 3047 847 3047 1241 
Q 3047 1584 2836 1778 
Q 2625 1972 2144 2069 
L 1759 2144 
Q 1053 2284 737 2584 
Q 422 2884 422 3419 
Q 422 4038 858 4394 
Q 1294 4750 2059 4750 
Q 2388 4750 2728 4690 
Q 3069 4631 3425 4513 
z
" transform="scale(0.015625)"/>
      </defs>
      <use xlink:href="#DejaVuSans-46"/>
      <use xlink:href="#DejaVuSans-31" x="57.519531"/>
      <use xlink:href="#DejaVuSans-20" x="121.142578"/>
      <use xlink:href="#DejaVuSans-53" x="152.929688"/>
      <use xlink:href="#DejaVuSans-63" x="216.40625"/>
      <use xlink:href="#DejaVuSans-6f" x="271.386719"/>
      <use xlink:href="#DejaVuSans-72" x="332.568359"/>
      <use xlink:href="#DejaVuSans-65" x="371.431641"/>
      <use xlink:href="#DejaVuSans-20" x="432.955078"/>
      <use xlink:href="#DejaVuSans-4d" x="464.742188"/>
      <use xlink:href="#DejaVuSans-61" x="551.021484"/>
      <use xlink:href="#DejaVuSans-63" x="612.300781"/>
      <use xlink:href="#DejaVuSans-72" x="667.28125"/>
      <use xlink:href="#DejaVuSans-6f" x="706.144531"/>
     </g>
    </g>
   </g>
  </g>
 </g>
 <defs>
  <clipPath id="p91caef1dff">
   <rect x="135" y="86.4" width="837" height="554.4"/>
  </clipPath>
 </defs>
</svg>
