<?xml version="1.0" encoding="utf-8" standalone="no"?>
<!DOCTYPE svg PUBLIC "-//W3C//DTD SVG 1.1//EN"
  "http://www.w3.org/Graphics/SVG/1.1/DTD/svg11.dtd">
<svg xmlns:xlink="http://www.w3.org/1999/xlink" width="1080pt" height="720pt" viewBox="0 0 1080 720" xmlns="http://www.w3.org/2000/svg" version="1.1">
 <metadata>
  <rdf:RDF xmlns:dc="http://purl.org/dc/elements/1.1/" xmlns:cc="http://creativecommons.org/ns#" xmlns:rdf="http://www.w3.org/1999/02/22-rdf-syntax-ns#">
   <cc:Work>
    <dc:type rdf:resource="http://purl.org/dc/dcmitype/StillImage"/>
    <dc:date>2023-11-16T16:10:11.362859</dc:date>
    <dc:format>image/svg+xml</dc:format>
    <dc:creator>
     <cc:Agent>
      <dc:title>Matplotlib v3.7.2, https://matplotlib.org/</dc:title>
     </cc:Agent>
    </dc:creator>
   </cc:Work>
  </rdf:RDF>
 </metadata>
 <defs>
  <style type="text/css">*{stroke-linejoin: round; stroke-linecap: butt}</style>
 </defs>
 <g id="figure_1">
  <g id="patch_1">
   <path d="M 0 720 
L 1080 720 
L 1080 0 
L 0 0 
z
" style="fill: #ffffff"/>
  </g>
  <g id="axes_1">
   <g id="patch_2">
    <path d="M 135 640.8 
L 972 640.8 
L 972 86.4 
L 135 86.4 
z
" style="fill: #ffffff"/>
   </g>
   <g id="matplotlib.axis_1">
    <g id="xtick_1">
     <g id="line2d_1">
      <defs>
       <path id="m9b12c092e3" d="M 0 0 
L 0 3.5 
" style="stroke: #000000; stroke-width: 0.8"/>
      </defs>
      <g>
       <use xlink:href="#m9b12c092e3" x="173.045455" y="640.8" style="stroke: #000000; stroke-width: 0.8"/>
      </g>
     </g>
     <g id="text_1">
      <!-- 0 -->
      <g transform="translate(169.864205 655.398438) scale(0.1 -0.1)">
       <defs>
        <path id="DejaVuSans-30" d="M 2034 4250 
Q 1547 4250 1301 3770 
Q 1056 3291 1056 2328 
Q 1056 1369 1301 889 
Q 1547 409 2034 409 
Q 2525 409 2770 889 
Q 3016 1369 3016 2328 
Q 3016 3291 2770 3770 
Q 2525 4250 2034 4250 
z
M 2034 4750 
Q 2819 4750 3233 4129 
Q 3647 3509 3647 2328 
Q 3647 1150 3233 529 
Q 2819 -91 2034 -91 
Q 1250 -91 836 529 
Q 422 1150 422 2328 
Q 422 3509 836 4129 
Q 1250 4750 2034 4750 
z
" transform="scale(0.015625)"/>
       </defs>
       <use xlink:href="#DejaVuSans-30"/>
      </g>
     </g>
    </g>
    <g id="xtick_2">
     <g id="line2d_2">
      <g>
       <use xlink:href="#m9b12c092e3" x="268.637049" y="640.8" style="stroke: #000000; stroke-width: 0.8"/>
      </g>
     </g>
     <g id="text_2">
      <!-- 25 -->
      <g transform="translate(262.274549 655.398438) scale(0.1 -0.1)">
       <defs>
        <path id="DejaVuSans-32" d="M 1228 531 
L 3431 531 
L 3431 0 
L 469 0 
L 469 531 
Q 828 903 1448 1529 
Q 2069 2156 2228 2338 
Q 2531 2678 2651 2914 
Q 2772 3150 2772 3378 
Q 2772 3750 2511 3984 
Q 2250 4219 1831 4219 
Q 1534 4219 1204 4116 
Q 875 4013 500 3803 
L 500 4441 
Q 881 4594 1212 4672 
Q 1544 4750 1819 4750 
Q 2544 4750 2975 4387 
Q 3406 4025 3406 3419 
Q 3406 3131 3298 2873 
Q 3191 2616 2906 2266 
Q 2828 2175 2409 1742 
Q 1991 1309 1228 531 
z
" transform="scale(0.015625)"/>
        <path id="DejaVuSans-35" d="M 691 4666 
L 3169 4666 
L 3169 4134 
L 1269 4134 
L 1269 2991 
Q 1406 3038 1543 3061 
Q 1681 3084 1819 3084 
Q 2600 3084 3056 2656 
Q 3513 2228 3513 1497 
Q 3513 744 3044 326 
Q 2575 -91 1722 -91 
Q 1428 -91 1123 -41 
Q 819 9 494 109 
L 494 744 
Q 775 591 1075 516 
Q 1375 441 1709 441 
Q 2250 441 2565 725 
Q 2881 1009 2881 1497 
Q 2881 1984 2565 2268 
Q 2250 2553 1709 2553 
Q 1456 2553 1204 2497 
Q 953 2441 691 2322 
L 691 4666 
z
" transform="scale(0.015625)"/>
       </defs>
       <use xlink:href="#DejaVuSans-32"/>
       <use xlink:href="#DejaVuSans-35" x="63.623047"/>
      </g>
     </g>
    </g>
    <g id="xtick_3">
     <g id="line2d_3">
      <g>
       <use xlink:href="#m9b12c092e3" x="364.228643" y="640.8" style="stroke: #000000; stroke-width: 0.8"/>
      </g>
     </g>
     <g id="text_3">
      <!-- 50 -->
      <g transform="translate(357.866143 655.398438) scale(0.1 -0.1)">
       <use xlink:href="#DejaVuSans-35"/>
       <use xlink:href="#DejaVuSans-30" x="63.623047"/>
      </g>
     </g>
    </g>
    <g id="xtick_4">
     <g id="line2d_4">
      <g>
       <use xlink:href="#m9b12c092e3" x="459.820238" y="640.8" style="stroke: #000000; stroke-width: 0.8"/>
      </g>
     </g>
     <g id="text_4">
      <!-- 75 -->
      <g transform="translate(453.457738 655.398438) scale(0.1 -0.1)">
       <defs>
        <path id="DejaVuSans-37" d="M 525 4666 
L 3525 4666 
L 3525 4397 
L 1831 0 
L 1172 0 
L 2766 4134 
L 525 4134 
L 525 4666 
z
" transform="scale(0.015625)"/>
       </defs>
       <use xlink:href="#DejaVuSans-37"/>
       <use xlink:href="#DejaVuSans-35" x="63.623047"/>
      </g>
     </g>
    </g>
    <g id="xtick_5">
     <g id="line2d_5">
      <g>
       <use xlink:href="#m9b12c092e3" x="555.411832" y="640.8" style="stroke: #000000; stroke-width: 0.8"/>
      </g>
     </g>
     <g id="text_5">
      <!-- 100 -->
      <g transform="translate(545.868082 655.398438) scale(0.1 -0.1)">
       <defs>
        <path id="DejaVuSans-31" d="M 794 531 
L 1825 531 
L 1825 4091 
L 703 3866 
L 703 4441 
L 1819 4666 
L 2450 4666 
L 2450 531 
L 3481 531 
L 3481 0 
L 794 0 
L 794 531 
z
" transform="scale(0.015625)"/>
       </defs>
       <use xlink:href="#DejaVuSans-31"/>
       <use xlink:href="#DejaVuSans-30" x="63.623047"/>
       <use xlink:href="#DejaVuSans-30" x="127.246094"/>
      </g>
     </g>
    </g>
    <g id="xtick_6">
     <g id="line2d_6">
      <g>
       <use xlink:href="#m9b12c092e3" x="651.003426" y="640.8" style="stroke: #000000; stroke-width: 0.8"/>
      </g>
     </g>
     <g id="text_6">
      <!-- 125 -->
      <g transform="translate(641.459676 655.398438) scale(0.1 -0.1)">
       <use xlink:href="#DejaVuSans-31"/>
       <use xlink:href="#DejaVuSans-32" x="63.623047"/>
       <use xlink:href="#DejaVuSans-35" x="127.246094"/>
      </g>
     </g>
    </g>
    <g id="xtick_7">
     <g id="line2d_7">
      <g>
       <use xlink:href="#m9b12c092e3" x="746.595021" y="640.8" style="stroke: #000000; stroke-width: 0.8"/>
      </g>
     </g>
     <g id="text_7">
      <!-- 150 -->
      <g transform="translate(737.051271 655.398438) scale(0.1 -0.1)">
       <use xlink:href="#DejaVuSans-31"/>
       <use xlink:href="#DejaVuSans-35" x="63.623047"/>
       <use xlink:href="#DejaVuSans-30" x="127.246094"/>
      </g>
     </g>
    </g>
    <g id="xtick_8">
     <g id="line2d_8">
      <g>
       <use xlink:href="#m9b12c092e3" x="842.186615" y="640.8" style="stroke: #000000; stroke-width: 0.8"/>
      </g>
     </g>
     <g id="text_8">
      <!-- 175 -->
      <g transform="translate(832.642865 655.398438) scale(0.1 -0.1)">
       <use xlink:href="#DejaVuSans-31"/>
       <use xlink:href="#DejaVuSans-37" x="63.623047"/>
       <use xlink:href="#DejaVuSans-35" x="127.246094"/>
      </g>
     </g>
    </g>
    <g id="xtick_9">
     <g id="line2d_9">
      <g>
       <use xlink:href="#m9b12c092e3" x="937.778209" y="640.8" style="stroke: #000000; stroke-width: 0.8"/>
      </g>
     </g>
     <g id="text_9">
      <!-- 200 -->
      <g transform="translate(928.234459 655.398438) scale(0.1 -0.1)">
       <use xlink:href="#DejaVuSans-32"/>
       <use xlink:href="#DejaVuSans-30" x="63.623047"/>
       <use xlink:href="#DejaVuSans-30" x="127.246094"/>
      </g>
     </g>
    </g>
    <g id="text_10">
     <!-- epoch -->
     <g transform="translate(538.271875 669.076563) scale(0.1 -0.1)">
      <defs>
       <path id="DejaVuSans-65" d="M 3597 1894 
L 3597 1613 
L 953 1613 
Q 991 1019 1311 708 
Q 1631 397 2203 397 
Q 2534 397 2845 478 
Q 3156 559 3463 722 
L 3463 178 
Q 3153 47 2828 -22 
Q 2503 -91 2169 -91 
Q 1331 -91 842 396 
Q 353 884 353 1716 
Q 353 2575 817 3079 
Q 1281 3584 2069 3584 
Q 2775 3584 3186 3129 
Q 3597 2675 3597 1894 
z
M 3022 2063 
Q 3016 2534 2758 2815 
Q 2500 3097 2075 3097 
Q 1594 3097 1305 2825 
Q 1016 2553 972 2059 
L 3022 2063 
z
" transform="scale(0.015625)"/>
       <path id="DejaVuSans-70" d="M 1159 525 
L 1159 -1331 
L 581 -1331 
L 581 3500 
L 1159 3500 
L 1159 2969 
Q 1341 3281 1617 3432 
Q 1894 3584 2278 3584 
Q 2916 3584 3314 3078 
Q 3713 2572 3713 1747 
Q 3713 922 3314 415 
Q 2916 -91 2278 -91 
Q 1894 -91 1617 61 
Q 1341 213 1159 525 
z
M 3116 1747 
Q 3116 2381 2855 2742 
Q 2594 3103 2138 3103 
Q 1681 3103 1420 2742 
Q 1159 2381 1159 1747 
Q 1159 1113 1420 752 
Q 1681 391 2138 391 
Q 2594 391 2855 752 
Q 3116 1113 3116 1747 
z
" transform="scale(0.015625)"/>
       <path id="DejaVuSans-6f" d="M 1959 3097 
Q 1497 3097 1228 2736 
Q 959 2375 959 1747 
Q 959 1119 1226 758 
Q 1494 397 1959 397 
Q 2419 397 2687 759 
Q 2956 1122 2956 1747 
Q 2956 2369 2687 2733 
Q 2419 3097 1959 3097 
z
M 1959 3584 
Q 2709 3584 3137 3096 
Q 3566 2609 3566 1747 
Q 3566 888 3137 398 
Q 2709 -91 1959 -91 
Q 1206 -91 779 398 
Q 353 888 353 1747 
Q 353 2609 779 3096 
Q 1206 3584 1959 3584 
z
" transform="scale(0.015625)"/>
       <path id="DejaVuSans-63" d="M 3122 3366 
L 3122 2828 
Q 2878 2963 2633 3030 
Q 2388 3097 2138 3097 
Q 1578 3097 1268 2742 
Q 959 2388 959 1747 
Q 959 1106 1268 751 
Q 1578 397 2138 397 
Q 2388 397 2633 464 
Q 2878 531 3122 666 
L 3122 134 
Q 2881 22 2623 -34 
Q 2366 -91 2075 -91 
Q 1284 -91 818 406 
Q 353 903 353 1747 
Q 353 2603 823 3093 
Q 1294 3584 2113 3584 
Q 2378 3584 2631 3529 
Q 2884 3475 3122 3366 
z
" transform="scale(0.015625)"/>
       <path id="DejaVuSans-68" d="M 3513 2113 
L 3513 0 
L 2938 0 
L 2938 2094 
Q 2938 2591 2744 2837 
Q 2550 3084 2163 3084 
Q 1697 3084 1428 2787 
Q 1159 2491 1159 1978 
L 1159 0 
L 581 0 
L 581 4863 
L 1159 4863 
L 1159 2956 
Q 1366 3272 1645 3428 
Q 1925 3584 2291 3584 
Q 2894 3584 3203 3211 
Q 3513 2838 3513 2113 
z
" transform="scale(0.015625)"/>
      </defs>
      <use xlink:href="#DejaVuSans-65"/>
      <use xlink:href="#DejaVuSans-70" x="61.523438"/>
      <use xlink:href="#DejaVuSans-6f" x="125"/>
      <use xlink:href="#DejaVuSans-63" x="186.181641"/>
      <use xlink:href="#DejaVuSans-68" x="241.162109"/>
     </g>
    </g>
   </g>
   <g id="matplotlib.axis_2">
    <g id="ytick_1">
     <g id="line2d_10">
      <defs>
       <path id="m6788906c36" d="M 0 0 
L -3.5 0 
" style="stroke: #000000; stroke-width: 0.8"/>
      </defs>
      <g>
       <use xlink:href="#m6788906c36" x="135" y="592.990244" style="stroke: #000000; stroke-width: 0.8"/>
      </g>
     </g>
     <g id="text_11">
      <!-- 0.35 -->
      <g transform="translate(105.734375 596.789463) scale(0.1 -0.1)">
       <defs>
        <path id="DejaVuSans-2e" d="M 684 794 
L 1344 794 
L 1344 0 
L 684 0 
L 684 794 
z
" transform="scale(0.015625)"/>
        <path id="DejaVuSans-33" d="M 2597 2516 
Q 3050 2419 3304 2112 
Q 3559 1806 3559 1356 
Q 3559 666 3084 287 
Q 2609 -91 1734 -91 
Q 1441 -91 1130 -33 
Q 819 25 488 141 
L 488 750 
Q 750 597 1062 519 
Q 1375 441 1716 441 
Q 2309 441 2620 675 
Q 2931 909 2931 1356 
Q 2931 1769 2642 2001 
Q 2353 2234 1838 2234 
L 1294 2234 
L 1294 2753 
L 1863 2753 
Q 2328 2753 2575 2939 
Q 2822 3125 2822 3475 
Q 2822 3834 2567 4026 
Q 2313 4219 1838 4219 
Q 1578 4219 1281 4162 
Q 984 4106 628 3988 
L 628 4550 
Q 988 4650 1302 4700 
Q 1616 4750 1894 4750 
Q 2613 4750 3031 4423 
Q 3450 4097 3450 3541 
Q 3450 3153 3228 2886 
Q 3006 2619 2597 2516 
z
" transform="scale(0.015625)"/>
       </defs>
       <use xlink:href="#DejaVuSans-30"/>
       <use xlink:href="#DejaVuSans-2e" x="63.623047"/>
       <use xlink:href="#DejaVuSans-33" x="95.410156"/>
       <use xlink:href="#DejaVuSans-35" x="159.033203"/>
      </g>
     </g>
    </g>
    <g id="ytick_2">
     <g id="line2d_11">
      <g>
       <use xlink:href="#m6788906c36" x="135" y="495.307317" style="stroke: #000000; stroke-width: 0.8"/>
      </g>
     </g>
     <g id="text_12">
      <!-- 0.40 -->
      <g transform="translate(105.734375 499.106536) scale(0.1 -0.1)">
       <defs>
        <path id="DejaVuSans-34" d="M 2419 4116 
L 825 1625 
L 2419 1625 
L 2419 4116 
z
M 2253 4666 
L 3047 4666 
L 3047 1625 
L 3713 1625 
L 3713 1100 
L 3047 1100 
L 3047 0 
L 2419 0 
L 2419 1100 
L 313 1100 
L 313 1709 
L 2253 4666 
z
" transform="scale(0.015625)"/>
       </defs>
       <use xlink:href="#DejaVuSans-30"/>
       <use xlink:href="#DejaVuSans-2e" x="63.623047"/>
       <use xlink:href="#DejaVuSans-34" x="95.410156"/>
       <use xlink:href="#DejaVuSans-30" x="159.033203"/>
      </g>
     </g>
    </g>
    <g id="ytick_3">
     <g id="line2d_12">
      <g>
       <use xlink:href="#m6788906c36" x="135" y="397.62439" style="stroke: #000000; stroke-width: 0.8"/>
      </g>
     </g>
     <g id="text_13">
      <!-- 0.45 -->
      <g transform="translate(105.734375 401.423609) scale(0.1 -0.1)">
       <use xlink:href="#DejaVuSans-30"/>
       <use xlink:href="#DejaVuSans-2e" x="63.623047"/>
       <use xlink:href="#DejaVuSans-34" x="95.410156"/>
       <use xlink:href="#DejaVuSans-35" x="159.033203"/>
      </g>
     </g>
    </g>
    <g id="ytick_4">
     <g id="line2d_13">
      <g>
       <use xlink:href="#m6788906c36" x="135" y="299.941463" style="stroke: #000000; stroke-width: 0.8"/>
      </g>
     </g>
     <g id="text_14">
      <!-- 0.50 -->
      <g transform="translate(105.734375 303.740682) scale(0.1 -0.1)">
       <use xlink:href="#DejaVuSans-30"/>
       <use xlink:href="#DejaVuSans-2e" x="63.623047"/>
       <use xlink:href="#DejaVuSans-35" x="95.410156"/>
       <use xlink:href="#DejaVuSans-30" x="159.033203"/>
      </g>
     </g>
    </g>
    <g id="ytick_5">
     <g id="line2d_14">
      <g>
       <use xlink:href="#m6788906c36" x="135" y="202.258537" style="stroke: #000000; stroke-width: 0.8"/>
      </g>
     </g>
     <g id="text_15">
      <!-- 0.55 -->
      <g transform="translate(105.734375 206.057755) scale(0.1 -0.1)">
       <use xlink:href="#DejaVuSans-30"/>
       <use xlink:href="#DejaVuSans-2e" x="63.623047"/>
       <use xlink:href="#DejaVuSans-35" x="95.410156"/>
       <use xlink:href="#DejaVuSans-35" x="159.033203"/>
      </g>
     </g>
    </g>
    <g id="ytick_6">
     <g id="line2d_15">
      <g>
       <use xlink:href="#m6788906c36" x="135" y="104.57561" style="stroke: #000000; stroke-width: 0.8"/>
      </g>
     </g>
     <g id="text_16">
      <!-- 0.60 -->
      <g transform="translate(105.734375 108.374829) scale(0.1 -0.1)">
       <defs>
        <path id="DejaVuSans-36" d="M 2113 2584 
Q 1688 2584 1439 2293 
Q 1191 2003 1191 1497 
Q 1191 994 1439 701 
Q 1688 409 2113 409 
Q 2538 409 2786 701 
Q 3034 994 3034 1497 
Q 3034 2003 2786 2293 
Q 2538 2584 2113 2584 
z
M 3366 4563 
L 3366 3988 
Q 3128 4100 2886 4159 
Q 2644 4219 2406 4219 
Q 1781 4219 1451 3797 
Q 1122 3375 1075 2522 
Q 1259 2794 1537 2939 
Q 1816 3084 2150 3084 
Q 2853 3084 3261 2657 
Q 3669 2231 3669 1497 
Q 3669 778 3244 343 
Q 2819 -91 2113 -91 
Q 1303 -91 875 529 
Q 447 1150 447 2328 
Q 447 3434 972 4092 
Q 1497 4750 2381 4750 
Q 2619 4750 2861 4703 
Q 3103 4656 3366 4563 
z
" transform="scale(0.015625)"/>
       </defs>
       <use xlink:href="#DejaVuSans-30"/>
       <use xlink:href="#DejaVuSans-2e" x="63.623047"/>
       <use xlink:href="#DejaVuSans-36" x="95.410156"/>
       <use xlink:href="#DejaVuSans-30" x="159.033203"/>
      </g>
     </g>
    </g>
    <g id="text_17">
     <!-- score -->
     <g transform="translate(99.654687 377.032812) rotate(-90) scale(0.1 -0.1)">
      <defs>
       <path id="DejaVuSans-73" d="M 2834 3397 
L 2834 2853 
Q 2591 2978 2328 3040 
Q 2066 3103 1784 3103 
Q 1356 3103 1142 2972 
Q 928 2841 928 2578 
Q 928 2378 1081 2264 
Q 1234 2150 1697 2047 
L 1894 2003 
Q 2506 1872 2764 1633 
Q 3022 1394 3022 966 
Q 3022 478 2636 193 
Q 2250 -91 1575 -91 
Q 1294 -91 989 -36 
Q 684 19 347 128 
L 347 722 
Q 666 556 975 473 
Q 1284 391 1588 391 
Q 1994 391 2212 530 
Q 2431 669 2431 922 
Q 2431 1156 2273 1281 
Q 2116 1406 1581 1522 
L 1381 1569 
Q 847 1681 609 1914 
Q 372 2147 372 2553 
Q 372 3047 722 3315 
Q 1072 3584 1716 3584 
Q 2034 3584 2315 3537 
Q 2597 3491 2834 3397 
z
" transform="scale(0.015625)"/>
       <path id="DejaVuSans-72" d="M 2631 2963 
Q 2534 3019 2420 3045 
Q 2306 3072 2169 3072 
Q 1681 3072 1420 2755 
Q 1159 2438 1159 1844 
L 1159 0 
L 581 0 
L 581 3500 
L 1159 3500 
L 1159 2956 
Q 1341 3275 1631 3429 
Q 1922 3584 2338 3584 
Q 2397 3584 2469 3576 
Q 2541 3569 2628 3553 
L 2631 2963 
z
" transform="scale(0.015625)"/>
      </defs>
      <use xlink:href="#DejaVuSans-73"/>
      <use xlink:href="#DejaVuSans-63" x="52.099609"/>
      <use xlink:href="#DejaVuSans-6f" x="107.080078"/>
      <use xlink:href="#DejaVuSans-72" x="168.261719"/>
      <use xlink:href="#DejaVuSans-65" x="207.125"/>
     </g>
    </g>
   </g>
   <g id="line2d_16">
    <path d="M 173.045455 615.6 
L 176.869118 433.843902 
L 180.692782 416.282927 
L 184.516446 412.770732 
L 188.34011 349.55122 
L 192.163773 356.57561 
L 195.987437 311.795122 
L 199.811101 375.014634 
L 203.634765 391.697561 
L 207.458429 268.770732 
L 211.282092 292.478049 
L 215.105756 360.965854 
L 218.92942 259.112195 
L 222.753084 226.62439 
L 226.576747 278.429268 
L 230.400411 200.282927 
L 234.224075 220.478049 
L 238.047739 209.941463 
L 241.871402 208.185366 
L 245.695066 248.57561 
L 249.51873 231.014634 
L 253.342394 245.063415 
L 257.166058 270.526829 
L 260.989721 189.746341 
L 264.813385 213.453659 
L 268.637049 180.965854 
L 272.460713 188.868293 
L 276.284376 169.55122 
L 280.10804 245.063415 
L 283.931704 226.62439 
L 287.755368 267.892683 
L 291.579032 200.282927 
L 295.402695 191.502439 
L 299.226359 205.55122 
L 303.050023 192.380488 
L 306.873687 209.941463 
L 310.69735 207.307317 
L 314.521014 126.526829 
L 318.344678 219.6 
L 322.168342 189.746341 
L 325.992005 185.356098 
L 329.815669 184.478049 
L 333.639333 193.258537 
L 337.462997 171.307317 
L 341.286661 155.502439 
L 345.110324 156.380488 
L 348.933988 164.282927 
L 352.757652 151.990244 
L 356.581316 175.697561 
L 360.404979 188.868293 
L 364.228643 207.307317 
L 368.052307 178.331707 
L 371.875971 254.721951 
L 375.699635 146.721951 
L 379.523298 212.57561 
L 383.346962 150.234146 
L 387.170626 190.62439 
L 390.99429 186.234146 
L 394.817953 187.990244 
L 398.641617 166.039024 
L 402.465281 213.453659 
L 406.288945 148.478049 
L 410.112608 193.258537 
L 413.936272 189.746341 
L 417.759936 163.404878 
L 421.5836 188.868293 
L 425.407264 189.746341 
L 429.230927 180.087805 
L 433.054591 220.478049 
L 436.878255 167.795122 
L 440.701919 190.62439 
L 444.525582 209.063415 
L 448.349246 201.160976 
L 452.17291 227.502439 
L 455.996574 179.209756 
L 459.820238 187.112195 
L 463.643901 229.258537 
L 467.467565 228.380488 
L 471.291229 175.697561 
L 475.114893 179.209756 
L 478.938556 180.087805 
L 482.76222 159.892683 
L 486.585884 176.57561 
L 490.409548 219.6 
L 494.233212 209.063415 
L 498.056875 159.892683 
L 501.880539 206.429268 
L 505.704203 186.234146 
L 509.527867 159.892683 
L 513.35153 219.6 
L 517.175194 216.965854 
L 520.998858 179.209756 
L 524.822522 152.868293 
L 528.646185 202.039024 
L 532.469849 153.746341 
L 536.293513 170.429268 
L 540.117177 163.404878 
L 543.940841 173.941463 
L 547.764504 214.331707 
L 551.588168 153.746341 
L 555.411832 179.209756 
L 559.235496 176.57561 
L 563.059159 150.234146 
L 566.882823 165.160976 
L 570.706487 184.478049 
L 574.530151 165.160976 
L 578.353815 187.990244 
L 582.177478 140.57561 
L 589.824806 187.990244 
L 593.64847 183.6 
L 597.472133 219.6 
L 601.295797 147.6 
L 605.119461 176.57561 
L 608.943125 144.965854 
L 612.766788 198.526829 
L 616.590452 166.917073 
L 620.414116 154.62439 
L 624.23778 151.990244 
L 628.061444 147.6 
L 631.885107 202.917073 
L 635.708771 185.356098 
L 639.532435 173.941463 
L 643.356099 180.087805 
L 647.179762 180.965854 
L 651.003426 144.965854 
L 654.82709 167.795122 
L 658.650754 136.185366 
L 662.474418 155.502439 
L 666.298081 183.6 
L 670.121745 184.478049 
L 673.945409 180.965854 
L 677.769073 153.746341 
L 681.592736 213.453659 
L 685.4164 161.64878 
L 689.240064 148.478049 
L 693.063728 159.014634 
L 700.711055 167.795122 
L 704.534719 188.868293 
L 708.358383 150.234146 
L 712.182047 156.380488 
L 716.00571 142.331707 
L 719.829374 164.282927 
L 723.653038 194.136585 
L 727.476702 140.57561 
L 731.300365 174.819512 
L 735.124029 137.941463 
L 738.947693 198.526829 
L 742.771357 165.160976 
L 746.595021 173.063415 
L 750.418684 151.990244 
L 754.242348 173.063415 
L 758.066012 148.478049 
L 761.889676 163.404878 
L 765.713339 186.234146 
L 769.537003 180.087805 
L 773.360667 161.64878 
L 777.184331 154.62439 
L 781.007995 157.258537 
L 784.831658 165.160976 
L 788.655322 111.6 
L 792.478986 186.234146 
L 796.30265 155.502439 
L 800.126313 173.941463 
L 803.949977 179.209756 
L 807.773641 144.965854 
L 811.597305 149.356098 
L 815.420968 175.697561 
L 819.244632 185.356098 
L 823.068296 197.64878 
L 826.89196 166.039024 
L 830.715624 213.453659 
L 834.539287 181.843902 
L 838.362951 144.965854 
L 842.186615 158.136585 
L 846.010279 154.62439 
L 849.833942 168.673171 
L 853.657606 176.57561 
L 857.48127 140.57561 
L 861.304934 144.087805 
L 865.128598 166.039024 
L 868.952261 159.892683 
L 872.775925 179.209756 
L 876.599589 186.234146 
L 880.423253 195.014634 
L 884.246916 162.526829 
L 888.07058 138.819512 
L 891.894244 173.941463 
L 895.717908 169.55122 
L 899.541571 151.112195 
L 903.365235 155.502439 
L 907.188899 172.185366 
L 911.012563 153.746341 
L 914.836227 180.965854 
L 918.65989 246.819512 
L 922.483554 163.404878 
L 926.307218 159.014634 
L 930.130882 201.160976 
L 933.954545 175.697561 
L 933.954545 175.697561 
" clip-path="url(#p9b5a58f36e)" style="fill: none; stroke: #1f77b4; stroke-width: 1.5; stroke-linecap: square"/>
   </g>
   <g id="line2d_17">
    <path d="M 173.045455 615.6 
L 176.869118 433.843902 
L 180.692782 416.282927 
L 184.516446 412.770732 
L 188.34011 349.55122 
L 192.163773 356.57561 
L 195.987437 311.795122 
L 199.811101 375.014634 
L 203.634765 391.697561 
L 207.458429 268.770732 
L 211.282092 292.478049 
L 215.105756 360.965854 
L 218.92942 259.112195 
L 222.753084 226.62439 
L 226.576747 278.429268 
L 230.400411 200.282927 
L 234.224075 220.478049 
L 238.047739 209.941463 
L 241.871402 208.185366 
L 245.695066 248.57561 
L 249.51873 231.014634 
L 253.342394 245.063415 
L 257.166058 270.526829 
L 260.989721 189.746341 
L 264.813385 213.453659 
L 268.637049 180.965854 
L 272.460713 188.868293 
L 276.284376 169.55122 
L 280.10804 245.063415 
L 283.931704 226.62439 
L 287.755368 267.892683 
L 291.579032 200.282927 
L 295.402695 191.502439 
L 299.226359 205.55122 
L 303.050023 192.380488 
L 306.873687 209.941463 
L 310.69735 207.307317 
L 314.521014 126.526829 
L 318.344678 219.6 
L 322.168342 189.746341 
L 325.992005 185.356098 
L 329.815669 184.478049 
L 333.639333 193.258537 
L 337.462997 171.307317 
L 341.286661 155.502439 
L 345.110324 156.380488 
L 348.933988 164.282927 
L 352.757652 151.990244 
L 356.581316 175.697561 
L 360.404979 188.868293 
L 364.228643 207.307317 
L 368.052307 178.331707 
L 371.875971 254.721951 
L 375.699635 146.721951 
L 379.523298 212.57561 
L 383.346962 150.234146 
L 387.170626 190.62439 
L 390.99429 186.234146 
L 394.817953 187.990244 
L 398.641617 166.039024 
L 402.465281 213.453659 
L 406.288945 148.478049 
L 410.112608 193.258537 
L 413.936272 189.746341 
L 417.759936 163.404878 
L 421.5836 188.868293 
L 425.407264 189.746341 
L 429.230927 180.087805 
L 433.054591 220.478049 
L 436.878255 167.795122 
L 440.701919 190.62439 
L 444.525582 209.063415 
L 448.349246 201.160976 
L 452.17291 227.502439 
L 455.996574 179.209756 
L 459.820238 187.112195 
L 463.643901 229.258537 
L 467.467565 228.380488 
L 471.291229 175.697561 
L 475.114893 179.209756 
L 478.938556 180.087805 
L 482.76222 159.892683 
L 486.585884 176.57561 
L 490.409548 219.6 
L 494.233212 209.063415 
L 498.056875 159.892683 
L 501.880539 206.429268 
L 505.704203 186.234146 
L 509.527867 159.892683 
L 513.35153 219.6 
L 517.175194 216.965854 
L 520.998858 179.209756 
L 524.822522 152.868293 
L 528.646185 202.039024 
L 532.469849 153.746341 
L 536.293513 170.429268 
L 540.117177 163.404878 
L 543.940841 173.941463 
L 547.764504 214.331707 
L 551.588168 153.746341 
L 555.411832 179.209756 
L 559.235496 176.57561 
L 563.059159 150.234146 
L 566.882823 165.160976 
L 570.706487 184.478049 
L 574.530151 165.160976 
L 578.353815 187.990244 
L 582.177478 140.57561 
L 589.824806 187.990244 
L 593.64847 183.6 
L 597.472133 219.6 
L 601.295797 147.6 
L 605.119461 176.57561 
L 608.943125 144.965854 
L 612.766788 198.526829 
L 616.590452 166.917073 
L 620.414116 154.62439 
L 624.23778 151.990244 
L 628.061444 147.6 
L 631.885107 202.917073 
L 635.708771 185.356098 
L 639.532435 173.941463 
L 643.356099 180.087805 
L 647.179762 180.965854 
L 651.003426 144.965854 
L 654.82709 167.795122 
L 658.650754 136.185366 
L 662.474418 155.502439 
L 666.298081 183.6 
L 670.121745 184.478049 
L 673.945409 180.965854 
L 677.769073 153.746341 
L 681.592736 213.453659 
L 685.4164 161.64878 
L 689.240064 148.478049 
L 693.063728 159.014634 
L 700.711055 167.795122 
L 704.534719 188.868293 
L 708.358383 150.234146 
L 712.182047 156.380488 
L 716.00571 142.331707 
L 719.829374 164.282927 
L 723.653038 194.136585 
L 727.476702 140.57561 
L 731.300365 174.819512 
L 735.124029 137.941463 
L 738.947693 198.526829 
L 742.771357 165.160976 
L 746.595021 173.063415 
L 750.418684 151.990244 
L 754.242348 173.063415 
L 758.066012 148.478049 
L 761.889676 163.404878 
L 765.713339 186.234146 
L 769.537003 180.087805 
L 773.360667 161.64878 
L 777.184331 154.62439 
L 781.007995 157.258537 
L 784.831658 165.160976 
L 788.655322 111.6 
L 792.478986 186.234146 
L 796.30265 155.502439 
L 800.126313 173.941463 
L 803.949977 179.209756 
L 807.773641 144.965854 
L 811.597305 149.356098 
L 815.420968 175.697561 
L 819.244632 185.356098 
L 823.068296 197.64878 
L 826.89196 166.039024 
L 830.715624 213.453659 
L 834.539287 181.843902 
L 838.362951 144.965854 
L 842.186615 158.136585 
L 846.010279 154.62439 
L 849.833942 168.673171 
L 853.657606 176.57561 
L 857.48127 140.57561 
L 861.304934 144.087805 
L 865.128598 166.039024 
L 868.952261 159.892683 
L 872.775925 179.209756 
L 876.599589 186.234146 
L 880.423253 195.014634 
L 884.246916 162.526829 
L 888.07058 138.819512 
L 891.894244 173.941463 
L 895.717908 169.55122 
L 899.541571 151.112195 
L 903.365235 155.502439 
L 907.188899 172.185366 
L 911.012563 153.746341 
L 914.836227 180.965854 
L 918.65989 246.819512 
L 922.483554 163.404878 
L 926.307218 159.014634 
L 930.130882 201.160976 
L 933.954545 175.697561 
L 933.954545 175.697561 
" clip-path="url(#p9b5a58f36e)" style="fill: none; stroke: #ff7f0e; stroke-width: 1.5; stroke-linecap: square"/>
   </g>
   <g id="line2d_18">
    <path d="M 173.045455 615.6 
L 176.869118 433.843902 
L 180.692782 416.282927 
L 184.516446 412.770732 
L 188.34011 349.55122 
L 192.163773 356.57561 
L 195.987437 311.795122 
L 199.811101 375.014634 
L 203.634765 391.697561 
L 207.458429 268.770732 
L 211.282092 292.478049 
L 215.105756 360.965854 
L 218.92942 259.112195 
L 222.753084 226.62439 
L 226.576747 278.429268 
L 230.400411 200.282927 
L 234.224075 220.478049 
L 238.047739 209.941463 
L 241.871402 208.185366 
L 245.695066 248.57561 
L 249.51873 231.014634 
L 253.342394 245.063415 
L 257.166058 270.526829 
L 260.989721 189.746341 
L 264.813385 213.453659 
L 268.637049 180.965854 
L 272.460713 188.868293 
L 276.284376 169.55122 
L 280.10804 245.063415 
L 283.931704 226.62439 
L 287.755368 267.892683 
L 291.579032 200.282927 
L 295.402695 191.502439 
L 299.226359 205.55122 
L 303.050023 192.380488 
L 306.873687 209.941463 
L 310.69735 207.307317 
L 314.521014 126.526829 
L 318.344678 219.6 
L 322.168342 189.746341 
L 325.992005 185.356098 
L 329.815669 184.478049 
L 333.639333 193.258537 
L 337.462997 171.307317 
L 341.286661 155.502439 
L 345.110324 156.380488 
L 348.933988 164.282927 
L 352.757652 151.990244 
L 356.581316 175.697561 
L 360.404979 188.868293 
L 364.228643 207.307317 
L 368.052307 178.331707 
L 371.875971 254.721951 
L 375.699635 146.721951 
L 379.523298 212.57561 
L 383.346962 150.234146 
L 387.170626 190.62439 
L 390.99429 186.234146 
L 394.817953 187.990244 
L 398.641617 166.039024 
L 402.465281 213.453659 
L 406.288945 148.478049 
L 410.112608 193.258537 
L 413.936272 189.746341 
L 417.759936 163.404878 
L 421.5836 188.868293 
L 425.407264 189.746341 
L 429.230927 180.087805 
L 433.054591 220.478049 
L 436.878255 167.795122 
L 440.701919 190.62439 
L 444.525582 209.063415 
L 448.349246 201.160976 
L 452.17291 227.502439 
L 455.996574 179.209756 
L 459.820238 187.112195 
L 463.643901 229.258537 
L 467.467565 228.380488 
L 471.291229 175.697561 
L 475.114893 179.209756 
L 478.938556 180.087805 
L 482.76222 159.892683 
L 486.585884 176.57561 
L 490.409548 219.6 
L 494.233212 209.063415 
L 498.056875 159.892683 
L 501.880539 206.429268 
L 505.704203 186.234146 
L 509.527867 159.892683 
L 513.35153 219.6 
L 517.175194 216.965854 
L 520.998858 179.209756 
L 524.822522 152.868293 
L 528.646185 202.039024 
L 532.469849 153.746341 
L 536.293513 170.429268 
L 540.117177 163.404878 
L 543.940841 173.941463 
L 547.764504 214.331707 
L 551.588168 153.746341 
L 555.411832 179.209756 
L 559.235496 176.57561 
L 563.059159 150.234146 
L 566.882823 165.160976 
L 570.706487 184.478049 
L 574.530151 165.160976 
L 578.353815 187.990244 
L 582.177478 140.57561 
L 589.824806 187.990244 
L 593.64847 183.6 
L 597.472133 219.6 
L 601.295797 147.6 
L 605.119461 176.57561 
L 608.943125 144.965854 
L 612.766788 198.526829 
L 616.590452 166.917073 
L 620.414116 154.62439 
L 624.23778 151.990244 
L 628.061444 147.6 
L 631.885107 202.917073 
L 635.708771 185.356098 
L 639.532435 173.941463 
L 643.356099 180.087805 
L 647.179762 180.965854 
L 651.003426 144.965854 
L 654.82709 167.795122 
L 658.650754 136.185366 
L 662.474418 155.502439 
L 666.298081 183.6 
L 670.121745 184.478049 
L 673.945409 180.965854 
L 677.769073 153.746341 
L 681.592736 213.453659 
L 685.4164 161.64878 
L 689.240064 148.478049 
L 693.063728 159.014634 
L 700.711055 167.795122 
L 704.534719 188.868293 
L 708.358383 150.234146 
L 712.182047 156.380488 
L 716.00571 142.331707 
L 719.829374 164.282927 
L 723.653038 194.136585 
L 727.476702 140.57561 
L 731.300365 174.819512 
L 735.124029 137.941463 
L 738.947693 198.526829 
L 742.771357 165.160976 
L 746.595021 173.063415 
L 750.418684 151.990244 
L 754.242348 173.063415 
L 758.066012 148.478049 
L 761.889676 163.404878 
L 765.713339 186.234146 
L 769.537003 180.087805 
L 773.360667 161.64878 
L 777.184331 154.62439 
L 781.007995 157.258537 
L 784.831658 165.160976 
L 788.655322 111.6 
L 792.478986 186.234146 
L 796.30265 155.502439 
L 800.126313 173.941463 
L 803.949977 179.209756 
L 807.773641 144.965854 
L 811.597305 149.356098 
L 815.420968 175.697561 
L 819.244632 185.356098 
L 823.068296 197.64878 
L 826.89196 166.039024 
L 830.715624 213.453659 
L 834.539287 181.843902 
L 838.362951 144.965854 
L 842.186615 158.136585 
L 846.010279 154.62439 
L 849.833942 168.673171 
L 853.657606 176.57561 
L 857.48127 140.57561 
L 861.304934 144.087805 
L 865.128598 166.039024 
L 868.952261 159.892683 
L 872.775925 179.209756 
L 876.599589 186.234146 
L 880.423253 195.014634 
L 884.246916 162.526829 
L 888.07058 138.819512 
L 891.894244 173.941463 
L 895.717908 169.55122 
L 899.541571 151.112195 
L 903.365235 155.502439 
L 907.188899 172.185366 
L 911.012563 153.746341 
L 914.836227 180.965854 
L 918.65989 246.819512 
L 922.483554 163.404878 
L 926.307218 159.014634 
L 930.130882 201.160976 
L 933.954545 175.697561 
L 933.954545 175.697561 
" clip-path="url(#p9b5a58f36e)" style="fill: none; stroke: #2ca02c; stroke-width: 1.5; stroke-linecap: square"/>
   </g>
   <g id="line2d_19">
    <path d="M 173.045455 615.6 
L 176.869118 433.843902 
L 180.692782 416.282927 
L 184.516446 412.770732 
L 188.34011 349.55122 
L 192.163773 356.57561 
L 195.987437 311.795122 
L 199.811101 375.014634 
L 203.634765 391.697561 
L 207.458429 268.770732 
L 211.282092 292.478049 
L 215.105756 360.965854 
L 218.92942 259.112195 
L 222.753084 226.62439 
L 226.576747 278.429268 
L 230.400411 200.282927 
L 234.224075 220.478049 
L 238.047739 209.941463 
L 241.871402 208.185366 
L 245.695066 248.57561 
L 249.51873 231.014634 
L 253.342394 245.063415 
L 257.166058 270.526829 
L 260.989721 189.746341 
L 264.813385 213.453659 
L 268.637049 180.965854 
L 272.460713 188.868293 
L 276.284376 169.55122 
L 280.10804 245.063415 
L 283.931704 226.62439 
L 287.755368 267.892683 
L 291.579032 200.282927 
L 295.402695 191.502439 
L 299.226359 205.55122 
L 303.050023 192.380488 
L 306.873687 209.941463 
L 310.69735 207.307317 
L 314.521014 126.526829 
L 318.344678 219.6 
L 322.168342 189.746341 
L 325.992005 185.356098 
L 329.815669 184.478049 
L 333.639333 193.258537 
L 337.462997 171.307317 
L 341.286661 155.502439 
L 345.110324 156.380488 
L 348.933988 164.282927 
L 352.757652 151.990244 
L 356.581316 175.697561 
L 360.404979 188.868293 
L 364.228643 207.307317 
L 368.052307 178.331707 
L 371.875971 254.721951 
L 375.699635 146.721951 
L 379.523298 212.57561 
L 383.346962 150.234146 
L 387.170626 190.62439 
L 390.99429 186.234146 
L 394.817953 187.990244 
L 398.641617 166.039024 
L 402.465281 213.453659 
L 406.288945 148.478049 
L 410.112608 193.258537 
L 413.936272 189.746341 
L 417.759936 163.404878 
L 421.5836 188.868293 
L 425.407264 189.746341 
L 429.230927 180.087805 
L 433.054591 220.478049 
L 436.878255 167.795122 
L 440.701919 190.62439 
L 444.525582 209.063415 
L 448.349246 201.160976 
L 452.17291 227.502439 
L 455.996574 179.209756 
L 459.820238 187.112195 
L 463.643901 229.258537 
L 467.467565 228.380488 
L 471.291229 175.697561 
L 475.114893 179.209756 
L 478.938556 180.087805 
L 482.76222 159.892683 
L 486.585884 176.57561 
L 490.409548 219.6 
L 494.233212 209.063415 
L 498.056875 159.892683 
L 501.880539 206.429268 
L 505.704203 186.234146 
L 509.527867 159.892683 
L 513.35153 219.6 
L 517.175194 216.965854 
L 520.998858 179.209756 
L 524.822522 152.868293 
L 528.646185 202.039024 
L 532.469849 153.746341 
L 536.293513 170.429268 
L 540.117177 163.404878 
L 543.940841 173.941463 
L 547.764504 214.331707 
L 551.588168 153.746341 
L 555.411832 179.209756 
L 559.235496 176.57561 
L 563.059159 150.234146 
L 566.882823 165.160976 
L 570.706487 184.478049 
L 574.530151 165.160976 
L 578.353815 187.990244 
L 582.177478 140.57561 
L 589.824806 187.990244 
L 593.64847 183.6 
L 597.472133 219.6 
L 601.295797 147.6 
L 605.119461 176.57561 
L 608.943125 144.965854 
L 612.766788 198.526829 
L 616.590452 166.917073 
L 620.414116 154.62439 
L 624.23778 151.990244 
L 628.061444 147.6 
L 631.885107 202.917073 
L 635.708771 185.356098 
L 639.532435 173.941463 
L 643.356099 180.087805 
L 647.179762 180.965854 
L 651.003426 144.965854 
L 654.82709 167.795122 
L 658.650754 136.185366 
L 662.474418 155.502439 
L 666.298081 183.6 
L 670.121745 184.478049 
L 673.945409 180.965854 
L 677.769073 153.746341 
L 681.592736 213.453659 
L 685.4164 161.64878 
L 689.240064 148.478049 
L 693.063728 159.014634 
L 700.711055 167.795122 
L 704.534719 188.868293 
L 708.358383 150.234146 
L 712.182047 156.380488 
L 716.00571 142.331707 
L 719.829374 164.282927 
L 723.653038 194.136585 
L 727.476702 140.57561 
L 731.300365 174.819512 
L 735.124029 137.941463 
L 738.947693 198.526829 
L 742.771357 165.160976 
L 746.595021 173.063415 
L 750.418684 151.990244 
L 754.242348 173.063415 
L 758.066012 148.478049 
L 761.889676 163.404878 
L 765.713339 186.234146 
L 769.537003 180.087805 
L 773.360667 161.64878 
L 777.184331 154.62439 
L 781.007995 157.258537 
L 784.831658 165.160976 
L 788.655322 111.6 
L 792.478986 186.234146 
L 796.30265 155.502439 
L 800.126313 173.941463 
L 803.949977 179.209756 
L 807.773641 144.965854 
L 811.597305 149.356098 
L 815.420968 175.697561 
L 819.244632 185.356098 
L 823.068296 197.64878 
L 826.89196 166.039024 
L 830.715624 213.453659 
L 834.539287 181.843902 
L 838.362951 144.965854 
L 842.186615 158.136585 
L 846.010279 154.62439 
L 849.833942 168.673171 
L 853.657606 176.57561 
L 857.48127 140.57561 
L 861.304934 144.087805 
L 865.128598 166.039024 
L 868.952261 159.892683 
L 872.775925 179.209756 
L 876.599589 186.234146 
L 880.423253 195.014634 
L 884.246916 162.526829 
L 888.07058 138.819512 
L 891.894244 173.941463 
L 895.717908 169.55122 
L 899.541571 151.112195 
L 903.365235 155.502439 
L 907.188899 172.185366 
L 911.012563 153.746341 
L 914.836227 180.965854 
L 918.65989 246.819512 
L 922.483554 163.404878 
L 926.307218 159.014634 
L 930.130882 201.160976 
L 933.954545 175.697561 
L 933.954545 175.697561 
" clip-path="url(#p9b5a58f36e)" style="fill: none; stroke: #d62728; stroke-width: 1.5; stroke-linecap: square"/>
   </g>
   <g id="patch_3">
    <path d="M 135 640.8 
L 135 86.4 
" style="fill: none; stroke: #000000; stroke-width: 0.8; stroke-linejoin: miter; stroke-linecap: square"/>
   </g>
   <g id="patch_4">
    <path d="M 972 640.8 
L 972 86.4 
" style="fill: none; stroke: #000000; stroke-width: 0.8; stroke-linejoin: miter; stroke-linecap: square"/>
   </g>
   <g id="patch_5">
    <path d="M 135 640.8 
L 972 640.8 
" style="fill: none; stroke: #000000; stroke-width: 0.8; stroke-linejoin: miter; stroke-linecap: square"/>
   </g>
   <g id="patch_6">
    <path d="M 135 86.4 
L 972 86.4 
" style="fill: none; stroke: #000000; stroke-width: 0.8; stroke-linejoin: miter; stroke-linecap: square"/>
   </g>
   <g id="legend_1">
    <g id="patch_7">
     <path d="M 142 153.1125 
L 251.45 153.1125 
Q 253.45 153.1125 253.45 151.1125 
L 253.45 93.4 
Q 253.45 91.4 251.45 91.4 
L 142 91.4 
Q 140 91.4 140 93.4 
L 140 151.1125 
Q 140 153.1125 142 153.1125 
z
" style="fill: #ffffff; opacity: 0.8; stroke: #cccccc; stroke-linejoin: miter"/>
    </g>
    <g id="line2d_20">
     <path d="M 144 99.498437 
L 154 99.498437 
L 164 99.498437 
" style="fill: none; stroke: #1f77b4; stroke-width: 1.5; stroke-linecap: square"/>
    </g>
    <g id="text_18">
     <!-- Accuracy -->
     <g transform="translate(172 102.998437) scale(0.1 -0.1)">
      <defs>
       <path id="DejaVuSans-41" d="M 2188 4044 
L 1331 1722 
L 3047 1722 
L 2188 4044 
z
M 1831 4666 
L 2547 4666 
L 4325 0 
L 3669 0 
L 3244 1197 
L 1141 1197 
L 716 0 
L 50 0 
L 1831 4666 
z
" transform="scale(0.015625)"/>
       <path id="DejaVuSans-75" d="M 544 1381 
L 544 3500 
L 1119 3500 
L 1119 1403 
Q 1119 906 1312 657 
Q 1506 409 1894 409 
Q 2359 409 2629 706 
Q 2900 1003 2900 1516 
L 2900 3500 
L 3475 3500 
L 3475 0 
L 2900 0 
L 2900 538 
Q 2691 219 2414 64 
Q 2138 -91 1772 -91 
Q 1169 -91 856 284 
Q 544 659 544 1381 
z
M 1991 3584 
L 1991 3584 
z
" transform="scale(0.015625)"/>
       <path id="DejaVuSans-61" d="M 2194 1759 
Q 1497 1759 1228 1600 
Q 959 1441 959 1056 
Q 959 750 1161 570 
Q 1363 391 1709 391 
Q 2188 391 2477 730 
Q 2766 1069 2766 1631 
L 2766 1759 
L 2194 1759 
z
M 3341 1997 
L 3341 0 
L 2766 0 
L 2766 531 
Q 2569 213 2275 61 
Q 1981 -91 1556 -91 
Q 1019 -91 701 211 
Q 384 513 384 1019 
Q 384 1609 779 1909 
Q 1175 2209 1959 2209 
L 2766 2209 
L 2766 2266 
Q 2766 2663 2505 2880 
Q 2244 3097 1772 3097 
Q 1472 3097 1187 3025 
Q 903 2953 641 2809 
L 641 3341 
Q 956 3463 1253 3523 
Q 1550 3584 1831 3584 
Q 2591 3584 2966 3190 
Q 3341 2797 3341 1997 
z
" transform="scale(0.015625)"/>
       <path id="DejaVuSans-79" d="M 2059 -325 
Q 1816 -950 1584 -1140 
Q 1353 -1331 966 -1331 
L 506 -1331 
L 506 -850 
L 844 -850 
Q 1081 -850 1212 -737 
Q 1344 -625 1503 -206 
L 1606 56 
L 191 3500 
L 800 3500 
L 1894 763 
L 2988 3500 
L 3597 3500 
L 2059 -325 
z
" transform="scale(0.015625)"/>
      </defs>
      <use xlink:href="#DejaVuSans-41"/>
      <use xlink:href="#DejaVuSans-63" x="66.658203"/>
      <use xlink:href="#DejaVuSans-63" x="121.638672"/>
      <use xlink:href="#DejaVuSans-75" x="176.619141"/>
      <use xlink:href="#DejaVuSans-72" x="239.998047"/>
      <use xlink:href="#DejaVuSans-61" x="281.111328"/>
      <use xlink:href="#DejaVuSans-63" x="342.390625"/>
      <use xlink:href="#DejaVuSans-79" x="397.371094"/>
     </g>
    </g>
    <g id="line2d_21">
     <path d="M 144 114.176562 
L 154 114.176562 
L 164 114.176562 
" style="fill: none; stroke: #ff7f0e; stroke-width: 1.5; stroke-linecap: square"/>
    </g>
    <g id="text_19">
     <!-- Precision Micro' -->
     <g transform="translate(172 117.676562) scale(0.1 -0.1)">
      <defs>
       <path id="DejaVuSans-50" d="M 1259 4147 
L 1259 2394 
L 2053 2394 
Q 2494 2394 2734 2622 
Q 2975 2850 2975 3272 
Q 2975 3691 2734 3919 
Q 2494 4147 2053 4147 
L 1259 4147 
z
M 628 4666 
L 2053 4666 
Q 2838 4666 3239 4311 
Q 3641 3956 3641 3272 
Q 3641 2581 3239 2228 
Q 2838 1875 2053 1875 
L 1259 1875 
L 1259 0 
L 628 0 
L 628 4666 
z
" transform="scale(0.015625)"/>
       <path id="DejaVuSans-69" d="M 603 3500 
L 1178 3500 
L 1178 0 
L 603 0 
L 603 3500 
z
M 603 4863 
L 1178 4863 
L 1178 4134 
L 603 4134 
L 603 4863 
z
" transform="scale(0.015625)"/>
       <path id="DejaVuSans-6e" d="M 3513 2113 
L 3513 0 
L 2938 0 
L 2938 2094 
Q 2938 2591 2744 2837 
Q 2550 3084 2163 3084 
Q 1697 3084 1428 2787 
Q 1159 2491 1159 1978 
L 1159 0 
L 581 0 
L 581 3500 
L 1159 3500 
L 1159 2956 
Q 1366 3272 1645 3428 
Q 1925 3584 2291 3584 
Q 2894 3584 3203 3211 
Q 3513 2838 3513 2113 
z
" transform="scale(0.015625)"/>
       <path id="DejaVuSans-20" transform="scale(0.015625)"/>
       <path id="DejaVuSans-4d" d="M 628 4666 
L 1569 4666 
L 2759 1491 
L 3956 4666 
L 4897 4666 
L 4897 0 
L 4281 0 
L 4281 4097 
L 3078 897 
L 2444 897 
L 1241 4097 
L 1241 0 
L 628 0 
L 628 4666 
z
" transform="scale(0.015625)"/>
       <path id="DejaVuSans-27" d="M 1147 4666 
L 1147 2931 
L 616 2931 
L 616 4666 
L 1147 4666 
z
" transform="scale(0.015625)"/>
      </defs>
      <use xlink:href="#DejaVuSans-50"/>
      <use xlink:href="#DejaVuSans-72" x="58.552734"/>
      <use xlink:href="#DejaVuSans-65" x="97.416016"/>
      <use xlink:href="#DejaVuSans-63" x="158.939453"/>
      <use xlink:href="#DejaVuSans-69" x="213.919922"/>
      <use xlink:href="#DejaVuSans-73" x="241.703125"/>
      <use xlink:href="#DejaVuSans-69" x="293.802734"/>
      <use xlink:href="#DejaVuSans-6f" x="321.585938"/>
      <use xlink:href="#DejaVuSans-6e" x="382.767578"/>
      <use xlink:href="#DejaVuSans-20" x="446.146484"/>
      <use xlink:href="#DejaVuSans-4d" x="477.933594"/>
      <use xlink:href="#DejaVuSans-69" x="564.212891"/>
      <use xlink:href="#DejaVuSans-63" x="591.996094"/>
      <use xlink:href="#DejaVuSans-72" x="646.976562"/>
      <use xlink:href="#DejaVuSans-6f" x="685.839844"/>
      <use xlink:href="#DejaVuSans-27" x="747.021484"/>
     </g>
    </g>
    <g id="line2d_22">
     <path d="M 144 128.854687 
L 154 128.854687 
L 164 128.854687 
" style="fill: none; stroke: #2ca02c; stroke-width: 1.5; stroke-linecap: square"/>
    </g>
    <g id="text_20">
     <!-- Recall Micro -->
     <g transform="translate(172 132.354687) scale(0.1 -0.1)">
      <defs>
       <path id="DejaVuSans-52" d="M 2841 2188 
Q 3044 2119 3236 1894 
Q 3428 1669 3622 1275 
L 4263 0 
L 3584 0 
L 2988 1197 
Q 2756 1666 2539 1819 
Q 2322 1972 1947 1972 
L 1259 1972 
L 1259 0 
L 628 0 
L 628 4666 
L 2053 4666 
Q 2853 4666 3247 4331 
Q 3641 3997 3641 3322 
Q 3641 2881 3436 2590 
Q 3231 2300 2841 2188 
z
M 1259 4147 
L 1259 2491 
L 2053 2491 
Q 2509 2491 2742 2702 
Q 2975 2913 2975 3322 
Q 2975 3731 2742 3939 
Q 2509 4147 2053 4147 
L 1259 4147 
z
" transform="scale(0.015625)"/>
       <path id="DejaVuSans-6c" d="M 603 4863 
L 1178 4863 
L 1178 0 
L 603 0 
L 603 4863 
z
" transform="scale(0.015625)"/>
      </defs>
      <use xlink:href="#DejaVuSans-52"/>
      <use xlink:href="#DejaVuSans-65" x="64.982422"/>
      <use xlink:href="#DejaVuSans-63" x="126.505859"/>
      <use xlink:href="#DejaVuSans-61" x="181.486328"/>
      <use xlink:href="#DejaVuSans-6c" x="242.765625"/>
      <use xlink:href="#DejaVuSans-6c" x="270.548828"/>
      <use xlink:href="#DejaVuSans-20" x="298.332031"/>
      <use xlink:href="#DejaVuSans-4d" x="330.119141"/>
      <use xlink:href="#DejaVuSans-69" x="416.398438"/>
      <use xlink:href="#DejaVuSans-63" x="444.181641"/>
      <use xlink:href="#DejaVuSans-72" x="499.162109"/>
      <use xlink:href="#DejaVuSans-6f" x="538.025391"/>
     </g>
    </g>
    <g id="line2d_23">
     <path d="M 144 143.532812 
L 154 143.532812 
L 164 143.532812 
" style="fill: none; stroke: #d62728; stroke-width: 1.5; stroke-linecap: square"/>
    </g>
    <g id="text_21">
     <!-- F1 Score Micro -->
     <g transform="translate(172 147.032812) scale(0.1 -0.1)">
      <defs>
       <path id="DejaVuSans-46" d="M 628 4666 
L 3309 4666 
L 3309 4134 
L 1259 4134 
L 1259 2759 
L 3109 2759 
L 3109 2228 
L 1259 2228 
L 1259 0 
L 628 0 
L 628 4666 
z
" transform="scale(0.015625)"/>
       <path id="DejaVuSans-53" d="M 3425 4513 
L 3425 3897 
Q 3066 4069 2747 4153 
Q 2428 4238 2131 4238 
Q 1616 4238 1336 4038 
Q 1056 3838 1056 3469 
Q 1056 3159 1242 3001 
Q 1428 2844 1947 2747 
L 2328 2669 
Q 3034 2534 3370 2195 
Q 3706 1856 3706 1288 
Q 3706 609 3251 259 
Q 2797 -91 1919 -91 
Q 1588 -91 1214 -16 
Q 841 59 441 206 
L 441 856 
Q 825 641 1194 531 
Q 1563 422 1919 422 
Q 2459 422 2753 634 
Q 3047 847 3047 1241 
Q 3047 1584 2836 1778 
Q 2625 1972 2144 2069 
L 1759 2144 
Q 1053 2284 737 2584 
Q 422 2884 422 3419 
Q 422 4038 858 4394 
Q 1294 4750 2059 4750 
Q 2388 4750 2728 4690 
Q 3069 4631 3425 4513 
z
" transform="scale(0.015625)"/>
      </defs>
      <use xlink:href="#DejaVuSans-46"/>
      <use xlink:href="#DejaVuSans-31" x="57.519531"/>
      <use xlink:href="#DejaVuSans-20" x="121.142578"/>
      <use xlink:href="#DejaVuSans-53" x="152.929688"/>
      <use xlink:href="#DejaVuSans-63" x="216.40625"/>
      <use xlink:href="#DejaVuSans-6f" x="271.386719"/>
      <use xlink:href="#DejaVuSans-72" x="332.568359"/>
      <use xlink:href="#DejaVuSans-65" x="371.431641"/>
      <use xlink:href="#DejaVuSans-20" x="432.955078"/>
      <use xlink:href="#DejaVuSans-4d" x="464.742188"/>
      <use xlink:href="#DejaVuSans-69" x="551.021484"/>
      <use xlink:href="#DejaVuSans-63" x="578.804688"/>
      <use xlink:href="#DejaVuSans-72" x="633.785156"/>
      <use xlink:href="#DejaVuSans-6f" x="672.648438"/>
     </g>
    </g>
   </g>
  </g>
 </g>
 <defs>
  <clipPath id="p9b5a58f36e">
   <rect x="135" y="86.4" width="837" height="554.4"/>
  </clipPath>
 </defs>
</svg>
