<?xml version="1.0" encoding="utf-8" standalone="no"?>
<!DOCTYPE svg PUBLIC "-//W3C//DTD SVG 1.1//EN"
  "http://www.w3.org/Graphics/SVG/1.1/DTD/svg11.dtd">
<svg xmlns:xlink="http://www.w3.org/1999/xlink" width="1080pt" height="720pt" viewBox="0 0 1080 720" xmlns="http://www.w3.org/2000/svg" version="1.1">
 <metadata>
  <rdf:RDF xmlns:dc="http://purl.org/dc/elements/1.1/" xmlns:cc="http://creativecommons.org/ns#" xmlns:rdf="http://www.w3.org/1999/02/22-rdf-syntax-ns#">
   <cc:Work>
    <dc:type rdf:resource="http://purl.org/dc/dcmitype/StillImage"/>
    <dc:date>2023-11-16T18:13:11.113785</dc:date>
    <dc:format>image/svg+xml</dc:format>
    <dc:creator>
     <cc:Agent>
      <dc:title>Matplotlib v3.7.2, https://matplotlib.org/</dc:title>
     </cc:Agent>
    </dc:creator>
   </cc:Work>
  </rdf:RDF>
 </metadata>
 <defs>
  <style type="text/css">*{stroke-linejoin: round; stroke-linecap: butt}</style>
 </defs>
 <g id="figure_1">
  <g id="patch_1">
   <path d="M 0 720 
L 1080 720 
L 1080 0 
L 0 0 
z
" style="fill: #ffffff"/>
  </g>
  <g id="axes_1">
   <g id="patch_2">
    <path d="M 135 640.8 
L 972 640.8 
L 972 86.4 
L 135 86.4 
z
" style="fill: #ffffff"/>
   </g>
   <g id="matplotlib.axis_1">
    <g id="xtick_1">
     <g id="line2d_1">
      <defs>
       <path id="m80d136216c" d="M 0 0 
L 0 3.5 
" style="stroke: #000000; stroke-width: 0.8"/>
      </defs>
      <g>
       <use xlink:href="#m80d136216c" x="173.045455" y="640.8" style="stroke: #000000; stroke-width: 0.8"/>
      </g>
     </g>
     <g id="text_1">
      <!-- 0 -->
      <g transform="translate(169.864205 655.398438) scale(0.1 -0.1)">
       <defs>
        <path id="DejaVuSans-30" d="M 2034 4250 
Q 1547 4250 1301 3770 
Q 1056 3291 1056 2328 
Q 1056 1369 1301 889 
Q 1547 409 2034 409 
Q 2525 409 2770 889 
Q 3016 1369 3016 2328 
Q 3016 3291 2770 3770 
Q 2525 4250 2034 4250 
z
M 2034 4750 
Q 2819 4750 3233 4129 
Q 3647 3509 3647 2328 
Q 3647 1150 3233 529 
Q 2819 -91 2034 -91 
Q 1250 -91 836 529 
Q 422 1150 422 2328 
Q 422 3509 836 4129 
Q 1250 4750 2034 4750 
z
" transform="scale(0.015625)"/>
       </defs>
       <use xlink:href="#DejaVuSans-30"/>
      </g>
     </g>
    </g>
    <g id="xtick_2">
     <g id="line2d_2">
      <g>
       <use xlink:href="#m80d136216c" x="268.637049" y="640.8" style="stroke: #000000; stroke-width: 0.8"/>
      </g>
     </g>
     <g id="text_2">
      <!-- 25 -->
      <g transform="translate(262.274549 655.398438) scale(0.1 -0.1)">
       <defs>
        <path id="DejaVuSans-32" d="M 1228 531 
L 3431 531 
L 3431 0 
L 469 0 
L 469 531 
Q 828 903 1448 1529 
Q 2069 2156 2228 2338 
Q 2531 2678 2651 2914 
Q 2772 3150 2772 3378 
Q 2772 3750 2511 3984 
Q 2250 4219 1831 4219 
Q 1534 4219 1204 4116 
Q 875 4013 500 3803 
L 500 4441 
Q 881 4594 1212 4672 
Q 1544 4750 1819 4750 
Q 2544 4750 2975 4387 
Q 3406 4025 3406 3419 
Q 3406 3131 3298 2873 
Q 3191 2616 2906 2266 
Q 2828 2175 2409 1742 
Q 1991 1309 1228 531 
z
" transform="scale(0.015625)"/>
        <path id="DejaVuSans-35" d="M 691 4666 
L 3169 4666 
L 3169 4134 
L 1269 4134 
L 1269 2991 
Q 1406 3038 1543 3061 
Q 1681 3084 1819 3084 
Q 2600 3084 3056 2656 
Q 3513 2228 3513 1497 
Q 3513 744 3044 326 
Q 2575 -91 1722 -91 
Q 1428 -91 1123 -41 
Q 819 9 494 109 
L 494 744 
Q 775 591 1075 516 
Q 1375 441 1709 441 
Q 2250 441 2565 725 
Q 2881 1009 2881 1497 
Q 2881 1984 2565 2268 
Q 2250 2553 1709 2553 
Q 1456 2553 1204 2497 
Q 953 2441 691 2322 
L 691 4666 
z
" transform="scale(0.015625)"/>
       </defs>
       <use xlink:href="#DejaVuSans-32"/>
       <use xlink:href="#DejaVuSans-35" x="63.623047"/>
      </g>
     </g>
    </g>
    <g id="xtick_3">
     <g id="line2d_3">
      <g>
       <use xlink:href="#m80d136216c" x="364.228643" y="640.8" style="stroke: #000000; stroke-width: 0.8"/>
      </g>
     </g>
     <g id="text_3">
      <!-- 50 -->
      <g transform="translate(357.866143 655.398438) scale(0.1 -0.1)">
       <use xlink:href="#DejaVuSans-35"/>
       <use xlink:href="#DejaVuSans-30" x="63.623047"/>
      </g>
     </g>
    </g>
    <g id="xtick_4">
     <g id="line2d_4">
      <g>
       <use xlink:href="#m80d136216c" x="459.820238" y="640.8" style="stroke: #000000; stroke-width: 0.8"/>
      </g>
     </g>
     <g id="text_4">
      <!-- 75 -->
      <g transform="translate(453.457738 655.398438) scale(0.1 -0.1)">
       <defs>
        <path id="DejaVuSans-37" d="M 525 4666 
L 3525 4666 
L 3525 4397 
L 1831 0 
L 1172 0 
L 2766 4134 
L 525 4134 
L 525 4666 
z
" transform="scale(0.015625)"/>
       </defs>
       <use xlink:href="#DejaVuSans-37"/>
       <use xlink:href="#DejaVuSans-35" x="63.623047"/>
      </g>
     </g>
    </g>
    <g id="xtick_5">
     <g id="line2d_5">
      <g>
       <use xlink:href="#m80d136216c" x="555.411832" y="640.8" style="stroke: #000000; stroke-width: 0.8"/>
      </g>
     </g>
     <g id="text_5">
      <!-- 100 -->
      <g transform="translate(545.868082 655.398438) scale(0.1 -0.1)">
       <defs>
        <path id="DejaVuSans-31" d="M 794 531 
L 1825 531 
L 1825 4091 
L 703 3866 
L 703 4441 
L 1819 4666 
L 2450 4666 
L 2450 531 
L 3481 531 
L 3481 0 
L 794 0 
L 794 531 
z
" transform="scale(0.015625)"/>
       </defs>
       <use xlink:href="#DejaVuSans-31"/>
       <use xlink:href="#DejaVuSans-30" x="63.623047"/>
       <use xlink:href="#DejaVuSans-30" x="127.246094"/>
      </g>
     </g>
    </g>
    <g id="xtick_6">
     <g id="line2d_6">
      <g>
       <use xlink:href="#m80d136216c" x="651.003426" y="640.8" style="stroke: #000000; stroke-width: 0.8"/>
      </g>
     </g>
     <g id="text_6">
      <!-- 125 -->
      <g transform="translate(641.459676 655.398438) scale(0.1 -0.1)">
       <use xlink:href="#DejaVuSans-31"/>
       <use xlink:href="#DejaVuSans-32" x="63.623047"/>
       <use xlink:href="#DejaVuSans-35" x="127.246094"/>
      </g>
     </g>
    </g>
    <g id="xtick_7">
     <g id="line2d_7">
      <g>
       <use xlink:href="#m80d136216c" x="746.595021" y="640.8" style="stroke: #000000; stroke-width: 0.8"/>
      </g>
     </g>
     <g id="text_7">
      <!-- 150 -->
      <g transform="translate(737.051271 655.398438) scale(0.1 -0.1)">
       <use xlink:href="#DejaVuSans-31"/>
       <use xlink:href="#DejaVuSans-35" x="63.623047"/>
       <use xlink:href="#DejaVuSans-30" x="127.246094"/>
      </g>
     </g>
    </g>
    <g id="xtick_8">
     <g id="line2d_8">
      <g>
       <use xlink:href="#m80d136216c" x="842.186615" y="640.8" style="stroke: #000000; stroke-width: 0.8"/>
      </g>
     </g>
     <g id="text_8">
      <!-- 175 -->
      <g transform="translate(832.642865 655.398438) scale(0.1 -0.1)">
       <use xlink:href="#DejaVuSans-31"/>
       <use xlink:href="#DejaVuSans-37" x="63.623047"/>
       <use xlink:href="#DejaVuSans-35" x="127.246094"/>
      </g>
     </g>
    </g>
    <g id="xtick_9">
     <g id="line2d_9">
      <g>
       <use xlink:href="#m80d136216c" x="937.778209" y="640.8" style="stroke: #000000; stroke-width: 0.8"/>
      </g>
     </g>
     <g id="text_9">
      <!-- 200 -->
      <g transform="translate(928.234459 655.398438) scale(0.1 -0.1)">
       <use xlink:href="#DejaVuSans-32"/>
       <use xlink:href="#DejaVuSans-30" x="63.623047"/>
       <use xlink:href="#DejaVuSans-30" x="127.246094"/>
      </g>
     </g>
    </g>
    <g id="text_10">
     <!-- epoch -->
     <g transform="translate(538.271875 669.076563) scale(0.1 -0.1)">
      <defs>
       <path id="DejaVuSans-65" d="M 3597 1894 
L 3597 1613 
L 953 1613 
Q 991 1019 1311 708 
Q 1631 397 2203 397 
Q 2534 397 2845 478 
Q 3156 559 3463 722 
L 3463 178 
Q 3153 47 2828 -22 
Q 2503 -91 2169 -91 
Q 1331 -91 842 396 
Q 353 884 353 1716 
Q 353 2575 817 3079 
Q 1281 3584 2069 3584 
Q 2775 3584 3186 3129 
Q 3597 2675 3597 1894 
z
M 3022 2063 
Q 3016 2534 2758 2815 
Q 2500 3097 2075 3097 
Q 1594 3097 1305 2825 
Q 1016 2553 972 2059 
L 3022 2063 
z
" transform="scale(0.015625)"/>
       <path id="DejaVuSans-70" d="M 1159 525 
L 1159 -1331 
L 581 -1331 
L 581 3500 
L 1159 3500 
L 1159 2969 
Q 1341 3281 1617 3432 
Q 1894 3584 2278 3584 
Q 2916 3584 3314 3078 
Q 3713 2572 3713 1747 
Q 3713 922 3314 415 
Q 2916 -91 2278 -91 
Q 1894 -91 1617 61 
Q 1341 213 1159 525 
z
M 3116 1747 
Q 3116 2381 2855 2742 
Q 2594 3103 2138 3103 
Q 1681 3103 1420 2742 
Q 1159 2381 1159 1747 
Q 1159 1113 1420 752 
Q 1681 391 2138 391 
Q 2594 391 2855 752 
Q 3116 1113 3116 1747 
z
" transform="scale(0.015625)"/>
       <path id="DejaVuSans-6f" d="M 1959 3097 
Q 1497 3097 1228 2736 
Q 959 2375 959 1747 
Q 959 1119 1226 758 
Q 1494 397 1959 397 
Q 2419 397 2687 759 
Q 2956 1122 2956 1747 
Q 2956 2369 2687 2733 
Q 2419 3097 1959 3097 
z
M 1959 3584 
Q 2709 3584 3137 3096 
Q 3566 2609 3566 1747 
Q 3566 888 3137 398 
Q 2709 -91 1959 -91 
Q 1206 -91 779 398 
Q 353 888 353 1747 
Q 353 2609 779 3096 
Q 1206 3584 1959 3584 
z
" transform="scale(0.015625)"/>
       <path id="DejaVuSans-63" d="M 3122 3366 
L 3122 2828 
Q 2878 2963 2633 3030 
Q 2388 3097 2138 3097 
Q 1578 3097 1268 2742 
Q 959 2388 959 1747 
Q 959 1106 1268 751 
Q 1578 397 2138 397 
Q 2388 397 2633 464 
Q 2878 531 3122 666 
L 3122 134 
Q 2881 22 2623 -34 
Q 2366 -91 2075 -91 
Q 1284 -91 818 406 
Q 353 903 353 1747 
Q 353 2603 823 3093 
Q 1294 3584 2113 3584 
Q 2378 3584 2631 3529 
Q 2884 3475 3122 3366 
z
" transform="scale(0.015625)"/>
       <path id="DejaVuSans-68" d="M 3513 2113 
L 3513 0 
L 2938 0 
L 2938 2094 
Q 2938 2591 2744 2837 
Q 2550 3084 2163 3084 
Q 1697 3084 1428 2787 
Q 1159 2491 1159 1978 
L 1159 0 
L 581 0 
L 581 4863 
L 1159 4863 
L 1159 2956 
Q 1366 3272 1645 3428 
Q 1925 3584 2291 3584 
Q 2894 3584 3203 3211 
Q 3513 2838 3513 2113 
z
" transform="scale(0.015625)"/>
      </defs>
      <use xlink:href="#DejaVuSans-65"/>
      <use xlink:href="#DejaVuSans-70" x="61.523438"/>
      <use xlink:href="#DejaVuSans-6f" x="125"/>
      <use xlink:href="#DejaVuSans-63" x="186.181641"/>
      <use xlink:href="#DejaVuSans-68" x="241.162109"/>
     </g>
    </g>
   </g>
   <g id="matplotlib.axis_2">
    <g id="ytick_1">
     <g id="line2d_10">
      <defs>
       <path id="m321dde1bba" d="M 0 0 
L -3.5 0 
" style="stroke: #000000; stroke-width: 0.8"/>
      </defs>
      <g>
       <use xlink:href="#m321dde1bba" x="135" y="543.815567" style="stroke: #000000; stroke-width: 0.8"/>
      </g>
     </g>
     <g id="text_11">
      <!-- 0.3 -->
      <g transform="translate(112.096875 547.614786) scale(0.1 -0.1)">
       <defs>
        <path id="DejaVuSans-2e" d="M 684 794 
L 1344 794 
L 1344 0 
L 684 0 
L 684 794 
z
" transform="scale(0.015625)"/>
        <path id="DejaVuSans-33" d="M 2597 2516 
Q 3050 2419 3304 2112 
Q 3559 1806 3559 1356 
Q 3559 666 3084 287 
Q 2609 -91 1734 -91 
Q 1441 -91 1130 -33 
Q 819 25 488 141 
L 488 750 
Q 750 597 1062 519 
Q 1375 441 1716 441 
Q 2309 441 2620 675 
Q 2931 909 2931 1356 
Q 2931 1769 2642 2001 
Q 2353 2234 1838 2234 
L 1294 2234 
L 1294 2753 
L 1863 2753 
Q 2328 2753 2575 2939 
Q 2822 3125 2822 3475 
Q 2822 3834 2567 4026 
Q 2313 4219 1838 4219 
Q 1578 4219 1281 4162 
Q 984 4106 628 3988 
L 628 4550 
Q 988 4650 1302 4700 
Q 1616 4750 1894 4750 
Q 2613 4750 3031 4423 
Q 3450 4097 3450 3541 
Q 3450 3153 3228 2886 
Q 3006 2619 2597 2516 
z
" transform="scale(0.015625)"/>
       </defs>
       <use xlink:href="#DejaVuSans-30"/>
       <use xlink:href="#DejaVuSans-2e" x="63.623047"/>
       <use xlink:href="#DejaVuSans-33" x="95.410156"/>
      </g>
     </g>
    </g>
    <g id="ytick_2">
     <g id="line2d_11">
      <g>
       <use xlink:href="#m321dde1bba" x="135" y="421.937952" style="stroke: #000000; stroke-width: 0.8"/>
      </g>
     </g>
     <g id="text_12">
      <!-- 0.4 -->
      <g transform="translate(112.096875 425.73717) scale(0.1 -0.1)">
       <defs>
        <path id="DejaVuSans-34" d="M 2419 4116 
L 825 1625 
L 2419 1625 
L 2419 4116 
z
M 2253 4666 
L 3047 4666 
L 3047 1625 
L 3713 1625 
L 3713 1100 
L 3047 1100 
L 3047 0 
L 2419 0 
L 2419 1100 
L 313 1100 
L 313 1709 
L 2253 4666 
z
" transform="scale(0.015625)"/>
       </defs>
       <use xlink:href="#DejaVuSans-30"/>
       <use xlink:href="#DejaVuSans-2e" x="63.623047"/>
       <use xlink:href="#DejaVuSans-34" x="95.410156"/>
      </g>
     </g>
    </g>
    <g id="ytick_3">
     <g id="line2d_12">
      <g>
       <use xlink:href="#m321dde1bba" x="135" y="300.060336" style="stroke: #000000; stroke-width: 0.8"/>
      </g>
     </g>
     <g id="text_13">
      <!-- 0.5 -->
      <g transform="translate(112.096875 303.859555) scale(0.1 -0.1)">
       <use xlink:href="#DejaVuSans-30"/>
       <use xlink:href="#DejaVuSans-2e" x="63.623047"/>
       <use xlink:href="#DejaVuSans-35" x="95.410156"/>
      </g>
     </g>
    </g>
    <g id="ytick_4">
     <g id="line2d_13">
      <g>
       <use xlink:href="#m321dde1bba" x="135" y="178.18272" style="stroke: #000000; stroke-width: 0.8"/>
      </g>
     </g>
     <g id="text_14">
      <!-- 0.6 -->
      <g transform="translate(112.096875 181.981939) scale(0.1 -0.1)">
       <defs>
        <path id="DejaVuSans-36" d="M 2113 2584 
Q 1688 2584 1439 2293 
Q 1191 2003 1191 1497 
Q 1191 994 1439 701 
Q 1688 409 2113 409 
Q 2538 409 2786 701 
Q 3034 994 3034 1497 
Q 3034 2003 2786 2293 
Q 2538 2584 2113 2584 
z
M 3366 4563 
L 3366 3988 
Q 3128 4100 2886 4159 
Q 2644 4219 2406 4219 
Q 1781 4219 1451 3797 
Q 1122 3375 1075 2522 
Q 1259 2794 1537 2939 
Q 1816 3084 2150 3084 
Q 2853 3084 3261 2657 
Q 3669 2231 3669 1497 
Q 3669 778 3244 343 
Q 2819 -91 2113 -91 
Q 1303 -91 875 529 
Q 447 1150 447 2328 
Q 447 3434 972 4092 
Q 1497 4750 2381 4750 
Q 2619 4750 2861 4703 
Q 3103 4656 3366 4563 
z
" transform="scale(0.015625)"/>
       </defs>
       <use xlink:href="#DejaVuSans-30"/>
       <use xlink:href="#DejaVuSans-2e" x="63.623047"/>
       <use xlink:href="#DejaVuSans-36" x="95.410156"/>
      </g>
     </g>
    </g>
    <g id="text_15">
     <!-- score -->
     <g transform="translate(106.017187 377.032812) rotate(-90) scale(0.1 -0.1)">
      <defs>
       <path id="DejaVuSans-73" d="M 2834 3397 
L 2834 2853 
Q 2591 2978 2328 3040 
Q 2066 3103 1784 3103 
Q 1356 3103 1142 2972 
Q 928 2841 928 2578 
Q 928 2378 1081 2264 
Q 1234 2150 1697 2047 
L 1894 2003 
Q 2506 1872 2764 1633 
Q 3022 1394 3022 966 
Q 3022 478 2636 193 
Q 2250 -91 1575 -91 
Q 1294 -91 989 -36 
Q 684 19 347 128 
L 347 722 
Q 666 556 975 473 
Q 1284 391 1588 391 
Q 1994 391 2212 530 
Q 2431 669 2431 922 
Q 2431 1156 2273 1281 
Q 2116 1406 1581 1522 
L 1381 1569 
Q 847 1681 609 1914 
Q 372 2147 372 2553 
Q 372 3047 722 3315 
Q 1072 3584 1716 3584 
Q 2034 3584 2315 3537 
Q 2597 3491 2834 3397 
z
" transform="scale(0.015625)"/>
       <path id="DejaVuSans-72" d="M 2631 2963 
Q 2534 3019 2420 3045 
Q 2306 3072 2169 3072 
Q 1681 3072 1420 2755 
Q 1159 2438 1159 1844 
L 1159 0 
L 581 0 
L 581 3500 
L 1159 3500 
L 1159 2956 
Q 1341 3275 1631 3429 
Q 1922 3584 2338 3584 
Q 2397 3584 2469 3576 
Q 2541 3569 2628 3553 
L 2631 2963 
z
" transform="scale(0.015625)"/>
      </defs>
      <use xlink:href="#DejaVuSans-73"/>
      <use xlink:href="#DejaVuSans-63" x="52.099609"/>
      <use xlink:href="#DejaVuSans-6f" x="107.080078"/>
      <use xlink:href="#DejaVuSans-72" x="168.261719"/>
      <use xlink:href="#DejaVuSans-65" x="207.125"/>
     </g>
    </g>
   </g>
   <g id="line2d_14">
    <path d="M 173.045455 460.829236 
L 176.869118 405.505015 
L 180.692782 393.454194 
L 184.516446 375.377964 
L 188.34011 352.919617 
L 192.163773 372.639141 
L 195.987437 355.110675 
L 199.811101 303.073041 
L 203.634765 358.945027 
L 207.458429 319.505978 
L 211.282092 307.455158 
L 215.105756 277.328107 
L 218.92942 306.359629 
L 222.753084 272.398226 
L 226.576747 303.620806 
L 230.400411 276.232577 
L 234.224075 298.690925 
L 238.047739 246.105526 
L 241.871402 248.296585 
L 245.695066 244.462233 
L 249.51873 213.787417 
L 253.342394 255.965289 
L 257.166058 212.144123 
L 260.989721 185.851424 
L 264.813385 224.194944 
L 268.637049 236.245764 
L 272.460713 192.424599 
L 276.284376 234.602471 
L 280.10804 206.666478 
L 283.931704 218.717298 
L 287.755368 197.35448 
L 291.579032 189.685776 
L 295.402695 218.717298 
L 299.226359 210.50083 
L 303.050023 236.245764 
L 306.873687 229.124825 
L 310.69735 217.074004 
L 314.521014 225.838237 
L 318.344678 222.55165 
L 322.168342 204.475419 
L 325.992005 215.430711 
L 329.815669 191.876834 
L 333.639333 258.704111 
L 337.462997 202.284361 
L 341.286661 200.093303 
L 345.110324 190.233541 
L 348.933988 223.099415 
L 352.757652 194.067893 
L 356.581316 205.023184 
L 360.404979 182.564837 
L 364.228643 167.775194 
L 368.052307 190.233541 
L 371.875971 176.539427 
L 375.699635 188.042483 
L 379.523298 214.882946 
L 383.346962 179.826014 
L 387.170626 191.876834 
L 390.99429 170.514016 
L 394.817953 194.067893 
L 398.641617 198.450009 
L 402.465281 195.711186 
L 406.288945 171.609546 
L 410.112608 173.252839 
L 413.936272 199.545538 
L 417.759936 188.042483 
L 421.5836 209.405301 
L 425.407264 206.666478 
L 429.230927 181.469308 
L 433.054591 149.698963 
L 436.878255 202.284361 
L 440.701919 173.800604 
L 444.525582 222.003886 
L 448.349246 173.252839 
L 452.17291 180.373779 
L 455.996574 174.896133 
L 459.820238 191.876834 
L 463.643901 211.596359 
L 467.467565 208.857536 
L 471.291229 171.609546 
L 475.114893 179.278249 
L 478.938556 175.443898 
L 482.76222 196.258951 
L 486.585884 185.30366 
L 490.409548 197.902245 
L 494.233212 198.450009 
L 498.056875 170.514016 
L 501.880539 173.800604 
L 505.704203 189.138012 
L 509.527867 177.634956 
L 513.35153 200.641068 
L 517.175194 172.15731 
L 520.998858 193.520128 
L 524.822522 181.469308 
L 528.646185 183.112601 
L 532.469849 207.214242 
L 536.293513 212.144123 
L 540.117177 180.921543 
L 543.940841 183.660366 
L 547.764504 203.37989 
L 551.588168 197.35448 
L 555.411832 248.296585 
L 559.235496 183.112601 
L 563.059159 226.933767 
L 566.882823 226.386002 
L 570.706487 220.908356 
L 574.530151 186.399189 
L 578.353815 247.201056 
L 582.177478 177.634956 
L 586.001142 162.845313 
L 589.824806 179.826014 
L 593.64847 199.545538 
L 597.472133 183.112601 
L 601.295797 178.730485 
L 605.119461 206.118713 
L 608.943125 187.494718 
L 612.766788 178.18272 
L 616.590452 178.18272 
L 620.414116 155.176609 
L 624.23778 178.730485 
L 628.061444 191.32907 
L 631.885107 179.278249 
L 635.708771 186.946953 
L 639.532435 212.691888 
L 643.356099 180.921543 
L 647.179762 209.953065 
L 651.003426 192.424599 
L 654.82709 183.660366 
L 658.650754 202.284361 
L 662.474418 165.584135 
L 666.298081 195.163422 
L 670.121745 213.239652 
L 673.945409 173.800604 
L 677.769073 182.564837 
L 681.592736 197.902245 
L 685.4164 211.596359 
L 693.063728 171.609546 
L 696.887392 189.685776 
L 700.711055 173.800604 
L 704.534719 191.32907 
L 708.358383 172.15731 
L 712.182047 182.017072 
L 716.00571 175.443898 
L 719.829374 163.393077 
L 723.653038 201.736597 
L 727.476702 198.997774 
L 731.300365 192.424599 
L 735.124029 189.138012 
L 738.947693 192.972364 
L 742.771357 201.736597 
L 746.595021 188.042483 
L 750.418684 194.067893 
L 754.242348 197.35448 
L 758.066012 188.042483 
L 761.889676 205.570949 
L 765.713339 201.188832 
L 769.537003 185.851424 
L 773.360667 201.188832 
L 777.184331 200.093303 
L 781.007995 174.896133 
L 784.831658 180.373779 
L 788.655322 179.826014 
L 792.478986 190.781305 
L 796.30265 220.908356 
L 800.126313 187.494718 
L 803.949977 191.32907 
L 807.773641 190.781305 
L 811.597305 200.641068 
L 815.420968 189.138012 
L 819.244632 193.520128 
L 823.068296 238.984587 
L 826.89196 194.067893 
L 830.715624 220.908356 
L 834.539287 185.30366 
L 838.362951 186.946953 
L 842.186615 212.691888 
L 846.010279 187.494718 
L 849.833942 230.220354 
L 853.657606 182.564837 
L 857.48127 201.188832 
L 861.304934 207.214242 
L 865.128598 194.615657 
L 868.952261 206.666478 
L 872.775925 167.775194 
L 876.599589 188.042483 
L 880.423253 200.641068 
L 884.246916 172.705075 
L 888.07058 184.208131 
L 891.894244 206.118713 
L 895.717908 200.641068 
L 899.541571 184.208131 
L 903.365235 173.800604 
L 907.188899 182.017072 
L 911.012563 175.991662 
L 914.836227 190.233541 
L 918.65989 190.233541 
L 922.483554 203.37989 
L 926.307218 162.297548 
L 930.130882 185.30366 
L 933.954545 169.418487 
L 933.954545 169.418487 
" clip-path="url(#pb84bc07c09)" style="fill: none; stroke: #1f77b4; stroke-width: 1.5; stroke-linecap: square"/>
   </g>
   <g id="line2d_15">
    <path d="M 173.045455 615.6 
L 176.869118 340.636415 
L 180.692782 499.729279 
L 184.516446 444.603591 
L 188.34011 413.203204 
L 192.163773 289.610528 
L 195.987437 372.528448 
L 199.811101 425.105971 
L 203.634765 307.325095 
L 207.458429 296.474678 
L 211.282092 305.935548 
L 215.105756 253.676937 
L 218.92942 262.826676 
L 222.753084 278.522662 
L 226.576747 235.693611 
L 230.400411 248.423472 
L 234.224075 239.302581 
L 238.047739 223.16689 
L 241.871402 226.533625 
L 245.695066 264.869073 
L 249.51873 208.011689 
L 253.342394 255.338068 
L 257.166058 224.131665 
L 260.989721 196.459453 
L 264.813385 204.468946 
L 268.637049 252.539311 
L 272.460713 217.888819 
L 276.284376 239.85594 
L 280.10804 230.899936 
L 283.931704 258.414959 
L 287.755368 196.401487 
L 291.579032 184.319515 
L 295.402695 215.6361 
L 299.226359 242.813279 
L 303.050023 239.911648 
L 306.873687 246.853911 
L 310.69735 191.091448 
L 314.521014 231.692705 
L 318.344678 188.068079 
L 322.168342 187.651323 
L 325.992005 211.251184 
L 329.815669 184.87011 
L 333.639333 269.372814 
L 337.462997 205.945971 
L 341.286661 183.240436 
L 345.110324 202.258568 
L 348.933988 203.866005 
L 352.757652 181.768424 
L 356.581316 167.076997 
L 360.404979 185.341917 
L 364.228643 188.379604 
L 368.052307 192.759347 
L 371.875971 185.932338 
L 375.699635 209.4858 
L 379.523298 222.694461 
L 383.346962 170.675802 
L 387.170626 196.994955 
L 390.99429 179.799198 
L 394.817953 192.691251 
L 398.641617 215.401481 
L 402.465281 192.847047 
L 406.288945 169.158161 
L 410.112608 182.725501 
L 413.936272 183.832912 
L 417.759936 171.06221 
L 421.5836 192.619194 
L 425.407264 184.32593 
L 429.230927 169.749421 
L 433.054591 161.701466 
L 436.878255 181.295543 
L 440.701919 177.340034 
L 444.525582 166.515055 
L 448.349246 175.767672 
L 452.17291 183.751127 
L 455.996574 184.228971 
L 459.820238 168.412132 
L 463.643901 223.001781 
L 467.467565 210.350165 
L 471.291229 154.202425 
L 475.114893 193.00636 
L 478.938556 163.054683 
L 482.76222 173.430921 
L 486.585884 190.271136 
L 490.409548 153.470308 
L 494.233212 174.652913 
L 498.056875 189.183787 
L 501.880539 196.371109 
L 505.704203 188.742213 
L 509.527867 181.603816 
L 513.35153 183.702906 
L 517.175194 183.578716 
L 520.998858 193.118982 
L 524.822522 189.656846 
L 528.646185 172.782141 
L 532.469849 203.056651 
L 536.293513 214.460933 
L 540.117177 177.500802 
L 543.940841 195.768578 
L 547.764504 191.13239 
L 551.588168 212.793205 
L 555.411832 176.238389 
L 559.235496 182.123427 
L 563.059159 204.006107 
L 566.882823 146.834764 
L 570.706487 111.6 
L 574.530151 187.434669 
L 578.353815 187.796919 
L 582.177478 180.064475 
L 586.001142 162.30848 
L 589.824806 180.087374 
L 593.64847 193.267669 
L 597.472133 153.917247 
L 601.295797 195.76708 
L 605.119461 206.263924 
L 608.943125 179.001771 
L 612.766788 163.001731 
L 616.590452 169.205293 
L 620.414116 162.285116 
L 624.23778 193.131498 
L 628.061444 176.527246 
L 631.885107 181.41865 
L 635.708771 191.637272 
L 639.532435 208.236671 
L 643.356099 208.650847 
L 647.179762 194.495182 
L 651.003426 202.272555 
L 654.82709 155.732533 
L 658.650754 185.529307 
L 662.474418 176.772471 
L 666.298081 128.330689 
L 670.121745 173.626692 
L 673.945409 181.460695 
L 677.769073 161.155422 
L 681.592736 187.159521 
L 685.4164 164.154486 
L 689.240064 182.70901 
L 693.063728 179.709991 
L 696.887392 190.84191 
L 700.711055 175.11479 
L 704.534719 165.014879 
L 708.358383 182.377759 
L 712.182047 189.78154 
L 716.00571 147.796445 
L 719.829374 172.531245 
L 723.653038 209.927809 
L 727.476702 208.942288 
L 731.300365 164.350676 
L 735.124029 175.852053 
L 738.947693 175.701616 
L 742.771357 164.317195 
L 746.595021 170.097878 
L 750.418684 185.206842 
L 754.242348 184.649572 
L 758.066012 208.872864 
L 761.889676 196.291848 
L 765.713339 190.159635 
L 769.537003 160.268366 
L 773.360667 172.324673 
L 777.184331 188.060326 
L 781.007995 189.042076 
L 784.831658 169.415501 
L 788.655322 179.510997 
L 792.478986 206.454961 
L 796.30265 169.490427 
L 800.126313 183.43638 
L 803.949977 191.781556 
L 807.773641 174.427366 
L 811.597305 192.232155 
L 815.420968 198.693289 
L 819.244632 197.286111 
L 823.068296 177.02305 
L 826.89196 166.876091 
L 830.715624 175.681494 
L 834.539287 154.683801 
L 838.362951 164.713117 
L 842.186615 165.295183 
L 846.010279 197.462375 
L 849.833942 169.64487 
L 853.657606 199.086271 
L 857.48127 190.680249 
L 861.304934 184.579513 
L 865.128598 196.03034 
L 868.952261 192.46211 
L 872.775925 182.06725 
L 876.599589 191.414033 
L 880.423253 198.292094 
L 884.246916 191.621786 
L 888.07058 178.227601 
L 891.894244 169.832482 
L 895.717908 195.959765 
L 899.541571 167.159099 
L 903.365235 171.450802 
L 907.188899 186.522072 
L 911.012563 169.89708 
L 914.836227 184.248573 
L 918.65989 179.056188 
L 922.483554 178.82222 
L 926.307218 166.785496 
L 930.130882 189.606687 
L 933.954545 178.562413 
L 933.954545 178.562413 
" clip-path="url(#pb84bc07c09)" style="fill: none; stroke: #ff7f0e; stroke-width: 1.5; stroke-linecap: square"/>
   </g>
   <g id="line2d_16">
    <path d="M 173.045455 506.091372 
L 176.869118 452.494576 
L 180.692782 437.263507 
L 184.516446 413.796089 
L 188.34011 362.434154 
L 192.163773 367.660831 
L 195.987437 347.038953 
L 199.811101 321.861357 
L 203.634765 336.378245 
L 207.458429 298.912968 
L 211.282092 289.986333 
L 215.105756 310.943066 
L 218.92942 284.642647 
L 222.753084 286.708877 
L 226.576747 289.695406 
L 230.400411 258.374851 
L 234.224075 330.545912 
L 238.047739 245.745807 
L 241.871402 242.286693 
L 245.695066 238.313831 
L 249.51873 226.332621 
L 253.342394 237.037661 
L 257.166058 226.258223 
L 260.989721 185.316629 
L 264.813385 232.632438 
L 268.637049 221.848065 
L 272.460713 193.185672 
L 276.284376 238.851802 
L 280.10804 215.691424 
L 283.931704 212.893859 
L 287.755368 202.55274 
L 291.579032 193.240275 
L 295.402695 240.98925 
L 299.226359 216.327262 
L 303.050023 246.784092 
L 306.873687 245.728946 
L 310.69735 213.981507 
L 314.521014 210.680914 
L 318.344678 215.712444 
L 322.168342 221.55403 
L 325.992005 223.415077 
L 329.815669 188.178138 
L 333.639333 240.128594 
L 337.462997 203.174116 
L 341.286661 193.300148 
L 345.110324 184.936532 
L 348.933988 207.587088 
L 352.757652 201.442951 
L 356.581316 223.565301 
L 360.404979 185.172463 
L 364.228643 174.423905 
L 368.052307 183.266967 
L 371.875971 179.098184 
L 375.699635 194.941461 
L 379.523298 237.696856 
L 383.346962 185.511553 
L 387.170626 208.309594 
L 390.99429 171.989477 
L 394.817953 212.865644 
L 398.641617 202.643593 
L 402.465281 197.714181 
L 406.288945 184.115161 
L 410.112608 184.728856 
L 413.936272 197.314891 
L 417.759936 199.890021 
L 421.5836 195.981735 
L 425.407264 230.774992 
L 429.230927 192.554273 
L 433.054591 152.091831 
L 436.878255 183.008094 
L 440.701919 180.823744 
L 444.525582 225.19974 
L 448.349246 185.547828 
L 452.17291 196.203729 
L 455.996574 172.817187 
L 459.820238 190.270037 
L 463.643901 222.794374 
L 467.467565 194.789922 
L 471.291229 173.22003 
L 475.114893 178.667593 
L 478.938556 189.881104 
L 482.76222 196.345787 
L 486.585884 194.165509 
L 490.409548 193.432231 
L 494.233212 196.707203 
L 498.056875 177.202354 
L 501.880539 175.634673 
L 505.704203 174.279654 
L 509.527867 178.923375 
L 513.35153 186.468326 
L 517.175194 176.681232 
L 520.998858 207.785275 
L 524.822522 192.859956 
L 528.646185 182.043615 
L 532.469849 195.476912 
L 536.293513 196.646982 
L 540.117177 174.043354 
L 543.940841 178.531599 
L 547.764504 190.22394 
L 551.588168 198.624715 
L 555.411832 214.432708 
L 559.235496 187.255212 
L 563.059159 203.679385 
L 566.882823 228.925984 
L 570.706487 224.200751 
L 574.530151 183.0422 
L 578.353815 222.319325 
L 582.177478 166.306398 
L 586.001142 171.096532 
L 589.824806 178.58812 
L 593.64847 207.057031 
L 601.295797 180.271093 
L 605.119461 198.375972 
L 608.943125 188.161516 
L 612.766788 183.550686 
L 616.590452 184.029631 
L 620.414116 160.910513 
L 624.23778 184.397042 
L 628.061444 177.980654 
L 631.885107 175.297411 
L 635.708771 199.869456 
L 639.532435 214.497456 
L 643.356099 184.937654 
L 647.179762 224.118458 
L 651.003426 189.033588 
L 654.82709 200.554731 
L 658.650754 202.056555 
L 662.474418 173.751442 
L 666.298081 188.690735 
L 670.121745 215.431591 
L 673.945409 169.864749 
L 677.769073 178.461229 
L 681.592736 200.180039 
L 685.4164 191.303192 
L 689.240064 182.065459 
L 693.063728 168.179746 
L 696.887392 184.057416 
L 700.711055 163.265433 
L 704.534719 193.916611 
L 708.358383 174.16651 
L 712.182047 174.050463 
L 716.00571 176.123381 
L 719.829374 171.601232 
L 723.653038 199.789083 
L 727.476702 214.64863 
L 731.300365 193.534019 
L 735.124029 187.624142 
L 738.947693 188.69506 
L 742.771357 208.093485 
L 746.595021 177.768349 
L 750.418684 187.367597 
L 754.242348 187.297348 
L 758.066012 179.174738 
L 761.889676 195.380164 
L 765.713339 187.235513 
L 769.537003 187.197224 
L 773.360667 187.426562 
L 777.184331 188.908372 
L 781.007995 172.593734 
L 784.831658 178.152893 
L 788.655322 185.416717 
L 792.478986 191.057808 
L 796.30265 196.079699 
L 800.126313 187.246803 
L 803.949977 199.17567 
L 807.773641 191.970513 
L 811.597305 195.878085 
L 815.420968 189.626684 
L 819.244632 205.814328 
L 823.068296 214.236524 
L 826.89196 185.406841 
L 830.715624 228.437024 
L 834.539287 192.647429 
L 838.362951 184.280404 
L 842.186615 214.056553 
L 846.010279 182.599357 
L 849.833942 202.098205 
L 853.657606 184.262536 
L 857.48127 186.054225 
L 861.304934 199.005739 
L 865.128598 183.845774 
L 868.952261 189.705783 
L 872.775925 163.768611 
L 876.599589 187.583383 
L 880.423253 189.419636 
L 884.246916 173.677429 
L 888.07058 189.828576 
L 891.894244 195.531805 
L 895.717908 195.055039 
L 899.541571 178.693278 
L 903.365235 164.802348 
L 907.188899 181.863481 
L 911.012563 173.910659 
L 914.836227 203.092072 
L 918.65989 181.402495 
L 922.483554 211.282967 
L 926.307218 164.886775 
L 930.130882 193.50512 
L 933.954545 163.971708 
L 933.954545 163.971708 
" clip-path="url(#pb84bc07c09)" style="fill: none; stroke: #2ca02c; stroke-width: 1.5; stroke-linecap: square"/>
   </g>
   <g id="line2d_17">
    <path d="M 173.045455 603.883682 
L 176.869118 571.852403 
L 180.692782 536.696909 
L 188.34011 432.043126 
L 192.163773 389.928696 
L 195.987437 376.036621 
L 199.811101 390.209159 
L 203.634765 357.372338 
L 207.458429 322.202225 
L 211.282092 329.88072 
L 215.105756 367.801106 
L 218.92942 354.13113 
L 222.753084 295.253298 
L 226.576747 284.319801 
L 230.400411 291.382329 
L 234.224075 401.677811 
L 238.047739 241.29883 
L 241.871402 279.209412 
L 245.695066 263.697246 
L 249.51873 260.170532 
L 253.342394 283.061254 
L 257.166058 247.615219 
L 260.989721 199.329944 
L 264.813385 223.816685 
L 268.637049 252.190537 
L 272.460713 231.80778 
L 276.284376 300.882039 
L 280.10804 257.092713 
L 283.931704 255.560356 
L 287.755368 204.103391 
L 291.579032 237.606045 
L 295.402695 287.310839 
L 299.226359 254.601165 
L 303.050023 287.11514 
L 306.873687 276.428499 
L 310.69735 207.036254 
L 314.521014 246.477818 
L 318.344678 223.182231 
L 322.168342 223.525745 
L 325.992005 254.702472 
L 329.815669 194.029021 
L 333.639333 294.158111 
L 337.462997 223.16794 
L 341.286661 195.247968 
L 345.110324 198.006684 
L 348.933988 220.672792 
L 352.757652 195.319629 
L 356.581316 216.297667 
L 360.404979 189.041568 
L 364.228643 194.78635 
L 368.052307 206.787591 
L 371.875971 187.221245 
L 375.699635 208.901244 
L 379.523298 300.372498 
L 383.346962 184.085163 
L 387.170626 218.137736 
L 390.99429 177.340758 
L 394.817953 239.114699 
L 398.641617 219.96216 
L 402.465281 196.317805 
L 406.288945 186.875982 
L 410.112608 192.151407 
L 413.936272 204.021952 
L 417.759936 193.061842 
L 421.5836 213.026942 
L 425.407264 239.932663 
L 429.230927 187.168867 
L 433.054591 163.914806 
L 436.878255 205.606594 
L 440.701919 182.599194 
L 444.525582 213.690192 
L 448.349246 191.308411 
L 452.17291 227.33144 
L 455.996574 191.271786 
L 459.820238 182.133311 
L 463.643901 240.877199 
L 467.467565 221.121071 
L 471.291229 165.388106 
L 475.114893 187.57195 
L 478.938556 196.754629 
L 482.76222 187.203038 
L 486.585884 215.807674 
L 490.409548 182.619521 
L 494.233212 190.588728 
L 498.056875 191.764985 
L 501.880539 244.996126 
L 505.704203 196.03142 
L 509.527867 180.685223 
L 513.35153 200.271307 
L 517.175194 192.882315 
L 520.998858 213.916491 
L 524.822522 203.041011 
L 528.646185 183.455966 
L 532.469849 229.279313 
L 536.293513 216.899697 
L 540.117177 178.368189 
L 543.940841 190.157905 
L 547.764504 197.67631 
L 551.588168 212.684276 
L 555.411832 254.008661 
L 559.235496 186.519155 
L 563.059159 229.818747 
L 566.882823 216.390638 
L 570.706487 208.026278 
L 574.530151 185.753699 
L 578.353815 241.419415 
L 582.177478 180.727604 
L 586.001142 171.248474 
L 589.824806 182.278271 
L 593.64847 208.50855 
L 597.472133 181.310402 
L 601.295797 204.008273 
L 605.119461 206.085832 
L 608.943125 187.117195 
L 612.766788 177.184083 
L 616.590452 178.461265 
L 620.414116 165.52169 
L 624.23778 198.968163 
L 628.061444 186.859555 
L 631.885107 178.636556 
L 635.708771 206.339604 
L 639.532435 215.724352 
L 643.356099 230.530058 
L 647.179762 235.734853 
L 651.003426 203.503301 
L 654.82709 194.013992 
L 658.650754 196.54887 
L 662.474418 193.138187 
L 666.298081 175.364763 
L 670.121745 203.703534 
L 673.945409 177.180142 
L 677.769073 171.893604 
L 681.592736 194.924879 
L 685.4164 199.612152 
L 689.240064 196.724108 
L 693.063728 179.249817 
L 696.887392 189.827137 
L 700.711055 178.132287 
L 704.534719 185.39332 
L 708.358383 184.606926 
L 712.182047 187.297343 
L 716.00571 165.358421 
L 719.829374 182.408477 
L 727.476702 230.985263 
L 731.300365 181.932078 
L 735.124029 192.136345 
L 738.947693 186.084901 
L 742.771357 193.765158 
L 746.595021 181.385231 
L 750.418684 187.732552 
L 754.242348 192.287607 
L 758.066012 202.28771 
L 761.889676 204.517381 
L 765.713339 198.556946 
L 769.537003 176.459851 
L 773.360667 189.397941 
L 777.184331 196.568127 
L 781.007995 192.167939 
L 784.831658 175.656923 
L 788.655322 185.868398 
L 792.478986 201.847539 
L 796.30265 220.052575 
L 800.126313 186.20891 
L 803.949977 201.866783 
L 807.773641 188.683604 
L 811.597305 195.929043 
L 815.420968 198.342479 
L 819.244632 211.273562 
L 823.068296 231.047722 
L 826.89196 180.530455 
L 830.715624 211.709701 
L 834.539287 179.546388 
L 838.362951 179.130485 
L 842.186615 210.179377 
L 846.010279 192.423507 
L 849.833942 225.406021 
L 853.657606 196.99622 
L 857.48127 202.179935 
L 865.128598 195.417675 
L 868.952261 204.806094 
L 872.775925 182.85944 
L 876.599589 191.190644 
L 880.423253 197.388342 
L 884.246916 187.857821 
L 888.07058 189.061873 
L 891.894244 195.111089 
L 895.717908 197.032692 
L 899.541571 177.161375 
L 903.365235 172.474395 
L 907.188899 187.638382 
L 911.012563 172.601529 
L 914.836227 203.252237 
L 918.65989 185.360854 
L 922.483554 204.371075 
L 926.307218 177.161318 
L 930.130882 197.62155 
L 933.954545 172.915947 
L 933.954545 172.915947 
" clip-path="url(#pb84bc07c09)" style="fill: none; stroke: #d62728; stroke-width: 1.5; stroke-linecap: square"/>
   </g>
   <g id="patch_3">
    <path d="M 135 640.8 
L 135 86.4 
" style="fill: none; stroke: #000000; stroke-width: 0.8; stroke-linejoin: miter; stroke-linecap: square"/>
   </g>
   <g id="patch_4">
    <path d="M 972 640.8 
L 972 86.4 
" style="fill: none; stroke: #000000; stroke-width: 0.8; stroke-linejoin: miter; stroke-linecap: square"/>
   </g>
   <g id="patch_5">
    <path d="M 135 640.8 
L 972 640.8 
" style="fill: none; stroke: #000000; stroke-width: 0.8; stroke-linejoin: miter; stroke-linecap: square"/>
   </g>
   <g id="patch_6">
    <path d="M 135 86.4 
L 972 86.4 
" style="fill: none; stroke: #000000; stroke-width: 0.8; stroke-linejoin: miter; stroke-linecap: square"/>
   </g>
   <g id="legend_1">
    <g id="patch_7">
     <path d="M 852.2 153.1125 
L 965 153.1125 
Q 967 153.1125 967 151.1125 
L 967 93.4 
Q 967 91.4 965 91.4 
L 852.2 91.4 
Q 850.2 91.4 850.2 93.4 
L 850.2 151.1125 
Q 850.2 153.1125 852.2 153.1125 
z
" style="fill: #ffffff; opacity: 0.8; stroke: #cccccc; stroke-linejoin: miter"/>
    </g>
    <g id="line2d_18">
     <path d="M 854.2 99.498437 
L 864.2 99.498437 
L 874.2 99.498437 
" style="fill: none; stroke: #1f77b4; stroke-width: 1.5; stroke-linecap: square"/>
    </g>
    <g id="text_16">
     <!-- Accuracy -->
     <g transform="translate(882.2 102.998437) scale(0.1 -0.1)">
      <defs>
       <path id="DejaVuSans-41" d="M 2188 4044 
L 1331 1722 
L 3047 1722 
L 2188 4044 
z
M 1831 4666 
L 2547 4666 
L 4325 0 
L 3669 0 
L 3244 1197 
L 1141 1197 
L 716 0 
L 50 0 
L 1831 4666 
z
" transform="scale(0.015625)"/>
       <path id="DejaVuSans-75" d="M 544 1381 
L 544 3500 
L 1119 3500 
L 1119 1403 
Q 1119 906 1312 657 
Q 1506 409 1894 409 
Q 2359 409 2629 706 
Q 2900 1003 2900 1516 
L 2900 3500 
L 3475 3500 
L 3475 0 
L 2900 0 
L 2900 538 
Q 2691 219 2414 64 
Q 2138 -91 1772 -91 
Q 1169 -91 856 284 
Q 544 659 544 1381 
z
M 1991 3584 
L 1991 3584 
z
" transform="scale(0.015625)"/>
       <path id="DejaVuSans-61" d="M 2194 1759 
Q 1497 1759 1228 1600 
Q 959 1441 959 1056 
Q 959 750 1161 570 
Q 1363 391 1709 391 
Q 2188 391 2477 730 
Q 2766 1069 2766 1631 
L 2766 1759 
L 2194 1759 
z
M 3341 1997 
L 3341 0 
L 2766 0 
L 2766 531 
Q 2569 213 2275 61 
Q 1981 -91 1556 -91 
Q 1019 -91 701 211 
Q 384 513 384 1019 
Q 384 1609 779 1909 
Q 1175 2209 1959 2209 
L 2766 2209 
L 2766 2266 
Q 2766 2663 2505 2880 
Q 2244 3097 1772 3097 
Q 1472 3097 1187 3025 
Q 903 2953 641 2809 
L 641 3341 
Q 956 3463 1253 3523 
Q 1550 3584 1831 3584 
Q 2591 3584 2966 3190 
Q 3341 2797 3341 1997 
z
" transform="scale(0.015625)"/>
       <path id="DejaVuSans-79" d="M 2059 -325 
Q 1816 -950 1584 -1140 
Q 1353 -1331 966 -1331 
L 506 -1331 
L 506 -850 
L 844 -850 
Q 1081 -850 1212 -737 
Q 1344 -625 1503 -206 
L 1606 56 
L 191 3500 
L 800 3500 
L 1894 763 
L 2988 3500 
L 3597 3500 
L 2059 -325 
z
" transform="scale(0.015625)"/>
      </defs>
      <use xlink:href="#DejaVuSans-41"/>
      <use xlink:href="#DejaVuSans-63" x="66.658203"/>
      <use xlink:href="#DejaVuSans-63" x="121.638672"/>
      <use xlink:href="#DejaVuSans-75" x="176.619141"/>
      <use xlink:href="#DejaVuSans-72" x="239.998047"/>
      <use xlink:href="#DejaVuSans-61" x="281.111328"/>
      <use xlink:href="#DejaVuSans-63" x="342.390625"/>
      <use xlink:href="#DejaVuSans-79" x="397.371094"/>
     </g>
    </g>
    <g id="line2d_19">
     <path d="M 854.2 114.176562 
L 864.2 114.176562 
L 874.2 114.176562 
" style="fill: none; stroke: #ff7f0e; stroke-width: 1.5; stroke-linecap: square"/>
    </g>
    <g id="text_17">
     <!-- Precision Macro' -->
     <g transform="translate(882.2 117.676562) scale(0.1 -0.1)">
      <defs>
       <path id="DejaVuSans-50" d="M 1259 4147 
L 1259 2394 
L 2053 2394 
Q 2494 2394 2734 2622 
Q 2975 2850 2975 3272 
Q 2975 3691 2734 3919 
Q 2494 4147 2053 4147 
L 1259 4147 
z
M 628 4666 
L 2053 4666 
Q 2838 4666 3239 4311 
Q 3641 3956 3641 3272 
Q 3641 2581 3239 2228 
Q 2838 1875 2053 1875 
L 1259 1875 
L 1259 0 
L 628 0 
L 628 4666 
z
" transform="scale(0.015625)"/>
       <path id="DejaVuSans-69" d="M 603 3500 
L 1178 3500 
L 1178 0 
L 603 0 
L 603 3500 
z
M 603 4863 
L 1178 4863 
L 1178 4134 
L 603 4134 
L 603 4863 
z
" transform="scale(0.015625)"/>
       <path id="DejaVuSans-6e" d="M 3513 2113 
L 3513 0 
L 2938 0 
L 2938 2094 
Q 2938 2591 2744 2837 
Q 2550 3084 2163 3084 
Q 1697 3084 1428 2787 
Q 1159 2491 1159 1978 
L 1159 0 
L 581 0 
L 581 3500 
L 1159 3500 
L 1159 2956 
Q 1366 3272 1645 3428 
Q 1925 3584 2291 3584 
Q 2894 3584 3203 3211 
Q 3513 2838 3513 2113 
z
" transform="scale(0.015625)"/>
       <path id="DejaVuSans-20" transform="scale(0.015625)"/>
       <path id="DejaVuSans-4d" d="M 628 4666 
L 1569 4666 
L 2759 1491 
L 3956 4666 
L 4897 4666 
L 4897 0 
L 4281 0 
L 4281 4097 
L 3078 897 
L 2444 897 
L 1241 4097 
L 1241 0 
L 628 0 
L 628 4666 
z
" transform="scale(0.015625)"/>
       <path id="DejaVuSans-27" d="M 1147 4666 
L 1147 2931 
L 616 2931 
L 616 4666 
L 1147 4666 
z
" transform="scale(0.015625)"/>
      </defs>
      <use xlink:href="#DejaVuSans-50"/>
      <use xlink:href="#DejaVuSans-72" x="58.552734"/>
      <use xlink:href="#DejaVuSans-65" x="97.416016"/>
      <use xlink:href="#DejaVuSans-63" x="158.939453"/>
      <use xlink:href="#DejaVuSans-69" x="213.919922"/>
      <use xlink:href="#DejaVuSans-73" x="241.703125"/>
      <use xlink:href="#DejaVuSans-69" x="293.802734"/>
      <use xlink:href="#DejaVuSans-6f" x="321.585938"/>
      <use xlink:href="#DejaVuSans-6e" x="382.767578"/>
      <use xlink:href="#DejaVuSans-20" x="446.146484"/>
      <use xlink:href="#DejaVuSans-4d" x="477.933594"/>
      <use xlink:href="#DejaVuSans-61" x="564.212891"/>
      <use xlink:href="#DejaVuSans-63" x="625.492188"/>
      <use xlink:href="#DejaVuSans-72" x="680.472656"/>
      <use xlink:href="#DejaVuSans-6f" x="719.335938"/>
      <use xlink:href="#DejaVuSans-27" x="780.517578"/>
     </g>
    </g>
    <g id="line2d_20">
     <path d="M 854.2 128.854687 
L 864.2 128.854687 
L 874.2 128.854687 
" style="fill: none; stroke: #2ca02c; stroke-width: 1.5; stroke-linecap: square"/>
    </g>
    <g id="text_18">
     <!-- Recall Macro -->
     <g transform="translate(882.2 132.354687) scale(0.1 -0.1)">
      <defs>
       <path id="DejaVuSans-52" d="M 2841 2188 
Q 3044 2119 3236 1894 
Q 3428 1669 3622 1275 
L 4263 0 
L 3584 0 
L 2988 1197 
Q 2756 1666 2539 1819 
Q 2322 1972 1947 1972 
L 1259 1972 
L 1259 0 
L 628 0 
L 628 4666 
L 2053 4666 
Q 2853 4666 3247 4331 
Q 3641 3997 3641 3322 
Q 3641 2881 3436 2590 
Q 3231 2300 2841 2188 
z
M 1259 4147 
L 1259 2491 
L 2053 2491 
Q 2509 2491 2742 2702 
Q 2975 2913 2975 3322 
Q 2975 3731 2742 3939 
Q 2509 4147 2053 4147 
L 1259 4147 
z
" transform="scale(0.015625)"/>
       <path id="DejaVuSans-6c" d="M 603 4863 
L 1178 4863 
L 1178 0 
L 603 0 
L 603 4863 
z
" transform="scale(0.015625)"/>
      </defs>
      <use xlink:href="#DejaVuSans-52"/>
      <use xlink:href="#DejaVuSans-65" x="64.982422"/>
      <use xlink:href="#DejaVuSans-63" x="126.505859"/>
      <use xlink:href="#DejaVuSans-61" x="181.486328"/>
      <use xlink:href="#DejaVuSans-6c" x="242.765625"/>
      <use xlink:href="#DejaVuSans-6c" x="270.548828"/>
      <use xlink:href="#DejaVuSans-20" x="298.332031"/>
      <use xlink:href="#DejaVuSans-4d" x="330.119141"/>
      <use xlink:href="#DejaVuSans-61" x="416.398438"/>
      <use xlink:href="#DejaVuSans-63" x="477.677734"/>
      <use xlink:href="#DejaVuSans-72" x="532.658203"/>
      <use xlink:href="#DejaVuSans-6f" x="571.521484"/>
     </g>
    </g>
    <g id="line2d_21">
     <path d="M 854.2 143.532812 
L 864.2 143.532812 
L 874.2 143.532812 
" style="fill: none; stroke: #d62728; stroke-width: 1.5; stroke-linecap: square"/>
    </g>
    <g id="text_19">
     <!-- F1 Score Macro -->
     <g transform="translate(882.2 147.032812) scale(0.1 -0.1)">
      <defs>
       <path id="DejaVuSans-46" d="M 628 4666 
L 3309 4666 
L 3309 4134 
L 1259 4134 
L 1259 2759 
L 3109 2759 
L 3109 2228 
L 1259 2228 
L 1259 0 
L 628 0 
L 628 4666 
z
" transform="scale(0.015625)"/>
       <path id="DejaVuSans-53" d="M 3425 4513 
L 3425 3897 
Q 3066 4069 2747 4153 
Q 2428 4238 2131 4238 
Q 1616 4238 1336 4038 
Q 1056 3838 1056 3469 
Q 1056 3159 1242 3001 
Q 1428 2844 1947 2747 
L 2328 2669 
Q 3034 2534 3370 2195 
Q 3706 1856 3706 1288 
Q 3706 609 3251 259 
Q 2797 -91 1919 -91 
Q 1588 -91 1214 -16 
Q 841 59 441 206 
L 441 856 
Q 825 641 1194 531 
Q 1563 422 1919 422 
Q 2459 422 2753 634 
Q 3047 847 3047 1241 
Q 3047 1584 2836 1778 
Q 2625 1972 2144 2069 
L 1759 2144 
Q 1053 2284 737 2584 
Q 422 2884 422 3419 
Q 422 4038 858 4394 
Q 1294 4750 2059 4750 
Q 2388 4750 2728 4690 
Q 3069 4631 3425 4513 
z
" transform="scale(0.015625)"/>
      </defs>
      <use xlink:href="#DejaVuSans-46"/>
      <use xlink:href="#DejaVuSans-31" x="57.519531"/>
      <use xlink:href="#DejaVuSans-20" x="121.142578"/>
      <use xlink:href="#DejaVuSans-53" x="152.929688"/>
      <use xlink:href="#DejaVuSans-63" x="216.40625"/>
      <use xlink:href="#DejaVuSans-6f" x="271.386719"/>
      <use xlink:href="#DejaVuSans-72" x="332.568359"/>
      <use xlink:href="#DejaVuSans-65" x="371.431641"/>
      <use xlink:href="#DejaVuSans-20" x="432.955078"/>
      <use xlink:href="#DejaVuSans-4d" x="464.742188"/>
      <use xlink:href="#DejaVuSans-61" x="551.021484"/>
      <use xlink:href="#DejaVuSans-63" x="612.300781"/>
      <use xlink:href="#DejaVuSans-72" x="667.28125"/>
      <use xlink:href="#DejaVuSans-6f" x="706.144531"/>
     </g>
    </g>
   </g>
  </g>
 </g>
 <defs>
  <clipPath id="pb84bc07c09">
   <rect x="135" y="86.4" width="837" height="554.4"/>
  </clipPath>
 </defs>
</svg>
